G04 EAGLE Gerber RS-274X export*
G75*
%MOMM*%
%FSLAX34Y34*%
%LPD*%
%INCopper Layer 2*%
%IPPOS*%
%AMOC8*
5,1,8,0,0,1.08239X$1,22.5*%
G01*
%ADD10C,1.524000*%
%ADD11C,1.158000*%
%ADD12C,0.706400*%


D10*
X14290Y33539D03*
X14290Y58939D03*
X14290Y84339D03*
X14290Y109739D03*
X14290Y135139D03*
X14290Y160539D03*
X14290Y185939D03*
X14290Y211339D03*
X14290Y236739D03*
X14290Y262139D03*
X14290Y287539D03*
X14290Y312939D03*
X14290Y338339D03*
X14290Y363739D03*
X14290Y389139D03*
X14290Y414539D03*
X242570Y34330D03*
X242570Y59730D03*
X242570Y85130D03*
X242570Y110530D03*
X242570Y135930D03*
X242570Y161330D03*
X242570Y186730D03*
X242570Y212130D03*
X242570Y237530D03*
X242570Y262930D03*
X242570Y288330D03*
X242570Y313730D03*
X242570Y339130D03*
X242570Y364530D03*
X242570Y389930D03*
X242570Y415330D03*
D11*
X86340Y69740D03*
X172740Y69740D03*
X86340Y27940D03*
X172740Y27940D03*
D12*
X92075Y141605D03*
X179070Y419735D03*
X179070Y394335D03*
X179070Y365125D03*
X179070Y324485D03*
X153670Y324485D03*
X153670Y300355D03*
X97790Y319405D03*
X128270Y319405D03*
X82550Y262255D03*
X125730Y262255D03*
X82550Y234315D03*
X82550Y200025D03*
X58420Y188595D03*
X58420Y136525D03*
X58420Y85725D03*
X219710Y159385D03*
X219710Y128905D03*
X220980Y106045D03*
X85090Y380365D03*
X73660Y422275D03*
X41910Y267335D03*
X44450Y296545D03*
X212725Y212090D03*
X170180Y208915D03*
X141605Y110490D03*
X168275Y100965D03*
X145415Y139700D03*
X167005Y185420D03*
X127000Y55245D03*
X142240Y55245D03*
X104140Y106680D03*
X84455Y365760D03*
X109220Y308610D03*
X194310Y255270D03*
X173355Y130810D03*
X194310Y215265D03*
X121285Y303530D03*
X133350Y297180D03*
X85090Y167005D03*
X85090Y157480D03*
X38100Y240665D03*
X42545Y232410D03*
X62865Y320040D03*
X76200Y313055D03*
X97790Y225425D03*
X171450Y297180D03*
X140970Y259715D03*
M02*
