G04 EAGLE Gerber RS-274X export*
G75*
%MOMM*%
%FSLAX34Y34*%
%LPD*%
%INBottom Copper*%
%IPPOS*%
%AMOC8*
5,1,8,0,0,1.08239X$1,22.5*%
G01*
%ADD10C,1.879600*%
%ADD11R,2.368000X2.403600*%
%ADD12R,1.000000X1.400000*%
%ADD13R,3.600000X2.600000*%
%ADD14R,0.800000X0.600000*%
%ADD15R,0.540000X0.600000*%
%ADD16C,1.158000*%
%ADD17C,0.706400*%
%ADD18C,0.200000*%
%ADD19C,0.406400*%
%ADD20C,0.508000*%

G36*
X236465Y6749D02*
X236465Y6749D01*
X238875Y6999D01*
X238898Y7005D01*
X238922Y7005D01*
X239065Y7044D01*
X244205Y9008D01*
X244254Y9037D01*
X244308Y9056D01*
X244402Y9123D01*
X244416Y9131D01*
X244420Y9136D01*
X244429Y9142D01*
X248587Y12745D01*
X248624Y12789D01*
X248667Y12826D01*
X248732Y12920D01*
X248743Y12933D01*
X248745Y12939D01*
X248751Y12947D01*
X251427Y17756D01*
X251435Y17778D01*
X251449Y17798D01*
X251499Y17938D01*
X252170Y20611D01*
X252172Y20634D01*
X252185Y20689D01*
X252246Y21124D01*
X252245Y21149D01*
X252253Y21228D01*
X252253Y25321D01*
X252241Y25393D01*
X252239Y25466D01*
X252222Y25513D01*
X252214Y25561D01*
X252179Y25626D01*
X252153Y25695D01*
X252122Y25733D01*
X252099Y25776D01*
X252045Y25827D01*
X251998Y25884D01*
X251956Y25910D01*
X251921Y25943D01*
X251854Y25974D01*
X251791Y26013D01*
X251743Y26024D01*
X251698Y26044D01*
X251625Y26051D01*
X251554Y26068D01*
X251505Y26063D01*
X251455Y26068D01*
X251384Y26052D01*
X251311Y26044D01*
X251266Y26024D01*
X251218Y26013D01*
X251155Y25974D01*
X251088Y25944D01*
X251032Y25897D01*
X251010Y25884D01*
X251000Y25871D01*
X250974Y25850D01*
X250348Y25224D01*
X248827Y24119D01*
X247153Y23266D01*
X245366Y22685D01*
X244069Y22480D01*
X244069Y33580D01*
X244065Y33604D01*
X244068Y33628D01*
X244045Y33724D01*
X244029Y33821D01*
X244018Y33842D01*
X244012Y33866D01*
X243961Y33949D01*
X243914Y34036D01*
X243897Y34053D01*
X243884Y34073D01*
X243808Y34136D01*
X243736Y34203D01*
X243714Y34213D01*
X243695Y34228D01*
X243604Y34263D01*
X243514Y34303D01*
X243490Y34306D01*
X243467Y34315D01*
X243320Y34329D01*
X242569Y34329D01*
X242569Y34331D01*
X243320Y34331D01*
X243344Y34335D01*
X243368Y34332D01*
X243464Y34355D01*
X243561Y34371D01*
X243582Y34382D01*
X243606Y34388D01*
X243690Y34439D01*
X243776Y34486D01*
X243793Y34503D01*
X243813Y34516D01*
X243876Y34592D01*
X243943Y34664D01*
X243953Y34686D01*
X243968Y34705D01*
X244003Y34797D01*
X244044Y34886D01*
X244046Y34910D01*
X244055Y34933D01*
X244069Y35080D01*
X244069Y46180D01*
X245366Y45975D01*
X247153Y45394D01*
X248827Y44541D01*
X250348Y43436D01*
X250974Y42810D01*
X251034Y42767D01*
X251088Y42717D01*
X251132Y42696D01*
X251173Y42668D01*
X251243Y42646D01*
X251310Y42616D01*
X251359Y42611D01*
X251406Y42597D01*
X251479Y42599D01*
X251553Y42592D01*
X251601Y42603D01*
X251650Y42605D01*
X251719Y42630D01*
X251790Y42647D01*
X251832Y42673D01*
X251878Y42690D01*
X251935Y42737D01*
X251998Y42776D01*
X252029Y42814D01*
X252067Y42845D01*
X252106Y42907D01*
X252153Y42964D01*
X252170Y43010D01*
X252196Y43052D01*
X252213Y43124D01*
X252239Y43193D01*
X252246Y43266D01*
X252252Y43290D01*
X252250Y43306D01*
X252253Y43339D01*
X252253Y52157D01*
X252241Y52230D01*
X252239Y52303D01*
X252222Y52349D01*
X252214Y52398D01*
X252179Y52463D01*
X252153Y52532D01*
X252122Y52570D01*
X252099Y52613D01*
X252045Y52664D01*
X251998Y52720D01*
X251956Y52746D01*
X251921Y52780D01*
X251854Y52811D01*
X251791Y52849D01*
X251743Y52861D01*
X251698Y52881D01*
X251625Y52888D01*
X251554Y52905D01*
X251505Y52900D01*
X251455Y52905D01*
X251384Y52888D01*
X251311Y52881D01*
X251266Y52861D01*
X251218Y52850D01*
X251155Y52811D01*
X251088Y52781D01*
X251032Y52734D01*
X251010Y52721D01*
X251000Y52708D01*
X250974Y52687D01*
X248757Y50470D01*
X244743Y48807D01*
X240397Y48807D01*
X236383Y50470D01*
X233310Y53543D01*
X231647Y57557D01*
X231647Y61903D01*
X231951Y62636D01*
X231976Y62741D01*
X232007Y62873D01*
X232007Y62874D01*
X231995Y62988D01*
X231983Y63116D01*
X231983Y63117D01*
X231937Y63217D01*
X231935Y63225D01*
X231929Y63236D01*
X231882Y63339D01*
X231882Y63340D01*
X231811Y63426D01*
X231807Y63433D01*
X231803Y63436D01*
X231789Y63453D01*
X198561Y96681D01*
X198481Y96738D01*
X198406Y96800D01*
X198383Y96808D01*
X198362Y96823D01*
X198269Y96851D01*
X198178Y96886D01*
X198145Y96889D01*
X198129Y96894D01*
X198104Y96893D01*
X198031Y96900D01*
X171672Y96900D01*
X171576Y96884D01*
X171479Y96875D01*
X171456Y96865D01*
X171431Y96861D01*
X171345Y96815D01*
X171256Y96774D01*
X171231Y96753D01*
X171216Y96746D01*
X171199Y96727D01*
X171142Y96681D01*
X170370Y95908D01*
X166180Y95908D01*
X163218Y98870D01*
X163218Y103060D01*
X164499Y104340D01*
X164556Y104420D01*
X164618Y104495D01*
X164626Y104518D01*
X164641Y104538D01*
X164669Y104632D01*
X164704Y104723D01*
X164707Y104756D01*
X164712Y104772D01*
X164711Y104797D01*
X164715Y104842D01*
X164717Y104847D01*
X164716Y104850D01*
X164718Y104870D01*
X164718Y104896D01*
X164714Y104923D01*
X164716Y104946D01*
X164705Y104995D01*
X164704Y105016D01*
X164699Y105030D01*
X164693Y105090D01*
X164683Y105112D01*
X164679Y105137D01*
X164666Y105160D01*
X164661Y105183D01*
X164623Y105244D01*
X164592Y105312D01*
X164571Y105338D01*
X164564Y105352D01*
X164545Y105369D01*
X164545Y105370D01*
X164532Y105391D01*
X164520Y105401D01*
X164499Y105426D01*
X163211Y106714D01*
X163132Y106771D01*
X163057Y106833D01*
X163033Y106841D01*
X163013Y106856D01*
X162920Y106884D01*
X162828Y106919D01*
X162795Y106922D01*
X162779Y106927D01*
X162755Y106926D01*
X162681Y106933D01*
X145510Y106933D01*
X145414Y106917D01*
X145317Y106908D01*
X145294Y106898D01*
X145269Y106894D01*
X145183Y106848D01*
X145094Y106807D01*
X145069Y106786D01*
X145054Y106779D01*
X145037Y106760D01*
X144980Y106714D01*
X143700Y105433D01*
X139510Y105433D01*
X136548Y108395D01*
X136548Y112585D01*
X137829Y113865D01*
X137886Y113945D01*
X137948Y114020D01*
X137956Y114043D01*
X137971Y114063D01*
X137999Y114157D01*
X138034Y114248D01*
X138037Y114281D01*
X138042Y114297D01*
X138041Y114322D01*
X138048Y114395D01*
X138048Y137363D01*
X140139Y139454D01*
X140196Y139533D01*
X140258Y139608D01*
X140266Y139632D01*
X140281Y139652D01*
X140309Y139745D01*
X140344Y139837D01*
X140347Y139870D01*
X140352Y139886D01*
X140351Y139911D01*
X140358Y139984D01*
X140358Y141795D01*
X141639Y143075D01*
X141696Y143155D01*
X141758Y143230D01*
X141766Y143253D01*
X141781Y143273D01*
X141809Y143367D01*
X141844Y143458D01*
X141847Y143491D01*
X141852Y143507D01*
X141851Y143532D01*
X141858Y143605D01*
X141858Y175463D01*
X155372Y188977D01*
X163100Y188977D01*
X163196Y188993D01*
X163293Y189002D01*
X163316Y189012D01*
X163341Y189016D01*
X163427Y189062D01*
X163516Y189103D01*
X163541Y189124D01*
X163556Y189131D01*
X163573Y189150D01*
X163630Y189196D01*
X164910Y190477D01*
X169100Y190477D01*
X172062Y187515D01*
X172062Y183325D01*
X169100Y180363D01*
X164910Y180363D01*
X163630Y181644D01*
X163550Y181701D01*
X163475Y181763D01*
X163452Y181771D01*
X163432Y181786D01*
X163338Y181814D01*
X163247Y181849D01*
X163214Y181852D01*
X163198Y181857D01*
X163173Y181856D01*
X163100Y181863D01*
X158629Y181863D01*
X158532Y181847D01*
X158435Y181838D01*
X158413Y181828D01*
X158388Y181824D01*
X158302Y181778D01*
X158213Y181737D01*
X158187Y181716D01*
X158173Y181709D01*
X158156Y181690D01*
X158099Y181644D01*
X149191Y172736D01*
X149134Y172657D01*
X149072Y172582D01*
X149064Y172558D01*
X149049Y172538D01*
X149021Y172445D01*
X148986Y172353D01*
X148983Y172320D01*
X148978Y172304D01*
X148979Y172279D01*
X148972Y172206D01*
X148972Y143605D01*
X148988Y143509D01*
X148997Y143412D01*
X149007Y143389D01*
X149011Y143364D01*
X149057Y143278D01*
X149098Y143189D01*
X149119Y143164D01*
X149126Y143149D01*
X149145Y143132D01*
X149191Y143075D01*
X150472Y141795D01*
X150472Y137605D01*
X147510Y134643D01*
X145911Y134643D01*
X145887Y134639D01*
X145862Y134642D01*
X145767Y134620D01*
X145670Y134604D01*
X145649Y134592D01*
X145625Y134586D01*
X145541Y134535D01*
X145455Y134489D01*
X145438Y134471D01*
X145417Y134458D01*
X145355Y134382D01*
X145288Y134311D01*
X145278Y134288D01*
X145262Y134269D01*
X145228Y134178D01*
X145187Y134088D01*
X145185Y134064D01*
X145176Y134041D01*
X145162Y133894D01*
X145162Y114796D01*
X145166Y114772D01*
X145163Y114747D01*
X145186Y114652D01*
X145201Y114555D01*
X145213Y114534D01*
X145219Y114510D01*
X145270Y114426D01*
X145316Y114340D01*
X145334Y114323D01*
X145347Y114302D01*
X145423Y114240D01*
X145494Y114173D01*
X145517Y114163D01*
X145536Y114147D01*
X145627Y114113D01*
X145717Y114072D01*
X145741Y114070D01*
X145764Y114061D01*
X145911Y114047D01*
X165938Y114047D01*
X168241Y111744D01*
X171832Y108153D01*
X171832Y105779D01*
X171836Y105755D01*
X171833Y105730D01*
X171855Y105635D01*
X171871Y105538D01*
X171883Y105517D01*
X171889Y105493D01*
X171940Y105409D01*
X171986Y105323D01*
X172004Y105306D01*
X172017Y105285D01*
X172093Y105223D01*
X172164Y105156D01*
X172187Y105146D01*
X172206Y105130D01*
X172297Y105096D01*
X172387Y105055D01*
X172411Y105053D01*
X172434Y105044D01*
X172581Y105030D01*
X201709Y105030D01*
X236994Y69744D01*
X237105Y69665D01*
X237192Y69602D01*
X237193Y69602D01*
X237303Y69568D01*
X237426Y69531D01*
X237552Y69535D01*
X237670Y69539D01*
X237671Y69539D01*
X237811Y69581D01*
X240397Y70653D01*
X244743Y70653D01*
X248757Y68990D01*
X250974Y66773D01*
X251034Y66730D01*
X251088Y66680D01*
X251132Y66659D01*
X251173Y66631D01*
X251243Y66609D01*
X251310Y66579D01*
X251359Y66574D01*
X251406Y66560D01*
X251479Y66562D01*
X251553Y66555D01*
X251601Y66566D01*
X251650Y66568D01*
X251719Y66594D01*
X251790Y66610D01*
X251832Y66636D01*
X251878Y66654D01*
X251935Y66700D01*
X251998Y66739D01*
X252029Y66777D01*
X252067Y66808D01*
X252106Y66871D01*
X252153Y66927D01*
X252170Y66973D01*
X252196Y67015D01*
X252213Y67087D01*
X252239Y67156D01*
X252246Y67229D01*
X252252Y67253D01*
X252250Y67270D01*
X252253Y67303D01*
X252253Y76121D01*
X252241Y76193D01*
X252239Y76266D01*
X252222Y76313D01*
X252214Y76361D01*
X252179Y76426D01*
X252153Y76495D01*
X252122Y76533D01*
X252099Y76576D01*
X252045Y76627D01*
X251998Y76684D01*
X251956Y76710D01*
X251921Y76743D01*
X251854Y76774D01*
X251791Y76813D01*
X251743Y76824D01*
X251698Y76844D01*
X251625Y76851D01*
X251554Y76868D01*
X251505Y76863D01*
X251455Y76868D01*
X251384Y76852D01*
X251311Y76844D01*
X251266Y76824D01*
X251218Y76813D01*
X251155Y76774D01*
X251088Y76744D01*
X251032Y76697D01*
X251010Y76684D01*
X251000Y76671D01*
X250974Y76650D01*
X250348Y76024D01*
X248827Y74919D01*
X247153Y74066D01*
X245366Y73485D01*
X244069Y73280D01*
X244069Y84380D01*
X244065Y84404D01*
X244068Y84428D01*
X244045Y84524D01*
X244029Y84621D01*
X244018Y84642D01*
X244012Y84666D01*
X243961Y84749D01*
X243914Y84836D01*
X243897Y84853D01*
X243884Y84873D01*
X243808Y84936D01*
X243736Y85003D01*
X243714Y85013D01*
X243695Y85028D01*
X243604Y85063D01*
X243514Y85103D01*
X243490Y85106D01*
X243467Y85115D01*
X243320Y85129D01*
X242569Y85129D01*
X242569Y85131D01*
X243320Y85131D01*
X243344Y85135D01*
X243368Y85132D01*
X243464Y85155D01*
X243561Y85171D01*
X243582Y85182D01*
X243606Y85188D01*
X243690Y85239D01*
X243776Y85286D01*
X243793Y85303D01*
X243813Y85316D01*
X243876Y85392D01*
X243943Y85464D01*
X243953Y85486D01*
X243968Y85505D01*
X244003Y85597D01*
X244044Y85686D01*
X244046Y85710D01*
X244055Y85733D01*
X244069Y85880D01*
X244069Y96980D01*
X245366Y96775D01*
X247153Y96194D01*
X248827Y95341D01*
X250348Y94236D01*
X250974Y93610D01*
X251034Y93567D01*
X251088Y93517D01*
X251132Y93496D01*
X251173Y93468D01*
X251243Y93446D01*
X251310Y93416D01*
X251359Y93411D01*
X251406Y93397D01*
X251479Y93399D01*
X251553Y93392D01*
X251601Y93403D01*
X251650Y93405D01*
X251719Y93430D01*
X251790Y93447D01*
X251832Y93473D01*
X251878Y93490D01*
X251935Y93537D01*
X251998Y93576D01*
X252029Y93614D01*
X252067Y93645D01*
X252106Y93707D01*
X252153Y93764D01*
X252170Y93810D01*
X252196Y93852D01*
X252213Y93924D01*
X252239Y93993D01*
X252246Y94066D01*
X252252Y94090D01*
X252250Y94106D01*
X252253Y94139D01*
X252253Y102957D01*
X252241Y103030D01*
X252239Y103103D01*
X252222Y103149D01*
X252214Y103198D01*
X252179Y103263D01*
X252153Y103332D01*
X252122Y103370D01*
X252099Y103413D01*
X252045Y103464D01*
X251998Y103520D01*
X251956Y103546D01*
X251921Y103580D01*
X251854Y103611D01*
X251791Y103649D01*
X251743Y103661D01*
X251698Y103681D01*
X251625Y103688D01*
X251554Y103705D01*
X251505Y103700D01*
X251455Y103705D01*
X251384Y103688D01*
X251311Y103681D01*
X251266Y103661D01*
X251218Y103650D01*
X251155Y103611D01*
X251088Y103581D01*
X251032Y103534D01*
X251010Y103521D01*
X251000Y103508D01*
X250974Y103487D01*
X248757Y101270D01*
X244743Y99607D01*
X240397Y99607D01*
X236383Y101270D01*
X233310Y104343D01*
X231647Y108357D01*
X231647Y112703D01*
X233310Y116717D01*
X236383Y119790D01*
X240397Y121453D01*
X244743Y121453D01*
X248757Y119790D01*
X250974Y117573D01*
X251034Y117530D01*
X251088Y117480D01*
X251132Y117459D01*
X251173Y117431D01*
X251243Y117409D01*
X251310Y117379D01*
X251359Y117374D01*
X251406Y117360D01*
X251479Y117362D01*
X251553Y117355D01*
X251601Y117366D01*
X251650Y117368D01*
X251719Y117394D01*
X251790Y117410D01*
X251832Y117436D01*
X251878Y117454D01*
X251935Y117500D01*
X251998Y117539D01*
X252029Y117577D01*
X252067Y117608D01*
X252106Y117671D01*
X252153Y117727D01*
X252170Y117773D01*
X252196Y117815D01*
X252213Y117887D01*
X252239Y117956D01*
X252246Y118029D01*
X252252Y118053D01*
X252250Y118070D01*
X252253Y118103D01*
X252253Y128357D01*
X252241Y128430D01*
X252239Y128503D01*
X252222Y128549D01*
X252214Y128598D01*
X252179Y128663D01*
X252153Y128732D01*
X252122Y128770D01*
X252099Y128813D01*
X252045Y128864D01*
X251998Y128920D01*
X251956Y128946D01*
X251921Y128980D01*
X251854Y129011D01*
X251791Y129049D01*
X251743Y129061D01*
X251698Y129081D01*
X251625Y129088D01*
X251554Y129105D01*
X251505Y129100D01*
X251455Y129105D01*
X251384Y129088D01*
X251311Y129081D01*
X251266Y129061D01*
X251218Y129050D01*
X251155Y129011D01*
X251088Y128981D01*
X251032Y128934D01*
X251010Y128921D01*
X251000Y128908D01*
X250974Y128887D01*
X248757Y126670D01*
X244743Y125007D01*
X240397Y125007D01*
X236383Y126670D01*
X233310Y129743D01*
X231647Y133757D01*
X231647Y138103D01*
X233310Y142117D01*
X236383Y145190D01*
X240397Y146853D01*
X244743Y146853D01*
X248757Y145190D01*
X250974Y142973D01*
X251034Y142930D01*
X251088Y142880D01*
X251132Y142859D01*
X251173Y142831D01*
X251243Y142809D01*
X251310Y142779D01*
X251359Y142774D01*
X251406Y142760D01*
X251479Y142762D01*
X251553Y142755D01*
X251601Y142766D01*
X251650Y142768D01*
X251719Y142794D01*
X251790Y142810D01*
X251832Y142836D01*
X251878Y142854D01*
X251935Y142900D01*
X251998Y142939D01*
X252029Y142977D01*
X252067Y143008D01*
X252106Y143071D01*
X252153Y143127D01*
X252170Y143173D01*
X252196Y143215D01*
X252213Y143287D01*
X252239Y143356D01*
X252246Y143429D01*
X252252Y143453D01*
X252250Y143470D01*
X252253Y143503D01*
X252253Y153757D01*
X252241Y153830D01*
X252239Y153903D01*
X252222Y153949D01*
X252214Y153998D01*
X252179Y154063D01*
X252153Y154132D01*
X252122Y154170D01*
X252099Y154213D01*
X252045Y154264D01*
X251998Y154320D01*
X251956Y154346D01*
X251921Y154380D01*
X251854Y154411D01*
X251791Y154449D01*
X251743Y154461D01*
X251698Y154481D01*
X251625Y154488D01*
X251554Y154505D01*
X251505Y154500D01*
X251455Y154505D01*
X251384Y154488D01*
X251311Y154481D01*
X251266Y154461D01*
X251218Y154450D01*
X251155Y154411D01*
X251088Y154381D01*
X251032Y154334D01*
X251010Y154321D01*
X251000Y154308D01*
X250974Y154287D01*
X248757Y152070D01*
X244743Y150407D01*
X240397Y150407D01*
X236383Y152070D01*
X233310Y155143D01*
X231647Y159157D01*
X231647Y163503D01*
X233310Y167517D01*
X236383Y170590D01*
X240397Y172253D01*
X244743Y172253D01*
X248757Y170590D01*
X250974Y168373D01*
X251034Y168330D01*
X251088Y168280D01*
X251132Y168259D01*
X251173Y168231D01*
X251243Y168209D01*
X251310Y168179D01*
X251359Y168174D01*
X251406Y168160D01*
X251479Y168162D01*
X251553Y168155D01*
X251601Y168166D01*
X251650Y168168D01*
X251719Y168194D01*
X251790Y168210D01*
X251832Y168236D01*
X251878Y168254D01*
X251935Y168300D01*
X251998Y168339D01*
X252029Y168377D01*
X252067Y168408D01*
X252106Y168471D01*
X252153Y168527D01*
X252170Y168573D01*
X252196Y168615D01*
X252213Y168687D01*
X252239Y168756D01*
X252246Y168829D01*
X252252Y168853D01*
X252250Y168870D01*
X252253Y168903D01*
X252253Y179157D01*
X252241Y179230D01*
X252239Y179303D01*
X252222Y179349D01*
X252214Y179398D01*
X252179Y179463D01*
X252153Y179532D01*
X252122Y179570D01*
X252099Y179613D01*
X252045Y179664D01*
X251998Y179720D01*
X251956Y179746D01*
X251921Y179780D01*
X251854Y179811D01*
X251791Y179849D01*
X251743Y179861D01*
X251698Y179881D01*
X251625Y179888D01*
X251554Y179905D01*
X251505Y179900D01*
X251455Y179905D01*
X251384Y179888D01*
X251311Y179881D01*
X251266Y179861D01*
X251218Y179850D01*
X251155Y179811D01*
X251088Y179781D01*
X251032Y179734D01*
X251010Y179721D01*
X251000Y179708D01*
X250974Y179687D01*
X248757Y177470D01*
X244743Y175807D01*
X240397Y175807D01*
X236383Y177470D01*
X233310Y180543D01*
X231647Y184557D01*
X231647Y188903D01*
X233310Y192917D01*
X236383Y195990D01*
X240397Y197653D01*
X244743Y197653D01*
X248757Y195990D01*
X250974Y193773D01*
X251034Y193730D01*
X251088Y193680D01*
X251132Y193659D01*
X251173Y193631D01*
X251243Y193609D01*
X251310Y193579D01*
X251359Y193574D01*
X251406Y193560D01*
X251479Y193562D01*
X251553Y193555D01*
X251601Y193566D01*
X251650Y193568D01*
X251719Y193594D01*
X251790Y193610D01*
X251832Y193636D01*
X251878Y193654D01*
X251935Y193700D01*
X251998Y193739D01*
X252029Y193777D01*
X252067Y193808D01*
X252106Y193871D01*
X252153Y193927D01*
X252170Y193973D01*
X252196Y194015D01*
X252213Y194087D01*
X252239Y194156D01*
X252246Y194229D01*
X252252Y194253D01*
X252250Y194270D01*
X252253Y194303D01*
X252253Y204557D01*
X252250Y204578D01*
X252252Y204596D01*
X252241Y204642D01*
X252239Y204703D01*
X252222Y204749D01*
X252214Y204798D01*
X252198Y204827D01*
X252196Y204834D01*
X252183Y204855D01*
X252179Y204863D01*
X252153Y204932D01*
X252122Y204970D01*
X252099Y205013D01*
X252045Y205064D01*
X251998Y205120D01*
X251956Y205146D01*
X251921Y205180D01*
X251854Y205211D01*
X251791Y205249D01*
X251743Y205261D01*
X251698Y205281D01*
X251625Y205288D01*
X251554Y205305D01*
X251505Y205300D01*
X251455Y205305D01*
X251384Y205288D01*
X251311Y205281D01*
X251266Y205261D01*
X251218Y205250D01*
X251155Y205211D01*
X251088Y205181D01*
X251046Y205146D01*
X251038Y205142D01*
X251030Y205133D01*
X251010Y205121D01*
X251000Y205108D01*
X250974Y205087D01*
X248757Y202870D01*
X244743Y201207D01*
X240397Y201207D01*
X236383Y202870D01*
X233310Y205943D01*
X231647Y209957D01*
X231647Y214303D01*
X233333Y218372D01*
X233360Y218488D01*
X233388Y218609D01*
X233388Y218610D01*
X233376Y218734D01*
X233365Y218852D01*
X233365Y218853D01*
X233316Y218960D01*
X233264Y219075D01*
X233263Y219076D01*
X233171Y219189D01*
X207105Y245255D01*
X207025Y245312D01*
X206950Y245374D01*
X206927Y245382D01*
X206906Y245397D01*
X206813Y245425D01*
X206722Y245460D01*
X206689Y245463D01*
X206673Y245468D01*
X206648Y245467D01*
X206575Y245474D01*
X177061Y245474D01*
X176965Y245458D01*
X176868Y245449D01*
X176845Y245439D01*
X176821Y245435D01*
X176735Y245389D01*
X176646Y245348D01*
X176620Y245327D01*
X176605Y245320D01*
X176588Y245301D01*
X176532Y245255D01*
X154177Y222900D01*
X102727Y222900D01*
X102631Y222884D01*
X102534Y222875D01*
X102511Y222865D01*
X102486Y222861D01*
X102400Y222815D01*
X102311Y222774D01*
X102286Y222753D01*
X102271Y222746D01*
X102254Y222727D01*
X102197Y222681D01*
X99885Y220368D01*
X95695Y220368D01*
X92733Y223330D01*
X92733Y227520D01*
X95695Y230482D01*
X99885Y230482D01*
X102197Y228169D01*
X102277Y228112D01*
X102352Y228050D01*
X102375Y228042D01*
X102395Y228027D01*
X102489Y227999D01*
X102580Y227964D01*
X102613Y227961D01*
X102629Y227956D01*
X102654Y227957D01*
X102727Y227950D01*
X151775Y227950D01*
X151871Y227966D01*
X151968Y227975D01*
X151991Y227985D01*
X152016Y227989D01*
X152102Y228035D01*
X152191Y228076D01*
X152216Y228097D01*
X152231Y228104D01*
X152248Y228123D01*
X152305Y228169D01*
X174659Y250524D01*
X190096Y250524D01*
X190169Y250536D01*
X190242Y250538D01*
X190288Y250555D01*
X190337Y250563D01*
X190402Y250598D01*
X190470Y250624D01*
X190509Y250655D01*
X190552Y250678D01*
X190602Y250732D01*
X190659Y250779D01*
X190685Y250821D01*
X190719Y250856D01*
X190749Y250923D01*
X190788Y250986D01*
X190799Y251034D01*
X190820Y251079D01*
X190827Y251152D01*
X190844Y251223D01*
X190839Y251272D01*
X190844Y251322D01*
X190827Y251393D01*
X190820Y251466D01*
X190800Y251511D01*
X190789Y251559D01*
X190750Y251622D01*
X190720Y251689D01*
X190673Y251745D01*
X190660Y251767D01*
X190647Y251777D01*
X190626Y251803D01*
X189253Y253175D01*
X189253Y257365D01*
X192215Y260327D01*
X196405Y260327D01*
X197177Y259554D01*
X197257Y259497D01*
X197332Y259435D01*
X197355Y259427D01*
X197375Y259412D01*
X197469Y259384D01*
X197560Y259349D01*
X197593Y259346D01*
X197609Y259341D01*
X197634Y259342D01*
X197707Y259335D01*
X207556Y259335D01*
X207652Y259351D01*
X207749Y259360D01*
X207772Y259370D01*
X207797Y259374D01*
X207883Y259420D01*
X207972Y259461D01*
X207997Y259482D01*
X208012Y259489D01*
X208029Y259508D01*
X208086Y259554D01*
X217331Y268799D01*
X217388Y268879D01*
X217450Y268954D01*
X217458Y268977D01*
X217473Y268998D01*
X217501Y269091D01*
X217536Y269182D01*
X217539Y269215D01*
X217544Y269231D01*
X217543Y269256D01*
X217550Y269329D01*
X217550Y421551D01*
X217534Y421647D01*
X217525Y421744D01*
X217515Y421767D01*
X217511Y421792D01*
X217465Y421878D01*
X217424Y421967D01*
X217403Y421992D01*
X217396Y422007D01*
X217377Y422024D01*
X217331Y422081D01*
X209356Y430056D01*
X209276Y430113D01*
X209201Y430175D01*
X209178Y430183D01*
X209157Y430198D01*
X209064Y430226D01*
X208973Y430261D01*
X208940Y430264D01*
X208924Y430269D01*
X208899Y430268D01*
X208826Y430275D01*
X59779Y430275D01*
X59683Y430259D01*
X59586Y430250D01*
X59563Y430240D01*
X59538Y430236D01*
X59452Y430190D01*
X59363Y430149D01*
X59338Y430128D01*
X59323Y430121D01*
X59306Y430102D01*
X59249Y430056D01*
X52744Y423551D01*
X52687Y423471D01*
X52625Y423396D01*
X52617Y423373D01*
X52602Y423352D01*
X52574Y423259D01*
X52539Y423168D01*
X52536Y423135D01*
X52531Y423119D01*
X52532Y423094D01*
X52525Y423021D01*
X52525Y404054D01*
X52529Y404030D01*
X52526Y404005D01*
X52548Y403910D01*
X52564Y403813D01*
X52576Y403792D01*
X52582Y403768D01*
X52633Y403684D01*
X52679Y403598D01*
X52697Y403581D01*
X52710Y403560D01*
X52786Y403498D01*
X52857Y403431D01*
X52880Y403421D01*
X52899Y403405D01*
X52990Y403371D01*
X53080Y403330D01*
X53104Y403328D01*
X53127Y403319D01*
X53274Y403305D01*
X60201Y403305D01*
X60298Y403321D01*
X60394Y403330D01*
X60417Y403340D01*
X60442Y403344D01*
X60528Y403390D01*
X60617Y403431D01*
X60642Y403452D01*
X60657Y403459D01*
X60674Y403478D01*
X60731Y403524D01*
X61020Y403813D01*
X61599Y404148D01*
X62246Y404321D01*
X63931Y404321D01*
X63931Y399380D01*
X63935Y399356D01*
X63932Y399332D01*
X63954Y399236D01*
X63970Y399139D01*
X63982Y399118D01*
X63988Y399094D01*
X64039Y399011D01*
X64085Y398924D01*
X64103Y398908D01*
X64116Y398887D01*
X64192Y398824D01*
X64238Y398782D01*
X64224Y398774D01*
X64207Y398756D01*
X64186Y398744D01*
X64124Y398668D01*
X64057Y398596D01*
X64047Y398574D01*
X64031Y398555D01*
X63997Y398463D01*
X63956Y398374D01*
X63954Y398350D01*
X63945Y398327D01*
X63931Y398180D01*
X63931Y393239D01*
X62246Y393239D01*
X61599Y393412D01*
X61020Y393747D01*
X60731Y394036D01*
X60652Y394093D01*
X60576Y394155D01*
X60553Y394163D01*
X60533Y394178D01*
X60439Y394206D01*
X60348Y394241D01*
X60315Y394244D01*
X60299Y394249D01*
X60274Y394248D01*
X60201Y394255D01*
X53274Y394255D01*
X53250Y394251D01*
X53225Y394254D01*
X53130Y394232D01*
X53033Y394216D01*
X53012Y394204D01*
X52988Y394198D01*
X52904Y394147D01*
X52818Y394101D01*
X52801Y394083D01*
X52780Y394070D01*
X52718Y393994D01*
X52651Y393923D01*
X52641Y393900D01*
X52625Y393881D01*
X52591Y393790D01*
X52550Y393700D01*
X52548Y393676D01*
X52539Y393653D01*
X52525Y393506D01*
X52525Y389449D01*
X52529Y389425D01*
X52526Y389400D01*
X52548Y389305D01*
X52564Y389208D01*
X52576Y389187D01*
X52582Y389163D01*
X52633Y389079D01*
X52679Y388993D01*
X52697Y388976D01*
X52710Y388955D01*
X52786Y388893D01*
X52857Y388826D01*
X52880Y388816D01*
X52899Y388800D01*
X52990Y388766D01*
X53054Y388737D01*
X53985Y387807D01*
X53985Y380543D01*
X53056Y379614D01*
X53033Y379611D01*
X52968Y379576D01*
X52899Y379550D01*
X52861Y379519D01*
X52818Y379496D01*
X52767Y379442D01*
X52711Y379395D01*
X52684Y379353D01*
X52651Y379318D01*
X52620Y379251D01*
X52582Y379188D01*
X52570Y379140D01*
X52550Y379095D01*
X52543Y379022D01*
X52526Y378951D01*
X52531Y378902D01*
X52526Y378852D01*
X52543Y378781D01*
X52550Y378708D01*
X52570Y378663D01*
X52581Y378615D01*
X52620Y378552D01*
X52650Y378485D01*
X52697Y378429D01*
X52710Y378407D01*
X52723Y378397D01*
X52744Y378371D01*
X53627Y377488D01*
X53627Y374859D01*
X53631Y374835D01*
X53628Y374810D01*
X53650Y374715D01*
X53666Y374618D01*
X53678Y374597D01*
X53684Y374573D01*
X53735Y374489D01*
X53781Y374403D01*
X53799Y374386D01*
X53812Y374365D01*
X53888Y374303D01*
X53959Y374236D01*
X53982Y374226D01*
X54001Y374210D01*
X54092Y374176D01*
X54182Y374135D01*
X54206Y374133D01*
X54229Y374124D01*
X54376Y374110D01*
X55702Y374110D01*
X56595Y373217D01*
X56595Y357953D01*
X55702Y357060D01*
X44438Y357060D01*
X43545Y357953D01*
X43545Y373217D01*
X44438Y374110D01*
X45136Y374110D01*
X45209Y374122D01*
X45282Y374124D01*
X45328Y374141D01*
X45377Y374149D01*
X45442Y374184D01*
X45511Y374210D01*
X45549Y374241D01*
X45592Y374264D01*
X45643Y374318D01*
X45699Y374365D01*
X45726Y374407D01*
X45759Y374442D01*
X45790Y374509D01*
X45828Y374572D01*
X45840Y374620D01*
X45860Y374665D01*
X45867Y374738D01*
X45884Y374809D01*
X45879Y374858D01*
X45884Y374908D01*
X45867Y374979D01*
X45860Y375052D01*
X45840Y375097D01*
X45829Y375145D01*
X45790Y375208D01*
X45760Y375275D01*
X45713Y375331D01*
X45700Y375353D01*
X45687Y375363D01*
X45666Y375389D01*
X44703Y376352D01*
X44703Y378901D01*
X44699Y378925D01*
X44702Y378950D01*
X44680Y379045D01*
X44664Y379142D01*
X44652Y379163D01*
X44646Y379187D01*
X44595Y379271D01*
X44549Y379357D01*
X44531Y379374D01*
X44518Y379395D01*
X44442Y379457D01*
X44371Y379524D01*
X44348Y379534D01*
X44329Y379550D01*
X44238Y379584D01*
X44148Y379625D01*
X44124Y379627D01*
X44101Y379636D01*
X43954Y379650D01*
X43828Y379650D01*
X42935Y380543D01*
X42935Y387807D01*
X43864Y388736D01*
X43887Y388739D01*
X43908Y388751D01*
X43932Y388757D01*
X44016Y388808D01*
X44102Y388854D01*
X44119Y388872D01*
X44140Y388885D01*
X44202Y388961D01*
X44269Y389032D01*
X44279Y389055D01*
X44295Y389074D01*
X44329Y389165D01*
X44370Y389255D01*
X44372Y389279D01*
X44381Y389302D01*
X44395Y389449D01*
X44395Y426699D01*
X56101Y438405D01*
X212504Y438405D01*
X225680Y425229D01*
X225680Y265651D01*
X211234Y251205D01*
X210104Y251205D01*
X210032Y251193D01*
X209958Y251191D01*
X209912Y251174D01*
X209863Y251166D01*
X209799Y251131D01*
X209730Y251105D01*
X209692Y251074D01*
X209648Y251051D01*
X209598Y250997D01*
X209541Y250950D01*
X209515Y250908D01*
X209481Y250873D01*
X209451Y250806D01*
X209412Y250743D01*
X209401Y250695D01*
X209380Y250650D01*
X209373Y250577D01*
X209356Y250506D01*
X209361Y250457D01*
X209356Y250407D01*
X209373Y250336D01*
X209380Y250263D01*
X209400Y250218D01*
X209412Y250170D01*
X209450Y250107D01*
X209481Y250040D01*
X209527Y249984D01*
X209540Y249962D01*
X209553Y249952D01*
X209574Y249926D01*
X237251Y222250D01*
X237361Y222171D01*
X237448Y222108D01*
X237449Y222108D01*
X237559Y222074D01*
X237682Y222037D01*
X237807Y222041D01*
X237926Y222045D01*
X237927Y222045D01*
X238067Y222088D01*
X240397Y223053D01*
X244743Y223053D01*
X248757Y221390D01*
X250974Y219173D01*
X251034Y219130D01*
X251088Y219080D01*
X251132Y219059D01*
X251173Y219031D01*
X251243Y219009D01*
X251310Y218979D01*
X251359Y218974D01*
X251406Y218960D01*
X251479Y218962D01*
X251553Y218955D01*
X251601Y218966D01*
X251650Y218968D01*
X251719Y218994D01*
X251790Y219010D01*
X251832Y219036D01*
X251878Y219054D01*
X251935Y219100D01*
X251998Y219139D01*
X252029Y219177D01*
X252067Y219208D01*
X252106Y219271D01*
X252153Y219327D01*
X252170Y219373D01*
X252196Y219415D01*
X252213Y219487D01*
X252239Y219556D01*
X252246Y219629D01*
X252252Y219653D01*
X252250Y219670D01*
X252253Y219703D01*
X252253Y229957D01*
X252241Y230030D01*
X252239Y230103D01*
X252222Y230149D01*
X252214Y230198D01*
X252179Y230263D01*
X252153Y230332D01*
X252122Y230370D01*
X252099Y230413D01*
X252045Y230464D01*
X251998Y230520D01*
X251956Y230546D01*
X251921Y230580D01*
X251854Y230611D01*
X251791Y230649D01*
X251743Y230661D01*
X251698Y230681D01*
X251625Y230688D01*
X251554Y230705D01*
X251505Y230700D01*
X251455Y230705D01*
X251384Y230688D01*
X251311Y230681D01*
X251266Y230661D01*
X251218Y230650D01*
X251155Y230611D01*
X251088Y230581D01*
X251032Y230534D01*
X251010Y230521D01*
X251000Y230508D01*
X250974Y230487D01*
X248757Y228270D01*
X244743Y226607D01*
X240397Y226607D01*
X236383Y228270D01*
X233310Y231343D01*
X231647Y235357D01*
X231647Y239703D01*
X233310Y243717D01*
X236383Y246790D01*
X240397Y248453D01*
X244743Y248453D01*
X248757Y246790D01*
X250974Y244573D01*
X251034Y244530D01*
X251088Y244480D01*
X251132Y244459D01*
X251173Y244431D01*
X251243Y244409D01*
X251310Y244379D01*
X251359Y244374D01*
X251406Y244360D01*
X251479Y244362D01*
X251553Y244355D01*
X251601Y244366D01*
X251650Y244368D01*
X251719Y244394D01*
X251790Y244410D01*
X251832Y244436D01*
X251878Y244454D01*
X251935Y244500D01*
X251998Y244539D01*
X252029Y244577D01*
X252067Y244608D01*
X252106Y244671D01*
X252153Y244727D01*
X252170Y244773D01*
X252196Y244815D01*
X252213Y244887D01*
X252239Y244956D01*
X252246Y245029D01*
X252252Y245053D01*
X252250Y245070D01*
X252253Y245103D01*
X252253Y255357D01*
X252241Y255430D01*
X252239Y255503D01*
X252222Y255549D01*
X252214Y255598D01*
X252179Y255663D01*
X252153Y255732D01*
X252122Y255770D01*
X252099Y255813D01*
X252045Y255864D01*
X251998Y255920D01*
X251956Y255946D01*
X251921Y255980D01*
X251854Y256011D01*
X251791Y256049D01*
X251743Y256061D01*
X251698Y256081D01*
X251625Y256088D01*
X251554Y256105D01*
X251505Y256100D01*
X251455Y256105D01*
X251384Y256088D01*
X251311Y256081D01*
X251266Y256061D01*
X251218Y256050D01*
X251155Y256011D01*
X251088Y255981D01*
X251032Y255934D01*
X251010Y255921D01*
X251000Y255908D01*
X250974Y255887D01*
X248757Y253670D01*
X244743Y252007D01*
X240397Y252007D01*
X236383Y253670D01*
X233310Y256743D01*
X231647Y260757D01*
X231647Y265103D01*
X233310Y269117D01*
X236383Y272190D01*
X240397Y273853D01*
X244743Y273853D01*
X248757Y272190D01*
X250974Y269973D01*
X251034Y269930D01*
X251088Y269880D01*
X251132Y269859D01*
X251173Y269831D01*
X251243Y269809D01*
X251310Y269779D01*
X251359Y269774D01*
X251406Y269760D01*
X251479Y269762D01*
X251553Y269755D01*
X251601Y269766D01*
X251650Y269768D01*
X251719Y269794D01*
X251790Y269810D01*
X251832Y269836D01*
X251878Y269854D01*
X251935Y269900D01*
X251998Y269939D01*
X252029Y269977D01*
X252067Y270008D01*
X252106Y270071D01*
X252153Y270127D01*
X252170Y270173D01*
X252196Y270215D01*
X252213Y270287D01*
X252239Y270356D01*
X252246Y270429D01*
X252252Y270453D01*
X252250Y270470D01*
X252253Y270503D01*
X252253Y280757D01*
X252241Y280830D01*
X252239Y280903D01*
X252222Y280949D01*
X252214Y280998D01*
X252179Y281063D01*
X252153Y281132D01*
X252122Y281170D01*
X252099Y281213D01*
X252045Y281264D01*
X251998Y281320D01*
X251956Y281346D01*
X251921Y281380D01*
X251854Y281411D01*
X251791Y281449D01*
X251743Y281461D01*
X251698Y281481D01*
X251625Y281488D01*
X251554Y281505D01*
X251505Y281500D01*
X251455Y281505D01*
X251384Y281488D01*
X251311Y281481D01*
X251266Y281461D01*
X251218Y281450D01*
X251155Y281411D01*
X251088Y281381D01*
X251032Y281334D01*
X251010Y281321D01*
X251000Y281308D01*
X250974Y281287D01*
X248757Y279070D01*
X244743Y277407D01*
X240397Y277407D01*
X236383Y279070D01*
X233310Y282143D01*
X231647Y286157D01*
X231647Y290503D01*
X233310Y294517D01*
X236383Y297590D01*
X240397Y299253D01*
X244743Y299253D01*
X248757Y297590D01*
X250974Y295373D01*
X251034Y295330D01*
X251088Y295280D01*
X251132Y295259D01*
X251173Y295231D01*
X251243Y295209D01*
X251310Y295179D01*
X251359Y295174D01*
X251406Y295160D01*
X251479Y295162D01*
X251553Y295155D01*
X251601Y295166D01*
X251650Y295168D01*
X251719Y295194D01*
X251790Y295210D01*
X251832Y295236D01*
X251878Y295254D01*
X251935Y295300D01*
X251998Y295339D01*
X252029Y295377D01*
X252067Y295408D01*
X252106Y295471D01*
X252153Y295527D01*
X252170Y295573D01*
X252196Y295615D01*
X252213Y295687D01*
X252239Y295756D01*
X252246Y295829D01*
X252252Y295853D01*
X252250Y295870D01*
X252253Y295903D01*
X252253Y306157D01*
X252241Y306230D01*
X252239Y306303D01*
X252222Y306349D01*
X252214Y306398D01*
X252179Y306463D01*
X252153Y306532D01*
X252122Y306570D01*
X252099Y306613D01*
X252045Y306664D01*
X251998Y306720D01*
X251956Y306746D01*
X251921Y306780D01*
X251854Y306811D01*
X251791Y306849D01*
X251743Y306861D01*
X251698Y306881D01*
X251625Y306888D01*
X251554Y306905D01*
X251505Y306900D01*
X251455Y306905D01*
X251384Y306888D01*
X251311Y306881D01*
X251266Y306861D01*
X251218Y306850D01*
X251155Y306811D01*
X251088Y306781D01*
X251032Y306734D01*
X251010Y306721D01*
X251000Y306708D01*
X250974Y306687D01*
X248757Y304470D01*
X244743Y302807D01*
X240397Y302807D01*
X236383Y304470D01*
X233310Y307543D01*
X231647Y311557D01*
X231647Y315903D01*
X233310Y319917D01*
X236383Y322990D01*
X240397Y324653D01*
X244743Y324653D01*
X248757Y322990D01*
X250974Y320773D01*
X251034Y320730D01*
X251088Y320680D01*
X251132Y320659D01*
X251173Y320631D01*
X251243Y320609D01*
X251310Y320579D01*
X251359Y320574D01*
X251406Y320560D01*
X251479Y320562D01*
X251553Y320555D01*
X251601Y320566D01*
X251650Y320568D01*
X251719Y320594D01*
X251790Y320610D01*
X251832Y320636D01*
X251878Y320654D01*
X251935Y320700D01*
X251998Y320739D01*
X252029Y320777D01*
X252067Y320808D01*
X252106Y320871D01*
X252153Y320927D01*
X252170Y320973D01*
X252196Y321015D01*
X252213Y321087D01*
X252239Y321156D01*
X252246Y321229D01*
X252252Y321253D01*
X252250Y321270D01*
X252253Y321303D01*
X252253Y331557D01*
X252241Y331630D01*
X252239Y331703D01*
X252222Y331749D01*
X252214Y331798D01*
X252179Y331863D01*
X252153Y331932D01*
X252122Y331970D01*
X252099Y332013D01*
X252045Y332064D01*
X251998Y332120D01*
X251956Y332146D01*
X251921Y332180D01*
X251854Y332211D01*
X251791Y332249D01*
X251743Y332261D01*
X251698Y332281D01*
X251625Y332288D01*
X251554Y332305D01*
X251505Y332300D01*
X251455Y332305D01*
X251384Y332288D01*
X251311Y332281D01*
X251266Y332261D01*
X251218Y332250D01*
X251155Y332211D01*
X251088Y332181D01*
X251032Y332134D01*
X251010Y332121D01*
X251000Y332108D01*
X250974Y332087D01*
X248757Y329870D01*
X244743Y328207D01*
X240397Y328207D01*
X236383Y329870D01*
X233310Y332943D01*
X231647Y336957D01*
X231647Y341303D01*
X233310Y345317D01*
X236383Y348390D01*
X240397Y350053D01*
X244743Y350053D01*
X248757Y348390D01*
X250974Y346173D01*
X251034Y346130D01*
X251088Y346080D01*
X251132Y346059D01*
X251173Y346031D01*
X251243Y346009D01*
X251310Y345979D01*
X251359Y345974D01*
X251406Y345960D01*
X251479Y345962D01*
X251553Y345955D01*
X251601Y345966D01*
X251650Y345968D01*
X251719Y345994D01*
X251790Y346010D01*
X251832Y346036D01*
X251878Y346054D01*
X251935Y346100D01*
X251998Y346139D01*
X252029Y346177D01*
X252067Y346208D01*
X252106Y346271D01*
X252153Y346327D01*
X252170Y346373D01*
X252196Y346415D01*
X252213Y346487D01*
X252239Y346556D01*
X252246Y346629D01*
X252252Y346653D01*
X252250Y346670D01*
X252253Y346703D01*
X252253Y356957D01*
X252241Y357030D01*
X252239Y357103D01*
X252222Y357149D01*
X252214Y357198D01*
X252179Y357263D01*
X252153Y357332D01*
X252122Y357370D01*
X252099Y357413D01*
X252045Y357464D01*
X251998Y357520D01*
X251956Y357546D01*
X251921Y357580D01*
X251854Y357611D01*
X251791Y357649D01*
X251743Y357661D01*
X251698Y357681D01*
X251625Y357688D01*
X251554Y357705D01*
X251505Y357700D01*
X251455Y357705D01*
X251384Y357688D01*
X251311Y357681D01*
X251266Y357661D01*
X251218Y357650D01*
X251155Y357611D01*
X251088Y357581D01*
X251032Y357534D01*
X251010Y357521D01*
X251000Y357508D01*
X250974Y357487D01*
X248757Y355270D01*
X244743Y353607D01*
X240397Y353607D01*
X236383Y355270D01*
X233310Y358343D01*
X231647Y362357D01*
X231647Y366703D01*
X233310Y370717D01*
X236383Y373790D01*
X240397Y375453D01*
X244743Y375453D01*
X248757Y373790D01*
X250974Y371573D01*
X251034Y371530D01*
X251088Y371480D01*
X251132Y371459D01*
X251173Y371431D01*
X251243Y371409D01*
X251310Y371379D01*
X251359Y371374D01*
X251406Y371360D01*
X251479Y371362D01*
X251553Y371355D01*
X251601Y371366D01*
X251650Y371368D01*
X251719Y371394D01*
X251790Y371410D01*
X251832Y371436D01*
X251878Y371454D01*
X251935Y371500D01*
X251998Y371539D01*
X252029Y371577D01*
X252067Y371608D01*
X252106Y371671D01*
X252153Y371727D01*
X252170Y371773D01*
X252196Y371815D01*
X252213Y371887D01*
X252239Y371956D01*
X252246Y372029D01*
X252252Y372053D01*
X252250Y372070D01*
X252253Y372103D01*
X252253Y382357D01*
X252241Y382430D01*
X252239Y382503D01*
X252222Y382549D01*
X252214Y382598D01*
X252179Y382663D01*
X252153Y382732D01*
X252122Y382770D01*
X252099Y382813D01*
X252045Y382864D01*
X251998Y382920D01*
X251956Y382946D01*
X251921Y382980D01*
X251854Y383011D01*
X251791Y383049D01*
X251743Y383061D01*
X251698Y383081D01*
X251625Y383088D01*
X251554Y383105D01*
X251505Y383100D01*
X251455Y383105D01*
X251384Y383088D01*
X251311Y383081D01*
X251266Y383061D01*
X251218Y383050D01*
X251155Y383011D01*
X251088Y382981D01*
X251032Y382934D01*
X251010Y382921D01*
X251000Y382908D01*
X250974Y382887D01*
X248757Y380670D01*
X244743Y379007D01*
X240397Y379007D01*
X236383Y380670D01*
X233310Y383743D01*
X231647Y387757D01*
X231647Y392103D01*
X233310Y396117D01*
X236383Y399190D01*
X240397Y400853D01*
X244743Y400853D01*
X248757Y399190D01*
X250974Y396973D01*
X251034Y396930D01*
X251088Y396880D01*
X251132Y396859D01*
X251173Y396831D01*
X251243Y396809D01*
X251310Y396779D01*
X251359Y396774D01*
X251406Y396760D01*
X251479Y396762D01*
X251553Y396755D01*
X251601Y396766D01*
X251650Y396768D01*
X251719Y396794D01*
X251790Y396810D01*
X251832Y396836D01*
X251878Y396854D01*
X251935Y396900D01*
X251998Y396939D01*
X252029Y396977D01*
X252067Y397008D01*
X252106Y397071D01*
X252153Y397127D01*
X252170Y397173D01*
X252196Y397215D01*
X252213Y397287D01*
X252239Y397356D01*
X252246Y397429D01*
X252252Y397453D01*
X252250Y397470D01*
X252253Y397503D01*
X252253Y407757D01*
X252241Y407830D01*
X252239Y407903D01*
X252222Y407949D01*
X252214Y407998D01*
X252179Y408063D01*
X252153Y408132D01*
X252122Y408170D01*
X252099Y408213D01*
X252045Y408264D01*
X251998Y408320D01*
X251956Y408346D01*
X251921Y408380D01*
X251854Y408411D01*
X251791Y408449D01*
X251743Y408461D01*
X251698Y408481D01*
X251625Y408488D01*
X251554Y408505D01*
X251505Y408500D01*
X251455Y408505D01*
X251384Y408488D01*
X251311Y408481D01*
X251266Y408461D01*
X251218Y408450D01*
X251155Y408411D01*
X251088Y408381D01*
X251032Y408334D01*
X251010Y408321D01*
X251000Y408308D01*
X250974Y408287D01*
X248757Y406070D01*
X244743Y404407D01*
X240397Y404407D01*
X236383Y406070D01*
X233310Y409143D01*
X231647Y413157D01*
X231647Y417503D01*
X233310Y421517D01*
X236383Y424590D01*
X240397Y426253D01*
X244743Y426253D01*
X248757Y424590D01*
X250969Y422378D01*
X251047Y422322D01*
X251121Y422261D01*
X251146Y422251D01*
X251167Y422236D01*
X251259Y422208D01*
X251349Y422174D01*
X251376Y422173D01*
X251401Y422165D01*
X251497Y422168D01*
X251593Y422164D01*
X251618Y422172D01*
X251645Y422173D01*
X251735Y422207D01*
X251827Y422234D01*
X251848Y422249D01*
X251873Y422259D01*
X251948Y422320D01*
X252026Y422375D01*
X252041Y422397D01*
X252062Y422413D01*
X252113Y422495D01*
X252169Y422573D01*
X252177Y422598D01*
X252191Y422621D01*
X252213Y422714D01*
X252241Y422806D01*
X252243Y422841D01*
X252247Y422858D01*
X252244Y422883D01*
X252247Y422954D01*
X252185Y423968D01*
X252180Y423987D01*
X252181Y424006D01*
X252150Y424151D01*
X250191Y430270D01*
X250168Y430315D01*
X250154Y430363D01*
X250082Y430483D01*
X250080Y430487D01*
X250079Y430488D01*
X250078Y430490D01*
X246234Y435637D01*
X246197Y435672D01*
X246168Y435713D01*
X246061Y435803D01*
X246058Y435806D01*
X246057Y435807D01*
X246055Y435808D01*
X240744Y439424D01*
X240698Y439445D01*
X240657Y439474D01*
X240527Y439524D01*
X240523Y439526D01*
X240521Y439526D01*
X240520Y439527D01*
X234321Y441217D01*
X234302Y441219D01*
X234284Y441226D01*
X234137Y441243D01*
X231253Y441293D01*
X231248Y441292D01*
X231239Y441293D01*
X230800Y441292D01*
X230784Y441290D01*
X230752Y441291D01*
X229813Y441229D01*
X229807Y441233D01*
X229735Y441250D01*
X229666Y441276D01*
X229593Y441283D01*
X229569Y441289D01*
X229552Y441287D01*
X229519Y441290D01*
X229393Y441290D01*
X229381Y441288D01*
X228101Y441288D01*
X228100Y441288D01*
X226821Y441286D01*
X226801Y441288D01*
X25536Y441288D01*
X25465Y441277D01*
X25393Y441275D01*
X25345Y441257D01*
X25295Y441249D01*
X25243Y441221D01*
X24308Y441286D01*
X24291Y441285D01*
X24256Y441288D01*
X23257Y441288D01*
X23234Y441284D01*
X23177Y441284D01*
X20270Y440975D01*
X20246Y440968D01*
X20222Y440968D01*
X20080Y440929D01*
X13772Y438499D01*
X13723Y438470D01*
X13670Y438450D01*
X13576Y438384D01*
X13562Y438376D01*
X13558Y438371D01*
X13549Y438365D01*
X8453Y433924D01*
X8417Y433881D01*
X8374Y433843D01*
X8339Y433793D01*
X8323Y433776D01*
X8314Y433758D01*
X8308Y433749D01*
X8298Y433736D01*
X8296Y433731D01*
X8290Y433722D01*
X5020Y427806D01*
X5012Y427783D01*
X4998Y427763D01*
X4949Y427624D01*
X4133Y424338D01*
X4131Y424314D01*
X4118Y424258D01*
X4024Y423559D01*
X4024Y423535D01*
X4017Y423459D01*
X4017Y421522D01*
X4029Y421449D01*
X4031Y421376D01*
X4048Y421330D01*
X4056Y421281D01*
X4091Y421216D01*
X4117Y421147D01*
X4148Y421109D01*
X4171Y421066D01*
X4225Y421015D01*
X4272Y420959D01*
X4313Y420933D01*
X4349Y420899D01*
X4416Y420868D01*
X4479Y420830D01*
X4527Y420818D01*
X4572Y420798D01*
X4645Y420791D01*
X4716Y420774D01*
X4765Y420779D01*
X4815Y420774D01*
X4886Y420791D01*
X4959Y420798D01*
X5004Y420818D01*
X5052Y420829D01*
X5115Y420868D01*
X5182Y420898D01*
X5238Y420945D01*
X5260Y420958D01*
X5270Y420971D01*
X5296Y420992D01*
X8103Y423799D01*
X12117Y425462D01*
X16463Y425462D01*
X20477Y423799D01*
X23550Y420726D01*
X25213Y416712D01*
X25213Y412366D01*
X23550Y408352D01*
X20477Y405279D01*
X16463Y403616D01*
X12117Y403616D01*
X8103Y405279D01*
X5296Y408086D01*
X5236Y408129D01*
X5182Y408179D01*
X5138Y408200D01*
X5097Y408228D01*
X5027Y408250D01*
X4960Y408280D01*
X4911Y408285D01*
X4864Y408299D01*
X4791Y408297D01*
X4717Y408304D01*
X4669Y408293D01*
X4620Y408291D01*
X4551Y408265D01*
X4480Y408249D01*
X4438Y408223D01*
X4392Y408205D01*
X4335Y408159D01*
X4272Y408120D01*
X4241Y408082D01*
X4203Y408051D01*
X4164Y407988D01*
X4117Y407932D01*
X4100Y407886D01*
X4074Y407844D01*
X4057Y407772D01*
X4031Y407703D01*
X4024Y407630D01*
X4018Y407606D01*
X4020Y407589D01*
X4017Y407556D01*
X4017Y396122D01*
X4029Y396049D01*
X4031Y395976D01*
X4048Y395930D01*
X4056Y395881D01*
X4091Y395816D01*
X4117Y395747D01*
X4148Y395709D01*
X4171Y395666D01*
X4225Y395615D01*
X4272Y395559D01*
X4313Y395533D01*
X4349Y395499D01*
X4416Y395468D01*
X4479Y395430D01*
X4527Y395418D01*
X4572Y395398D01*
X4645Y395391D01*
X4716Y395374D01*
X4765Y395379D01*
X4815Y395374D01*
X4886Y395391D01*
X4959Y395398D01*
X5004Y395418D01*
X5052Y395429D01*
X5115Y395468D01*
X5182Y395498D01*
X5238Y395545D01*
X5260Y395558D01*
X5270Y395571D01*
X5296Y395592D01*
X8103Y398399D01*
X12117Y400062D01*
X16463Y400062D01*
X20477Y398399D01*
X23550Y395326D01*
X25213Y391312D01*
X25213Y386966D01*
X23550Y382952D01*
X20477Y379879D01*
X16463Y378216D01*
X12117Y378216D01*
X8103Y379879D01*
X5296Y382686D01*
X5236Y382729D01*
X5182Y382779D01*
X5138Y382800D01*
X5097Y382828D01*
X5027Y382850D01*
X4960Y382880D01*
X4911Y382885D01*
X4864Y382899D01*
X4791Y382897D01*
X4717Y382904D01*
X4669Y382893D01*
X4620Y382891D01*
X4551Y382865D01*
X4480Y382849D01*
X4438Y382823D01*
X4392Y382805D01*
X4335Y382759D01*
X4272Y382720D01*
X4241Y382682D01*
X4203Y382651D01*
X4164Y382588D01*
X4117Y382532D01*
X4100Y382486D01*
X4074Y382444D01*
X4057Y382372D01*
X4031Y382303D01*
X4024Y382230D01*
X4018Y382206D01*
X4020Y382189D01*
X4017Y382156D01*
X4017Y370722D01*
X4029Y370649D01*
X4031Y370576D01*
X4048Y370530D01*
X4056Y370481D01*
X4091Y370416D01*
X4117Y370347D01*
X4148Y370309D01*
X4171Y370266D01*
X4225Y370215D01*
X4272Y370159D01*
X4313Y370133D01*
X4349Y370099D01*
X4416Y370068D01*
X4479Y370030D01*
X4527Y370018D01*
X4572Y369998D01*
X4645Y369991D01*
X4716Y369974D01*
X4765Y369979D01*
X4815Y369974D01*
X4886Y369991D01*
X4959Y369998D01*
X5004Y370018D01*
X5052Y370029D01*
X5115Y370068D01*
X5182Y370098D01*
X5238Y370145D01*
X5260Y370158D01*
X5270Y370171D01*
X5296Y370192D01*
X8103Y372999D01*
X12117Y374662D01*
X16463Y374662D01*
X20477Y372999D01*
X23550Y369926D01*
X25213Y365912D01*
X25213Y361566D01*
X23887Y358366D01*
X23859Y358244D01*
X23832Y358129D01*
X23845Y357997D01*
X23856Y357886D01*
X23909Y357767D01*
X23956Y357664D01*
X23957Y357663D01*
X24050Y357550D01*
X36815Y344785D01*
X36815Y336636D01*
X36831Y336540D01*
X36840Y336443D01*
X36850Y336420D01*
X36854Y336395D01*
X36900Y336309D01*
X36941Y336221D01*
X36962Y336195D01*
X36969Y336180D01*
X36988Y336163D01*
X37034Y336106D01*
X38926Y334214D01*
X39006Y334157D01*
X39081Y334095D01*
X39104Y334087D01*
X39125Y334072D01*
X39218Y334044D01*
X39309Y334009D01*
X39342Y334006D01*
X39358Y334001D01*
X39383Y334002D01*
X39456Y333995D01*
X53195Y333995D01*
X53268Y334007D01*
X53341Y334009D01*
X53387Y334026D01*
X53436Y334034D01*
X53501Y334069D01*
X53569Y334095D01*
X53608Y334126D01*
X53651Y334149D01*
X53701Y334203D01*
X53758Y334250D01*
X53784Y334292D01*
X53818Y334327D01*
X53848Y334394D01*
X53887Y334457D01*
X53898Y334505D01*
X53919Y334550D01*
X53926Y334623D01*
X53943Y334694D01*
X53938Y334743D01*
X53943Y334793D01*
X53926Y334864D01*
X53919Y334937D01*
X53899Y334982D01*
X53888Y335030D01*
X53849Y335093D01*
X53819Y335160D01*
X53772Y335216D01*
X53759Y335238D01*
X53746Y335248D01*
X53725Y335274D01*
X53045Y335953D01*
X53045Y351217D01*
X53938Y352110D01*
X65202Y352110D01*
X66095Y351217D01*
X66095Y348399D01*
X66098Y348376D01*
X66096Y348355D01*
X66097Y348353D01*
X66096Y348350D01*
X66118Y348255D01*
X66134Y348158D01*
X66146Y348137D01*
X66152Y348113D01*
X66203Y348029D01*
X66249Y347943D01*
X66267Y347926D01*
X66280Y347905D01*
X66356Y347843D01*
X66427Y347776D01*
X66450Y347766D01*
X66469Y347750D01*
X66560Y347716D01*
X66650Y347675D01*
X66674Y347673D01*
X66697Y347664D01*
X66844Y347650D01*
X118706Y347650D01*
X118802Y347666D01*
X118899Y347675D01*
X118922Y347685D01*
X118947Y347689D01*
X119033Y347735D01*
X119122Y347776D01*
X119147Y347797D01*
X119162Y347804D01*
X119166Y347808D01*
X119166Y347809D01*
X119180Y347824D01*
X119236Y347869D01*
X122408Y351041D01*
X122451Y351101D01*
X122501Y351155D01*
X122521Y351199D01*
X122550Y351240D01*
X122571Y351310D01*
X122602Y351377D01*
X122607Y351426D01*
X122621Y351473D01*
X122618Y351546D01*
X122626Y351620D01*
X122615Y351668D01*
X122613Y351717D01*
X122587Y351786D01*
X122570Y351857D01*
X122544Y351899D01*
X122527Y351945D01*
X122481Y352002D01*
X122442Y352065D01*
X122404Y352096D01*
X122372Y352134D01*
X122310Y352173D01*
X122253Y352220D01*
X122207Y352237D01*
X122165Y352263D01*
X122094Y352280D01*
X122025Y352306D01*
X121952Y352313D01*
X121928Y352319D01*
X121911Y352317D01*
X121878Y352320D01*
X109003Y352320D01*
X108110Y353213D01*
X108110Y380477D01*
X109003Y381370D01*
X122821Y381370D01*
X122845Y381374D01*
X122870Y381371D01*
X122965Y381393D01*
X123062Y381409D01*
X123083Y381421D01*
X123107Y381427D01*
X123191Y381478D01*
X123277Y381524D01*
X123294Y381542D01*
X123315Y381555D01*
X123377Y381631D01*
X123444Y381702D01*
X123454Y381725D01*
X123470Y381744D01*
X123504Y381835D01*
X123545Y381925D01*
X123547Y381949D01*
X123556Y381972D01*
X123570Y382119D01*
X123570Y404274D01*
X132301Y413005D01*
X143831Y413005D01*
X143855Y413009D01*
X143880Y413006D01*
X143975Y413028D01*
X144072Y413044D01*
X144093Y413056D01*
X144117Y413062D01*
X144201Y413113D01*
X144287Y413159D01*
X144304Y413177D01*
X144325Y413190D01*
X144387Y413266D01*
X144454Y413337D01*
X144464Y413360D01*
X144480Y413379D01*
X144514Y413470D01*
X144555Y413560D01*
X144557Y413584D01*
X144566Y413607D01*
X144580Y413754D01*
X144580Y421450D01*
X145473Y422343D01*
X170417Y422343D01*
X171310Y421450D01*
X171310Y396150D01*
X170417Y395257D01*
X145473Y395257D01*
X144580Y396150D01*
X144580Y404126D01*
X144576Y404150D01*
X144579Y404175D01*
X144557Y404270D01*
X144541Y404367D01*
X144529Y404388D01*
X144523Y404412D01*
X144472Y404496D01*
X144426Y404582D01*
X144408Y404599D01*
X144395Y404620D01*
X144319Y404682D01*
X144248Y404749D01*
X144225Y404759D01*
X144206Y404775D01*
X144115Y404809D01*
X144025Y404850D01*
X144001Y404852D01*
X143978Y404861D01*
X143831Y404875D01*
X135979Y404875D01*
X135883Y404859D01*
X135786Y404850D01*
X135763Y404840D01*
X135738Y404836D01*
X135652Y404790D01*
X135563Y404749D01*
X135538Y404728D01*
X135523Y404721D01*
X135506Y404702D01*
X135449Y404656D01*
X131919Y401126D01*
X131862Y401046D01*
X131800Y400971D01*
X131792Y400948D01*
X131777Y400927D01*
X131749Y400834D01*
X131714Y400743D01*
X131711Y400710D01*
X131706Y400694D01*
X131707Y400669D01*
X131700Y400596D01*
X131700Y382119D01*
X131704Y382095D01*
X131701Y382071D01*
X131701Y382070D01*
X131723Y381975D01*
X131739Y381878D01*
X131751Y381857D01*
X131757Y381833D01*
X131808Y381749D01*
X131854Y381663D01*
X131872Y381646D01*
X131885Y381625D01*
X131961Y381563D01*
X132032Y381496D01*
X132055Y381486D01*
X132074Y381470D01*
X132165Y381436D01*
X132255Y381395D01*
X132279Y381393D01*
X132302Y381384D01*
X132449Y381370D01*
X146267Y381370D01*
X147160Y380477D01*
X147160Y353213D01*
X146267Y352320D01*
X132449Y352320D01*
X132425Y352316D01*
X132400Y352319D01*
X132305Y352297D01*
X132208Y352281D01*
X132187Y352269D01*
X132163Y352263D01*
X132079Y352212D01*
X131993Y352166D01*
X131976Y352148D01*
X131955Y352135D01*
X131893Y352059D01*
X131826Y351988D01*
X131816Y351965D01*
X131800Y351946D01*
X131766Y351855D01*
X131725Y351765D01*
X131723Y351741D01*
X131714Y351718D01*
X131700Y351571D01*
X131700Y348836D01*
X122384Y339520D01*
X66844Y339520D01*
X66820Y339516D01*
X66795Y339519D01*
X66700Y339497D01*
X66603Y339481D01*
X66582Y339469D01*
X66558Y339463D01*
X66474Y339412D01*
X66388Y339366D01*
X66371Y339348D01*
X66350Y339335D01*
X66288Y339259D01*
X66221Y339188D01*
X66211Y339165D01*
X66195Y339146D01*
X66161Y339055D01*
X66120Y338965D01*
X66118Y338941D01*
X66109Y338918D01*
X66095Y338771D01*
X66095Y335953D01*
X65415Y335274D01*
X65372Y335214D01*
X65322Y335160D01*
X65302Y335116D01*
X65273Y335075D01*
X65252Y335005D01*
X65221Y334938D01*
X65216Y334889D01*
X65202Y334842D01*
X65204Y334769D01*
X65197Y334695D01*
X65208Y334647D01*
X65210Y334598D01*
X65236Y334529D01*
X65252Y334458D01*
X65278Y334416D01*
X65296Y334370D01*
X65342Y334313D01*
X65381Y334250D01*
X65419Y334219D01*
X65450Y334181D01*
X65513Y334142D01*
X65570Y334095D01*
X65616Y334078D01*
X65658Y334052D01*
X65729Y334035D01*
X65798Y334009D01*
X65871Y334002D01*
X65895Y333996D01*
X65912Y333998D01*
X65945Y333995D01*
X135031Y333995D01*
X147940Y321086D01*
X147940Y284704D01*
X140111Y276875D01*
X76303Y276875D01*
X76207Y276859D01*
X76110Y276850D01*
X76087Y276840D01*
X76062Y276836D01*
X75976Y276790D01*
X75888Y276749D01*
X75862Y276728D01*
X75847Y276721D01*
X75830Y276702D01*
X75773Y276656D01*
X73246Y274129D01*
X73189Y274049D01*
X73127Y273974D01*
X73119Y273951D01*
X73104Y273930D01*
X73076Y273837D01*
X73041Y273746D01*
X73038Y273713D01*
X73033Y273697D01*
X73034Y273672D01*
X73027Y273599D01*
X73027Y171519D01*
X73043Y171423D01*
X73052Y171326D01*
X73062Y171303D01*
X73066Y171278D01*
X73112Y171192D01*
X73153Y171104D01*
X73174Y171078D01*
X73181Y171063D01*
X73200Y171046D01*
X73246Y170989D01*
X74486Y169749D01*
X74566Y169692D01*
X74641Y169630D01*
X74664Y169622D01*
X74685Y169607D01*
X74778Y169579D01*
X74869Y169544D01*
X74902Y169541D01*
X74918Y169536D01*
X74943Y169537D01*
X75016Y169530D01*
X80153Y169530D01*
X80249Y169546D01*
X80346Y169555D01*
X80369Y169565D01*
X80394Y169569D01*
X80480Y169615D01*
X80569Y169656D01*
X80594Y169677D01*
X80609Y169684D01*
X80626Y169703D01*
X80683Y169749D01*
X82995Y172062D01*
X87185Y172062D01*
X90147Y169100D01*
X90147Y164910D01*
X88009Y162772D01*
X87994Y162752D01*
X87975Y162737D01*
X87924Y162654D01*
X87866Y162574D01*
X87859Y162551D01*
X87846Y162530D01*
X87824Y162434D01*
X87796Y162340D01*
X87796Y162316D01*
X87791Y162292D01*
X87800Y162195D01*
X87803Y162097D01*
X87812Y162074D01*
X87814Y162049D01*
X87855Y161960D01*
X87889Y161868D01*
X87905Y161849D01*
X87915Y161827D01*
X88009Y161713D01*
X90147Y159575D01*
X90147Y155385D01*
X87185Y152423D01*
X82995Y152423D01*
X80033Y155385D01*
X80033Y158656D01*
X80017Y158752D01*
X80008Y158849D01*
X79998Y158872D01*
X79994Y158897D01*
X79948Y158983D01*
X79907Y159071D01*
X79886Y159097D01*
X79879Y159112D01*
X79860Y159129D01*
X79814Y159186D01*
X78549Y160451D01*
X78469Y160508D01*
X78394Y160570D01*
X78371Y160578D01*
X78350Y160593D01*
X78257Y160621D01*
X78166Y160656D01*
X78133Y160659D01*
X78117Y160664D01*
X78092Y160663D01*
X78019Y160670D01*
X69535Y160670D01*
X64198Y166007D01*
X64198Y218493D01*
X64186Y218565D01*
X64184Y218639D01*
X64167Y218685D01*
X64159Y218734D01*
X64124Y218798D01*
X64098Y218867D01*
X64067Y218905D01*
X64044Y218949D01*
X63990Y218999D01*
X63944Y219056D01*
X63902Y219082D01*
X63866Y219116D01*
X63799Y219146D01*
X63736Y219185D01*
X63688Y219196D01*
X63643Y219216D01*
X63570Y219224D01*
X63499Y219240D01*
X63450Y219236D01*
X63401Y219240D01*
X63329Y219224D01*
X63256Y219217D01*
X63211Y219196D01*
X63163Y219185D01*
X63100Y219146D01*
X63034Y219116D01*
X62977Y219070D01*
X62956Y219057D01*
X62945Y219044D01*
X62919Y219023D01*
X39528Y195631D01*
X39471Y195552D01*
X39409Y195477D01*
X39401Y195453D01*
X39386Y195433D01*
X39358Y195340D01*
X39323Y195249D01*
X39320Y195216D01*
X39315Y195200D01*
X39316Y195175D01*
X39309Y195102D01*
X39309Y175576D01*
X37097Y173364D01*
X37040Y173285D01*
X36978Y173210D01*
X36970Y173186D01*
X36955Y173166D01*
X36927Y173072D01*
X36892Y172981D01*
X36889Y172948D01*
X36884Y172932D01*
X36885Y172907D01*
X36878Y172834D01*
X36878Y132312D01*
X28956Y124391D01*
X28899Y124311D01*
X28837Y124236D01*
X28829Y124213D01*
X28814Y124192D01*
X28786Y124099D01*
X28751Y124008D01*
X28748Y123975D01*
X28743Y123959D01*
X28744Y123934D01*
X28737Y123861D01*
X28737Y103755D01*
X19929Y94947D01*
X19900Y94907D01*
X19865Y94874D01*
X19830Y94809D01*
X19787Y94749D01*
X19773Y94702D01*
X19750Y94659D01*
X19737Y94586D01*
X19716Y94515D01*
X19718Y94466D01*
X19710Y94418D01*
X19722Y94345D01*
X19724Y94272D01*
X19741Y94226D01*
X19749Y94177D01*
X19784Y94112D01*
X19810Y94043D01*
X19841Y94005D01*
X19864Y93962D01*
X19918Y93911D01*
X19964Y93854D01*
X20006Y93829D01*
X20042Y93795D01*
X20105Y93761D01*
X20108Y93759D01*
X20112Y93757D01*
X20171Y93726D01*
X20172Y93725D01*
X20477Y93599D01*
X23550Y90526D01*
X25213Y86512D01*
X25213Y82166D01*
X23550Y78152D01*
X20477Y75079D01*
X16463Y73416D01*
X12117Y73416D01*
X8103Y75079D01*
X5296Y77886D01*
X5236Y77929D01*
X5182Y77979D01*
X5138Y78000D01*
X5097Y78028D01*
X5027Y78050D01*
X4960Y78080D01*
X4911Y78085D01*
X4864Y78099D01*
X4791Y78097D01*
X4717Y78104D01*
X4669Y78093D01*
X4620Y78091D01*
X4551Y78065D01*
X4480Y78049D01*
X4438Y78023D01*
X4392Y78005D01*
X4335Y77959D01*
X4272Y77920D01*
X4241Y77882D01*
X4203Y77851D01*
X4164Y77788D01*
X4117Y77732D01*
X4100Y77686D01*
X4074Y77644D01*
X4057Y77572D01*
X4031Y77503D01*
X4024Y77430D01*
X4018Y77406D01*
X4020Y77389D01*
X4017Y77356D01*
X4017Y65922D01*
X4020Y65903D01*
X4018Y65888D01*
X4029Y65842D01*
X4031Y65776D01*
X4048Y65730D01*
X4056Y65681D01*
X4091Y65616D01*
X4117Y65547D01*
X4148Y65509D01*
X4171Y65466D01*
X4225Y65415D01*
X4272Y65359D01*
X4313Y65333D01*
X4349Y65299D01*
X4416Y65268D01*
X4479Y65230D01*
X4527Y65218D01*
X4572Y65198D01*
X4645Y65191D01*
X4716Y65174D01*
X4765Y65179D01*
X4815Y65174D01*
X4886Y65191D01*
X4959Y65198D01*
X5004Y65218D01*
X5052Y65229D01*
X5115Y65268D01*
X5182Y65298D01*
X5231Y65339D01*
X5236Y65342D01*
X5241Y65346D01*
X5260Y65358D01*
X5270Y65371D01*
X5296Y65392D01*
X8103Y68199D01*
X12117Y69862D01*
X16463Y69862D01*
X20477Y68199D01*
X23550Y65126D01*
X25213Y61112D01*
X25213Y56766D01*
X23550Y52752D01*
X20477Y49679D01*
X16463Y48016D01*
X12117Y48016D01*
X8103Y49679D01*
X5296Y52486D01*
X5236Y52529D01*
X5182Y52579D01*
X5138Y52600D01*
X5097Y52628D01*
X5027Y52650D01*
X4960Y52680D01*
X4911Y52685D01*
X4864Y52699D01*
X4791Y52697D01*
X4717Y52704D01*
X4669Y52693D01*
X4620Y52691D01*
X4551Y52665D01*
X4480Y52649D01*
X4438Y52623D01*
X4392Y52605D01*
X4335Y52559D01*
X4272Y52520D01*
X4241Y52482D01*
X4203Y52451D01*
X4164Y52388D01*
X4117Y52332D01*
X4100Y52286D01*
X4074Y52244D01*
X4057Y52172D01*
X4031Y52103D01*
X4024Y52030D01*
X4018Y52006D01*
X4020Y51989D01*
X4017Y51956D01*
X4017Y41958D01*
X4021Y41935D01*
X4018Y41912D01*
X4029Y41864D01*
X4031Y41813D01*
X4048Y41766D01*
X4056Y41718D01*
X4069Y41695D01*
X4074Y41674D01*
X4098Y41634D01*
X4117Y41584D01*
X4148Y41546D01*
X4171Y41503D01*
X4192Y41484D01*
X4202Y41467D01*
X4236Y41438D01*
X4272Y41395D01*
X4314Y41369D01*
X4349Y41336D01*
X4376Y41324D01*
X4391Y41312D01*
X4431Y41297D01*
X4479Y41266D01*
X4527Y41255D01*
X4572Y41235D01*
X4602Y41232D01*
X4619Y41225D01*
X4681Y41219D01*
X4716Y41211D01*
X4741Y41213D01*
X4766Y41211D01*
X4768Y41211D01*
X4785Y41214D01*
X4815Y41211D01*
X4886Y41227D01*
X4959Y41235D01*
X4987Y41247D01*
X5008Y41251D01*
X5026Y41260D01*
X5052Y41266D01*
X5115Y41305D01*
X5182Y41335D01*
X5210Y41358D01*
X5224Y41366D01*
X5239Y41382D01*
X5260Y41395D01*
X5270Y41408D01*
X5296Y41429D01*
X6512Y42645D01*
X8033Y43750D01*
X9707Y44603D01*
X11494Y45184D01*
X12791Y45389D01*
X12791Y34289D01*
X12795Y34265D01*
X12792Y34241D01*
X12815Y34145D01*
X12830Y34048D01*
X12842Y34027D01*
X12848Y34003D01*
X12899Y33920D01*
X12945Y33833D01*
X12963Y33816D01*
X12976Y33796D01*
X13052Y33733D01*
X13124Y33666D01*
X13146Y33656D01*
X13165Y33641D01*
X13256Y33606D01*
X13346Y33566D01*
X13370Y33563D01*
X13393Y33554D01*
X13540Y33540D01*
X14291Y33540D01*
X14291Y33538D01*
X13540Y33538D01*
X13516Y33534D01*
X13491Y33537D01*
X13396Y33514D01*
X13299Y33498D01*
X13278Y33487D01*
X13254Y33481D01*
X13170Y33430D01*
X13084Y33383D01*
X13067Y33366D01*
X13046Y33353D01*
X12984Y33277D01*
X12917Y33205D01*
X12907Y33183D01*
X12892Y33164D01*
X12857Y33072D01*
X12816Y32983D01*
X12814Y32959D01*
X12805Y32936D01*
X12791Y32789D01*
X12791Y21689D01*
X11494Y21894D01*
X9707Y22475D01*
X8033Y23328D01*
X6512Y24433D01*
X5537Y25408D01*
X5504Y25432D01*
X5476Y25462D01*
X5405Y25502D01*
X5339Y25550D01*
X5300Y25562D01*
X5264Y25582D01*
X5184Y25597D01*
X5106Y25621D01*
X5064Y25619D01*
X5024Y25627D01*
X4943Y25615D01*
X4862Y25613D01*
X4823Y25598D01*
X4782Y25592D01*
X4710Y25556D01*
X4633Y25527D01*
X4602Y25501D01*
X4565Y25482D01*
X4508Y25424D01*
X4445Y25372D01*
X4423Y25337D01*
X4394Y25308D01*
X4359Y25234D01*
X4316Y25165D01*
X4306Y25125D01*
X4288Y25088D01*
X4279Y25007D01*
X4260Y24928D01*
X4264Y24887D01*
X4259Y24846D01*
X4280Y24699D01*
X5610Y19277D01*
X5631Y19226D01*
X5638Y19196D01*
X5639Y19195D01*
X5645Y19169D01*
X5699Y19068D01*
X5706Y19052D01*
X5710Y19048D01*
X5715Y19039D01*
X9601Y13229D01*
X9640Y13187D01*
X9671Y13140D01*
X9756Y13063D01*
X9768Y13051D01*
X9773Y13048D01*
X9781Y13041D01*
X15419Y8911D01*
X15470Y8885D01*
X15516Y8851D01*
X15622Y8808D01*
X15637Y8801D01*
X15643Y8800D01*
X15653Y8796D01*
X22364Y6844D01*
X22388Y6841D01*
X22411Y6832D01*
X22557Y6814D01*
X25229Y6757D01*
X25235Y6758D01*
X25245Y6757D01*
X26350Y6757D01*
X26367Y6759D01*
X26400Y6758D01*
X27181Y6810D01*
X27237Y6797D01*
X27305Y6771D01*
X27379Y6764D01*
X27403Y6758D01*
X27420Y6760D01*
X27452Y6757D01*
X233865Y6757D01*
X233945Y6770D01*
X234025Y6774D01*
X234064Y6790D01*
X234106Y6796D01*
X234117Y6803D01*
X235117Y6757D01*
X235129Y6759D01*
X235151Y6757D01*
X236273Y6757D01*
X236289Y6752D01*
X236304Y6752D01*
X236318Y6749D01*
X236465Y6749D01*
G37*
G36*
X45895Y236631D02*
X45895Y236631D01*
X45944Y236633D01*
X46013Y236659D01*
X46084Y236675D01*
X46126Y236701D01*
X46172Y236719D01*
X46229Y236765D01*
X46292Y236804D01*
X46323Y236842D01*
X46361Y236873D01*
X46400Y236936D01*
X46447Y236993D01*
X46464Y237039D01*
X46490Y237081D01*
X46507Y237152D01*
X46533Y237221D01*
X46540Y237294D01*
X46546Y237318D01*
X46544Y237335D01*
X46547Y237368D01*
X46547Y287957D01*
X60121Y301530D01*
X60178Y301610D01*
X60240Y301685D01*
X60248Y301708D01*
X60263Y301729D01*
X60291Y301822D01*
X60326Y301913D01*
X60329Y301946D01*
X60334Y301962D01*
X60333Y301987D01*
X60340Y302060D01*
X60340Y315103D01*
X60324Y315199D01*
X60315Y315296D01*
X60305Y315319D01*
X60301Y315344D01*
X60255Y315430D01*
X60214Y315519D01*
X60193Y315544D01*
X60186Y315559D01*
X60167Y315576D01*
X60121Y315633D01*
X57808Y317945D01*
X57808Y322135D01*
X59816Y324142D01*
X59859Y324202D01*
X59909Y324256D01*
X59929Y324300D01*
X59958Y324341D01*
X59979Y324411D01*
X60010Y324478D01*
X60015Y324527D01*
X60029Y324574D01*
X60027Y324647D01*
X60034Y324721D01*
X60023Y324769D01*
X60021Y324818D01*
X59995Y324887D01*
X59979Y324958D01*
X59953Y325000D01*
X59935Y325046D01*
X59889Y325103D01*
X59850Y325166D01*
X59812Y325197D01*
X59781Y325235D01*
X59718Y325274D01*
X59661Y325321D01*
X59615Y325338D01*
X59573Y325364D01*
X59502Y325381D01*
X59433Y325407D01*
X59360Y325414D01*
X59336Y325420D01*
X59319Y325418D01*
X59286Y325421D01*
X35594Y325421D01*
X33896Y327120D01*
X25899Y335117D01*
X25859Y335145D01*
X25826Y335181D01*
X25761Y335216D01*
X25701Y335259D01*
X25654Y335273D01*
X25611Y335296D01*
X25538Y335308D01*
X25467Y335330D01*
X25418Y335328D01*
X25370Y335336D01*
X25297Y335324D01*
X25224Y335322D01*
X25178Y335304D01*
X25129Y335296D01*
X25064Y335262D01*
X24995Y335236D01*
X24957Y335205D01*
X24914Y335182D01*
X24863Y335128D01*
X24806Y335081D01*
X24780Y335039D01*
X24747Y335004D01*
X24678Y334875D01*
X24677Y334874D01*
X24677Y334873D01*
X23550Y332152D01*
X20477Y329079D01*
X16463Y327416D01*
X12117Y327416D01*
X8103Y329079D01*
X5296Y331886D01*
X5236Y331929D01*
X5182Y331979D01*
X5138Y332000D01*
X5097Y332028D01*
X5027Y332050D01*
X4960Y332080D01*
X4911Y332085D01*
X4864Y332099D01*
X4791Y332097D01*
X4717Y332104D01*
X4669Y332093D01*
X4620Y332091D01*
X4551Y332065D01*
X4480Y332049D01*
X4438Y332023D01*
X4392Y332005D01*
X4335Y331959D01*
X4272Y331920D01*
X4241Y331882D01*
X4203Y331851D01*
X4164Y331788D01*
X4117Y331732D01*
X4100Y331686D01*
X4074Y331644D01*
X4057Y331572D01*
X4031Y331503D01*
X4024Y331430D01*
X4018Y331406D01*
X4020Y331389D01*
X4017Y331356D01*
X4017Y319922D01*
X4020Y319901D01*
X4018Y319883D01*
X4029Y319837D01*
X4031Y319776D01*
X4048Y319730D01*
X4056Y319681D01*
X4072Y319651D01*
X4074Y319646D01*
X4086Y319625D01*
X4091Y319616D01*
X4117Y319547D01*
X4148Y319509D01*
X4171Y319466D01*
X4225Y319415D01*
X4272Y319359D01*
X4313Y319333D01*
X4349Y319299D01*
X4416Y319268D01*
X4479Y319230D01*
X4527Y319218D01*
X4572Y319198D01*
X4645Y319191D01*
X4716Y319174D01*
X4765Y319179D01*
X4815Y319174D01*
X4886Y319191D01*
X4959Y319198D01*
X5004Y319218D01*
X5052Y319229D01*
X5115Y319268D01*
X5182Y319298D01*
X5224Y319333D01*
X5232Y319337D01*
X5240Y319346D01*
X5260Y319358D01*
X5270Y319371D01*
X5296Y319392D01*
X8103Y322199D01*
X12117Y323862D01*
X16463Y323862D01*
X20477Y322199D01*
X23550Y319126D01*
X25213Y315112D01*
X25213Y310766D01*
X23550Y306752D01*
X20477Y303679D01*
X16463Y302016D01*
X12117Y302016D01*
X8103Y303679D01*
X5296Y306486D01*
X5236Y306529D01*
X5182Y306579D01*
X5138Y306600D01*
X5097Y306628D01*
X5027Y306650D01*
X4960Y306680D01*
X4911Y306685D01*
X4864Y306699D01*
X4791Y306697D01*
X4717Y306704D01*
X4669Y306693D01*
X4620Y306691D01*
X4551Y306665D01*
X4480Y306649D01*
X4438Y306623D01*
X4392Y306605D01*
X4335Y306559D01*
X4272Y306520D01*
X4241Y306482D01*
X4203Y306451D01*
X4164Y306388D01*
X4117Y306332D01*
X4100Y306286D01*
X4074Y306244D01*
X4057Y306172D01*
X4031Y306103D01*
X4024Y306030D01*
X4018Y306006D01*
X4020Y305989D01*
X4017Y305956D01*
X4017Y294522D01*
X4029Y294449D01*
X4031Y294376D01*
X4048Y294330D01*
X4056Y294281D01*
X4091Y294216D01*
X4117Y294147D01*
X4148Y294109D01*
X4171Y294066D01*
X4225Y294015D01*
X4272Y293959D01*
X4313Y293933D01*
X4349Y293899D01*
X4416Y293868D01*
X4479Y293830D01*
X4527Y293818D01*
X4572Y293798D01*
X4645Y293791D01*
X4716Y293774D01*
X4765Y293779D01*
X4815Y293774D01*
X4886Y293791D01*
X4959Y293798D01*
X5004Y293818D01*
X5052Y293829D01*
X5115Y293868D01*
X5182Y293898D01*
X5238Y293945D01*
X5260Y293958D01*
X5270Y293971D01*
X5296Y293992D01*
X8103Y296799D01*
X12117Y298462D01*
X16463Y298462D01*
X20477Y296799D01*
X23550Y293726D01*
X25213Y289712D01*
X25213Y285366D01*
X23550Y281352D01*
X20477Y278279D01*
X16463Y276616D01*
X12117Y276616D01*
X8103Y278279D01*
X5296Y281086D01*
X5236Y281129D01*
X5182Y281179D01*
X5138Y281200D01*
X5097Y281228D01*
X5027Y281250D01*
X4960Y281280D01*
X4911Y281285D01*
X4864Y281299D01*
X4791Y281297D01*
X4717Y281304D01*
X4669Y281293D01*
X4620Y281291D01*
X4551Y281265D01*
X4480Y281249D01*
X4438Y281223D01*
X4392Y281205D01*
X4335Y281159D01*
X4272Y281120D01*
X4241Y281082D01*
X4203Y281051D01*
X4164Y280988D01*
X4117Y280932D01*
X4100Y280886D01*
X4074Y280844D01*
X4057Y280772D01*
X4031Y280703D01*
X4024Y280630D01*
X4018Y280606D01*
X4020Y280589D01*
X4017Y280556D01*
X4017Y269122D01*
X4029Y269049D01*
X4031Y268976D01*
X4048Y268930D01*
X4056Y268881D01*
X4091Y268816D01*
X4117Y268747D01*
X4148Y268709D01*
X4171Y268666D01*
X4225Y268615D01*
X4272Y268559D01*
X4313Y268533D01*
X4349Y268499D01*
X4416Y268468D01*
X4479Y268430D01*
X4527Y268418D01*
X4572Y268398D01*
X4645Y268391D01*
X4716Y268374D01*
X4765Y268379D01*
X4815Y268374D01*
X4886Y268391D01*
X4959Y268398D01*
X5004Y268418D01*
X5052Y268429D01*
X5115Y268468D01*
X5182Y268498D01*
X5238Y268545D01*
X5260Y268558D01*
X5270Y268571D01*
X5296Y268592D01*
X8103Y271399D01*
X12117Y273062D01*
X16463Y273062D01*
X20477Y271399D01*
X23550Y268326D01*
X24875Y265126D01*
X24937Y265027D01*
X25004Y264919D01*
X25096Y264844D01*
X25192Y264764D01*
X25193Y264764D01*
X25325Y264714D01*
X25421Y264678D01*
X25422Y264678D01*
X25568Y264664D01*
X29737Y264664D01*
X31435Y262965D01*
X40625Y253776D01*
X40625Y245602D01*
X40641Y245506D01*
X40650Y245409D01*
X40660Y245386D01*
X40664Y245361D01*
X40710Y245275D01*
X40751Y245186D01*
X40772Y245161D01*
X40779Y245146D01*
X40798Y245129D01*
X40844Y245072D01*
X43157Y242760D01*
X43157Y238451D01*
X43138Y238410D01*
X43133Y238361D01*
X43119Y238314D01*
X43121Y238241D01*
X43114Y238167D01*
X43125Y238120D01*
X43127Y238070D01*
X43153Y238001D01*
X43169Y237930D01*
X43195Y237888D01*
X43213Y237842D01*
X43259Y237785D01*
X43298Y237722D01*
X43336Y237691D01*
X43367Y237653D01*
X43430Y237614D01*
X43487Y237567D01*
X43533Y237550D01*
X43574Y237524D01*
X43646Y237507D01*
X43715Y237481D01*
X43788Y237474D01*
X43812Y237468D01*
X43829Y237470D01*
X43862Y237467D01*
X44640Y237467D01*
X45268Y236838D01*
X45328Y236795D01*
X45382Y236745D01*
X45426Y236725D01*
X45467Y236696D01*
X45537Y236675D01*
X45604Y236644D01*
X45653Y236639D01*
X45700Y236625D01*
X45773Y236627D01*
X45847Y236620D01*
X45895Y236631D01*
G37*
G36*
X138714Y299387D02*
X138714Y299387D01*
X138763Y299389D01*
X138832Y299415D01*
X138903Y299431D01*
X138945Y299457D01*
X138991Y299475D01*
X139048Y299521D01*
X139111Y299560D01*
X139142Y299598D01*
X139180Y299629D01*
X139219Y299692D01*
X139266Y299749D01*
X139283Y299795D01*
X139309Y299837D01*
X139326Y299908D01*
X139352Y299977D01*
X139359Y300050D01*
X139365Y300074D01*
X139363Y300091D01*
X139366Y300124D01*
X139366Y317224D01*
X139350Y317320D01*
X139341Y317417D01*
X139331Y317440D01*
X139327Y317465D01*
X139281Y317551D01*
X139240Y317640D01*
X139219Y317665D01*
X139212Y317680D01*
X139193Y317697D01*
X139147Y317754D01*
X131699Y325202D01*
X131620Y325259D01*
X131544Y325321D01*
X131521Y325329D01*
X131501Y325344D01*
X131407Y325372D01*
X131316Y325407D01*
X131283Y325410D01*
X131267Y325415D01*
X131242Y325414D01*
X131169Y325421D01*
X66444Y325421D01*
X66371Y325409D01*
X66298Y325407D01*
X66252Y325390D01*
X66203Y325382D01*
X66138Y325347D01*
X66070Y325321D01*
X66031Y325290D01*
X65988Y325267D01*
X65938Y325213D01*
X65881Y325166D01*
X65855Y325124D01*
X65821Y325089D01*
X65791Y325022D01*
X65752Y324959D01*
X65741Y324911D01*
X65720Y324866D01*
X65713Y324793D01*
X65696Y324722D01*
X65701Y324673D01*
X65696Y324623D01*
X65713Y324552D01*
X65720Y324479D01*
X65740Y324434D01*
X65751Y324386D01*
X65790Y324323D01*
X65820Y324256D01*
X65867Y324200D01*
X65880Y324178D01*
X65893Y324168D01*
X65914Y324142D01*
X67922Y322135D01*
X67922Y317945D01*
X65609Y315633D01*
X65552Y315554D01*
X65490Y315478D01*
X65482Y315455D01*
X65467Y315435D01*
X65439Y315341D01*
X65404Y315250D01*
X65401Y315217D01*
X65396Y315201D01*
X65397Y315176D01*
X65390Y315103D01*
X65390Y302544D01*
X65402Y302472D01*
X65404Y302398D01*
X65421Y302352D01*
X65429Y302303D01*
X65464Y302239D01*
X65490Y302170D01*
X65521Y302132D01*
X65544Y302088D01*
X65598Y302038D01*
X65645Y301981D01*
X65687Y301955D01*
X65722Y301921D01*
X65789Y301891D01*
X65852Y301852D01*
X65900Y301841D01*
X65945Y301820D01*
X66018Y301813D01*
X66089Y301796D01*
X66138Y301801D01*
X66188Y301796D01*
X66259Y301813D01*
X66332Y301820D01*
X66377Y301840D01*
X66425Y301852D01*
X66488Y301890D01*
X66555Y301921D01*
X66611Y301967D01*
X66633Y301980D01*
X66643Y301993D01*
X66669Y302014D01*
X72849Y308195D01*
X72864Y308215D01*
X72883Y308230D01*
X72934Y308313D01*
X72991Y308393D01*
X72999Y308417D01*
X73012Y308437D01*
X73034Y308533D01*
X73062Y308627D01*
X73062Y308651D01*
X73067Y308675D01*
X73058Y308772D01*
X73054Y308871D01*
X73046Y308893D01*
X73043Y308918D01*
X73003Y309007D01*
X72969Y309099D01*
X72953Y309118D01*
X72943Y309140D01*
X72849Y309254D01*
X71143Y310960D01*
X71143Y315150D01*
X74105Y318112D01*
X78295Y318112D01*
X81257Y315150D01*
X81257Y310960D01*
X78944Y308648D01*
X78887Y308568D01*
X78825Y308493D01*
X78817Y308470D01*
X78802Y308450D01*
X78774Y308356D01*
X78739Y308265D01*
X78736Y308232D01*
X78731Y308216D01*
X78732Y308191D01*
X78725Y308118D01*
X78725Y308074D01*
X78729Y308050D01*
X78726Y308025D01*
X78748Y307930D01*
X78764Y307833D01*
X78776Y307812D01*
X78782Y307788D01*
X78833Y307704D01*
X78879Y307618D01*
X78897Y307601D01*
X78910Y307580D01*
X78986Y307518D01*
X79057Y307451D01*
X79080Y307441D01*
X79099Y307425D01*
X79190Y307391D01*
X79280Y307350D01*
X79304Y307348D01*
X79327Y307339D01*
X79474Y307325D01*
X103414Y307325D01*
X103438Y307329D01*
X103463Y307326D01*
X103558Y307348D01*
X103655Y307364D01*
X103676Y307376D01*
X103700Y307382D01*
X103784Y307433D01*
X103870Y307479D01*
X103887Y307497D01*
X103908Y307510D01*
X103970Y307586D01*
X104037Y307657D01*
X104047Y307680D01*
X104063Y307699D01*
X104097Y307790D01*
X104138Y307880D01*
X104140Y307904D01*
X104149Y307927D01*
X104163Y308074D01*
X104163Y310705D01*
X107125Y313667D01*
X111315Y313667D01*
X114277Y310705D01*
X114277Y306515D01*
X112841Y305080D01*
X112798Y305020D01*
X112748Y304966D01*
X112728Y304922D01*
X112699Y304881D01*
X112678Y304811D01*
X112647Y304744D01*
X112642Y304695D01*
X112628Y304648D01*
X112630Y304575D01*
X112623Y304501D01*
X112634Y304453D01*
X112636Y304404D01*
X112662Y304335D01*
X112678Y304264D01*
X112704Y304222D01*
X112722Y304176D01*
X112768Y304119D01*
X112807Y304056D01*
X112845Y304025D01*
X112876Y303987D01*
X112939Y303948D01*
X112996Y303901D01*
X113042Y303884D01*
X113084Y303858D01*
X113155Y303841D01*
X113224Y303815D01*
X113297Y303808D01*
X113321Y303802D01*
X113338Y303804D01*
X113371Y303801D01*
X115479Y303801D01*
X115503Y303805D01*
X115528Y303802D01*
X115623Y303824D01*
X115720Y303840D01*
X115741Y303852D01*
X115765Y303858D01*
X115849Y303909D01*
X115935Y303955D01*
X115952Y303973D01*
X115973Y303986D01*
X116035Y304062D01*
X116102Y304133D01*
X116112Y304156D01*
X116128Y304175D01*
X116162Y304266D01*
X116203Y304356D01*
X116205Y304380D01*
X116214Y304403D01*
X116228Y304550D01*
X116228Y305625D01*
X119190Y308587D01*
X123380Y308587D01*
X126342Y305625D01*
X126342Y301435D01*
X125890Y300984D01*
X125847Y300924D01*
X125797Y300870D01*
X125777Y300826D01*
X125748Y300785D01*
X125727Y300715D01*
X125696Y300648D01*
X125691Y300599D01*
X125677Y300552D01*
X125679Y300479D01*
X125672Y300405D01*
X125683Y300357D01*
X125685Y300308D01*
X125711Y300239D01*
X125727Y300168D01*
X125753Y300126D01*
X125771Y300080D01*
X125817Y300023D01*
X125856Y299960D01*
X125894Y299929D01*
X125925Y299891D01*
X125988Y299852D01*
X126045Y299805D01*
X126091Y299788D01*
X126133Y299762D01*
X126204Y299745D01*
X126273Y299719D01*
X126346Y299712D01*
X126370Y299706D01*
X126387Y299708D01*
X126420Y299705D01*
X128413Y299705D01*
X128509Y299721D01*
X128606Y299730D01*
X128629Y299740D01*
X128654Y299744D01*
X128740Y299790D01*
X128829Y299831D01*
X128854Y299852D01*
X128869Y299859D01*
X128886Y299878D01*
X128943Y299924D01*
X131255Y302237D01*
X135445Y302237D01*
X138087Y299594D01*
X138147Y299551D01*
X138201Y299501D01*
X138245Y299481D01*
X138286Y299452D01*
X138356Y299431D01*
X138423Y299400D01*
X138472Y299395D01*
X138519Y299381D01*
X138592Y299383D01*
X138666Y299376D01*
X138714Y299387D01*
G37*
%LPC*%
G36*
X124905Y50188D02*
X124905Y50188D01*
X121943Y53150D01*
X121943Y57555D01*
X121939Y57579D01*
X121942Y57604D01*
X121920Y57699D01*
X121904Y57796D01*
X121892Y57817D01*
X121886Y57841D01*
X121835Y57925D01*
X121789Y58011D01*
X121771Y58028D01*
X121758Y58049D01*
X121682Y58111D01*
X121611Y58178D01*
X121588Y58188D01*
X121569Y58204D01*
X121478Y58238D01*
X121388Y58279D01*
X121364Y58281D01*
X121341Y58290D01*
X121194Y58304D01*
X109301Y58304D01*
X108654Y58477D01*
X108075Y58812D01*
X107602Y59285D01*
X107267Y59864D01*
X107094Y60511D01*
X107094Y61881D01*
X107078Y61978D01*
X107069Y62075D01*
X107059Y62097D01*
X107055Y62122D01*
X107008Y62208D01*
X106968Y62297D01*
X106951Y62315D01*
X106940Y62337D01*
X106868Y62404D01*
X106801Y62475D01*
X106780Y62487D01*
X106762Y62504D01*
X106673Y62544D01*
X106586Y62591D01*
X106562Y62595D01*
X106539Y62605D01*
X106442Y62614D01*
X106346Y62630D01*
X106321Y62626D01*
X106296Y62629D01*
X106201Y62607D01*
X106105Y62591D01*
X106083Y62579D01*
X106059Y62574D01*
X105976Y62522D01*
X105889Y62476D01*
X105873Y62458D01*
X105851Y62445D01*
X105789Y62369D01*
X105722Y62298D01*
X105707Y62269D01*
X105697Y62256D01*
X105688Y62233D01*
X105653Y62168D01*
X105303Y61324D01*
X103756Y59777D01*
X101734Y58939D01*
X99546Y58939D01*
X97524Y59777D01*
X95977Y61324D01*
X95797Y61758D01*
X95784Y61779D01*
X95777Y61802D01*
X95720Y61882D01*
X95668Y61965D01*
X95649Y61981D01*
X95635Y62001D01*
X95555Y62058D01*
X95480Y62120D01*
X95457Y62129D01*
X95436Y62143D01*
X95343Y62171D01*
X95251Y62206D01*
X95227Y62207D01*
X95203Y62214D01*
X95105Y62211D01*
X95007Y62214D01*
X94984Y62207D01*
X94959Y62206D01*
X94867Y62172D01*
X94774Y62143D01*
X94754Y62129D01*
X94731Y62120D01*
X94655Y62058D01*
X94575Y62001D01*
X94561Y61981D01*
X94542Y61966D01*
X94490Y61883D01*
X94433Y61803D01*
X94426Y61780D01*
X94413Y61759D01*
X94376Y61636D01*
X94375Y61635D01*
X94375Y61634D01*
X94370Y61617D01*
X94351Y61520D01*
X93723Y60004D01*
X93459Y59609D01*
X92958Y58860D01*
X92811Y58640D01*
X91650Y57479D01*
X90286Y56567D01*
X88770Y55939D01*
X87839Y55754D01*
X87839Y68241D01*
X94671Y68241D01*
X94671Y68059D01*
X94683Y67986D01*
X94685Y67913D01*
X94702Y67867D01*
X94710Y67818D01*
X94745Y67753D01*
X94771Y67684D01*
X94802Y67646D01*
X94825Y67603D01*
X94879Y67553D01*
X94926Y67496D01*
X94968Y67470D01*
X95003Y67436D01*
X95070Y67406D01*
X95133Y67367D01*
X95181Y67356D01*
X95226Y67335D01*
X95299Y67328D01*
X95370Y67311D01*
X95419Y67316D01*
X95469Y67311D01*
X95540Y67328D01*
X95613Y67335D01*
X95658Y67355D01*
X95706Y67366D01*
X95769Y67405D01*
X95836Y67435D01*
X95892Y67482D01*
X95914Y67495D01*
X95924Y67508D01*
X95950Y67529D01*
X97524Y69103D01*
X99546Y69941D01*
X101734Y69941D01*
X103756Y69103D01*
X105303Y67556D01*
X105653Y66712D01*
X105704Y66629D01*
X105750Y66543D01*
X105769Y66526D01*
X105782Y66505D01*
X105857Y66443D01*
X105929Y66376D01*
X105951Y66366D01*
X105970Y66350D01*
X106062Y66316D01*
X106151Y66275D01*
X106175Y66273D01*
X106199Y66264D01*
X106296Y66261D01*
X106394Y66251D01*
X106418Y66257D01*
X106442Y66256D01*
X106536Y66284D01*
X106631Y66306D01*
X106652Y66319D01*
X106676Y66327D01*
X106755Y66383D01*
X106839Y66435D01*
X106854Y66454D01*
X106874Y66469D01*
X106931Y66548D01*
X106994Y66624D01*
X107002Y66647D01*
X107017Y66667D01*
X107045Y66760D01*
X107080Y66852D01*
X107083Y66884D01*
X107088Y66900D01*
X107087Y66925D01*
X107094Y66999D01*
X107094Y72346D01*
X126885Y72346D01*
X126909Y72350D01*
X126933Y72347D01*
X127029Y72370D01*
X127126Y72386D01*
X127147Y72397D01*
X127171Y72403D01*
X127254Y72454D01*
X127341Y72501D01*
X127358Y72518D01*
X127378Y72531D01*
X127441Y72607D01*
X127508Y72679D01*
X127518Y72701D01*
X127533Y72720D01*
X127568Y72811D01*
X127609Y72901D01*
X127611Y72925D01*
X127620Y72948D01*
X127634Y73095D01*
X127634Y73846D01*
X127636Y73846D01*
X127636Y73095D01*
X127640Y73071D01*
X127637Y73047D01*
X127660Y72951D01*
X127676Y72854D01*
X127687Y72833D01*
X127693Y72809D01*
X127744Y72725D01*
X127791Y72639D01*
X127808Y72622D01*
X127821Y72602D01*
X127897Y72539D01*
X127969Y72472D01*
X127991Y72462D01*
X128010Y72447D01*
X128101Y72412D01*
X128191Y72371D01*
X128215Y72369D01*
X128238Y72360D01*
X128385Y72346D01*
X148176Y72346D01*
X148176Y60511D01*
X148003Y59864D01*
X147668Y59285D01*
X147195Y58812D01*
X147172Y58799D01*
X147051Y58699D01*
X146983Y58644D01*
X146910Y58527D01*
X146854Y58437D01*
X146817Y58279D01*
X146799Y58199D01*
X146813Y58049D01*
X146822Y57956D01*
X146905Y57774D01*
X146923Y57734D01*
X146923Y57733D01*
X147017Y57620D01*
X147297Y57340D01*
X147297Y53150D01*
X144335Y50188D01*
X140145Y50188D01*
X137833Y52501D01*
X137753Y52558D01*
X137678Y52620D01*
X137655Y52628D01*
X137635Y52643D01*
X137541Y52671D01*
X137450Y52706D01*
X137417Y52709D01*
X137401Y52714D01*
X137376Y52713D01*
X137303Y52720D01*
X131937Y52720D01*
X131841Y52704D01*
X131744Y52695D01*
X131721Y52685D01*
X131696Y52681D01*
X131610Y52635D01*
X131521Y52594D01*
X131496Y52573D01*
X131481Y52566D01*
X131464Y52547D01*
X131407Y52501D01*
X129095Y50188D01*
X124905Y50188D01*
G37*
%LPD*%
%LPC*%
G36*
X171260Y125753D02*
X171260Y125753D01*
X168298Y128715D01*
X168298Y132905D01*
X169071Y133677D01*
X169128Y133757D01*
X169190Y133832D01*
X169198Y133855D01*
X169213Y133875D01*
X169241Y133969D01*
X169276Y134060D01*
X169279Y134093D01*
X169284Y134109D01*
X169283Y134134D01*
X169290Y134207D01*
X169290Y177579D01*
X190026Y198314D01*
X190083Y198394D01*
X190145Y198469D01*
X190153Y198492D01*
X190168Y198513D01*
X190196Y198606D01*
X190231Y198697D01*
X190234Y198730D01*
X190239Y198746D01*
X190238Y198771D01*
X190245Y198844D01*
X190245Y211868D01*
X190229Y211964D01*
X190220Y212061D01*
X190210Y212084D01*
X190206Y212109D01*
X190160Y212195D01*
X190119Y212284D01*
X190098Y212309D01*
X190091Y212324D01*
X190072Y212341D01*
X190026Y212398D01*
X189253Y213170D01*
X189253Y217360D01*
X192215Y220322D01*
X196405Y220322D01*
X199367Y217360D01*
X199367Y213170D01*
X198594Y212398D01*
X198537Y212318D01*
X198475Y212243D01*
X198467Y212220D01*
X198452Y212200D01*
X198424Y212106D01*
X198389Y212015D01*
X198386Y211982D01*
X198381Y211966D01*
X198382Y211941D01*
X198375Y211868D01*
X198375Y195166D01*
X177639Y174431D01*
X177582Y174351D01*
X177520Y174276D01*
X177512Y174253D01*
X177497Y174232D01*
X177469Y174139D01*
X177434Y174048D01*
X177431Y174015D01*
X177426Y173999D01*
X177427Y173974D01*
X177420Y173901D01*
X177420Y134207D01*
X177436Y134111D01*
X177445Y134014D01*
X177455Y133991D01*
X177459Y133966D01*
X177505Y133880D01*
X177546Y133791D01*
X177567Y133766D01*
X177574Y133751D01*
X177593Y133734D01*
X177639Y133677D01*
X178412Y132905D01*
X178412Y128715D01*
X175450Y125753D01*
X171260Y125753D01*
G37*
%LPD*%
%LPC*%
G36*
X168085Y203858D02*
X168085Y203858D01*
X165123Y206820D01*
X165123Y211010D01*
X167436Y213322D01*
X167493Y213402D01*
X167555Y213477D01*
X167563Y213500D01*
X167578Y213520D01*
X167606Y213614D01*
X167641Y213705D01*
X167644Y213738D01*
X167649Y213754D01*
X167648Y213779D01*
X167655Y213852D01*
X167655Y232821D01*
X178659Y243825D01*
X204246Y243825D01*
X215250Y232821D01*
X215250Y217027D01*
X215266Y216931D01*
X215275Y216834D01*
X215285Y216811D01*
X215289Y216786D01*
X215335Y216700D01*
X215376Y216611D01*
X215397Y216586D01*
X215404Y216571D01*
X215423Y216554D01*
X215469Y216497D01*
X217782Y214185D01*
X217782Y209995D01*
X214820Y207033D01*
X210630Y207033D01*
X207668Y209995D01*
X207668Y214185D01*
X209981Y216497D01*
X210038Y216577D01*
X210100Y216652D01*
X210108Y216675D01*
X210123Y216695D01*
X210151Y216789D01*
X210186Y216880D01*
X210189Y216913D01*
X210194Y216929D01*
X210193Y216954D01*
X210200Y217027D01*
X210200Y230419D01*
X210184Y230515D01*
X210175Y230612D01*
X210165Y230635D01*
X210161Y230660D01*
X210115Y230746D01*
X210074Y230834D01*
X210053Y230860D01*
X210046Y230875D01*
X210027Y230892D01*
X209981Y230949D01*
X202374Y238556D01*
X202294Y238613D01*
X202219Y238675D01*
X202196Y238683D01*
X202175Y238698D01*
X202082Y238726D01*
X201991Y238761D01*
X201958Y238764D01*
X201942Y238769D01*
X201917Y238768D01*
X201844Y238775D01*
X181061Y238775D01*
X180965Y238759D01*
X180868Y238750D01*
X180845Y238740D01*
X180820Y238736D01*
X180734Y238690D01*
X180646Y238649D01*
X180620Y238628D01*
X180605Y238621D01*
X180588Y238602D01*
X180531Y238556D01*
X172924Y230949D01*
X172867Y230869D01*
X172805Y230794D01*
X172797Y230771D01*
X172782Y230750D01*
X172754Y230657D01*
X172719Y230566D01*
X172716Y230533D01*
X172711Y230517D01*
X172712Y230492D01*
X172705Y230419D01*
X172705Y213852D01*
X172721Y213756D01*
X172730Y213659D01*
X172740Y213636D01*
X172744Y213611D01*
X172790Y213525D01*
X172831Y213436D01*
X172852Y213411D01*
X172859Y213396D01*
X172878Y213379D01*
X172924Y213322D01*
X175237Y211010D01*
X175237Y206820D01*
X172275Y203858D01*
X168085Y203858D01*
G37*
%LPD*%
%LPC*%
G36*
X63438Y357060D02*
X63438Y357060D01*
X62545Y357953D01*
X62545Y373217D01*
X63438Y374110D01*
X64764Y374110D01*
X64788Y374114D01*
X64813Y374111D01*
X64908Y374133D01*
X65005Y374149D01*
X65026Y374161D01*
X65050Y374167D01*
X65134Y374218D01*
X65220Y374264D01*
X65237Y374282D01*
X65258Y374295D01*
X65320Y374371D01*
X65387Y374442D01*
X65397Y374465D01*
X65413Y374484D01*
X65447Y374575D01*
X65488Y374665D01*
X65490Y374689D01*
X65499Y374712D01*
X65513Y374859D01*
X65513Y375978D01*
X68477Y378942D01*
X68491Y378962D01*
X68510Y378977D01*
X68562Y379061D01*
X68619Y379140D01*
X68626Y379164D01*
X68639Y379185D01*
X68662Y379280D01*
X68690Y379374D01*
X68689Y379398D01*
X68695Y379422D01*
X68685Y379520D01*
X68682Y379618D01*
X68674Y379641D01*
X68671Y379665D01*
X68631Y379754D01*
X68596Y379846D01*
X68581Y379865D01*
X68571Y379887D01*
X68477Y380002D01*
X67935Y380543D01*
X67935Y387807D01*
X68828Y388700D01*
X78092Y388700D01*
X78985Y387807D01*
X78985Y380543D01*
X78092Y379650D01*
X77766Y379650D01*
X77742Y379646D01*
X77717Y379649D01*
X77622Y379627D01*
X77525Y379611D01*
X77504Y379599D01*
X77480Y379593D01*
X77396Y379542D01*
X77310Y379496D01*
X77293Y379478D01*
X77272Y379465D01*
X77210Y379389D01*
X77143Y379318D01*
X77133Y379295D01*
X77117Y379276D01*
X77083Y379185D01*
X77042Y379095D01*
X77040Y379071D01*
X77031Y379048D01*
X77017Y378901D01*
X77017Y377422D01*
X74733Y375138D01*
X74719Y375118D01*
X74700Y375103D01*
X74671Y375057D01*
X74659Y375044D01*
X74648Y375019D01*
X74591Y374940D01*
X74584Y374916D01*
X74571Y374895D01*
X74548Y374800D01*
X74520Y374706D01*
X74521Y374682D01*
X74515Y374658D01*
X74525Y374560D01*
X74528Y374462D01*
X74536Y374439D01*
X74539Y374415D01*
X74579Y374326D01*
X74614Y374234D01*
X74629Y374215D01*
X74639Y374193D01*
X74733Y374078D01*
X75595Y373217D01*
X75595Y370574D01*
X75599Y370550D01*
X75596Y370525D01*
X75618Y370430D01*
X75634Y370333D01*
X75646Y370312D01*
X75652Y370288D01*
X75703Y370204D01*
X75749Y370118D01*
X75767Y370101D01*
X75780Y370080D01*
X75856Y370018D01*
X75927Y369951D01*
X75950Y369941D01*
X75969Y369925D01*
X76060Y369891D01*
X76150Y369850D01*
X76174Y369848D01*
X76197Y369839D01*
X76344Y369825D01*
X81058Y369825D01*
X81154Y369841D01*
X81251Y369850D01*
X81274Y369860D01*
X81299Y369864D01*
X81385Y369910D01*
X81474Y369951D01*
X81499Y369972D01*
X81514Y369979D01*
X81531Y369998D01*
X81588Y370044D01*
X82360Y370817D01*
X86550Y370817D01*
X89512Y367855D01*
X89512Y363665D01*
X86550Y360703D01*
X82360Y360703D01*
X81588Y361476D01*
X81508Y361533D01*
X81433Y361595D01*
X81410Y361603D01*
X81390Y361618D01*
X81296Y361646D01*
X81205Y361681D01*
X81172Y361684D01*
X81156Y361689D01*
X81131Y361688D01*
X81058Y361695D01*
X76344Y361695D01*
X76320Y361691D01*
X76295Y361694D01*
X76200Y361672D01*
X76103Y361656D01*
X76082Y361644D01*
X76058Y361638D01*
X75974Y361587D01*
X75888Y361541D01*
X75871Y361523D01*
X75850Y361510D01*
X75788Y361434D01*
X75721Y361363D01*
X75711Y361340D01*
X75695Y361321D01*
X75661Y361230D01*
X75620Y361140D01*
X75618Y361116D01*
X75609Y361093D01*
X75595Y360946D01*
X75595Y357953D01*
X74702Y357060D01*
X63438Y357060D01*
G37*
%LPD*%
%LPC*%
G36*
X138875Y254658D02*
X138875Y254658D01*
X135913Y257620D01*
X135913Y261810D01*
X138875Y264772D01*
X140876Y264772D01*
X140972Y264788D01*
X141069Y264797D01*
X141092Y264807D01*
X141117Y264811D01*
X141203Y264857D01*
X141291Y264898D01*
X141317Y264919D01*
X141332Y264926D01*
X141349Y264945D01*
X141406Y264991D01*
X148814Y272400D01*
X161839Y272400D01*
X161935Y272416D01*
X162032Y272425D01*
X162055Y272435D01*
X162080Y272439D01*
X162166Y272485D01*
X162254Y272526D01*
X162280Y272547D01*
X162295Y272554D01*
X162312Y272573D01*
X162369Y272619D01*
X168706Y278956D01*
X168752Y279020D01*
X168785Y279056D01*
X168792Y279071D01*
X168825Y279111D01*
X168833Y279134D01*
X168848Y279155D01*
X168876Y279248D01*
X168911Y279339D01*
X168914Y279372D01*
X168919Y279388D01*
X168918Y279413D01*
X168925Y279486D01*
X168925Y292243D01*
X168923Y292255D01*
X168924Y292258D01*
X168921Y292272D01*
X168909Y292339D01*
X168900Y292436D01*
X168890Y292459D01*
X168886Y292484D01*
X168840Y292570D01*
X168799Y292659D01*
X168778Y292684D01*
X168771Y292699D01*
X168752Y292716D01*
X168706Y292773D01*
X166393Y295085D01*
X166393Y299275D01*
X169355Y302237D01*
X173545Y302237D01*
X176507Y299275D01*
X176507Y295085D01*
X174194Y292773D01*
X174137Y292693D01*
X174075Y292618D01*
X174067Y292595D01*
X174052Y292575D01*
X174024Y292481D01*
X173989Y292390D01*
X173986Y292357D01*
X173981Y292341D01*
X173982Y292316D01*
X173975Y292243D01*
X173975Y277084D01*
X164241Y267350D01*
X151216Y267350D01*
X151120Y267334D01*
X151023Y267325D01*
X151000Y267315D01*
X150975Y267311D01*
X150889Y267265D01*
X150801Y267224D01*
X150775Y267203D01*
X150760Y267196D01*
X150743Y267177D01*
X150686Y267131D01*
X146226Y262670D01*
X146211Y262650D01*
X146192Y262634D01*
X146141Y262551D01*
X146084Y262472D01*
X146076Y262448D01*
X146063Y262427D01*
X146041Y262332D01*
X146013Y262238D01*
X146013Y262214D01*
X146008Y262189D01*
X146017Y262092D01*
X146021Y261994D01*
X146027Y261978D01*
X146027Y257620D01*
X143065Y254658D01*
X138875Y254658D01*
G37*
%LPD*%
%LPC*%
G36*
X129134Y75344D02*
X129134Y75344D01*
X129134Y89386D01*
X145969Y89386D01*
X146616Y89213D01*
X147195Y88878D01*
X147668Y88405D01*
X148003Y87826D01*
X148176Y87179D01*
X148176Y75344D01*
X129134Y75344D01*
G37*
%LPD*%
%LPC*%
G36*
X107094Y75344D02*
X107094Y75344D01*
X107094Y87179D01*
X107172Y87470D01*
X107267Y87826D01*
X107602Y88405D01*
X108075Y88878D01*
X108654Y89213D01*
X109301Y89386D01*
X126136Y89386D01*
X126136Y75344D01*
X107094Y75344D01*
G37*
%LPD*%
%LPC*%
G36*
X170310Y55939D02*
X170310Y55939D01*
X168794Y56567D01*
X167430Y57479D01*
X166269Y58640D01*
X165357Y60004D01*
X164729Y61520D01*
X164710Y61617D01*
X164701Y61640D01*
X164699Y61665D01*
X164677Y61714D01*
X164674Y61727D01*
X164664Y61743D01*
X164659Y61754D01*
X164624Y61846D01*
X164609Y61865D01*
X164598Y61887D01*
X164531Y61959D01*
X164469Y62034D01*
X164449Y62047D01*
X164432Y62065D01*
X164345Y62112D01*
X164262Y62163D01*
X164238Y62169D01*
X164216Y62181D01*
X164120Y62197D01*
X164025Y62219D01*
X164000Y62216D01*
X163976Y62220D01*
X163879Y62205D01*
X163782Y62195D01*
X163759Y62185D01*
X163735Y62181D01*
X163649Y62135D01*
X163559Y62095D01*
X163541Y62078D01*
X163520Y62066D01*
X163453Y61995D01*
X163381Y61928D01*
X163370Y61906D01*
X163353Y61888D01*
X163283Y61758D01*
X163103Y61324D01*
X161556Y59777D01*
X159534Y58939D01*
X157346Y58939D01*
X155324Y59777D01*
X153777Y61324D01*
X152939Y63346D01*
X152939Y65534D01*
X153777Y67556D01*
X155324Y69103D01*
X157346Y69941D01*
X159534Y69941D01*
X161556Y69103D01*
X163130Y67529D01*
X163190Y67486D01*
X163244Y67436D01*
X163288Y67416D01*
X163329Y67387D01*
X163399Y67365D01*
X163466Y67335D01*
X163515Y67330D01*
X163562Y67316D01*
X163635Y67318D01*
X163709Y67311D01*
X163757Y67322D01*
X163806Y67324D01*
X163875Y67350D01*
X163946Y67366D01*
X163988Y67392D01*
X164034Y67410D01*
X164091Y67456D01*
X164154Y67495D01*
X164185Y67533D01*
X164223Y67564D01*
X164262Y67627D01*
X164309Y67684D01*
X164326Y67730D01*
X164352Y67772D01*
X164369Y67843D01*
X164395Y67912D01*
X164402Y67985D01*
X164408Y68009D01*
X164406Y68026D01*
X164409Y68059D01*
X164409Y68241D01*
X171241Y68241D01*
X171241Y55754D01*
X170310Y55939D01*
G37*
%LPD*%
%LPC*%
G36*
X97020Y410299D02*
X97020Y410299D01*
X97020Y423359D01*
X107695Y423359D01*
X108342Y423186D01*
X108921Y422851D01*
X109394Y422378D01*
X109729Y421799D01*
X109902Y421152D01*
X109902Y410299D01*
X97020Y410299D01*
G37*
%LPD*%
%LPC*%
G36*
X81140Y410299D02*
X81140Y410299D01*
X81140Y421152D01*
X81313Y421799D01*
X81648Y422378D01*
X82121Y422851D01*
X82700Y423186D01*
X83347Y423359D01*
X94022Y423359D01*
X94022Y410299D01*
X81140Y410299D01*
G37*
%LPD*%
%LPC*%
G36*
X97020Y394241D02*
X97020Y394241D01*
X97020Y407301D01*
X109902Y407301D01*
X109902Y396448D01*
X109729Y395801D01*
X109394Y395222D01*
X108921Y394749D01*
X108342Y394414D01*
X107695Y394241D01*
X97020Y394241D01*
G37*
%LPD*%
%LPC*%
G36*
X83347Y394241D02*
X83347Y394241D01*
X82700Y394414D01*
X82121Y394749D01*
X81648Y395222D01*
X81313Y395801D01*
X81140Y396448D01*
X81140Y407301D01*
X94022Y407301D01*
X94022Y394241D01*
X83347Y394241D01*
G37*
%LPD*%
%LPC*%
G36*
X102045Y101623D02*
X102045Y101623D01*
X99083Y104585D01*
X99083Y108775D01*
X102045Y111737D01*
X106235Y111737D01*
X109197Y108775D01*
X109197Y104585D01*
X106235Y101623D01*
X102045Y101623D01*
G37*
%LPD*%
%LPC*%
G36*
X15789Y35038D02*
X15789Y35038D01*
X15789Y45389D01*
X17086Y45184D01*
X18873Y44603D01*
X20547Y43750D01*
X22067Y42645D01*
X23396Y41316D01*
X24501Y39796D01*
X25354Y38122D01*
X25935Y36335D01*
X26140Y35038D01*
X15789Y35038D01*
G37*
%LPD*%
%LPC*%
G36*
X230720Y35829D02*
X230720Y35829D01*
X230925Y37126D01*
X231506Y38913D01*
X232359Y40587D01*
X233464Y42107D01*
X234793Y43436D01*
X236313Y44541D01*
X237987Y45394D01*
X239774Y45975D01*
X241071Y46180D01*
X241071Y35829D01*
X230720Y35829D01*
G37*
%LPD*%
%LPC*%
G36*
X230720Y86629D02*
X230720Y86629D01*
X230925Y87926D01*
X231506Y89713D01*
X232359Y91387D01*
X233464Y92907D01*
X234793Y94236D01*
X236313Y95341D01*
X237987Y96194D01*
X239774Y96775D01*
X241071Y96980D01*
X241071Y86629D01*
X230720Y86629D01*
G37*
%LPD*%
%LPC*%
G36*
X15789Y32040D02*
X15789Y32040D01*
X26140Y32040D01*
X25935Y30743D01*
X25354Y28956D01*
X24501Y27282D01*
X23396Y25762D01*
X22067Y24433D01*
X20547Y23328D01*
X18873Y22475D01*
X17086Y21894D01*
X15789Y21689D01*
X15789Y32040D01*
G37*
%LPD*%
%LPC*%
G36*
X239774Y73485D02*
X239774Y73485D01*
X237987Y74066D01*
X236313Y74919D01*
X234793Y76024D01*
X233464Y77353D01*
X232359Y78873D01*
X231506Y80547D01*
X230925Y82334D01*
X230720Y83631D01*
X241071Y83631D01*
X241071Y73280D01*
X239774Y73485D01*
G37*
%LPD*%
%LPC*%
G36*
X239774Y22685D02*
X239774Y22685D01*
X237987Y23266D01*
X236313Y24119D01*
X234793Y25224D01*
X233464Y26553D01*
X232359Y28073D01*
X231506Y29747D01*
X230925Y31534D01*
X230720Y32831D01*
X241071Y32831D01*
X241071Y22480D01*
X239774Y22685D01*
G37*
%LPD*%
%LPC*%
G36*
X87839Y29439D02*
X87839Y29439D01*
X87839Y41926D01*
X88770Y41741D01*
X90286Y41113D01*
X91650Y40201D01*
X92811Y39040D01*
X93723Y37676D01*
X94351Y36160D01*
X94671Y34551D01*
X94671Y29439D01*
X87839Y29439D01*
G37*
%LPD*%
%LPC*%
G36*
X174239Y29439D02*
X174239Y29439D01*
X174239Y41926D01*
X175170Y41741D01*
X176686Y41113D01*
X178050Y40201D01*
X179211Y39040D01*
X180123Y37676D01*
X180751Y36160D01*
X181071Y34551D01*
X181071Y29439D01*
X174239Y29439D01*
G37*
%LPD*%
%LPC*%
G36*
X87839Y71239D02*
X87839Y71239D01*
X87839Y83726D01*
X88770Y83541D01*
X90286Y82913D01*
X91650Y82001D01*
X92811Y80840D01*
X93723Y79476D01*
X94351Y77960D01*
X94671Y76351D01*
X94671Y71239D01*
X87839Y71239D01*
G37*
%LPD*%
%LPC*%
G36*
X174239Y71239D02*
X174239Y71239D01*
X174239Y83726D01*
X175170Y83541D01*
X176686Y82913D01*
X178050Y82001D01*
X179211Y80840D01*
X180123Y79476D01*
X180751Y77960D01*
X181071Y76351D01*
X181071Y71239D01*
X174239Y71239D01*
G37*
%LPD*%
%LPC*%
G36*
X87839Y26441D02*
X87839Y26441D01*
X94671Y26441D01*
X94671Y21329D01*
X94351Y19720D01*
X93723Y18204D01*
X93353Y17651D01*
X92853Y16902D01*
X92811Y16840D01*
X91650Y15679D01*
X90286Y14767D01*
X88770Y14139D01*
X87839Y13954D01*
X87839Y26441D01*
G37*
%LPD*%
%LPC*%
G36*
X174239Y26441D02*
X174239Y26441D01*
X181071Y26441D01*
X181071Y21329D01*
X180751Y19720D01*
X180123Y18204D01*
X179753Y17651D01*
X179253Y16902D01*
X179211Y16840D01*
X178050Y15679D01*
X176686Y14767D01*
X175170Y14139D01*
X174239Y13954D01*
X174239Y26441D01*
G37*
%LPD*%
%LPC*%
G36*
X174239Y68241D02*
X174239Y68241D01*
X181071Y68241D01*
X181071Y63129D01*
X180751Y61520D01*
X180123Y60004D01*
X179859Y59609D01*
X179358Y58860D01*
X179211Y58640D01*
X178050Y57479D01*
X176686Y56567D01*
X175170Y55939D01*
X174239Y55754D01*
X174239Y68241D01*
G37*
%LPD*%
%LPC*%
G36*
X164409Y29439D02*
X164409Y29439D01*
X164409Y34551D01*
X164729Y36160D01*
X165357Y37676D01*
X165438Y37797D01*
X165939Y38546D01*
X165939Y38547D01*
X166269Y39040D01*
X167430Y40201D01*
X168794Y41113D01*
X170310Y41741D01*
X171241Y41926D01*
X171241Y29439D01*
X164409Y29439D01*
G37*
%LPD*%
%LPC*%
G36*
X78009Y29439D02*
X78009Y29439D01*
X78009Y34551D01*
X78329Y36160D01*
X78957Y37676D01*
X79038Y37797D01*
X79539Y38546D01*
X79539Y38547D01*
X79869Y39040D01*
X81030Y40201D01*
X82394Y41113D01*
X83910Y41741D01*
X84841Y41926D01*
X84841Y29439D01*
X78009Y29439D01*
G37*
%LPD*%
%LPC*%
G36*
X78009Y71239D02*
X78009Y71239D01*
X78009Y76351D01*
X78329Y77960D01*
X78957Y79476D01*
X79144Y79755D01*
X79869Y80840D01*
X81030Y82001D01*
X82394Y82913D01*
X83910Y83541D01*
X84841Y83726D01*
X84841Y71239D01*
X78009Y71239D01*
G37*
%LPD*%
%LPC*%
G36*
X164409Y71239D02*
X164409Y71239D01*
X164409Y76351D01*
X164729Y77960D01*
X165357Y79476D01*
X165544Y79755D01*
X166269Y80840D01*
X167430Y82001D01*
X168794Y82913D01*
X170310Y83541D01*
X171241Y83726D01*
X171241Y71239D01*
X164409Y71239D01*
G37*
%LPD*%
%LPC*%
G36*
X83910Y55939D02*
X83910Y55939D01*
X82394Y56567D01*
X81030Y57479D01*
X79869Y58640D01*
X78957Y60004D01*
X78329Y61520D01*
X78009Y63129D01*
X78009Y68241D01*
X84841Y68241D01*
X84841Y55754D01*
X83910Y55939D01*
G37*
%LPD*%
%LPC*%
G36*
X83910Y14139D02*
X83910Y14139D01*
X82394Y14767D01*
X81030Y15679D01*
X79869Y16840D01*
X78957Y18204D01*
X78329Y19720D01*
X78009Y21329D01*
X78009Y26441D01*
X84841Y26441D01*
X84841Y13954D01*
X83910Y14139D01*
G37*
%LPD*%
%LPC*%
G36*
X170310Y14139D02*
X170310Y14139D01*
X168794Y14767D01*
X167430Y15679D01*
X166269Y16840D01*
X165357Y18204D01*
X164729Y19720D01*
X164409Y21329D01*
X164409Y26441D01*
X171241Y26441D01*
X171241Y13954D01*
X170310Y14139D01*
G37*
%LPD*%
%LPC*%
G36*
X66629Y400129D02*
X66629Y400129D01*
X66629Y404321D01*
X68314Y404321D01*
X68961Y404148D01*
X69540Y403813D01*
X70013Y403340D01*
X70348Y402761D01*
X70521Y402114D01*
X70521Y400129D01*
X66629Y400129D01*
G37*
%LPD*%
%LPC*%
G36*
X66629Y393239D02*
X66629Y393239D01*
X66629Y397431D01*
X70521Y397431D01*
X70521Y395446D01*
X70415Y395051D01*
X70348Y394799D01*
X70013Y394220D01*
X69540Y393747D01*
X68961Y393412D01*
X68314Y393239D01*
X66629Y393239D01*
G37*
%LPD*%
%LPC*%
G36*
X86339Y69739D02*
X86339Y69739D01*
X86339Y69741D01*
X86341Y69741D01*
X86341Y69739D01*
X86339Y69739D01*
G37*
%LPD*%
%LPC*%
G36*
X172739Y69739D02*
X172739Y69739D01*
X172739Y69741D01*
X172741Y69741D01*
X172741Y69739D01*
X172739Y69739D01*
G37*
%LPD*%
%LPC*%
G36*
X86339Y27939D02*
X86339Y27939D01*
X86339Y27941D01*
X86341Y27941D01*
X86341Y27939D01*
X86339Y27939D01*
G37*
%LPD*%
%LPC*%
G36*
X172739Y27939D02*
X172739Y27939D01*
X172739Y27941D01*
X172741Y27941D01*
X172741Y27939D01*
X172739Y27939D01*
G37*
%LPD*%
%LPC*%
G36*
X95520Y408799D02*
X95520Y408799D01*
X95520Y408801D01*
X95522Y408801D01*
X95522Y408799D01*
X95520Y408799D01*
G37*
%LPD*%
D10*
X14290Y33539D03*
X14290Y58939D03*
X14290Y84339D03*
X14290Y109739D03*
X14290Y135139D03*
X14290Y160539D03*
X14290Y185939D03*
X14290Y211339D03*
X14290Y236739D03*
X14290Y262139D03*
X14290Y287539D03*
X14290Y312939D03*
X14290Y338339D03*
X14290Y363739D03*
X14290Y389139D03*
X14290Y414539D03*
X242570Y34330D03*
X242570Y59730D03*
X242570Y85130D03*
X242570Y110530D03*
X242570Y135930D03*
X242570Y161330D03*
X242570Y186730D03*
X242570Y212130D03*
X242570Y237530D03*
X242570Y262930D03*
X242570Y288330D03*
X242570Y313730D03*
X242570Y339130D03*
X242570Y364530D03*
X242570Y389930D03*
X242570Y415330D03*
D11*
X157945Y408800D03*
X95521Y408800D03*
D12*
X59570Y343585D03*
X69070Y365585D03*
X50070Y365585D03*
D13*
X127635Y366845D03*
X127635Y73845D03*
D14*
X73460Y384175D03*
X48460Y384175D03*
D15*
X65280Y398780D03*
X56640Y398780D03*
D16*
X86340Y75530D02*
X86340Y63950D01*
X172740Y63950D02*
X172740Y75530D01*
X86340Y33730D02*
X86340Y22150D01*
X172740Y22150D02*
X172740Y33730D01*
D17*
X92075Y141605D03*
X179070Y419735D03*
X179070Y394335D03*
X179070Y365125D03*
X179070Y324485D03*
X153670Y324485D03*
X153670Y300355D03*
X97790Y319405D03*
X128270Y319405D03*
X82550Y262255D03*
X125730Y262255D03*
X82550Y234315D03*
X82550Y200025D03*
X58420Y188595D03*
X58420Y136525D03*
X58420Y85725D03*
X219710Y159385D03*
X219710Y128905D03*
X220980Y106045D03*
X85090Y380365D03*
X73660Y422275D03*
X41910Y267335D03*
X44450Y296545D03*
X212725Y212090D03*
X170180Y208915D03*
D18*
X212725Y212090D02*
X212725Y231775D01*
X203200Y241300D01*
X179705Y241300D01*
X170180Y231775D02*
X170180Y208915D01*
X170180Y231775D02*
X179705Y241300D01*
D17*
X141605Y110490D03*
X168275Y100965D03*
X145415Y139700D03*
D19*
X145415Y173990D01*
X156845Y185420D01*
X145415Y139700D02*
X141605Y135890D01*
X141605Y110490D01*
X164465Y110490D01*
X168275Y106680D02*
X168275Y100965D01*
X168275Y106680D02*
X164465Y110490D01*
D17*
X167005Y185420D03*
D19*
X156845Y185420D01*
D20*
X241260Y59730D02*
X242570Y59730D01*
X200025Y100965D02*
X168275Y100965D01*
X200025Y100965D02*
X241260Y59730D01*
D17*
X127000Y55245D03*
X142240Y55245D03*
D18*
X127000Y55245D01*
D17*
X104140Y106680D03*
D19*
X69070Y365585D02*
X69070Y374505D01*
X73460Y378895D02*
X73460Y384175D01*
X73460Y378895D02*
X69070Y374505D01*
D17*
X84455Y365760D03*
D20*
X69245Y365760D02*
X69070Y365585D01*
X69245Y365760D02*
X84455Y365760D01*
D17*
X109220Y308610D03*
D18*
X14290Y142560D02*
X14290Y135139D01*
X27305Y155575D02*
X27305Y177110D01*
X27305Y155575D02*
X14290Y142560D01*
X56120Y282575D02*
X78345Y304800D01*
X105410Y304800D02*
X109220Y308610D01*
X105410Y304800D02*
X78345Y304800D01*
X29736Y179541D02*
X27305Y177110D01*
X29736Y179541D02*
X29736Y199377D01*
X56120Y225761D02*
X56120Y282575D01*
X56120Y225761D02*
X29736Y199377D01*
D20*
X127635Y366845D02*
X127635Y402590D01*
X133985Y408940D01*
X157805Y408940D01*
X157945Y408800D01*
X59570Y343585D02*
X57615Y341630D01*
X127000Y366210D02*
X127635Y366845D01*
X120700Y343585D02*
X59570Y343585D01*
X120700Y343585D02*
X127635Y350520D01*
X127635Y366845D01*
X50070Y365585D02*
X50070Y363125D01*
D19*
X50070Y365585D02*
X50070Y376015D01*
X48260Y377825D01*
X48260Y383975D01*
X48460Y384175D01*
D20*
X48460Y398145D01*
X48460Y425015D01*
X57785Y434340D01*
X210820Y434340D01*
X221615Y423545D02*
X221615Y267335D01*
X209550Y255270D01*
X194310Y255270D01*
X221615Y423545D02*
X210820Y434340D01*
X49095Y398780D02*
X48460Y398145D01*
X49095Y398780D02*
X56640Y398780D01*
D17*
X194310Y255270D03*
X173355Y130810D03*
D20*
X173355Y175895D01*
X194310Y196850D02*
X194310Y215265D01*
X194310Y196850D02*
X173355Y175895D01*
D17*
X194310Y215265D03*
X121285Y303530D03*
D18*
X119031Y301276D01*
X80440Y301276D01*
X14290Y118279D02*
X14290Y109739D01*
X30829Y134818D02*
X30829Y175650D01*
X30829Y134818D02*
X14290Y118279D01*
X59644Y280480D02*
X80440Y301276D01*
X33260Y178081D02*
X30829Y175650D01*
X33260Y178081D02*
X33260Y197918D01*
X59644Y224302D01*
X59644Y280480D01*
D17*
X133350Y297180D03*
D18*
X81328Y297180D02*
X63168Y279021D01*
X14290Y92879D02*
X14290Y84339D01*
X26212Y104801D02*
X26212Y125217D01*
X26212Y104801D02*
X14290Y92879D01*
X81328Y297180D02*
X133350Y297180D01*
X34353Y174190D02*
X34353Y133358D01*
X26212Y125217D01*
X34353Y174190D02*
X36784Y176621D01*
X36784Y196458D01*
X63168Y222842D01*
X63168Y279021D01*
X34290Y343739D02*
X14290Y363739D01*
X34290Y343739D02*
X34290Y335280D01*
X38100Y331470D01*
X133985Y331470D02*
X145415Y320040D01*
X145415Y285750D01*
X74947Y279400D02*
X70502Y274955D01*
X70502Y170163D01*
X73660Y167005D02*
X85090Y167005D01*
X38100Y331470D02*
X133985Y331470D01*
X145415Y285750D02*
X139065Y279400D01*
X74947Y279400D01*
X70502Y170163D02*
X73660Y167005D01*
D17*
X85090Y167005D03*
D18*
X141891Y318580D02*
X132525Y327946D01*
X26247Y338339D02*
X14290Y338339D01*
X26247Y338339D02*
X36640Y327946D01*
X132525Y327946D01*
X141891Y318580D02*
X141891Y287210D01*
X137605Y282924D01*
X72852Y282924D01*
X66723Y276795D01*
X66723Y167053D01*
X70581Y163195D01*
X79375Y163195D02*
X85090Y157480D01*
X79375Y163195D02*
X70581Y163195D01*
D17*
X85090Y157480D03*
D18*
X28691Y262139D02*
X14290Y262139D01*
X38100Y252730D02*
X38100Y240665D01*
X38100Y252730D02*
X28691Y262139D01*
D17*
X38100Y240665D03*
D18*
X18735Y232294D02*
X14290Y236739D01*
X42429Y232294D02*
X42545Y232410D01*
X42429Y232294D02*
X18735Y232294D01*
D17*
X42545Y232410D03*
X62865Y320040D03*
D18*
X14290Y194479D02*
X14290Y185939D01*
X14290Y194479D02*
X49072Y229261D01*
X49072Y286911D01*
X62865Y300704D01*
X62865Y320040D01*
D17*
X76200Y313055D03*
D18*
X76200Y307975D01*
X52596Y284371D01*
X52596Y227221D02*
X26212Y200837D01*
X26212Y181001D01*
X14290Y169079D02*
X14290Y160539D01*
X14290Y169079D02*
X26212Y181001D01*
X52596Y227221D02*
X52596Y284371D01*
D17*
X97790Y225425D03*
D18*
X153131Y225425D01*
X175705Y247999D01*
X207931Y247999D01*
X242570Y213360D02*
X242570Y212130D01*
X242570Y213360D02*
X207931Y247999D01*
D17*
X171450Y297180D03*
X140970Y259715D03*
D18*
X140970Y260985D01*
X149860Y269875D02*
X163195Y269875D01*
X171450Y278130D01*
X171450Y297180D01*
X149860Y269875D02*
X140970Y260985D01*
M02*
