G04 EAGLE Gerber RS-274X export*
G75*
%MOMM*%
%FSLAX34Y34*%
%LPD*%
%INSilkscreen Bottom*%
%IPPOS*%
%AMOC8*
5,1,8,0,0,1.08239X$1,22.5*%
G01*
%ADD10C,0.152400*%
%ADD11C,0.127000*%
%ADD12C,0.101600*%
%ADD13C,0.203200*%
%ADD14R,0.600000X1.100000*%
%ADD15C,0.076200*%


D10*
X204408Y339627D02*
X204408Y343352D01*
X208133Y340869D02*
X198820Y340869D01*
X198820Y340868D02*
X198736Y340870D01*
X198653Y340875D01*
X198570Y340885D01*
X198487Y340898D01*
X198405Y340915D01*
X198324Y340935D01*
X198244Y340959D01*
X198165Y340987D01*
X198088Y341018D01*
X198012Y341052D01*
X197937Y341090D01*
X197864Y341132D01*
X197794Y341176D01*
X197725Y341224D01*
X197658Y341274D01*
X197594Y341328D01*
X197533Y341384D01*
X197473Y341444D01*
X197417Y341505D01*
X197363Y341569D01*
X197313Y341636D01*
X197265Y341705D01*
X197221Y341775D01*
X197179Y341848D01*
X197141Y341923D01*
X197107Y341999D01*
X197076Y342076D01*
X197048Y342155D01*
X197024Y342235D01*
X197004Y342316D01*
X196987Y342398D01*
X196974Y342481D01*
X196964Y342564D01*
X196959Y342647D01*
X196957Y342731D01*
X196957Y343352D01*
X196957Y347391D02*
X197578Y347391D01*
X197578Y348012D01*
X196957Y348012D01*
X196957Y347391D01*
X196957Y353120D02*
X204408Y353120D01*
X204408Y358708D01*
X204406Y358792D01*
X204401Y358875D01*
X204391Y358958D01*
X204378Y359041D01*
X204361Y359123D01*
X204341Y359204D01*
X204317Y359284D01*
X204289Y359363D01*
X204258Y359440D01*
X204224Y359516D01*
X204186Y359591D01*
X204144Y359664D01*
X204100Y359734D01*
X204052Y359803D01*
X204002Y359870D01*
X203948Y359934D01*
X203892Y359995D01*
X203832Y360055D01*
X203771Y360111D01*
X203707Y360165D01*
X203640Y360215D01*
X203571Y360263D01*
X203501Y360307D01*
X203428Y360349D01*
X203353Y360387D01*
X203277Y360421D01*
X203200Y360452D01*
X203121Y360480D01*
X203041Y360504D01*
X202960Y360524D01*
X202878Y360541D01*
X202795Y360554D01*
X202712Y360564D01*
X202629Y360569D01*
X202545Y360571D01*
X202545Y360570D02*
X196957Y360570D01*
X196957Y356845D02*
X204408Y356845D01*
X196957Y368035D02*
X196957Y371140D01*
X196957Y368035D02*
X196959Y367951D01*
X196964Y367868D01*
X196974Y367785D01*
X196987Y367702D01*
X197004Y367620D01*
X197024Y367539D01*
X197048Y367459D01*
X197076Y367380D01*
X197107Y367303D01*
X197141Y367227D01*
X197179Y367152D01*
X197221Y367079D01*
X197265Y367009D01*
X197313Y366940D01*
X197363Y366873D01*
X197417Y366809D01*
X197473Y366748D01*
X197533Y366688D01*
X197594Y366632D01*
X197658Y366578D01*
X197725Y366528D01*
X197794Y366480D01*
X197864Y366436D01*
X197937Y366394D01*
X198012Y366356D01*
X198088Y366322D01*
X198165Y366291D01*
X198244Y366263D01*
X198324Y366239D01*
X198405Y366219D01*
X198487Y366202D01*
X198570Y366189D01*
X198653Y366179D01*
X198736Y366174D01*
X198820Y366172D01*
X198820Y366173D02*
X201924Y366173D01*
X201924Y366172D02*
X202023Y366174D01*
X202121Y366180D01*
X202220Y366190D01*
X202317Y366203D01*
X202415Y366221D01*
X202511Y366242D01*
X202607Y366268D01*
X202701Y366297D01*
X202794Y366329D01*
X202886Y366366D01*
X202976Y366406D01*
X203065Y366450D01*
X203152Y366497D01*
X203237Y366547D01*
X203319Y366601D01*
X203400Y366658D01*
X203478Y366718D01*
X203554Y366782D01*
X203627Y366848D01*
X203698Y366917D01*
X203766Y366989D01*
X203830Y367064D01*
X203892Y367141D01*
X203951Y367220D01*
X204006Y367302D01*
X204059Y367386D01*
X204107Y367471D01*
X204153Y367559D01*
X204195Y367649D01*
X204233Y367740D01*
X204267Y367832D01*
X204298Y367926D01*
X204325Y368021D01*
X204349Y368117D01*
X204368Y368214D01*
X204384Y368311D01*
X204396Y368409D01*
X204404Y368508D01*
X204408Y368607D01*
X204408Y368705D01*
X204404Y368804D01*
X204396Y368903D01*
X204384Y369001D01*
X204368Y369098D01*
X204349Y369195D01*
X204325Y369291D01*
X204298Y369386D01*
X204267Y369480D01*
X204233Y369572D01*
X204195Y369663D01*
X204153Y369753D01*
X204107Y369841D01*
X204059Y369926D01*
X204006Y370010D01*
X203951Y370092D01*
X203892Y370171D01*
X203830Y370248D01*
X203766Y370323D01*
X203698Y370395D01*
X203627Y370464D01*
X203554Y370530D01*
X203478Y370594D01*
X203400Y370654D01*
X203319Y370711D01*
X203237Y370765D01*
X203152Y370815D01*
X203065Y370862D01*
X202976Y370906D01*
X202886Y370946D01*
X202794Y370983D01*
X202701Y371015D01*
X202607Y371044D01*
X202511Y371070D01*
X202415Y371091D01*
X202317Y371109D01*
X202220Y371122D01*
X202121Y371132D01*
X202023Y371138D01*
X201924Y371140D01*
X200682Y371140D01*
X200682Y366173D01*
X195715Y375697D02*
X209375Y380665D01*
X208133Y390116D02*
X196957Y390116D01*
X196957Y387011D01*
X196959Y386927D01*
X196964Y386844D01*
X196974Y386761D01*
X196987Y386678D01*
X197004Y386596D01*
X197024Y386515D01*
X197048Y386435D01*
X197076Y386356D01*
X197107Y386279D01*
X197141Y386203D01*
X197179Y386128D01*
X197221Y386055D01*
X197265Y385985D01*
X197313Y385916D01*
X197363Y385849D01*
X197417Y385785D01*
X197473Y385724D01*
X197533Y385664D01*
X197594Y385608D01*
X197658Y385554D01*
X197725Y385504D01*
X197794Y385456D01*
X197864Y385412D01*
X197937Y385370D01*
X198012Y385332D01*
X198088Y385298D01*
X198165Y385267D01*
X198244Y385239D01*
X198324Y385215D01*
X198405Y385195D01*
X198487Y385178D01*
X198570Y385165D01*
X198653Y385155D01*
X198736Y385150D01*
X198820Y385148D01*
X198820Y385149D02*
X202545Y385149D01*
X202545Y385148D02*
X202629Y385150D01*
X202712Y385156D01*
X202795Y385165D01*
X202878Y385178D01*
X202960Y385195D01*
X203041Y385215D01*
X203121Y385239D01*
X203200Y385267D01*
X203277Y385298D01*
X203353Y385332D01*
X203428Y385370D01*
X203501Y385412D01*
X203571Y385456D01*
X203640Y385504D01*
X203707Y385554D01*
X203771Y385608D01*
X203832Y385664D01*
X203892Y385724D01*
X203948Y385785D01*
X204002Y385849D01*
X204052Y385916D01*
X204100Y385985D01*
X204144Y386055D01*
X204186Y386128D01*
X204224Y386203D01*
X204258Y386279D01*
X204289Y386356D01*
X204317Y386435D01*
X204341Y386515D01*
X204361Y386596D01*
X204378Y386678D01*
X204391Y386761D01*
X204401Y386844D01*
X204406Y386927D01*
X204408Y387011D01*
X204408Y390116D01*
X196957Y397372D02*
X196957Y400477D01*
X196957Y397372D02*
X196959Y397288D01*
X196964Y397205D01*
X196974Y397122D01*
X196987Y397039D01*
X197004Y396957D01*
X197024Y396876D01*
X197048Y396796D01*
X197076Y396717D01*
X197107Y396640D01*
X197141Y396564D01*
X197179Y396489D01*
X197221Y396416D01*
X197265Y396346D01*
X197313Y396277D01*
X197363Y396210D01*
X197417Y396146D01*
X197473Y396085D01*
X197533Y396025D01*
X197594Y395969D01*
X197658Y395915D01*
X197725Y395865D01*
X197794Y395817D01*
X197864Y395773D01*
X197937Y395731D01*
X198012Y395693D01*
X198088Y395659D01*
X198165Y395628D01*
X198244Y395600D01*
X198324Y395576D01*
X198405Y395556D01*
X198487Y395539D01*
X198570Y395526D01*
X198653Y395516D01*
X198736Y395511D01*
X198820Y395509D01*
X201924Y395509D01*
X202023Y395511D01*
X202121Y395517D01*
X202220Y395527D01*
X202317Y395540D01*
X202415Y395558D01*
X202511Y395579D01*
X202607Y395605D01*
X202701Y395634D01*
X202794Y395666D01*
X202886Y395703D01*
X202976Y395743D01*
X203065Y395787D01*
X203152Y395834D01*
X203237Y395884D01*
X203319Y395938D01*
X203400Y395995D01*
X203478Y396055D01*
X203554Y396119D01*
X203627Y396185D01*
X203698Y396254D01*
X203766Y396326D01*
X203830Y396401D01*
X203892Y396478D01*
X203951Y396557D01*
X204006Y396639D01*
X204059Y396723D01*
X204107Y396808D01*
X204153Y396896D01*
X204195Y396986D01*
X204233Y397077D01*
X204267Y397169D01*
X204298Y397263D01*
X204325Y397358D01*
X204349Y397454D01*
X204368Y397551D01*
X204384Y397648D01*
X204396Y397746D01*
X204404Y397845D01*
X204408Y397944D01*
X204408Y398042D01*
X204404Y398141D01*
X204396Y398240D01*
X204384Y398338D01*
X204368Y398435D01*
X204349Y398532D01*
X204325Y398628D01*
X204298Y398723D01*
X204267Y398817D01*
X204233Y398909D01*
X204195Y399000D01*
X204153Y399090D01*
X204107Y399178D01*
X204059Y399263D01*
X204006Y399347D01*
X203951Y399429D01*
X203892Y399508D01*
X203830Y399585D01*
X203766Y399660D01*
X203698Y399732D01*
X203627Y399801D01*
X203554Y399867D01*
X203478Y399931D01*
X203400Y399991D01*
X203319Y400048D01*
X203237Y400102D01*
X203152Y400152D01*
X203065Y400199D01*
X202976Y400243D01*
X202886Y400283D01*
X202794Y400320D01*
X202701Y400352D01*
X202607Y400381D01*
X202511Y400407D01*
X202415Y400428D01*
X202317Y400446D01*
X202220Y400459D01*
X202121Y400469D01*
X202023Y400475D01*
X201924Y400477D01*
X200682Y400477D01*
X200682Y395509D01*
X201303Y407515D02*
X201303Y410309D01*
X201303Y407515D02*
X201301Y407423D01*
X201295Y407331D01*
X201285Y407239D01*
X201272Y407148D01*
X201254Y407057D01*
X201233Y406967D01*
X201208Y406879D01*
X201179Y406791D01*
X201146Y406705D01*
X201110Y406620D01*
X201070Y406537D01*
X201027Y406455D01*
X200980Y406376D01*
X200930Y406298D01*
X200877Y406223D01*
X200821Y406150D01*
X200761Y406079D01*
X200699Y406011D01*
X200634Y405946D01*
X200566Y405884D01*
X200495Y405824D01*
X200422Y405768D01*
X200347Y405715D01*
X200269Y405665D01*
X200190Y405618D01*
X200108Y405575D01*
X200025Y405535D01*
X199940Y405499D01*
X199854Y405466D01*
X199766Y405437D01*
X199678Y405412D01*
X199588Y405391D01*
X199497Y405373D01*
X199406Y405360D01*
X199314Y405350D01*
X199222Y405344D01*
X199130Y405342D01*
X199038Y405344D01*
X198946Y405350D01*
X198854Y405360D01*
X198763Y405373D01*
X198672Y405391D01*
X198582Y405412D01*
X198494Y405437D01*
X198406Y405466D01*
X198320Y405499D01*
X198235Y405535D01*
X198152Y405575D01*
X198070Y405618D01*
X197991Y405665D01*
X197913Y405715D01*
X197838Y405768D01*
X197765Y405824D01*
X197694Y405884D01*
X197626Y405946D01*
X197561Y406011D01*
X197499Y406079D01*
X197439Y406150D01*
X197383Y406223D01*
X197330Y406298D01*
X197280Y406376D01*
X197233Y406455D01*
X197190Y406537D01*
X197150Y406620D01*
X197114Y406705D01*
X197081Y406791D01*
X197052Y406879D01*
X197027Y406967D01*
X197006Y407057D01*
X196988Y407148D01*
X196975Y407239D01*
X196965Y407331D01*
X196959Y407423D01*
X196957Y407515D01*
X196957Y410309D01*
X202545Y410309D01*
X202629Y410307D01*
X202712Y410302D01*
X202795Y410292D01*
X202878Y410279D01*
X202960Y410262D01*
X203041Y410242D01*
X203121Y410218D01*
X203200Y410190D01*
X203277Y410159D01*
X203353Y410125D01*
X203428Y410087D01*
X203501Y410045D01*
X203571Y410001D01*
X203640Y409953D01*
X203707Y409903D01*
X203771Y409849D01*
X203832Y409793D01*
X203892Y409733D01*
X203948Y409672D01*
X204002Y409608D01*
X204052Y409541D01*
X204100Y409472D01*
X204144Y409402D01*
X204186Y409329D01*
X204224Y409254D01*
X204258Y409178D01*
X204289Y409101D01*
X204317Y409022D01*
X204341Y408942D01*
X204361Y408861D01*
X204378Y408779D01*
X204391Y408696D01*
X204401Y408613D01*
X204406Y408530D01*
X204408Y408446D01*
X204408Y405963D01*
X196957Y415321D02*
X204408Y420288D01*
X204408Y415321D02*
X196957Y420288D01*
X196957Y424465D02*
X204408Y429432D01*
X204408Y424465D02*
X196957Y429432D01*
D11*
X164733Y431800D02*
X88733Y431800D01*
X88733Y385800D02*
X164733Y385800D01*
D12*
X133472Y405500D02*
X131892Y405500D01*
X133472Y405500D02*
X133550Y405502D01*
X133627Y405508D01*
X133704Y405517D01*
X133780Y405530D01*
X133856Y405547D01*
X133931Y405568D01*
X134004Y405592D01*
X134077Y405620D01*
X134148Y405652D01*
X134217Y405687D01*
X134284Y405725D01*
X134350Y405766D01*
X134413Y405811D01*
X134474Y405859D01*
X134533Y405909D01*
X134589Y405963D01*
X134643Y406019D01*
X134693Y406078D01*
X134741Y406139D01*
X134786Y406202D01*
X134827Y406268D01*
X134865Y406335D01*
X134900Y406404D01*
X134932Y406475D01*
X134960Y406548D01*
X134984Y406621D01*
X135005Y406696D01*
X135022Y406772D01*
X135035Y406848D01*
X135044Y406925D01*
X135050Y407002D01*
X135052Y407080D01*
X135053Y407080D02*
X135053Y411032D01*
X135052Y411032D02*
X135050Y411110D01*
X135044Y411187D01*
X135035Y411264D01*
X135022Y411340D01*
X135005Y411416D01*
X134984Y411491D01*
X134960Y411564D01*
X134932Y411637D01*
X134900Y411708D01*
X134865Y411777D01*
X134827Y411844D01*
X134786Y411910D01*
X134741Y411973D01*
X134693Y412034D01*
X134643Y412093D01*
X134589Y412149D01*
X134533Y412203D01*
X134474Y412253D01*
X134413Y412301D01*
X134350Y412346D01*
X134284Y412387D01*
X134217Y412425D01*
X134148Y412460D01*
X134077Y412492D01*
X134004Y412520D01*
X133931Y412544D01*
X133856Y412565D01*
X133780Y412582D01*
X133704Y412595D01*
X133627Y412604D01*
X133550Y412610D01*
X133472Y412612D01*
X131892Y412612D01*
X128930Y411032D02*
X126954Y412612D01*
X126954Y405500D01*
X128930Y405500D02*
X124978Y405500D01*
X121614Y405500D02*
X119639Y405500D01*
X119552Y405502D01*
X119464Y405508D01*
X119377Y405517D01*
X119291Y405531D01*
X119205Y405548D01*
X119121Y405569D01*
X119037Y405594D01*
X118954Y405623D01*
X118873Y405655D01*
X118793Y405690D01*
X118715Y405729D01*
X118638Y405772D01*
X118564Y405818D01*
X118492Y405867D01*
X118422Y405919D01*
X118354Y405975D01*
X118289Y406033D01*
X118226Y406094D01*
X118167Y406158D01*
X118110Y406225D01*
X118056Y406293D01*
X118005Y406365D01*
X117958Y406438D01*
X117913Y406513D01*
X117872Y406591D01*
X117835Y406670D01*
X117801Y406750D01*
X117771Y406832D01*
X117744Y406915D01*
X117721Y407000D01*
X117702Y407085D01*
X117687Y407171D01*
X117675Y407258D01*
X117667Y407345D01*
X117663Y407432D01*
X117663Y407520D01*
X117667Y407607D01*
X117675Y407694D01*
X117687Y407781D01*
X117702Y407867D01*
X117721Y407952D01*
X117744Y408037D01*
X117771Y408120D01*
X117801Y408202D01*
X117835Y408282D01*
X117872Y408361D01*
X117913Y408439D01*
X117958Y408514D01*
X118005Y408587D01*
X118056Y408659D01*
X118110Y408727D01*
X118167Y408794D01*
X118226Y408858D01*
X118289Y408919D01*
X118354Y408977D01*
X118422Y409033D01*
X118492Y409085D01*
X118564Y409134D01*
X118638Y409180D01*
X118715Y409223D01*
X118793Y409262D01*
X118873Y409297D01*
X118954Y409329D01*
X119037Y409358D01*
X119121Y409383D01*
X119205Y409404D01*
X119291Y409421D01*
X119377Y409435D01*
X119464Y409444D01*
X119552Y409450D01*
X119639Y409452D01*
X119244Y412612D02*
X121614Y412612D01*
X119244Y412612D02*
X119165Y412610D01*
X119087Y412604D01*
X119009Y412594D01*
X118931Y412581D01*
X118854Y412563D01*
X118778Y412542D01*
X118704Y412517D01*
X118630Y412488D01*
X118558Y412456D01*
X118488Y412420D01*
X118420Y412380D01*
X118354Y412337D01*
X118290Y412291D01*
X118228Y412242D01*
X118169Y412190D01*
X118113Y412135D01*
X118059Y412077D01*
X118009Y412017D01*
X117961Y411954D01*
X117917Y411889D01*
X117876Y411822D01*
X117838Y411753D01*
X117804Y411682D01*
X117773Y411609D01*
X117746Y411535D01*
X117723Y411460D01*
X117704Y411384D01*
X117688Y411306D01*
X117676Y411228D01*
X117668Y411150D01*
X117664Y411071D01*
X117664Y410993D01*
X117668Y410914D01*
X117676Y410836D01*
X117688Y410758D01*
X117704Y410680D01*
X117723Y410604D01*
X117746Y410529D01*
X117773Y410455D01*
X117804Y410382D01*
X117838Y410311D01*
X117876Y410242D01*
X117917Y410175D01*
X117961Y410110D01*
X118009Y410047D01*
X118059Y409987D01*
X118113Y409929D01*
X118169Y409874D01*
X118228Y409822D01*
X118290Y409773D01*
X118354Y409727D01*
X118420Y409684D01*
X118488Y409644D01*
X118558Y409608D01*
X118630Y409576D01*
X118704Y409547D01*
X118778Y409522D01*
X118854Y409501D01*
X118931Y409483D01*
X119009Y409470D01*
X119087Y409460D01*
X119165Y409454D01*
X119244Y409452D01*
X119244Y409451D02*
X120824Y409451D01*
D13*
X45346Y356109D02*
X45346Y347981D01*
X51934Y347981D01*
X73794Y347981D02*
X73794Y356109D01*
X73794Y347981D02*
X67206Y347981D01*
D10*
X92583Y362345D02*
X108331Y362345D01*
X92583Y362345D02*
X92583Y330327D01*
X47625Y330327D01*
X47625Y110363D01*
X92583Y110363D01*
X92583Y78345D01*
X162687Y78345D02*
X162687Y110363D01*
X207645Y110363D01*
X207645Y320327D01*
X197645Y330327D01*
X162687Y330327D01*
X162687Y362345D01*
X146939Y362345D01*
X108077Y78345D02*
X92583Y78345D01*
X146939Y78345D02*
X162687Y78345D01*
D12*
X69460Y389675D02*
X52460Y389675D01*
X52460Y378675D02*
X69460Y378675D01*
D14*
X64460Y384175D03*
D15*
X39327Y386849D02*
X39327Y379483D01*
X39327Y386849D02*
X37281Y386849D01*
X37192Y386847D01*
X37103Y386841D01*
X37014Y386831D01*
X36926Y386818D01*
X36838Y386801D01*
X36751Y386779D01*
X36666Y386754D01*
X36581Y386726D01*
X36498Y386693D01*
X36416Y386657D01*
X36336Y386618D01*
X36258Y386575D01*
X36182Y386529D01*
X36107Y386479D01*
X36035Y386426D01*
X35966Y386370D01*
X35899Y386311D01*
X35834Y386250D01*
X35773Y386185D01*
X35714Y386118D01*
X35658Y386049D01*
X35605Y385977D01*
X35555Y385902D01*
X35509Y385826D01*
X35466Y385748D01*
X35427Y385668D01*
X35391Y385586D01*
X35358Y385503D01*
X35330Y385418D01*
X35305Y385333D01*
X35283Y385246D01*
X35266Y385158D01*
X35253Y385070D01*
X35243Y384981D01*
X35237Y384892D01*
X35235Y384803D01*
X35235Y381529D01*
X35237Y381440D01*
X35243Y381351D01*
X35253Y381262D01*
X35266Y381174D01*
X35283Y381086D01*
X35305Y380999D01*
X35330Y380914D01*
X35358Y380829D01*
X35391Y380746D01*
X35427Y380664D01*
X35466Y380584D01*
X35509Y380506D01*
X35555Y380430D01*
X35605Y380355D01*
X35658Y380283D01*
X35714Y380214D01*
X35773Y380147D01*
X35834Y380082D01*
X35899Y380021D01*
X35966Y379962D01*
X36035Y379906D01*
X36107Y379853D01*
X36182Y379803D01*
X36258Y379757D01*
X36336Y379714D01*
X36416Y379675D01*
X36498Y379639D01*
X36581Y379606D01*
X36666Y379578D01*
X36751Y379553D01*
X36838Y379531D01*
X36926Y379514D01*
X37014Y379501D01*
X37103Y379491D01*
X37192Y379485D01*
X37281Y379483D01*
X39327Y379483D01*
X31768Y379483D02*
X29722Y379483D01*
X29633Y379485D01*
X29544Y379491D01*
X29455Y379501D01*
X29367Y379514D01*
X29279Y379531D01*
X29192Y379553D01*
X29107Y379578D01*
X29022Y379606D01*
X28939Y379639D01*
X28857Y379675D01*
X28777Y379714D01*
X28699Y379757D01*
X28623Y379803D01*
X28548Y379853D01*
X28476Y379906D01*
X28407Y379962D01*
X28340Y380021D01*
X28275Y380082D01*
X28214Y380147D01*
X28155Y380214D01*
X28099Y380283D01*
X28046Y380355D01*
X27996Y380430D01*
X27950Y380506D01*
X27907Y380584D01*
X27868Y380664D01*
X27832Y380746D01*
X27799Y380829D01*
X27771Y380914D01*
X27746Y380999D01*
X27724Y381086D01*
X27707Y381174D01*
X27694Y381262D01*
X27684Y381351D01*
X27678Y381440D01*
X27676Y381529D01*
X27678Y381618D01*
X27684Y381707D01*
X27694Y381796D01*
X27707Y381884D01*
X27724Y381972D01*
X27746Y382059D01*
X27771Y382144D01*
X27799Y382229D01*
X27832Y382312D01*
X27868Y382394D01*
X27907Y382474D01*
X27950Y382552D01*
X27996Y382628D01*
X28046Y382703D01*
X28099Y382775D01*
X28155Y382844D01*
X28214Y382911D01*
X28275Y382976D01*
X28340Y383037D01*
X28407Y383096D01*
X28476Y383152D01*
X28548Y383205D01*
X28623Y383255D01*
X28699Y383301D01*
X28777Y383344D01*
X28857Y383383D01*
X28939Y383419D01*
X29022Y383452D01*
X29107Y383480D01*
X29192Y383505D01*
X29279Y383527D01*
X29367Y383544D01*
X29455Y383557D01*
X29544Y383567D01*
X29633Y383573D01*
X29722Y383575D01*
X29313Y386849D02*
X31768Y386849D01*
X29313Y386849D02*
X29234Y386847D01*
X29155Y386841D01*
X29076Y386832D01*
X28998Y386819D01*
X28921Y386801D01*
X28845Y386781D01*
X28770Y386756D01*
X28696Y386728D01*
X28623Y386697D01*
X28552Y386661D01*
X28483Y386623D01*
X28416Y386581D01*
X28351Y386536D01*
X28288Y386488D01*
X28227Y386437D01*
X28170Y386383D01*
X28114Y386327D01*
X28062Y386268D01*
X28012Y386206D01*
X27966Y386142D01*
X27922Y386076D01*
X27882Y386008D01*
X27846Y385938D01*
X27812Y385866D01*
X27782Y385792D01*
X27756Y385718D01*
X27733Y385642D01*
X27715Y385565D01*
X27699Y385488D01*
X27688Y385409D01*
X27680Y385331D01*
X27676Y385252D01*
X27676Y385172D01*
X27680Y385093D01*
X27688Y385015D01*
X27699Y384936D01*
X27715Y384859D01*
X27733Y384782D01*
X27756Y384706D01*
X27782Y384632D01*
X27812Y384558D01*
X27846Y384486D01*
X27882Y384416D01*
X27922Y384348D01*
X27966Y384282D01*
X28012Y384218D01*
X28062Y384156D01*
X28114Y384097D01*
X28170Y384041D01*
X28227Y383987D01*
X28288Y383936D01*
X28351Y383888D01*
X28416Y383843D01*
X28483Y383801D01*
X28552Y383763D01*
X28623Y383727D01*
X28696Y383696D01*
X28770Y383668D01*
X28845Y383643D01*
X28921Y383623D01*
X28998Y383605D01*
X29076Y383592D01*
X29155Y383583D01*
X29234Y383577D01*
X29313Y383575D01*
X30950Y383575D01*
X65687Y405588D02*
X65687Y412954D01*
X63641Y412954D01*
X63552Y412952D01*
X63463Y412946D01*
X63374Y412936D01*
X63286Y412923D01*
X63198Y412906D01*
X63111Y412884D01*
X63026Y412859D01*
X62941Y412831D01*
X62858Y412798D01*
X62776Y412762D01*
X62696Y412723D01*
X62618Y412680D01*
X62542Y412634D01*
X62467Y412584D01*
X62395Y412531D01*
X62326Y412475D01*
X62259Y412416D01*
X62194Y412355D01*
X62133Y412290D01*
X62074Y412223D01*
X62018Y412154D01*
X61965Y412082D01*
X61915Y412007D01*
X61869Y411931D01*
X61826Y411853D01*
X61787Y411773D01*
X61751Y411691D01*
X61718Y411608D01*
X61690Y411523D01*
X61665Y411438D01*
X61643Y411351D01*
X61626Y411263D01*
X61613Y411175D01*
X61603Y411086D01*
X61597Y410997D01*
X61595Y410908D01*
X61597Y410819D01*
X61603Y410730D01*
X61613Y410641D01*
X61626Y410553D01*
X61643Y410465D01*
X61665Y410378D01*
X61690Y410293D01*
X61718Y410208D01*
X61751Y410125D01*
X61787Y410043D01*
X61826Y409963D01*
X61869Y409885D01*
X61915Y409809D01*
X61965Y409734D01*
X62018Y409662D01*
X62074Y409593D01*
X62133Y409526D01*
X62194Y409461D01*
X62259Y409400D01*
X62326Y409341D01*
X62395Y409285D01*
X62467Y409232D01*
X62542Y409182D01*
X62618Y409136D01*
X62696Y409093D01*
X62776Y409054D01*
X62858Y409018D01*
X62941Y408985D01*
X63026Y408957D01*
X63111Y408932D01*
X63198Y408910D01*
X63286Y408893D01*
X63374Y408880D01*
X63463Y408870D01*
X63552Y408864D01*
X63641Y408862D01*
X65687Y408862D01*
X63232Y408862D02*
X61595Y405588D01*
X56786Y408862D02*
X54331Y408862D01*
X56786Y408862D02*
X56864Y408864D01*
X56942Y408869D01*
X57019Y408879D01*
X57096Y408892D01*
X57172Y408908D01*
X57247Y408928D01*
X57321Y408952D01*
X57394Y408979D01*
X57466Y409010D01*
X57536Y409044D01*
X57605Y409081D01*
X57671Y409122D01*
X57736Y409166D01*
X57798Y409212D01*
X57858Y409262D01*
X57916Y409314D01*
X57971Y409369D01*
X58023Y409427D01*
X58073Y409487D01*
X58119Y409549D01*
X58163Y409614D01*
X58204Y409681D01*
X58241Y409749D01*
X58275Y409819D01*
X58306Y409891D01*
X58333Y409964D01*
X58357Y410038D01*
X58377Y410113D01*
X58393Y410189D01*
X58406Y410266D01*
X58416Y410343D01*
X58421Y410421D01*
X58423Y410499D01*
X58423Y410908D01*
X58421Y410997D01*
X58415Y411086D01*
X58405Y411175D01*
X58392Y411263D01*
X58375Y411351D01*
X58353Y411438D01*
X58328Y411523D01*
X58300Y411608D01*
X58267Y411691D01*
X58231Y411773D01*
X58192Y411853D01*
X58149Y411931D01*
X58103Y412007D01*
X58053Y412082D01*
X58000Y412154D01*
X57944Y412223D01*
X57885Y412290D01*
X57824Y412355D01*
X57759Y412416D01*
X57692Y412475D01*
X57623Y412531D01*
X57551Y412584D01*
X57476Y412634D01*
X57400Y412680D01*
X57322Y412723D01*
X57242Y412762D01*
X57160Y412798D01*
X57077Y412831D01*
X56992Y412859D01*
X56907Y412884D01*
X56820Y412906D01*
X56732Y412923D01*
X56644Y412936D01*
X56555Y412946D01*
X56466Y412952D01*
X56377Y412954D01*
X56288Y412952D01*
X56199Y412946D01*
X56110Y412936D01*
X56022Y412923D01*
X55934Y412906D01*
X55847Y412884D01*
X55762Y412859D01*
X55677Y412831D01*
X55594Y412798D01*
X55512Y412762D01*
X55432Y412723D01*
X55354Y412680D01*
X55278Y412634D01*
X55203Y412584D01*
X55131Y412531D01*
X55062Y412475D01*
X54995Y412416D01*
X54930Y412355D01*
X54869Y412290D01*
X54810Y412223D01*
X54754Y412154D01*
X54701Y412082D01*
X54651Y412007D01*
X54605Y411931D01*
X54562Y411853D01*
X54523Y411773D01*
X54487Y411691D01*
X54454Y411608D01*
X54426Y411523D01*
X54401Y411438D01*
X54379Y411351D01*
X54362Y411263D01*
X54349Y411175D01*
X54339Y411086D01*
X54333Y410997D01*
X54331Y410908D01*
X54331Y408862D01*
X54333Y408750D01*
X54339Y408639D01*
X54348Y408527D01*
X54361Y408416D01*
X54379Y408306D01*
X54399Y408196D01*
X54424Y408087D01*
X54452Y407979D01*
X54484Y407872D01*
X54520Y407766D01*
X54559Y407661D01*
X54602Y407558D01*
X54648Y407456D01*
X54698Y407356D01*
X54751Y407257D01*
X54808Y407161D01*
X54867Y407066D01*
X54930Y406974D01*
X54996Y406884D01*
X55065Y406796D01*
X55137Y406710D01*
X55212Y406627D01*
X55290Y406547D01*
X55370Y406469D01*
X55453Y406394D01*
X55539Y406322D01*
X55627Y406253D01*
X55717Y406187D01*
X55809Y406124D01*
X55904Y406065D01*
X56000Y406008D01*
X56099Y405955D01*
X56199Y405905D01*
X56301Y405859D01*
X56404Y405816D01*
X56509Y405777D01*
X56615Y405741D01*
X56722Y405709D01*
X56830Y405681D01*
X56939Y405656D01*
X57049Y405636D01*
X57159Y405618D01*
X57270Y405605D01*
X57382Y405596D01*
X57493Y405590D01*
X57605Y405588D01*
M02*
