G04 EAGLE Gerber RS-274X export*
G75*
%MOMM*%
%FSLAX34Y34*%
%LPD*%
%INSilkscreen Top*%
%IPPOS*%
%AMOC8*
5,1,8,0,0,1.08239X$1,22.5*%
G01*
%ADD10C,0.101600*%
%ADD11C,0.177800*%
%ADD12C,0.127000*%
%ADD13C,0.203200*%
%ADD14C,0.254000*%
%ADD15C,0.152400*%
%ADD16C,0.076200*%
%ADD17C,0.200000*%
%ADD18R,0.762000X5.715000*%
%ADD19R,3.810000X0.381000*%
%ADD20R,0.508000X5.715000*%
%ADD21R,2.921000X0.381000*%
%ADD22R,0.381000X3.429000*%
%ADD23R,0.355600X4.622800*%


D10*
X65363Y308483D02*
X74451Y308483D01*
X74451Y308482D02*
X74550Y308480D01*
X74650Y308474D01*
X74749Y308465D01*
X74847Y308452D01*
X74945Y308435D01*
X75043Y308414D01*
X75139Y308389D01*
X75234Y308361D01*
X75328Y308329D01*
X75421Y308294D01*
X75513Y308255D01*
X75603Y308212D01*
X75691Y308167D01*
X75778Y308117D01*
X75862Y308065D01*
X75945Y308009D01*
X76025Y307951D01*
X76103Y307889D01*
X76178Y307824D01*
X76251Y307756D01*
X76321Y307686D01*
X76389Y307613D01*
X76454Y307538D01*
X76516Y307460D01*
X76574Y307380D01*
X76630Y307297D01*
X76682Y307213D01*
X76732Y307126D01*
X76777Y307038D01*
X76820Y306948D01*
X76859Y306856D01*
X76894Y306763D01*
X76926Y306669D01*
X76954Y306574D01*
X76979Y306478D01*
X77000Y306380D01*
X77017Y306282D01*
X77030Y306184D01*
X77039Y306085D01*
X77045Y305985D01*
X77047Y305886D01*
X77047Y304588D01*
X77047Y314160D02*
X65363Y314160D01*
X77047Y314160D02*
X77047Y319353D01*
X77047Y326225D02*
X77047Y328822D01*
X77047Y326225D02*
X77045Y326126D01*
X77039Y326026D01*
X77030Y325927D01*
X77017Y325829D01*
X77000Y325731D01*
X76979Y325633D01*
X76954Y325537D01*
X76926Y325442D01*
X76894Y325348D01*
X76859Y325255D01*
X76820Y325163D01*
X76777Y325073D01*
X76732Y324985D01*
X76682Y324898D01*
X76630Y324814D01*
X76574Y324731D01*
X76516Y324651D01*
X76454Y324573D01*
X76389Y324498D01*
X76321Y324425D01*
X76251Y324355D01*
X76178Y324287D01*
X76103Y324222D01*
X76025Y324160D01*
X75945Y324102D01*
X75862Y324046D01*
X75778Y323994D01*
X75691Y323944D01*
X75603Y323899D01*
X75513Y323856D01*
X75421Y323817D01*
X75328Y323782D01*
X75234Y323750D01*
X75139Y323722D01*
X75043Y323697D01*
X74945Y323676D01*
X74847Y323659D01*
X74749Y323646D01*
X74650Y323637D01*
X74550Y323631D01*
X74451Y323629D01*
X67959Y323629D01*
X67959Y323628D02*
X67860Y323630D01*
X67760Y323636D01*
X67661Y323645D01*
X67563Y323658D01*
X67465Y323676D01*
X67367Y323696D01*
X67271Y323721D01*
X67175Y323749D01*
X67081Y323781D01*
X66988Y323816D01*
X66897Y323855D01*
X66807Y323898D01*
X66718Y323943D01*
X66632Y323993D01*
X66547Y324045D01*
X66465Y324101D01*
X66385Y324160D01*
X66307Y324221D01*
X66231Y324286D01*
X66158Y324354D01*
X66088Y324424D01*
X66020Y324497D01*
X65955Y324573D01*
X65894Y324651D01*
X65835Y324731D01*
X65779Y324813D01*
X65727Y324898D01*
X65678Y324984D01*
X65632Y325073D01*
X65589Y325163D01*
X65550Y325254D01*
X65515Y325347D01*
X65483Y325441D01*
X65455Y325537D01*
X65430Y325633D01*
X65410Y325731D01*
X65392Y325829D01*
X65379Y325927D01*
X65370Y326026D01*
X65364Y326125D01*
X65362Y326225D01*
X65363Y326225D02*
X65363Y328822D01*
X65363Y335915D02*
X74451Y335915D01*
X74451Y335914D02*
X74550Y335912D01*
X74650Y335906D01*
X74749Y335897D01*
X74847Y335884D01*
X74945Y335867D01*
X75043Y335846D01*
X75139Y335821D01*
X75234Y335793D01*
X75328Y335761D01*
X75421Y335726D01*
X75513Y335687D01*
X75603Y335644D01*
X75691Y335599D01*
X75778Y335549D01*
X75862Y335497D01*
X75945Y335441D01*
X76025Y335383D01*
X76103Y335321D01*
X76178Y335256D01*
X76251Y335188D01*
X76321Y335118D01*
X76389Y335045D01*
X76454Y334970D01*
X76516Y334892D01*
X76574Y334812D01*
X76630Y334729D01*
X76682Y334645D01*
X76732Y334558D01*
X76777Y334470D01*
X76820Y334380D01*
X76859Y334288D01*
X76894Y334195D01*
X76926Y334101D01*
X76954Y334006D01*
X76979Y333910D01*
X77000Y333812D01*
X77017Y333714D01*
X77030Y333616D01*
X77039Y333517D01*
X77045Y333417D01*
X77047Y333318D01*
X77047Y332020D01*
X77047Y341592D02*
X65363Y341592D01*
X77047Y341592D02*
X77047Y346785D01*
X77047Y353657D02*
X77047Y356254D01*
X77047Y353657D02*
X77045Y353558D01*
X77039Y353458D01*
X77030Y353359D01*
X77017Y353261D01*
X77000Y353163D01*
X76979Y353065D01*
X76954Y352969D01*
X76926Y352874D01*
X76894Y352780D01*
X76859Y352687D01*
X76820Y352595D01*
X76777Y352505D01*
X76732Y352417D01*
X76682Y352330D01*
X76630Y352246D01*
X76574Y352163D01*
X76516Y352083D01*
X76454Y352005D01*
X76389Y351930D01*
X76321Y351857D01*
X76251Y351787D01*
X76178Y351719D01*
X76103Y351654D01*
X76025Y351592D01*
X75945Y351534D01*
X75862Y351478D01*
X75778Y351426D01*
X75691Y351376D01*
X75603Y351331D01*
X75513Y351288D01*
X75421Y351249D01*
X75328Y351214D01*
X75234Y351182D01*
X75139Y351154D01*
X75043Y351129D01*
X74945Y351108D01*
X74847Y351091D01*
X74749Y351078D01*
X74650Y351069D01*
X74550Y351063D01*
X74451Y351061D01*
X67959Y351061D01*
X67959Y351060D02*
X67860Y351062D01*
X67760Y351068D01*
X67661Y351077D01*
X67563Y351090D01*
X67465Y351108D01*
X67367Y351128D01*
X67271Y351153D01*
X67175Y351181D01*
X67081Y351213D01*
X66988Y351248D01*
X66897Y351287D01*
X66807Y351330D01*
X66718Y351375D01*
X66632Y351425D01*
X66547Y351477D01*
X66465Y351533D01*
X66385Y351592D01*
X66307Y351653D01*
X66231Y351718D01*
X66158Y351786D01*
X66088Y351856D01*
X66020Y351929D01*
X65955Y352005D01*
X65894Y352083D01*
X65835Y352163D01*
X65779Y352245D01*
X65727Y352330D01*
X65678Y352416D01*
X65632Y352505D01*
X65589Y352595D01*
X65550Y352686D01*
X65515Y352779D01*
X65483Y352873D01*
X65455Y352969D01*
X65430Y353065D01*
X65410Y353163D01*
X65392Y353261D01*
X65379Y353359D01*
X65370Y353458D01*
X65364Y353557D01*
X65362Y353657D01*
X65363Y353657D02*
X65363Y356254D01*
X65363Y363347D02*
X74451Y363347D01*
X74451Y363346D02*
X74550Y363344D01*
X74650Y363338D01*
X74749Y363329D01*
X74847Y363316D01*
X74945Y363299D01*
X75043Y363278D01*
X75139Y363253D01*
X75234Y363225D01*
X75328Y363193D01*
X75421Y363158D01*
X75513Y363119D01*
X75603Y363076D01*
X75691Y363031D01*
X75778Y362981D01*
X75862Y362929D01*
X75945Y362873D01*
X76025Y362815D01*
X76103Y362753D01*
X76178Y362688D01*
X76251Y362620D01*
X76321Y362550D01*
X76389Y362477D01*
X76454Y362402D01*
X76516Y362324D01*
X76574Y362244D01*
X76630Y362161D01*
X76682Y362077D01*
X76732Y361990D01*
X76777Y361902D01*
X76820Y361812D01*
X76859Y361720D01*
X76894Y361627D01*
X76926Y361533D01*
X76954Y361438D01*
X76979Y361342D01*
X77000Y361244D01*
X77017Y361146D01*
X77030Y361048D01*
X77039Y360949D01*
X77045Y360849D01*
X77047Y360750D01*
X77047Y359452D01*
X77047Y369024D02*
X65363Y369024D01*
X77047Y369024D02*
X77047Y374217D01*
X77047Y381089D02*
X77047Y383686D01*
X77047Y381089D02*
X77045Y380990D01*
X77039Y380890D01*
X77030Y380791D01*
X77017Y380693D01*
X77000Y380595D01*
X76979Y380497D01*
X76954Y380401D01*
X76926Y380306D01*
X76894Y380212D01*
X76859Y380119D01*
X76820Y380027D01*
X76777Y379937D01*
X76732Y379849D01*
X76682Y379762D01*
X76630Y379678D01*
X76574Y379595D01*
X76516Y379515D01*
X76454Y379437D01*
X76389Y379362D01*
X76321Y379289D01*
X76251Y379219D01*
X76178Y379151D01*
X76103Y379086D01*
X76025Y379024D01*
X75945Y378966D01*
X75862Y378910D01*
X75778Y378858D01*
X75691Y378808D01*
X75603Y378763D01*
X75513Y378720D01*
X75421Y378681D01*
X75328Y378646D01*
X75234Y378614D01*
X75139Y378586D01*
X75043Y378561D01*
X74945Y378540D01*
X74847Y378523D01*
X74749Y378510D01*
X74650Y378501D01*
X74550Y378495D01*
X74451Y378493D01*
X67959Y378493D01*
X67959Y378492D02*
X67860Y378494D01*
X67760Y378500D01*
X67661Y378509D01*
X67563Y378522D01*
X67465Y378540D01*
X67367Y378560D01*
X67271Y378585D01*
X67175Y378613D01*
X67081Y378645D01*
X66988Y378680D01*
X66897Y378719D01*
X66807Y378762D01*
X66718Y378807D01*
X66632Y378857D01*
X66547Y378909D01*
X66465Y378965D01*
X66385Y379024D01*
X66307Y379085D01*
X66231Y379150D01*
X66158Y379218D01*
X66088Y379288D01*
X66020Y379361D01*
X65955Y379437D01*
X65894Y379515D01*
X65835Y379595D01*
X65779Y379677D01*
X65727Y379762D01*
X65678Y379848D01*
X65632Y379937D01*
X65589Y380027D01*
X65550Y380118D01*
X65515Y380211D01*
X65483Y380305D01*
X65455Y380401D01*
X65430Y380497D01*
X65410Y380595D01*
X65392Y380693D01*
X65379Y380791D01*
X65370Y380890D01*
X65364Y380989D01*
X65362Y381089D01*
X65363Y381089D02*
X65363Y383686D01*
X65363Y390779D02*
X74451Y390779D01*
X74451Y390778D02*
X74550Y390776D01*
X74650Y390770D01*
X74749Y390761D01*
X74847Y390748D01*
X74945Y390731D01*
X75043Y390710D01*
X75139Y390685D01*
X75234Y390657D01*
X75328Y390625D01*
X75421Y390590D01*
X75513Y390551D01*
X75603Y390508D01*
X75691Y390463D01*
X75778Y390413D01*
X75862Y390361D01*
X75945Y390305D01*
X76025Y390247D01*
X76103Y390185D01*
X76178Y390120D01*
X76251Y390052D01*
X76321Y389982D01*
X76389Y389909D01*
X76454Y389834D01*
X76516Y389756D01*
X76574Y389676D01*
X76630Y389593D01*
X76682Y389509D01*
X76732Y389422D01*
X76777Y389334D01*
X76820Y389244D01*
X76859Y389152D01*
X76894Y389059D01*
X76926Y388965D01*
X76954Y388870D01*
X76979Y388774D01*
X77000Y388676D01*
X77017Y388578D01*
X77030Y388480D01*
X77039Y388381D01*
X77045Y388281D01*
X77047Y388182D01*
X77047Y386884D01*
X77047Y396456D02*
X65363Y396456D01*
X77047Y396456D02*
X77047Y401649D01*
X77047Y408521D02*
X77047Y411118D01*
X77047Y408521D02*
X77045Y408422D01*
X77039Y408322D01*
X77030Y408223D01*
X77017Y408125D01*
X77000Y408027D01*
X76979Y407929D01*
X76954Y407833D01*
X76926Y407738D01*
X76894Y407644D01*
X76859Y407551D01*
X76820Y407459D01*
X76777Y407369D01*
X76732Y407281D01*
X76682Y407194D01*
X76630Y407110D01*
X76574Y407027D01*
X76516Y406947D01*
X76454Y406869D01*
X76389Y406794D01*
X76321Y406721D01*
X76251Y406651D01*
X76178Y406583D01*
X76103Y406518D01*
X76025Y406456D01*
X75945Y406398D01*
X75862Y406342D01*
X75778Y406290D01*
X75691Y406240D01*
X75603Y406195D01*
X75513Y406152D01*
X75421Y406113D01*
X75328Y406078D01*
X75234Y406046D01*
X75139Y406018D01*
X75043Y405993D01*
X74945Y405972D01*
X74847Y405955D01*
X74749Y405942D01*
X74650Y405933D01*
X74550Y405927D01*
X74451Y405925D01*
X67959Y405925D01*
X67959Y405924D02*
X67860Y405926D01*
X67760Y405932D01*
X67661Y405941D01*
X67563Y405954D01*
X67465Y405972D01*
X67367Y405992D01*
X67271Y406017D01*
X67175Y406045D01*
X67081Y406077D01*
X66988Y406112D01*
X66897Y406151D01*
X66807Y406194D01*
X66718Y406239D01*
X66632Y406289D01*
X66547Y406341D01*
X66465Y406397D01*
X66385Y406456D01*
X66307Y406517D01*
X66231Y406582D01*
X66158Y406650D01*
X66088Y406720D01*
X66020Y406793D01*
X65955Y406869D01*
X65894Y406947D01*
X65835Y407027D01*
X65779Y407109D01*
X65727Y407194D01*
X65678Y407280D01*
X65632Y407369D01*
X65589Y407459D01*
X65550Y407550D01*
X65515Y407643D01*
X65483Y407737D01*
X65455Y407833D01*
X65430Y407929D01*
X65410Y408027D01*
X65392Y408125D01*
X65379Y408223D01*
X65370Y408322D01*
X65364Y408421D01*
X65362Y408521D01*
X65363Y408521D02*
X65363Y411118D01*
X54693Y63545D02*
X54693Y56433D01*
X54693Y63545D02*
X56669Y63545D01*
X56756Y63543D01*
X56844Y63537D01*
X56931Y63528D01*
X57017Y63514D01*
X57103Y63497D01*
X57187Y63476D01*
X57271Y63451D01*
X57354Y63422D01*
X57435Y63390D01*
X57515Y63355D01*
X57593Y63316D01*
X57670Y63273D01*
X57744Y63227D01*
X57816Y63178D01*
X57886Y63126D01*
X57954Y63070D01*
X58019Y63012D01*
X58082Y62951D01*
X58141Y62887D01*
X58198Y62820D01*
X58252Y62752D01*
X58303Y62680D01*
X58350Y62607D01*
X58395Y62532D01*
X58436Y62454D01*
X58473Y62375D01*
X58507Y62295D01*
X58537Y62213D01*
X58564Y62130D01*
X58587Y62045D01*
X58606Y61960D01*
X58621Y61874D01*
X58633Y61787D01*
X58641Y61700D01*
X58645Y61613D01*
X58645Y61525D01*
X58641Y61438D01*
X58633Y61351D01*
X58621Y61264D01*
X58606Y61178D01*
X58587Y61093D01*
X58564Y61008D01*
X58537Y60925D01*
X58507Y60843D01*
X58473Y60763D01*
X58436Y60684D01*
X58395Y60606D01*
X58350Y60531D01*
X58303Y60458D01*
X58252Y60386D01*
X58198Y60318D01*
X58141Y60251D01*
X58082Y60187D01*
X58019Y60126D01*
X57954Y60068D01*
X57886Y60012D01*
X57816Y59960D01*
X57744Y59911D01*
X57670Y59865D01*
X57593Y59822D01*
X57515Y59783D01*
X57435Y59748D01*
X57354Y59716D01*
X57271Y59687D01*
X57187Y59662D01*
X57103Y59641D01*
X57017Y59624D01*
X56931Y59610D01*
X56844Y59601D01*
X56756Y59595D01*
X56669Y59593D01*
X56669Y59594D02*
X54693Y59594D01*
X57064Y59594D02*
X58644Y56433D01*
X202089Y60749D02*
X203274Y60749D01*
X203274Y56798D01*
X200903Y56798D01*
X200825Y56800D01*
X200748Y56806D01*
X200671Y56815D01*
X200595Y56828D01*
X200519Y56845D01*
X200444Y56866D01*
X200371Y56890D01*
X200298Y56918D01*
X200227Y56950D01*
X200158Y56985D01*
X200091Y57023D01*
X200025Y57064D01*
X199962Y57109D01*
X199901Y57157D01*
X199842Y57207D01*
X199786Y57261D01*
X199732Y57317D01*
X199682Y57376D01*
X199634Y57437D01*
X199589Y57500D01*
X199548Y57566D01*
X199510Y57633D01*
X199475Y57702D01*
X199443Y57773D01*
X199415Y57846D01*
X199391Y57919D01*
X199370Y57994D01*
X199353Y58070D01*
X199340Y58146D01*
X199331Y58223D01*
X199325Y58300D01*
X199323Y58378D01*
X199323Y62330D01*
X199325Y62408D01*
X199331Y62485D01*
X199340Y62562D01*
X199353Y62638D01*
X199370Y62714D01*
X199391Y62789D01*
X199415Y62862D01*
X199443Y62935D01*
X199475Y63006D01*
X199510Y63075D01*
X199548Y63142D01*
X199589Y63208D01*
X199634Y63271D01*
X199682Y63332D01*
X199732Y63391D01*
X199786Y63447D01*
X199842Y63501D01*
X199901Y63551D01*
X199962Y63599D01*
X200025Y63644D01*
X200091Y63685D01*
X200158Y63723D01*
X200227Y63758D01*
X200298Y63790D01*
X200371Y63818D01*
X200444Y63842D01*
X200519Y63863D01*
X200595Y63880D01*
X200671Y63893D01*
X200748Y63902D01*
X200825Y63908D01*
X200903Y63910D01*
X203274Y63910D01*
D11*
X45446Y191799D02*
X44755Y191799D01*
X44755Y192490D01*
X45446Y192490D01*
X45446Y191799D01*
D12*
X31746Y412360D02*
X31604Y412362D01*
X31461Y412367D01*
X31319Y412376D01*
X31177Y412389D01*
X31036Y412405D01*
X30895Y412424D01*
X30754Y412448D01*
X30614Y412474D01*
X30475Y412505D01*
X30337Y412539D01*
X30199Y412576D01*
X30063Y412616D01*
X29927Y412661D01*
X29793Y412708D01*
X29660Y412759D01*
X29528Y412813D01*
X29398Y412871D01*
X29269Y412932D01*
X29270Y412931D02*
X29201Y412957D01*
X29135Y412986D01*
X29069Y413018D01*
X29006Y413053D01*
X28944Y413092D01*
X28884Y413134D01*
X28827Y413179D01*
X28772Y413227D01*
X28720Y413278D01*
X28670Y413331D01*
X28624Y413387D01*
X28580Y413445D01*
X28539Y413506D01*
X28501Y413568D01*
X28467Y413632D01*
X28436Y413698D01*
X28408Y413766D01*
X28384Y413835D01*
X28364Y413905D01*
X28347Y413976D01*
X28334Y414047D01*
X28325Y414119D01*
X28319Y414192D01*
X28317Y414265D01*
X28319Y414338D01*
X28325Y414411D01*
X28334Y414483D01*
X28347Y414554D01*
X28364Y414625D01*
X28384Y414695D01*
X28408Y414764D01*
X28436Y414832D01*
X28467Y414898D01*
X28501Y414962D01*
X28539Y415024D01*
X28580Y415085D01*
X28624Y415143D01*
X28670Y415199D01*
X28720Y415252D01*
X28772Y415303D01*
X28827Y415351D01*
X28884Y415396D01*
X28944Y415438D01*
X29006Y415477D01*
X29069Y415512D01*
X29135Y415544D01*
X29201Y415573D01*
X29270Y415599D01*
X29269Y415599D02*
X29398Y415660D01*
X29528Y415718D01*
X29660Y415772D01*
X29793Y415823D01*
X29927Y415870D01*
X30063Y415915D01*
X30199Y415955D01*
X30337Y415992D01*
X30475Y416026D01*
X30614Y416057D01*
X30754Y416083D01*
X30895Y416107D01*
X31036Y416126D01*
X31177Y416142D01*
X31319Y416155D01*
X31461Y416164D01*
X31604Y416169D01*
X31746Y416171D01*
X31746Y412360D02*
X31888Y412362D01*
X32031Y412367D01*
X32173Y412376D01*
X32315Y412389D01*
X32456Y412405D01*
X32597Y412424D01*
X32738Y412448D01*
X32878Y412474D01*
X33017Y412505D01*
X33155Y412539D01*
X33293Y412576D01*
X33429Y412616D01*
X33565Y412661D01*
X33699Y412708D01*
X33832Y412759D01*
X33964Y412813D01*
X34094Y412871D01*
X34223Y412932D01*
X34222Y412931D02*
X34291Y412957D01*
X34357Y412986D01*
X34423Y413018D01*
X34486Y413053D01*
X34548Y413092D01*
X34608Y413134D01*
X34665Y413179D01*
X34720Y413227D01*
X34772Y413278D01*
X34822Y413331D01*
X34868Y413387D01*
X34912Y413445D01*
X34953Y413506D01*
X34991Y413568D01*
X35025Y413632D01*
X35056Y413698D01*
X35084Y413766D01*
X35108Y413835D01*
X35128Y413905D01*
X35145Y413976D01*
X35158Y414047D01*
X35167Y414119D01*
X35173Y414192D01*
X35175Y414265D01*
X34223Y415599D02*
X34094Y415660D01*
X33964Y415718D01*
X33832Y415772D01*
X33699Y415823D01*
X33565Y415870D01*
X33429Y415915D01*
X33293Y415955D01*
X33155Y415992D01*
X33017Y416026D01*
X32878Y416057D01*
X32738Y416083D01*
X32597Y416107D01*
X32456Y416126D01*
X32315Y416142D01*
X32173Y416155D01*
X32031Y416164D01*
X31888Y416169D01*
X31746Y416171D01*
X34222Y415599D02*
X34291Y415573D01*
X34357Y415544D01*
X34423Y415512D01*
X34486Y415477D01*
X34548Y415438D01*
X34608Y415396D01*
X34665Y415351D01*
X34720Y415303D01*
X34772Y415252D01*
X34822Y415199D01*
X34868Y415143D01*
X34912Y415085D01*
X34953Y415024D01*
X34991Y414962D01*
X35025Y414898D01*
X35056Y414832D01*
X35084Y414764D01*
X35108Y414695D01*
X35128Y414625D01*
X35145Y414554D01*
X35158Y414483D01*
X35167Y414411D01*
X35173Y414338D01*
X35175Y414265D01*
X33651Y412741D02*
X29841Y415789D01*
X28317Y388865D02*
X29841Y386960D01*
X28317Y388865D02*
X35175Y388865D01*
X35175Y386960D02*
X35175Y390770D01*
X30032Y366006D02*
X29950Y366004D01*
X29869Y365998D01*
X29788Y365989D01*
X29707Y365975D01*
X29628Y365958D01*
X29549Y365937D01*
X29471Y365912D01*
X29395Y365883D01*
X29320Y365851D01*
X29246Y365815D01*
X29175Y365776D01*
X29105Y365734D01*
X29037Y365688D01*
X28972Y365639D01*
X28909Y365587D01*
X28849Y365532D01*
X28791Y365474D01*
X28736Y365414D01*
X28684Y365351D01*
X28635Y365286D01*
X28589Y365218D01*
X28547Y365149D01*
X28508Y365077D01*
X28472Y365003D01*
X28440Y364928D01*
X28411Y364852D01*
X28386Y364774D01*
X28365Y364695D01*
X28348Y364616D01*
X28334Y364535D01*
X28325Y364454D01*
X28319Y364373D01*
X28317Y364291D01*
X28319Y364199D01*
X28325Y364107D01*
X28334Y364015D01*
X28348Y363923D01*
X28365Y363833D01*
X28386Y363743D01*
X28411Y363654D01*
X28440Y363566D01*
X28472Y363479D01*
X28508Y363394D01*
X28547Y363311D01*
X28590Y363229D01*
X28636Y363149D01*
X28686Y363071D01*
X28738Y362995D01*
X28794Y362922D01*
X28853Y362851D01*
X28915Y362782D01*
X28980Y362716D01*
X29047Y362653D01*
X29117Y362593D01*
X29189Y362535D01*
X29264Y362481D01*
X29341Y362430D01*
X29420Y362382D01*
X29501Y362338D01*
X29584Y362297D01*
X29668Y362259D01*
X29754Y362225D01*
X29841Y362195D01*
X31366Y365434D02*
X31307Y365493D01*
X31246Y365549D01*
X31183Y365602D01*
X31117Y365653D01*
X31049Y365700D01*
X30979Y365744D01*
X30907Y365785D01*
X30833Y365823D01*
X30758Y365857D01*
X30681Y365888D01*
X30603Y365915D01*
X30523Y365939D01*
X30443Y365960D01*
X30362Y365976D01*
X30280Y365989D01*
X30198Y365999D01*
X30115Y366004D01*
X30032Y366006D01*
X31365Y365434D02*
X35175Y362195D01*
X35175Y366005D01*
X35175Y338065D02*
X35175Y336160D01*
X35175Y338065D02*
X35173Y338150D01*
X35167Y338236D01*
X35158Y338321D01*
X35144Y338405D01*
X35127Y338489D01*
X35106Y338572D01*
X35082Y338654D01*
X35054Y338734D01*
X35022Y338814D01*
X34986Y338892D01*
X34948Y338968D01*
X34905Y339042D01*
X34860Y339114D01*
X34811Y339185D01*
X34759Y339253D01*
X34705Y339318D01*
X34647Y339381D01*
X34586Y339442D01*
X34523Y339500D01*
X34458Y339554D01*
X34390Y339606D01*
X34319Y339655D01*
X34247Y339700D01*
X34173Y339743D01*
X34097Y339781D01*
X34019Y339817D01*
X33939Y339849D01*
X33859Y339877D01*
X33777Y339901D01*
X33694Y339922D01*
X33610Y339939D01*
X33526Y339953D01*
X33441Y339962D01*
X33355Y339968D01*
X33270Y339970D01*
X33185Y339968D01*
X33099Y339962D01*
X33014Y339953D01*
X32930Y339939D01*
X32846Y339922D01*
X32763Y339901D01*
X32681Y339877D01*
X32601Y339849D01*
X32521Y339817D01*
X32443Y339781D01*
X32367Y339743D01*
X32293Y339700D01*
X32221Y339655D01*
X32150Y339606D01*
X32082Y339554D01*
X32017Y339500D01*
X31954Y339442D01*
X31893Y339381D01*
X31835Y339318D01*
X31781Y339253D01*
X31729Y339185D01*
X31680Y339114D01*
X31635Y339042D01*
X31592Y338968D01*
X31554Y338892D01*
X31518Y338814D01*
X31486Y338734D01*
X31458Y338654D01*
X31434Y338572D01*
X31413Y338489D01*
X31396Y338405D01*
X31382Y338321D01*
X31373Y338236D01*
X31367Y338150D01*
X31365Y338065D01*
X28317Y338446D02*
X28317Y336160D01*
X28317Y338446D02*
X28319Y338523D01*
X28325Y338600D01*
X28335Y338677D01*
X28348Y338753D01*
X28366Y338828D01*
X28387Y338902D01*
X28412Y338975D01*
X28441Y339047D01*
X28473Y339117D01*
X28508Y339186D01*
X28548Y339252D01*
X28590Y339317D01*
X28636Y339379D01*
X28685Y339439D01*
X28736Y339496D01*
X28791Y339551D01*
X28848Y339602D01*
X28908Y339651D01*
X28970Y339697D01*
X29035Y339739D01*
X29101Y339779D01*
X29170Y339814D01*
X29240Y339846D01*
X29312Y339875D01*
X29385Y339900D01*
X29459Y339921D01*
X29534Y339939D01*
X29610Y339952D01*
X29687Y339962D01*
X29764Y339968D01*
X29841Y339970D01*
X29918Y339968D01*
X29995Y339962D01*
X30072Y339952D01*
X30148Y339939D01*
X30223Y339921D01*
X30297Y339900D01*
X30370Y339875D01*
X30442Y339846D01*
X30512Y339814D01*
X30581Y339779D01*
X30647Y339739D01*
X30712Y339697D01*
X30774Y339651D01*
X30834Y339602D01*
X30891Y339551D01*
X30946Y339496D01*
X30997Y339439D01*
X31046Y339379D01*
X31092Y339317D01*
X31134Y339252D01*
X31174Y339186D01*
X31209Y339117D01*
X31241Y339047D01*
X31270Y338975D01*
X31295Y338902D01*
X31316Y338828D01*
X31334Y338753D01*
X31347Y338677D01*
X31357Y338600D01*
X31363Y338523D01*
X31365Y338446D01*
X31365Y336922D01*
X28952Y311649D02*
X34286Y310125D01*
X34286Y313935D01*
X32762Y312792D02*
X35810Y312792D01*
X35175Y287646D02*
X35175Y285360D01*
X35175Y287646D02*
X35173Y287723D01*
X35167Y287800D01*
X35157Y287877D01*
X35144Y287953D01*
X35126Y288028D01*
X35105Y288102D01*
X35080Y288175D01*
X35051Y288247D01*
X35019Y288317D01*
X34984Y288386D01*
X34944Y288452D01*
X34902Y288517D01*
X34856Y288579D01*
X34807Y288639D01*
X34756Y288696D01*
X34701Y288751D01*
X34644Y288802D01*
X34584Y288851D01*
X34522Y288897D01*
X34457Y288939D01*
X34391Y288979D01*
X34322Y289014D01*
X34252Y289046D01*
X34180Y289075D01*
X34107Y289100D01*
X34033Y289121D01*
X33958Y289139D01*
X33882Y289152D01*
X33805Y289162D01*
X33728Y289168D01*
X33651Y289170D01*
X32889Y289170D01*
X32812Y289168D01*
X32735Y289162D01*
X32658Y289152D01*
X32582Y289139D01*
X32507Y289121D01*
X32433Y289100D01*
X32360Y289075D01*
X32288Y289046D01*
X32218Y289014D01*
X32149Y288979D01*
X32083Y288939D01*
X32018Y288897D01*
X31956Y288851D01*
X31896Y288802D01*
X31839Y288751D01*
X31784Y288696D01*
X31733Y288639D01*
X31684Y288579D01*
X31638Y288517D01*
X31596Y288452D01*
X31556Y288386D01*
X31521Y288317D01*
X31489Y288247D01*
X31460Y288175D01*
X31435Y288102D01*
X31414Y288028D01*
X31396Y287953D01*
X31383Y287877D01*
X31373Y287800D01*
X31367Y287723D01*
X31365Y287646D01*
X31365Y285360D01*
X28317Y285360D01*
X28317Y289170D01*
X31365Y262246D02*
X31365Y259960D01*
X31365Y262246D02*
X31367Y262323D01*
X31373Y262400D01*
X31383Y262477D01*
X31396Y262553D01*
X31414Y262628D01*
X31435Y262702D01*
X31460Y262775D01*
X31489Y262847D01*
X31521Y262917D01*
X31556Y262986D01*
X31596Y263052D01*
X31638Y263117D01*
X31684Y263179D01*
X31733Y263239D01*
X31784Y263296D01*
X31839Y263351D01*
X31896Y263402D01*
X31956Y263451D01*
X32018Y263497D01*
X32083Y263539D01*
X32149Y263579D01*
X32218Y263614D01*
X32288Y263646D01*
X32360Y263675D01*
X32433Y263700D01*
X32507Y263721D01*
X32582Y263739D01*
X32658Y263752D01*
X32735Y263762D01*
X32812Y263768D01*
X32889Y263770D01*
X33270Y263770D01*
X33355Y263768D01*
X33441Y263762D01*
X33526Y263753D01*
X33610Y263739D01*
X33694Y263722D01*
X33777Y263701D01*
X33859Y263677D01*
X33939Y263649D01*
X34019Y263617D01*
X34097Y263581D01*
X34173Y263543D01*
X34247Y263500D01*
X34319Y263455D01*
X34390Y263406D01*
X34458Y263354D01*
X34523Y263300D01*
X34586Y263242D01*
X34647Y263181D01*
X34705Y263118D01*
X34759Y263053D01*
X34811Y262985D01*
X34860Y262914D01*
X34905Y262842D01*
X34948Y262768D01*
X34986Y262692D01*
X35022Y262614D01*
X35054Y262534D01*
X35082Y262454D01*
X35106Y262372D01*
X35127Y262289D01*
X35144Y262205D01*
X35158Y262121D01*
X35167Y262036D01*
X35173Y261950D01*
X35175Y261865D01*
X35173Y261780D01*
X35167Y261694D01*
X35158Y261609D01*
X35144Y261525D01*
X35127Y261441D01*
X35106Y261358D01*
X35082Y261276D01*
X35054Y261196D01*
X35022Y261116D01*
X34986Y261038D01*
X34948Y260962D01*
X34905Y260888D01*
X34860Y260816D01*
X34811Y260745D01*
X34759Y260677D01*
X34705Y260612D01*
X34647Y260549D01*
X34586Y260488D01*
X34523Y260430D01*
X34458Y260376D01*
X34390Y260324D01*
X34319Y260275D01*
X34247Y260230D01*
X34173Y260187D01*
X34097Y260149D01*
X34019Y260113D01*
X33939Y260081D01*
X33859Y260053D01*
X33777Y260029D01*
X33694Y260008D01*
X33610Y259991D01*
X33526Y259977D01*
X33441Y259968D01*
X33355Y259962D01*
X33270Y259960D01*
X31365Y259960D01*
X31256Y259962D01*
X31148Y259968D01*
X31039Y259977D01*
X30931Y259991D01*
X30824Y260008D01*
X30717Y260030D01*
X30611Y260055D01*
X30506Y260083D01*
X30402Y260116D01*
X30300Y260152D01*
X30199Y260192D01*
X30099Y260235D01*
X30001Y260282D01*
X29904Y260333D01*
X29810Y260387D01*
X29717Y260444D01*
X29627Y260504D01*
X29538Y260568D01*
X29452Y260635D01*
X29369Y260704D01*
X29288Y260777D01*
X29210Y260853D01*
X29134Y260931D01*
X29061Y261012D01*
X28992Y261095D01*
X28925Y261181D01*
X28861Y261270D01*
X28801Y261360D01*
X28744Y261453D01*
X28690Y261547D01*
X28639Y261644D01*
X28592Y261742D01*
X28549Y261842D01*
X28509Y261943D01*
X28473Y262045D01*
X28440Y262149D01*
X28412Y262254D01*
X28387Y262360D01*
X28365Y262467D01*
X28348Y262574D01*
X28334Y262682D01*
X28325Y262791D01*
X28319Y262899D01*
X28317Y263008D01*
X28317Y233925D02*
X29079Y233925D01*
X28317Y233925D02*
X28317Y237735D01*
X35175Y235830D01*
X33270Y212970D02*
X33185Y212968D01*
X33099Y212962D01*
X33014Y212953D01*
X32930Y212939D01*
X32846Y212922D01*
X32763Y212901D01*
X32681Y212877D01*
X32601Y212849D01*
X32521Y212817D01*
X32443Y212781D01*
X32367Y212743D01*
X32293Y212700D01*
X32221Y212655D01*
X32150Y212606D01*
X32082Y212554D01*
X32017Y212500D01*
X31954Y212442D01*
X31893Y212381D01*
X31835Y212318D01*
X31781Y212253D01*
X31729Y212185D01*
X31680Y212114D01*
X31635Y212042D01*
X31592Y211968D01*
X31554Y211892D01*
X31518Y211814D01*
X31486Y211734D01*
X31458Y211654D01*
X31434Y211572D01*
X31413Y211489D01*
X31396Y211405D01*
X31382Y211321D01*
X31373Y211236D01*
X31367Y211150D01*
X31365Y211065D01*
X31367Y210980D01*
X31373Y210894D01*
X31382Y210809D01*
X31396Y210725D01*
X31413Y210641D01*
X31434Y210558D01*
X31458Y210476D01*
X31486Y210396D01*
X31518Y210316D01*
X31554Y210238D01*
X31592Y210162D01*
X31635Y210088D01*
X31680Y210016D01*
X31729Y209945D01*
X31781Y209877D01*
X31835Y209812D01*
X31893Y209749D01*
X31954Y209688D01*
X32017Y209630D01*
X32082Y209576D01*
X32150Y209524D01*
X32221Y209475D01*
X32293Y209430D01*
X32367Y209387D01*
X32443Y209349D01*
X32521Y209313D01*
X32601Y209281D01*
X32681Y209253D01*
X32763Y209229D01*
X32846Y209208D01*
X32930Y209191D01*
X33014Y209177D01*
X33099Y209168D01*
X33185Y209162D01*
X33270Y209160D01*
X33355Y209162D01*
X33441Y209168D01*
X33526Y209177D01*
X33610Y209191D01*
X33694Y209208D01*
X33777Y209229D01*
X33859Y209253D01*
X33939Y209281D01*
X34019Y209313D01*
X34097Y209349D01*
X34173Y209387D01*
X34247Y209430D01*
X34319Y209475D01*
X34390Y209524D01*
X34458Y209576D01*
X34523Y209630D01*
X34586Y209688D01*
X34647Y209749D01*
X34705Y209812D01*
X34759Y209877D01*
X34811Y209945D01*
X34860Y210016D01*
X34905Y210088D01*
X34948Y210162D01*
X34986Y210238D01*
X35022Y210316D01*
X35054Y210396D01*
X35082Y210476D01*
X35106Y210558D01*
X35127Y210641D01*
X35144Y210725D01*
X35158Y210809D01*
X35167Y210894D01*
X35173Y210980D01*
X35175Y211065D01*
X35173Y211150D01*
X35167Y211236D01*
X35158Y211321D01*
X35144Y211405D01*
X35127Y211489D01*
X35106Y211572D01*
X35082Y211654D01*
X35054Y211734D01*
X35022Y211814D01*
X34986Y211892D01*
X34948Y211968D01*
X34905Y212042D01*
X34860Y212114D01*
X34811Y212185D01*
X34759Y212253D01*
X34705Y212318D01*
X34647Y212381D01*
X34586Y212442D01*
X34523Y212500D01*
X34458Y212554D01*
X34390Y212606D01*
X34319Y212655D01*
X34247Y212700D01*
X34173Y212743D01*
X34097Y212781D01*
X34019Y212817D01*
X33939Y212849D01*
X33859Y212877D01*
X33777Y212901D01*
X33694Y212922D01*
X33610Y212939D01*
X33526Y212953D01*
X33441Y212962D01*
X33355Y212968D01*
X33270Y212970D01*
X29841Y212589D02*
X29764Y212587D01*
X29687Y212581D01*
X29610Y212571D01*
X29534Y212558D01*
X29459Y212540D01*
X29385Y212519D01*
X29312Y212494D01*
X29240Y212465D01*
X29170Y212433D01*
X29101Y212398D01*
X29035Y212358D01*
X28970Y212316D01*
X28908Y212270D01*
X28848Y212221D01*
X28791Y212170D01*
X28736Y212115D01*
X28685Y212058D01*
X28636Y211998D01*
X28590Y211936D01*
X28548Y211871D01*
X28508Y211805D01*
X28473Y211736D01*
X28441Y211666D01*
X28412Y211594D01*
X28387Y211521D01*
X28366Y211447D01*
X28348Y211372D01*
X28335Y211296D01*
X28325Y211219D01*
X28319Y211142D01*
X28317Y211065D01*
X28319Y210988D01*
X28325Y210911D01*
X28335Y210834D01*
X28348Y210758D01*
X28366Y210683D01*
X28387Y210609D01*
X28412Y210536D01*
X28441Y210464D01*
X28473Y210394D01*
X28508Y210325D01*
X28548Y210259D01*
X28590Y210194D01*
X28636Y210132D01*
X28685Y210072D01*
X28736Y210015D01*
X28791Y209960D01*
X28848Y209909D01*
X28908Y209860D01*
X28970Y209814D01*
X29035Y209772D01*
X29101Y209732D01*
X29170Y209697D01*
X29240Y209665D01*
X29312Y209636D01*
X29385Y209611D01*
X29459Y209590D01*
X29534Y209572D01*
X29610Y209559D01*
X29687Y209549D01*
X29764Y209543D01*
X29841Y209541D01*
X29918Y209543D01*
X29995Y209549D01*
X30072Y209559D01*
X30148Y209572D01*
X30223Y209590D01*
X30297Y209611D01*
X30370Y209636D01*
X30442Y209665D01*
X30512Y209697D01*
X30581Y209732D01*
X30647Y209772D01*
X30712Y209814D01*
X30774Y209860D01*
X30834Y209909D01*
X30891Y209960D01*
X30946Y210015D01*
X30997Y210072D01*
X31046Y210132D01*
X31092Y210194D01*
X31134Y210259D01*
X31174Y210325D01*
X31209Y210394D01*
X31241Y210464D01*
X31270Y210536D01*
X31295Y210609D01*
X31316Y210683D01*
X31334Y210758D01*
X31347Y210834D01*
X31357Y210911D01*
X31363Y210988D01*
X31365Y211065D01*
X31363Y211142D01*
X31357Y211219D01*
X31347Y211296D01*
X31334Y211372D01*
X31316Y211447D01*
X31295Y211521D01*
X31270Y211594D01*
X31241Y211666D01*
X31209Y211736D01*
X31174Y211805D01*
X31134Y211871D01*
X31092Y211936D01*
X31046Y211998D01*
X30997Y212058D01*
X30946Y212115D01*
X30891Y212170D01*
X30834Y212221D01*
X30774Y212270D01*
X30712Y212316D01*
X30647Y212358D01*
X30581Y212398D01*
X30512Y212433D01*
X30442Y212465D01*
X30370Y212494D01*
X30297Y212519D01*
X30223Y212540D01*
X30148Y212558D01*
X30072Y212571D01*
X29995Y212581D01*
X29918Y212587D01*
X29841Y212589D01*
X32127Y187570D02*
X32127Y185284D01*
X32125Y185207D01*
X32119Y185130D01*
X32109Y185053D01*
X32096Y184977D01*
X32078Y184902D01*
X32057Y184828D01*
X32032Y184755D01*
X32003Y184683D01*
X31971Y184613D01*
X31936Y184544D01*
X31896Y184478D01*
X31854Y184413D01*
X31808Y184351D01*
X31759Y184291D01*
X31708Y184234D01*
X31653Y184179D01*
X31596Y184128D01*
X31536Y184079D01*
X31474Y184033D01*
X31409Y183991D01*
X31343Y183951D01*
X31274Y183916D01*
X31204Y183884D01*
X31132Y183855D01*
X31059Y183830D01*
X30985Y183809D01*
X30910Y183791D01*
X30834Y183778D01*
X30757Y183768D01*
X30680Y183762D01*
X30603Y183760D01*
X30222Y183760D01*
X30137Y183762D01*
X30051Y183768D01*
X29966Y183777D01*
X29882Y183791D01*
X29798Y183808D01*
X29715Y183829D01*
X29633Y183853D01*
X29553Y183881D01*
X29473Y183913D01*
X29395Y183949D01*
X29319Y183987D01*
X29245Y184030D01*
X29173Y184075D01*
X29102Y184124D01*
X29034Y184176D01*
X28969Y184230D01*
X28906Y184288D01*
X28845Y184349D01*
X28787Y184412D01*
X28733Y184477D01*
X28681Y184545D01*
X28632Y184616D01*
X28587Y184688D01*
X28544Y184762D01*
X28506Y184838D01*
X28470Y184916D01*
X28438Y184996D01*
X28410Y185076D01*
X28386Y185158D01*
X28365Y185241D01*
X28348Y185325D01*
X28334Y185409D01*
X28325Y185494D01*
X28319Y185580D01*
X28317Y185665D01*
X28319Y185750D01*
X28325Y185836D01*
X28334Y185921D01*
X28348Y186005D01*
X28365Y186089D01*
X28386Y186172D01*
X28410Y186254D01*
X28438Y186334D01*
X28470Y186414D01*
X28506Y186492D01*
X28544Y186568D01*
X28587Y186642D01*
X28632Y186714D01*
X28681Y186785D01*
X28733Y186853D01*
X28787Y186918D01*
X28845Y186981D01*
X28906Y187042D01*
X28969Y187100D01*
X29034Y187154D01*
X29102Y187206D01*
X29173Y187255D01*
X29245Y187300D01*
X29319Y187343D01*
X29395Y187381D01*
X29473Y187417D01*
X29553Y187449D01*
X29633Y187477D01*
X29715Y187501D01*
X29798Y187522D01*
X29882Y187539D01*
X29966Y187553D01*
X30051Y187562D01*
X30137Y187568D01*
X30222Y187570D01*
X32127Y187570D01*
X32236Y187568D01*
X32344Y187562D01*
X32453Y187553D01*
X32561Y187539D01*
X32668Y187522D01*
X32775Y187500D01*
X32881Y187475D01*
X32986Y187447D01*
X33090Y187414D01*
X33192Y187378D01*
X33293Y187338D01*
X33393Y187295D01*
X33491Y187248D01*
X33588Y187197D01*
X33682Y187143D01*
X33775Y187086D01*
X33865Y187026D01*
X33954Y186962D01*
X34040Y186895D01*
X34123Y186826D01*
X34204Y186753D01*
X34282Y186677D01*
X34358Y186599D01*
X34431Y186518D01*
X34500Y186435D01*
X34567Y186349D01*
X34631Y186260D01*
X34691Y186170D01*
X34748Y186077D01*
X34802Y185983D01*
X34853Y185886D01*
X34900Y185788D01*
X34943Y185688D01*
X34983Y185587D01*
X35019Y185485D01*
X35052Y185381D01*
X35080Y185276D01*
X35105Y185170D01*
X35127Y185063D01*
X35144Y184956D01*
X35158Y184848D01*
X35167Y184739D01*
X35173Y184631D01*
X35175Y184522D01*
X28317Y156455D02*
X29841Y154550D01*
X28317Y156455D02*
X35175Y156455D01*
X35175Y154550D02*
X35175Y158360D01*
X31746Y161865D02*
X31604Y161867D01*
X31461Y161872D01*
X31319Y161881D01*
X31177Y161894D01*
X31036Y161910D01*
X30895Y161929D01*
X30754Y161953D01*
X30614Y161979D01*
X30475Y162010D01*
X30337Y162044D01*
X30199Y162081D01*
X30063Y162121D01*
X29927Y162166D01*
X29793Y162213D01*
X29660Y162264D01*
X29528Y162318D01*
X29398Y162376D01*
X29269Y162437D01*
X29270Y162436D02*
X29201Y162462D01*
X29135Y162491D01*
X29069Y162523D01*
X29006Y162558D01*
X28944Y162597D01*
X28884Y162639D01*
X28827Y162684D01*
X28772Y162732D01*
X28720Y162783D01*
X28670Y162836D01*
X28624Y162892D01*
X28580Y162950D01*
X28539Y163011D01*
X28501Y163073D01*
X28467Y163137D01*
X28436Y163203D01*
X28408Y163271D01*
X28384Y163340D01*
X28364Y163410D01*
X28347Y163481D01*
X28334Y163552D01*
X28325Y163624D01*
X28319Y163697D01*
X28317Y163770D01*
X28319Y163843D01*
X28325Y163916D01*
X28334Y163988D01*
X28347Y164059D01*
X28364Y164130D01*
X28384Y164200D01*
X28408Y164269D01*
X28436Y164337D01*
X28467Y164403D01*
X28501Y164467D01*
X28539Y164529D01*
X28580Y164590D01*
X28624Y164648D01*
X28670Y164704D01*
X28720Y164757D01*
X28772Y164808D01*
X28827Y164856D01*
X28884Y164901D01*
X28944Y164943D01*
X29006Y164982D01*
X29069Y165017D01*
X29135Y165049D01*
X29201Y165078D01*
X29270Y165104D01*
X29269Y165104D02*
X29398Y165165D01*
X29528Y165223D01*
X29660Y165277D01*
X29793Y165328D01*
X29927Y165375D01*
X30063Y165420D01*
X30199Y165460D01*
X30337Y165497D01*
X30475Y165531D01*
X30614Y165562D01*
X30754Y165588D01*
X30895Y165612D01*
X31036Y165631D01*
X31177Y165647D01*
X31319Y165660D01*
X31461Y165669D01*
X31604Y165674D01*
X31746Y165676D01*
X31746Y161865D02*
X31888Y161867D01*
X32031Y161872D01*
X32173Y161881D01*
X32315Y161894D01*
X32456Y161910D01*
X32597Y161929D01*
X32738Y161953D01*
X32878Y161979D01*
X33017Y162010D01*
X33155Y162044D01*
X33293Y162081D01*
X33429Y162121D01*
X33565Y162166D01*
X33699Y162213D01*
X33832Y162264D01*
X33964Y162318D01*
X34094Y162376D01*
X34223Y162437D01*
X34222Y162436D02*
X34291Y162462D01*
X34357Y162491D01*
X34423Y162523D01*
X34486Y162558D01*
X34548Y162597D01*
X34608Y162639D01*
X34665Y162684D01*
X34720Y162732D01*
X34772Y162783D01*
X34822Y162836D01*
X34868Y162892D01*
X34912Y162950D01*
X34953Y163011D01*
X34991Y163073D01*
X35025Y163137D01*
X35056Y163203D01*
X35084Y163271D01*
X35108Y163340D01*
X35128Y163410D01*
X35145Y163481D01*
X35158Y163552D01*
X35167Y163624D01*
X35173Y163697D01*
X35175Y163770D01*
X34223Y165104D02*
X34094Y165165D01*
X33964Y165223D01*
X33832Y165277D01*
X33699Y165328D01*
X33565Y165375D01*
X33429Y165420D01*
X33293Y165460D01*
X33155Y165497D01*
X33017Y165531D01*
X32878Y165562D01*
X32738Y165588D01*
X32597Y165612D01*
X32456Y165631D01*
X32315Y165647D01*
X32173Y165660D01*
X32031Y165669D01*
X31888Y165674D01*
X31746Y165676D01*
X34222Y165104D02*
X34291Y165078D01*
X34357Y165049D01*
X34423Y165017D01*
X34486Y164982D01*
X34548Y164943D01*
X34608Y164901D01*
X34665Y164856D01*
X34720Y164808D01*
X34772Y164757D01*
X34822Y164704D01*
X34868Y164648D01*
X34912Y164590D01*
X34953Y164529D01*
X34991Y164467D01*
X35025Y164403D01*
X35056Y164337D01*
X35084Y164269D01*
X35108Y164200D01*
X35128Y164130D01*
X35145Y164059D01*
X35158Y163988D01*
X35167Y163916D01*
X35173Y163843D01*
X35175Y163770D01*
X33651Y162246D02*
X29841Y165294D01*
X29587Y125975D02*
X36445Y125975D01*
X29587Y125975D02*
X29587Y127880D01*
X29589Y127965D01*
X29595Y128051D01*
X29604Y128136D01*
X29618Y128220D01*
X29635Y128304D01*
X29656Y128387D01*
X29680Y128469D01*
X29708Y128549D01*
X29740Y128629D01*
X29776Y128707D01*
X29814Y128783D01*
X29857Y128857D01*
X29902Y128929D01*
X29951Y129000D01*
X30003Y129068D01*
X30057Y129133D01*
X30115Y129196D01*
X30176Y129257D01*
X30239Y129315D01*
X30304Y129369D01*
X30372Y129421D01*
X30443Y129470D01*
X30515Y129515D01*
X30589Y129558D01*
X30665Y129596D01*
X30743Y129632D01*
X30823Y129664D01*
X30903Y129692D01*
X30985Y129716D01*
X31068Y129737D01*
X31152Y129754D01*
X31236Y129768D01*
X31321Y129777D01*
X31407Y129783D01*
X31492Y129785D01*
X31577Y129783D01*
X31663Y129777D01*
X31748Y129768D01*
X31832Y129754D01*
X31916Y129737D01*
X31999Y129716D01*
X32081Y129692D01*
X32161Y129664D01*
X32241Y129632D01*
X32319Y129596D01*
X32395Y129558D01*
X32469Y129515D01*
X32541Y129470D01*
X32612Y129421D01*
X32680Y129369D01*
X32745Y129315D01*
X32808Y129257D01*
X32869Y129196D01*
X32927Y129133D01*
X32981Y129068D01*
X33033Y129000D01*
X33082Y128929D01*
X33127Y128857D01*
X33170Y128783D01*
X33208Y128707D01*
X33244Y128629D01*
X33276Y128549D01*
X33304Y128469D01*
X33328Y128387D01*
X33349Y128304D01*
X33366Y128220D01*
X33380Y128136D01*
X33389Y128051D01*
X33395Y127965D01*
X33397Y127880D01*
X33397Y125975D01*
X33397Y128261D02*
X36445Y129785D01*
X36445Y135263D02*
X36443Y135340D01*
X36437Y135417D01*
X36427Y135494D01*
X36414Y135570D01*
X36396Y135645D01*
X36375Y135719D01*
X36350Y135792D01*
X36321Y135864D01*
X36289Y135934D01*
X36254Y136003D01*
X36214Y136069D01*
X36172Y136134D01*
X36126Y136196D01*
X36077Y136256D01*
X36026Y136313D01*
X35971Y136368D01*
X35914Y136419D01*
X35854Y136468D01*
X35792Y136514D01*
X35727Y136556D01*
X35661Y136596D01*
X35592Y136631D01*
X35522Y136663D01*
X35450Y136692D01*
X35377Y136717D01*
X35303Y136738D01*
X35228Y136756D01*
X35152Y136769D01*
X35075Y136779D01*
X34998Y136785D01*
X34921Y136787D01*
X36445Y135263D02*
X36443Y135153D01*
X36437Y135042D01*
X36428Y134932D01*
X36415Y134822D01*
X36398Y134713D01*
X36377Y134605D01*
X36353Y134497D01*
X36324Y134390D01*
X36293Y134284D01*
X36257Y134180D01*
X36218Y134076D01*
X36176Y133974D01*
X36130Y133874D01*
X36080Y133775D01*
X36028Y133678D01*
X35971Y133582D01*
X35912Y133489D01*
X35850Y133398D01*
X35784Y133309D01*
X35716Y133222D01*
X35644Y133138D01*
X35570Y133056D01*
X35493Y132977D01*
X31111Y133167D02*
X31034Y133169D01*
X30957Y133175D01*
X30880Y133185D01*
X30804Y133198D01*
X30729Y133216D01*
X30655Y133237D01*
X30582Y133262D01*
X30510Y133291D01*
X30440Y133323D01*
X30371Y133358D01*
X30305Y133398D01*
X30240Y133440D01*
X30178Y133486D01*
X30118Y133535D01*
X30061Y133586D01*
X30006Y133641D01*
X29955Y133698D01*
X29906Y133758D01*
X29860Y133820D01*
X29818Y133885D01*
X29778Y133951D01*
X29743Y134020D01*
X29711Y134090D01*
X29682Y134162D01*
X29657Y134235D01*
X29636Y134309D01*
X29618Y134384D01*
X29605Y134460D01*
X29595Y134537D01*
X29589Y134614D01*
X29587Y134691D01*
X29589Y134793D01*
X29594Y134895D01*
X29603Y134997D01*
X29616Y135098D01*
X29633Y135199D01*
X29652Y135299D01*
X29676Y135399D01*
X29703Y135497D01*
X29734Y135595D01*
X29768Y135691D01*
X29805Y135786D01*
X29846Y135880D01*
X29890Y135972D01*
X29938Y136062D01*
X29988Y136151D01*
X30042Y136238D01*
X30099Y136323D01*
X30159Y136406D01*
X32445Y133929D02*
X32404Y133864D01*
X32361Y133801D01*
X32314Y133741D01*
X32264Y133682D01*
X32212Y133627D01*
X32157Y133574D01*
X32099Y133523D01*
X32039Y133476D01*
X31976Y133432D01*
X31912Y133390D01*
X31846Y133352D01*
X31777Y133318D01*
X31707Y133287D01*
X31636Y133259D01*
X31564Y133235D01*
X31490Y133214D01*
X31415Y133197D01*
X31340Y133184D01*
X31264Y133175D01*
X31188Y133169D01*
X31111Y133167D01*
X33587Y136025D02*
X33628Y136090D01*
X33671Y136153D01*
X33718Y136213D01*
X33768Y136272D01*
X33820Y136327D01*
X33875Y136380D01*
X33933Y136431D01*
X33993Y136478D01*
X34056Y136522D01*
X34120Y136564D01*
X34186Y136602D01*
X34255Y136636D01*
X34325Y136667D01*
X34396Y136695D01*
X34468Y136719D01*
X34542Y136740D01*
X34617Y136757D01*
X34692Y136770D01*
X34768Y136779D01*
X34844Y136785D01*
X34921Y136787D01*
X33588Y136025D02*
X32445Y133929D01*
X29587Y141465D02*
X36445Y141465D01*
X29587Y139560D02*
X29587Y143370D01*
X29587Y102480D02*
X36445Y102480D01*
X29587Y100575D02*
X29587Y104385D01*
X29587Y107753D02*
X36445Y107753D01*
X33397Y110039D02*
X29587Y107753D01*
X33397Y110039D02*
X29587Y112325D01*
X36445Y112325D01*
X36445Y118223D02*
X36443Y118300D01*
X36437Y118377D01*
X36427Y118454D01*
X36414Y118530D01*
X36396Y118605D01*
X36375Y118679D01*
X36350Y118752D01*
X36321Y118824D01*
X36289Y118894D01*
X36254Y118963D01*
X36214Y119029D01*
X36172Y119094D01*
X36126Y119156D01*
X36077Y119216D01*
X36026Y119273D01*
X35971Y119328D01*
X35914Y119379D01*
X35854Y119428D01*
X35792Y119474D01*
X35727Y119516D01*
X35661Y119556D01*
X35592Y119591D01*
X35522Y119623D01*
X35450Y119652D01*
X35377Y119677D01*
X35303Y119698D01*
X35228Y119716D01*
X35152Y119729D01*
X35075Y119739D01*
X34998Y119745D01*
X34921Y119747D01*
X36445Y118223D02*
X36443Y118113D01*
X36437Y118002D01*
X36428Y117892D01*
X36415Y117782D01*
X36398Y117673D01*
X36377Y117565D01*
X36353Y117457D01*
X36324Y117350D01*
X36293Y117244D01*
X36257Y117140D01*
X36218Y117036D01*
X36176Y116934D01*
X36130Y116834D01*
X36080Y116735D01*
X36028Y116638D01*
X35971Y116542D01*
X35912Y116449D01*
X35850Y116358D01*
X35784Y116269D01*
X35716Y116182D01*
X35644Y116098D01*
X35570Y116016D01*
X35493Y115937D01*
X31111Y116127D02*
X31034Y116129D01*
X30957Y116135D01*
X30880Y116145D01*
X30804Y116158D01*
X30729Y116176D01*
X30655Y116197D01*
X30582Y116222D01*
X30510Y116251D01*
X30440Y116283D01*
X30371Y116318D01*
X30305Y116358D01*
X30240Y116400D01*
X30178Y116446D01*
X30118Y116495D01*
X30061Y116546D01*
X30006Y116601D01*
X29955Y116658D01*
X29906Y116718D01*
X29860Y116780D01*
X29818Y116845D01*
X29778Y116911D01*
X29743Y116980D01*
X29711Y117050D01*
X29682Y117122D01*
X29657Y117195D01*
X29636Y117269D01*
X29618Y117344D01*
X29605Y117420D01*
X29595Y117497D01*
X29589Y117574D01*
X29587Y117651D01*
X29589Y117753D01*
X29594Y117855D01*
X29603Y117957D01*
X29616Y118058D01*
X29633Y118159D01*
X29652Y118259D01*
X29676Y118359D01*
X29703Y118457D01*
X29734Y118555D01*
X29768Y118651D01*
X29805Y118746D01*
X29846Y118840D01*
X29890Y118932D01*
X29938Y119022D01*
X29988Y119111D01*
X30042Y119198D01*
X30099Y119283D01*
X30159Y119366D01*
X32445Y116889D02*
X32404Y116824D01*
X32361Y116761D01*
X32314Y116701D01*
X32264Y116642D01*
X32212Y116587D01*
X32157Y116534D01*
X32099Y116483D01*
X32039Y116436D01*
X31976Y116392D01*
X31912Y116350D01*
X31846Y116312D01*
X31777Y116278D01*
X31707Y116247D01*
X31636Y116219D01*
X31564Y116195D01*
X31490Y116174D01*
X31415Y116157D01*
X31340Y116144D01*
X31264Y116135D01*
X31188Y116129D01*
X31111Y116127D01*
X33587Y118985D02*
X33628Y119050D01*
X33671Y119113D01*
X33718Y119173D01*
X33768Y119232D01*
X33820Y119287D01*
X33875Y119340D01*
X33933Y119391D01*
X33993Y119438D01*
X34056Y119482D01*
X34120Y119524D01*
X34186Y119562D01*
X34255Y119596D01*
X34325Y119627D01*
X34396Y119655D01*
X34468Y119679D01*
X34542Y119700D01*
X34617Y119717D01*
X34692Y119730D01*
X34768Y119739D01*
X34844Y119745D01*
X34921Y119747D01*
X33588Y118985D02*
X32445Y116889D01*
X29587Y77715D02*
X36445Y77715D01*
X29587Y75810D02*
X29587Y79620D01*
X36445Y84130D02*
X36445Y85654D01*
X36445Y84130D02*
X36443Y84053D01*
X36437Y83976D01*
X36427Y83899D01*
X36414Y83823D01*
X36396Y83748D01*
X36375Y83674D01*
X36350Y83601D01*
X36321Y83529D01*
X36289Y83459D01*
X36254Y83390D01*
X36214Y83324D01*
X36172Y83259D01*
X36126Y83197D01*
X36077Y83137D01*
X36026Y83080D01*
X35971Y83025D01*
X35914Y82974D01*
X35854Y82925D01*
X35792Y82879D01*
X35727Y82837D01*
X35661Y82797D01*
X35592Y82762D01*
X35522Y82730D01*
X35450Y82701D01*
X35377Y82676D01*
X35303Y82655D01*
X35228Y82637D01*
X35152Y82624D01*
X35075Y82614D01*
X34998Y82608D01*
X34921Y82606D01*
X31111Y82606D01*
X31034Y82608D01*
X30957Y82614D01*
X30880Y82624D01*
X30804Y82637D01*
X30729Y82655D01*
X30655Y82676D01*
X30582Y82701D01*
X30510Y82730D01*
X30440Y82762D01*
X30371Y82797D01*
X30305Y82837D01*
X30240Y82879D01*
X30178Y82925D01*
X30118Y82974D01*
X30061Y83025D01*
X30006Y83080D01*
X29955Y83137D01*
X29906Y83197D01*
X29860Y83259D01*
X29818Y83324D01*
X29778Y83390D01*
X29743Y83459D01*
X29711Y83529D01*
X29682Y83601D01*
X29657Y83674D01*
X29636Y83748D01*
X29618Y83823D01*
X29605Y83899D01*
X29595Y83976D01*
X29589Y84053D01*
X29587Y84130D01*
X29587Y85654D01*
X29587Y89137D02*
X36445Y89137D01*
X33778Y89137D02*
X29587Y92947D01*
X32254Y90661D02*
X36445Y92947D01*
X36445Y51680D02*
X36445Y49775D01*
X36445Y51680D02*
X36443Y51765D01*
X36437Y51851D01*
X36428Y51936D01*
X36414Y52020D01*
X36397Y52104D01*
X36376Y52187D01*
X36352Y52269D01*
X36324Y52349D01*
X36292Y52429D01*
X36256Y52507D01*
X36218Y52583D01*
X36175Y52657D01*
X36130Y52729D01*
X36081Y52800D01*
X36029Y52868D01*
X35975Y52933D01*
X35917Y52996D01*
X35856Y53057D01*
X35793Y53115D01*
X35728Y53169D01*
X35660Y53221D01*
X35589Y53270D01*
X35517Y53315D01*
X35443Y53358D01*
X35367Y53396D01*
X35289Y53432D01*
X35209Y53464D01*
X35129Y53492D01*
X35047Y53516D01*
X34964Y53537D01*
X34880Y53554D01*
X34796Y53568D01*
X34711Y53577D01*
X34625Y53583D01*
X34540Y53585D01*
X34455Y53583D01*
X34369Y53577D01*
X34284Y53568D01*
X34200Y53554D01*
X34116Y53537D01*
X34033Y53516D01*
X33951Y53492D01*
X33871Y53464D01*
X33791Y53432D01*
X33713Y53396D01*
X33637Y53358D01*
X33563Y53315D01*
X33491Y53270D01*
X33420Y53221D01*
X33352Y53169D01*
X33287Y53115D01*
X33224Y53057D01*
X33163Y52996D01*
X33105Y52933D01*
X33051Y52868D01*
X32999Y52800D01*
X32950Y52729D01*
X32905Y52657D01*
X32862Y52583D01*
X32824Y52507D01*
X32788Y52429D01*
X32756Y52349D01*
X32728Y52269D01*
X32704Y52187D01*
X32683Y52104D01*
X32666Y52020D01*
X32652Y51936D01*
X32643Y51851D01*
X32637Y51765D01*
X32635Y51680D01*
X29587Y52061D02*
X29587Y49775D01*
X29587Y52061D02*
X29589Y52138D01*
X29595Y52215D01*
X29605Y52292D01*
X29618Y52368D01*
X29636Y52443D01*
X29657Y52517D01*
X29682Y52590D01*
X29711Y52662D01*
X29743Y52732D01*
X29778Y52801D01*
X29818Y52867D01*
X29860Y52932D01*
X29906Y52994D01*
X29955Y53054D01*
X30006Y53111D01*
X30061Y53166D01*
X30118Y53217D01*
X30178Y53266D01*
X30240Y53312D01*
X30305Y53354D01*
X30371Y53394D01*
X30440Y53429D01*
X30510Y53461D01*
X30582Y53490D01*
X30655Y53515D01*
X30729Y53536D01*
X30804Y53554D01*
X30880Y53567D01*
X30957Y53577D01*
X31034Y53583D01*
X31111Y53585D01*
X31188Y53583D01*
X31265Y53577D01*
X31342Y53567D01*
X31418Y53554D01*
X31493Y53536D01*
X31567Y53515D01*
X31640Y53490D01*
X31712Y53461D01*
X31782Y53429D01*
X31851Y53394D01*
X31917Y53354D01*
X31982Y53312D01*
X32044Y53266D01*
X32104Y53217D01*
X32161Y53166D01*
X32216Y53111D01*
X32267Y53054D01*
X32316Y52994D01*
X32362Y52932D01*
X32404Y52867D01*
X32444Y52801D01*
X32479Y52732D01*
X32511Y52662D01*
X32540Y52590D01*
X32565Y52517D01*
X32586Y52443D01*
X32604Y52368D01*
X32617Y52292D01*
X32627Y52215D01*
X32633Y52138D01*
X32635Y52061D01*
X32635Y50537D01*
X29587Y56709D02*
X36445Y58995D01*
X29587Y61281D01*
X36445Y64405D02*
X36445Y66310D01*
X36443Y66395D01*
X36437Y66481D01*
X36428Y66566D01*
X36414Y66650D01*
X36397Y66734D01*
X36376Y66817D01*
X36352Y66899D01*
X36324Y66979D01*
X36292Y67059D01*
X36256Y67137D01*
X36218Y67213D01*
X36175Y67287D01*
X36130Y67359D01*
X36081Y67430D01*
X36029Y67498D01*
X35975Y67563D01*
X35917Y67626D01*
X35856Y67687D01*
X35793Y67745D01*
X35728Y67799D01*
X35660Y67851D01*
X35589Y67900D01*
X35517Y67945D01*
X35443Y67988D01*
X35367Y68026D01*
X35289Y68062D01*
X35209Y68094D01*
X35129Y68122D01*
X35047Y68146D01*
X34964Y68167D01*
X34880Y68184D01*
X34796Y68198D01*
X34711Y68207D01*
X34625Y68213D01*
X34540Y68215D01*
X34455Y68213D01*
X34369Y68207D01*
X34284Y68198D01*
X34200Y68184D01*
X34116Y68167D01*
X34033Y68146D01*
X33951Y68122D01*
X33871Y68094D01*
X33791Y68062D01*
X33713Y68026D01*
X33637Y67988D01*
X33563Y67945D01*
X33491Y67900D01*
X33420Y67851D01*
X33352Y67799D01*
X33287Y67745D01*
X33224Y67687D01*
X33163Y67626D01*
X33105Y67563D01*
X33051Y67498D01*
X32999Y67430D01*
X32950Y67359D01*
X32905Y67287D01*
X32862Y67213D01*
X32824Y67137D01*
X32788Y67059D01*
X32756Y66979D01*
X32728Y66899D01*
X32704Y66817D01*
X32683Y66734D01*
X32666Y66650D01*
X32652Y66566D01*
X32643Y66481D01*
X32637Y66395D01*
X32635Y66310D01*
X29587Y66691D02*
X29587Y64405D01*
X29587Y66691D02*
X29589Y66768D01*
X29595Y66845D01*
X29605Y66922D01*
X29618Y66998D01*
X29636Y67073D01*
X29657Y67147D01*
X29682Y67220D01*
X29711Y67292D01*
X29743Y67362D01*
X29778Y67431D01*
X29818Y67497D01*
X29860Y67562D01*
X29906Y67624D01*
X29955Y67684D01*
X30006Y67741D01*
X30061Y67796D01*
X30118Y67847D01*
X30178Y67896D01*
X30240Y67942D01*
X30305Y67984D01*
X30371Y68024D01*
X30440Y68059D01*
X30510Y68091D01*
X30582Y68120D01*
X30655Y68145D01*
X30729Y68166D01*
X30804Y68184D01*
X30880Y68197D01*
X30957Y68207D01*
X31034Y68213D01*
X31111Y68215D01*
X31188Y68213D01*
X31265Y68207D01*
X31342Y68197D01*
X31418Y68184D01*
X31493Y68166D01*
X31567Y68145D01*
X31640Y68120D01*
X31712Y68091D01*
X31782Y68059D01*
X31851Y68024D01*
X31917Y67984D01*
X31982Y67942D01*
X32044Y67896D01*
X32104Y67847D01*
X32161Y67796D01*
X32216Y67741D01*
X32267Y67684D01*
X32316Y67624D01*
X32362Y67562D01*
X32404Y67497D01*
X32444Y67431D01*
X32479Y67362D01*
X32511Y67292D01*
X32540Y67220D01*
X32565Y67147D01*
X32586Y67073D01*
X32604Y66998D01*
X32617Y66922D01*
X32627Y66845D01*
X32633Y66768D01*
X32635Y66691D01*
X32635Y65167D01*
X32000Y26280D02*
X32000Y25137D01*
X32000Y26280D02*
X35810Y26280D01*
X35810Y23994D01*
X35808Y23917D01*
X35802Y23840D01*
X35792Y23763D01*
X35779Y23687D01*
X35761Y23612D01*
X35740Y23538D01*
X35715Y23465D01*
X35686Y23393D01*
X35654Y23323D01*
X35619Y23254D01*
X35579Y23188D01*
X35537Y23123D01*
X35491Y23061D01*
X35442Y23001D01*
X35391Y22944D01*
X35336Y22889D01*
X35279Y22838D01*
X35219Y22789D01*
X35157Y22743D01*
X35092Y22701D01*
X35026Y22661D01*
X34957Y22626D01*
X34887Y22594D01*
X34815Y22565D01*
X34742Y22540D01*
X34668Y22519D01*
X34593Y22501D01*
X34517Y22488D01*
X34440Y22478D01*
X34363Y22472D01*
X34286Y22470D01*
X30476Y22470D01*
X30399Y22472D01*
X30322Y22478D01*
X30245Y22488D01*
X30169Y22501D01*
X30094Y22519D01*
X30020Y22540D01*
X29947Y22565D01*
X29875Y22594D01*
X29805Y22626D01*
X29736Y22661D01*
X29670Y22701D01*
X29605Y22743D01*
X29543Y22789D01*
X29483Y22838D01*
X29426Y22889D01*
X29371Y22944D01*
X29320Y23001D01*
X29271Y23061D01*
X29225Y23123D01*
X29183Y23188D01*
X29143Y23254D01*
X29108Y23323D01*
X29076Y23393D01*
X29047Y23465D01*
X29022Y23538D01*
X29001Y23612D01*
X28983Y23687D01*
X28970Y23763D01*
X28960Y23840D01*
X28954Y23917D01*
X28952Y23994D01*
X28952Y26280D01*
X28952Y30273D02*
X35810Y30273D01*
X35810Y34083D02*
X28952Y30273D01*
X28952Y34083D02*
X35810Y34083D01*
X35810Y38076D02*
X28952Y38076D01*
X28952Y39981D01*
X28954Y40066D01*
X28960Y40152D01*
X28969Y40237D01*
X28983Y40321D01*
X29000Y40405D01*
X29021Y40488D01*
X29045Y40570D01*
X29073Y40650D01*
X29105Y40730D01*
X29141Y40808D01*
X29179Y40884D01*
X29222Y40958D01*
X29267Y41030D01*
X29316Y41101D01*
X29368Y41169D01*
X29422Y41234D01*
X29480Y41297D01*
X29541Y41358D01*
X29604Y41416D01*
X29669Y41470D01*
X29737Y41522D01*
X29808Y41571D01*
X29880Y41616D01*
X29954Y41659D01*
X30030Y41697D01*
X30108Y41733D01*
X30188Y41765D01*
X30268Y41793D01*
X30350Y41817D01*
X30433Y41838D01*
X30517Y41855D01*
X30601Y41869D01*
X30686Y41878D01*
X30772Y41884D01*
X30857Y41886D01*
X33905Y41886D01*
X33990Y41884D01*
X34076Y41878D01*
X34161Y41869D01*
X34245Y41855D01*
X34329Y41838D01*
X34412Y41817D01*
X34494Y41793D01*
X34574Y41765D01*
X34654Y41733D01*
X34732Y41697D01*
X34808Y41659D01*
X34882Y41616D01*
X34954Y41571D01*
X35025Y41522D01*
X35093Y41470D01*
X35158Y41416D01*
X35221Y41358D01*
X35282Y41297D01*
X35340Y41234D01*
X35394Y41169D01*
X35446Y41101D01*
X35495Y41030D01*
X35540Y40958D01*
X35583Y40884D01*
X35621Y40808D01*
X35657Y40730D01*
X35689Y40650D01*
X35717Y40570D01*
X35741Y40488D01*
X35762Y40405D01*
X35779Y40321D01*
X35793Y40237D01*
X35802Y40152D01*
X35808Y40066D01*
X35810Y39981D01*
X35810Y38076D01*
X220087Y413186D02*
X220089Y413268D01*
X220095Y413349D01*
X220104Y413430D01*
X220118Y413511D01*
X220135Y413590D01*
X220156Y413669D01*
X220181Y413747D01*
X220210Y413823D01*
X220242Y413898D01*
X220278Y413972D01*
X220317Y414044D01*
X220359Y414113D01*
X220405Y414181D01*
X220454Y414246D01*
X220506Y414309D01*
X220561Y414369D01*
X220619Y414427D01*
X220679Y414482D01*
X220742Y414534D01*
X220807Y414583D01*
X220875Y414629D01*
X220945Y414671D01*
X221016Y414710D01*
X221090Y414746D01*
X221165Y414778D01*
X221241Y414807D01*
X221319Y414832D01*
X221398Y414853D01*
X221477Y414870D01*
X221558Y414884D01*
X221639Y414893D01*
X221720Y414899D01*
X221802Y414901D01*
X220087Y413186D02*
X220089Y413094D01*
X220095Y413002D01*
X220104Y412910D01*
X220118Y412818D01*
X220135Y412728D01*
X220156Y412638D01*
X220181Y412549D01*
X220210Y412461D01*
X220242Y412374D01*
X220278Y412289D01*
X220317Y412206D01*
X220360Y412124D01*
X220406Y412044D01*
X220456Y411966D01*
X220508Y411890D01*
X220564Y411817D01*
X220623Y411746D01*
X220685Y411677D01*
X220750Y411611D01*
X220817Y411548D01*
X220887Y411488D01*
X220959Y411430D01*
X221034Y411376D01*
X221111Y411325D01*
X221190Y411277D01*
X221271Y411233D01*
X221354Y411192D01*
X221438Y411154D01*
X221524Y411120D01*
X221611Y411090D01*
X223136Y414329D02*
X223077Y414388D01*
X223016Y414444D01*
X222953Y414497D01*
X222887Y414548D01*
X222819Y414595D01*
X222749Y414639D01*
X222677Y414680D01*
X222603Y414718D01*
X222528Y414752D01*
X222451Y414783D01*
X222373Y414810D01*
X222293Y414834D01*
X222213Y414855D01*
X222132Y414871D01*
X222050Y414884D01*
X221968Y414894D01*
X221885Y414899D01*
X221802Y414901D01*
X223135Y414329D02*
X226945Y411090D01*
X226945Y414900D01*
X220087Y420501D02*
X220089Y420583D01*
X220095Y420664D01*
X220104Y420745D01*
X220118Y420826D01*
X220135Y420905D01*
X220156Y420984D01*
X220181Y421062D01*
X220210Y421138D01*
X220242Y421213D01*
X220278Y421287D01*
X220317Y421359D01*
X220359Y421428D01*
X220405Y421496D01*
X220454Y421561D01*
X220506Y421624D01*
X220561Y421684D01*
X220619Y421742D01*
X220679Y421797D01*
X220742Y421849D01*
X220807Y421898D01*
X220875Y421944D01*
X220945Y421986D01*
X221016Y422025D01*
X221090Y422061D01*
X221165Y422093D01*
X221241Y422122D01*
X221319Y422147D01*
X221398Y422168D01*
X221477Y422185D01*
X221558Y422199D01*
X221639Y422208D01*
X221720Y422214D01*
X221802Y422216D01*
X220087Y420501D02*
X220089Y420409D01*
X220095Y420317D01*
X220104Y420225D01*
X220118Y420133D01*
X220135Y420043D01*
X220156Y419953D01*
X220181Y419864D01*
X220210Y419776D01*
X220242Y419689D01*
X220278Y419604D01*
X220317Y419521D01*
X220360Y419439D01*
X220406Y419359D01*
X220456Y419281D01*
X220508Y419205D01*
X220564Y419132D01*
X220623Y419061D01*
X220685Y418992D01*
X220750Y418926D01*
X220817Y418863D01*
X220887Y418803D01*
X220959Y418745D01*
X221034Y418691D01*
X221111Y418640D01*
X221190Y418592D01*
X221271Y418548D01*
X221354Y418507D01*
X221438Y418469D01*
X221524Y418435D01*
X221611Y418405D01*
X223136Y421644D02*
X223077Y421703D01*
X223016Y421759D01*
X222953Y421812D01*
X222887Y421863D01*
X222819Y421910D01*
X222749Y421954D01*
X222677Y421995D01*
X222603Y422033D01*
X222528Y422067D01*
X222451Y422098D01*
X222373Y422125D01*
X222293Y422149D01*
X222213Y422170D01*
X222132Y422186D01*
X222050Y422199D01*
X221968Y422209D01*
X221885Y422214D01*
X221802Y422216D01*
X223135Y421644D02*
X226945Y418405D01*
X226945Y422215D01*
X223072Y389501D02*
X222990Y389499D01*
X222909Y389493D01*
X222828Y389484D01*
X222747Y389470D01*
X222668Y389453D01*
X222589Y389432D01*
X222511Y389407D01*
X222435Y389378D01*
X222360Y389346D01*
X222286Y389310D01*
X222215Y389271D01*
X222145Y389229D01*
X222077Y389183D01*
X222012Y389134D01*
X221949Y389082D01*
X221889Y389027D01*
X221831Y388969D01*
X221776Y388909D01*
X221724Y388846D01*
X221675Y388781D01*
X221629Y388713D01*
X221587Y388644D01*
X221548Y388572D01*
X221512Y388498D01*
X221480Y388423D01*
X221451Y388347D01*
X221426Y388269D01*
X221405Y388190D01*
X221388Y388111D01*
X221374Y388030D01*
X221365Y387949D01*
X221359Y387868D01*
X221357Y387786D01*
X221359Y387694D01*
X221365Y387602D01*
X221374Y387510D01*
X221388Y387418D01*
X221405Y387328D01*
X221426Y387238D01*
X221451Y387149D01*
X221480Y387061D01*
X221512Y386974D01*
X221548Y386889D01*
X221587Y386806D01*
X221630Y386724D01*
X221676Y386644D01*
X221726Y386566D01*
X221778Y386490D01*
X221834Y386417D01*
X221893Y386346D01*
X221955Y386277D01*
X222020Y386211D01*
X222087Y386148D01*
X222157Y386088D01*
X222229Y386030D01*
X222304Y385976D01*
X222381Y385925D01*
X222460Y385877D01*
X222541Y385833D01*
X222624Y385792D01*
X222708Y385754D01*
X222794Y385720D01*
X222881Y385690D01*
X224406Y388929D02*
X224347Y388988D01*
X224286Y389044D01*
X224223Y389097D01*
X224157Y389148D01*
X224089Y389195D01*
X224019Y389239D01*
X223947Y389280D01*
X223873Y389318D01*
X223798Y389352D01*
X223721Y389383D01*
X223643Y389410D01*
X223563Y389434D01*
X223483Y389455D01*
X223402Y389471D01*
X223320Y389484D01*
X223238Y389494D01*
X223155Y389499D01*
X223072Y389501D01*
X224405Y388929D02*
X228215Y385690D01*
X228215Y389500D01*
X222881Y393005D02*
X221357Y394910D01*
X228215Y394910D01*
X228215Y393005D02*
X228215Y396815D01*
X221802Y364101D02*
X221720Y364099D01*
X221639Y364093D01*
X221558Y364084D01*
X221477Y364070D01*
X221398Y364053D01*
X221319Y364032D01*
X221241Y364007D01*
X221165Y363978D01*
X221090Y363946D01*
X221016Y363910D01*
X220945Y363871D01*
X220875Y363829D01*
X220807Y363783D01*
X220742Y363734D01*
X220679Y363682D01*
X220619Y363627D01*
X220561Y363569D01*
X220506Y363509D01*
X220454Y363446D01*
X220405Y363381D01*
X220359Y363313D01*
X220317Y363244D01*
X220278Y363172D01*
X220242Y363098D01*
X220210Y363023D01*
X220181Y362947D01*
X220156Y362869D01*
X220135Y362790D01*
X220118Y362711D01*
X220104Y362630D01*
X220095Y362549D01*
X220089Y362468D01*
X220087Y362386D01*
X220089Y362294D01*
X220095Y362202D01*
X220104Y362110D01*
X220118Y362018D01*
X220135Y361928D01*
X220156Y361838D01*
X220181Y361749D01*
X220210Y361661D01*
X220242Y361574D01*
X220278Y361489D01*
X220317Y361406D01*
X220360Y361324D01*
X220406Y361244D01*
X220456Y361166D01*
X220508Y361090D01*
X220564Y361017D01*
X220623Y360946D01*
X220685Y360877D01*
X220750Y360811D01*
X220817Y360748D01*
X220887Y360688D01*
X220959Y360630D01*
X221034Y360576D01*
X221111Y360525D01*
X221190Y360477D01*
X221271Y360433D01*
X221354Y360392D01*
X221438Y360354D01*
X221524Y360320D01*
X221611Y360290D01*
X223136Y363529D02*
X223077Y363588D01*
X223016Y363644D01*
X222953Y363697D01*
X222887Y363748D01*
X222819Y363795D01*
X222749Y363839D01*
X222677Y363880D01*
X222603Y363918D01*
X222528Y363952D01*
X222451Y363983D01*
X222373Y364010D01*
X222293Y364034D01*
X222213Y364055D01*
X222132Y364071D01*
X222050Y364084D01*
X221968Y364094D01*
X221885Y364099D01*
X221802Y364101D01*
X223135Y363529D02*
X226945Y360290D01*
X226945Y364100D01*
X223516Y367605D02*
X223374Y367607D01*
X223231Y367612D01*
X223089Y367621D01*
X222947Y367634D01*
X222806Y367650D01*
X222665Y367669D01*
X222524Y367693D01*
X222384Y367719D01*
X222245Y367750D01*
X222107Y367784D01*
X221969Y367821D01*
X221833Y367861D01*
X221697Y367906D01*
X221563Y367953D01*
X221430Y368004D01*
X221298Y368058D01*
X221168Y368116D01*
X221039Y368177D01*
X221040Y368176D02*
X220971Y368202D01*
X220905Y368231D01*
X220839Y368263D01*
X220776Y368298D01*
X220714Y368337D01*
X220654Y368379D01*
X220597Y368424D01*
X220542Y368472D01*
X220490Y368523D01*
X220440Y368576D01*
X220394Y368632D01*
X220350Y368690D01*
X220309Y368751D01*
X220271Y368813D01*
X220237Y368877D01*
X220206Y368943D01*
X220178Y369011D01*
X220154Y369080D01*
X220134Y369150D01*
X220117Y369221D01*
X220104Y369292D01*
X220095Y369364D01*
X220089Y369437D01*
X220087Y369510D01*
X220089Y369583D01*
X220095Y369656D01*
X220104Y369728D01*
X220117Y369799D01*
X220134Y369870D01*
X220154Y369940D01*
X220178Y370009D01*
X220206Y370077D01*
X220237Y370143D01*
X220271Y370207D01*
X220309Y370269D01*
X220350Y370330D01*
X220394Y370388D01*
X220440Y370444D01*
X220490Y370497D01*
X220542Y370548D01*
X220597Y370596D01*
X220654Y370641D01*
X220714Y370683D01*
X220776Y370722D01*
X220839Y370757D01*
X220905Y370789D01*
X220971Y370818D01*
X221040Y370844D01*
X221039Y370844D02*
X221168Y370905D01*
X221298Y370963D01*
X221430Y371017D01*
X221563Y371068D01*
X221697Y371115D01*
X221833Y371160D01*
X221969Y371200D01*
X222107Y371237D01*
X222245Y371271D01*
X222384Y371302D01*
X222524Y371328D01*
X222665Y371352D01*
X222806Y371371D01*
X222947Y371387D01*
X223089Y371400D01*
X223231Y371409D01*
X223374Y371414D01*
X223516Y371416D01*
X223516Y367605D02*
X223658Y367607D01*
X223801Y367612D01*
X223943Y367621D01*
X224085Y367634D01*
X224226Y367650D01*
X224367Y367669D01*
X224508Y367693D01*
X224648Y367719D01*
X224787Y367750D01*
X224925Y367784D01*
X225063Y367821D01*
X225199Y367861D01*
X225335Y367906D01*
X225469Y367953D01*
X225602Y368004D01*
X225734Y368058D01*
X225864Y368116D01*
X225993Y368177D01*
X225992Y368176D02*
X226061Y368202D01*
X226127Y368231D01*
X226193Y368263D01*
X226256Y368298D01*
X226318Y368337D01*
X226378Y368379D01*
X226435Y368424D01*
X226490Y368472D01*
X226542Y368523D01*
X226592Y368576D01*
X226638Y368632D01*
X226682Y368690D01*
X226723Y368751D01*
X226761Y368813D01*
X226795Y368877D01*
X226826Y368943D01*
X226854Y369011D01*
X226878Y369080D01*
X226898Y369150D01*
X226915Y369221D01*
X226928Y369292D01*
X226937Y369364D01*
X226943Y369437D01*
X226945Y369510D01*
X225993Y370844D02*
X225864Y370905D01*
X225734Y370963D01*
X225602Y371017D01*
X225469Y371068D01*
X225335Y371115D01*
X225199Y371160D01*
X225063Y371200D01*
X224925Y371237D01*
X224787Y371271D01*
X224648Y371302D01*
X224508Y371328D01*
X224367Y371352D01*
X224226Y371371D01*
X224085Y371387D01*
X223943Y371400D01*
X223801Y371409D01*
X223658Y371414D01*
X223516Y371416D01*
X225992Y370844D02*
X226061Y370818D01*
X226127Y370789D01*
X226193Y370757D01*
X226256Y370722D01*
X226318Y370683D01*
X226378Y370641D01*
X226435Y370596D01*
X226490Y370548D01*
X226542Y370497D01*
X226592Y370444D01*
X226638Y370388D01*
X226682Y370330D01*
X226723Y370269D01*
X226761Y370207D01*
X226795Y370143D01*
X226826Y370077D01*
X226854Y370009D01*
X226878Y369940D01*
X226898Y369870D01*
X226915Y369799D01*
X226928Y369728D01*
X226937Y369656D01*
X226943Y369583D01*
X226945Y369510D01*
X225421Y367986D02*
X221611Y371034D01*
X220722Y336795D02*
X222246Y334890D01*
X220722Y336795D02*
X227580Y336795D01*
X227580Y334890D02*
X227580Y338700D01*
X224532Y343729D02*
X224532Y346015D01*
X224532Y343729D02*
X224530Y343652D01*
X224524Y343575D01*
X224514Y343498D01*
X224501Y343422D01*
X224483Y343347D01*
X224462Y343273D01*
X224437Y343200D01*
X224408Y343128D01*
X224376Y343058D01*
X224341Y342989D01*
X224301Y342923D01*
X224259Y342858D01*
X224213Y342796D01*
X224164Y342736D01*
X224113Y342679D01*
X224058Y342624D01*
X224001Y342573D01*
X223941Y342524D01*
X223879Y342478D01*
X223814Y342436D01*
X223748Y342396D01*
X223679Y342361D01*
X223609Y342329D01*
X223537Y342300D01*
X223464Y342275D01*
X223390Y342254D01*
X223315Y342236D01*
X223239Y342223D01*
X223162Y342213D01*
X223085Y342207D01*
X223008Y342205D01*
X222627Y342205D01*
X222542Y342207D01*
X222456Y342213D01*
X222371Y342222D01*
X222287Y342236D01*
X222203Y342253D01*
X222120Y342274D01*
X222038Y342298D01*
X221958Y342326D01*
X221878Y342358D01*
X221800Y342394D01*
X221724Y342432D01*
X221650Y342475D01*
X221578Y342520D01*
X221507Y342569D01*
X221439Y342621D01*
X221374Y342675D01*
X221311Y342733D01*
X221250Y342794D01*
X221192Y342857D01*
X221138Y342922D01*
X221086Y342990D01*
X221037Y343061D01*
X220992Y343133D01*
X220949Y343207D01*
X220911Y343283D01*
X220875Y343361D01*
X220843Y343441D01*
X220815Y343521D01*
X220791Y343603D01*
X220770Y343686D01*
X220753Y343770D01*
X220739Y343854D01*
X220730Y343939D01*
X220724Y344025D01*
X220722Y344110D01*
X220724Y344195D01*
X220730Y344281D01*
X220739Y344366D01*
X220753Y344450D01*
X220770Y344534D01*
X220791Y344617D01*
X220815Y344699D01*
X220843Y344779D01*
X220875Y344859D01*
X220911Y344937D01*
X220949Y345013D01*
X220992Y345087D01*
X221037Y345159D01*
X221086Y345230D01*
X221138Y345298D01*
X221192Y345363D01*
X221250Y345426D01*
X221311Y345487D01*
X221374Y345545D01*
X221439Y345599D01*
X221507Y345651D01*
X221578Y345700D01*
X221650Y345745D01*
X221724Y345788D01*
X221800Y345826D01*
X221878Y345862D01*
X221958Y345894D01*
X222038Y345922D01*
X222120Y345946D01*
X222203Y345967D01*
X222287Y345984D01*
X222371Y345998D01*
X222456Y346007D01*
X222542Y346013D01*
X222627Y346015D01*
X224532Y346015D01*
X224641Y346013D01*
X224749Y346007D01*
X224858Y345998D01*
X224966Y345984D01*
X225073Y345967D01*
X225180Y345945D01*
X225286Y345920D01*
X225391Y345892D01*
X225495Y345859D01*
X225597Y345823D01*
X225698Y345783D01*
X225798Y345740D01*
X225896Y345693D01*
X225993Y345642D01*
X226087Y345588D01*
X226180Y345531D01*
X226270Y345471D01*
X226359Y345407D01*
X226445Y345340D01*
X226528Y345271D01*
X226609Y345198D01*
X226687Y345122D01*
X226763Y345044D01*
X226836Y344963D01*
X226905Y344880D01*
X226972Y344794D01*
X227036Y344705D01*
X227096Y344615D01*
X227153Y344522D01*
X227207Y344428D01*
X227258Y344331D01*
X227305Y344233D01*
X227348Y344133D01*
X227388Y344032D01*
X227424Y343930D01*
X227457Y343826D01*
X227485Y343721D01*
X227510Y343615D01*
X227532Y343508D01*
X227549Y343401D01*
X227563Y343293D01*
X227572Y343184D01*
X227578Y343076D01*
X227580Y342967D01*
X220722Y310760D02*
X222246Y308855D01*
X220722Y310760D02*
X227580Y310760D01*
X227580Y308855D02*
X227580Y312665D01*
X225675Y316170D02*
X225590Y316172D01*
X225504Y316178D01*
X225419Y316187D01*
X225335Y316201D01*
X225251Y316218D01*
X225168Y316239D01*
X225086Y316263D01*
X225006Y316291D01*
X224926Y316323D01*
X224848Y316359D01*
X224772Y316397D01*
X224698Y316440D01*
X224626Y316485D01*
X224555Y316534D01*
X224487Y316586D01*
X224422Y316640D01*
X224359Y316698D01*
X224298Y316759D01*
X224240Y316822D01*
X224186Y316887D01*
X224134Y316955D01*
X224085Y317026D01*
X224040Y317098D01*
X223997Y317172D01*
X223959Y317248D01*
X223923Y317326D01*
X223891Y317406D01*
X223863Y317486D01*
X223839Y317568D01*
X223818Y317651D01*
X223801Y317735D01*
X223787Y317819D01*
X223778Y317904D01*
X223772Y317990D01*
X223770Y318075D01*
X223772Y318160D01*
X223778Y318246D01*
X223787Y318331D01*
X223801Y318415D01*
X223818Y318499D01*
X223839Y318582D01*
X223863Y318664D01*
X223891Y318744D01*
X223923Y318824D01*
X223959Y318902D01*
X223997Y318978D01*
X224040Y319052D01*
X224085Y319124D01*
X224134Y319195D01*
X224186Y319263D01*
X224240Y319328D01*
X224298Y319391D01*
X224359Y319452D01*
X224422Y319510D01*
X224487Y319564D01*
X224555Y319616D01*
X224626Y319665D01*
X224698Y319710D01*
X224772Y319753D01*
X224848Y319791D01*
X224926Y319827D01*
X225006Y319859D01*
X225086Y319887D01*
X225168Y319911D01*
X225251Y319932D01*
X225335Y319949D01*
X225419Y319963D01*
X225504Y319972D01*
X225590Y319978D01*
X225675Y319980D01*
X225760Y319978D01*
X225846Y319972D01*
X225931Y319963D01*
X226015Y319949D01*
X226099Y319932D01*
X226182Y319911D01*
X226264Y319887D01*
X226344Y319859D01*
X226424Y319827D01*
X226502Y319791D01*
X226578Y319753D01*
X226652Y319710D01*
X226724Y319665D01*
X226795Y319616D01*
X226863Y319564D01*
X226928Y319510D01*
X226991Y319452D01*
X227052Y319391D01*
X227110Y319328D01*
X227164Y319263D01*
X227216Y319195D01*
X227265Y319124D01*
X227310Y319052D01*
X227353Y318978D01*
X227391Y318902D01*
X227427Y318824D01*
X227459Y318744D01*
X227487Y318664D01*
X227511Y318582D01*
X227532Y318499D01*
X227549Y318415D01*
X227563Y318331D01*
X227572Y318246D01*
X227578Y318160D01*
X227580Y318075D01*
X227578Y317990D01*
X227572Y317904D01*
X227563Y317819D01*
X227549Y317735D01*
X227532Y317651D01*
X227511Y317568D01*
X227487Y317486D01*
X227459Y317406D01*
X227427Y317326D01*
X227391Y317248D01*
X227353Y317172D01*
X227310Y317098D01*
X227265Y317026D01*
X227216Y316955D01*
X227164Y316887D01*
X227110Y316822D01*
X227052Y316759D01*
X226991Y316698D01*
X226928Y316640D01*
X226863Y316586D01*
X226795Y316534D01*
X226724Y316485D01*
X226652Y316440D01*
X226578Y316397D01*
X226502Y316359D01*
X226424Y316323D01*
X226344Y316291D01*
X226264Y316263D01*
X226182Y316239D01*
X226099Y316218D01*
X226015Y316201D01*
X225931Y316187D01*
X225846Y316178D01*
X225760Y316172D01*
X225675Y316170D01*
X222246Y316551D02*
X222169Y316553D01*
X222092Y316559D01*
X222015Y316569D01*
X221939Y316582D01*
X221864Y316600D01*
X221790Y316621D01*
X221717Y316646D01*
X221645Y316675D01*
X221575Y316707D01*
X221506Y316742D01*
X221440Y316782D01*
X221375Y316824D01*
X221313Y316870D01*
X221253Y316919D01*
X221196Y316970D01*
X221141Y317025D01*
X221090Y317082D01*
X221041Y317142D01*
X220995Y317204D01*
X220953Y317269D01*
X220913Y317335D01*
X220878Y317404D01*
X220846Y317474D01*
X220817Y317546D01*
X220792Y317619D01*
X220771Y317693D01*
X220753Y317768D01*
X220740Y317844D01*
X220730Y317921D01*
X220724Y317998D01*
X220722Y318075D01*
X220724Y318152D01*
X220730Y318229D01*
X220740Y318306D01*
X220753Y318382D01*
X220771Y318457D01*
X220792Y318531D01*
X220817Y318604D01*
X220846Y318676D01*
X220878Y318746D01*
X220913Y318815D01*
X220953Y318881D01*
X220995Y318946D01*
X221041Y319008D01*
X221090Y319068D01*
X221141Y319125D01*
X221196Y319180D01*
X221253Y319231D01*
X221313Y319280D01*
X221375Y319326D01*
X221440Y319368D01*
X221506Y319408D01*
X221575Y319443D01*
X221645Y319475D01*
X221717Y319504D01*
X221790Y319529D01*
X221864Y319550D01*
X221939Y319568D01*
X222015Y319581D01*
X222092Y319591D01*
X222169Y319597D01*
X222246Y319599D01*
X222323Y319597D01*
X222400Y319591D01*
X222477Y319581D01*
X222553Y319568D01*
X222628Y319550D01*
X222702Y319529D01*
X222775Y319504D01*
X222847Y319475D01*
X222917Y319443D01*
X222986Y319408D01*
X223052Y319368D01*
X223117Y319326D01*
X223179Y319280D01*
X223239Y319231D01*
X223296Y319180D01*
X223351Y319125D01*
X223402Y319068D01*
X223451Y319008D01*
X223497Y318946D01*
X223539Y318881D01*
X223579Y318815D01*
X223614Y318746D01*
X223646Y318676D01*
X223675Y318604D01*
X223700Y318531D01*
X223721Y318457D01*
X223739Y318382D01*
X223752Y318306D01*
X223762Y318229D01*
X223768Y318152D01*
X223770Y318075D01*
X223768Y317998D01*
X223762Y317921D01*
X223752Y317844D01*
X223739Y317768D01*
X223721Y317693D01*
X223700Y317619D01*
X223675Y317546D01*
X223646Y317474D01*
X223614Y317404D01*
X223579Y317335D01*
X223539Y317269D01*
X223497Y317204D01*
X223451Y317142D01*
X223402Y317082D01*
X223351Y317025D01*
X223296Y316970D01*
X223239Y316919D01*
X223179Y316870D01*
X223117Y316824D01*
X223052Y316782D01*
X222986Y316742D01*
X222917Y316707D01*
X222847Y316675D01*
X222775Y316646D01*
X222702Y316621D01*
X222628Y316600D01*
X222553Y316582D01*
X222477Y316569D01*
X222400Y316559D01*
X222323Y316553D01*
X222246Y316551D01*
X220722Y285995D02*
X222246Y284090D01*
X220722Y285995D02*
X227580Y285995D01*
X227580Y284090D02*
X227580Y287900D01*
X221484Y291405D02*
X220722Y291405D01*
X220722Y295215D01*
X227580Y293310D01*
X220722Y259960D02*
X222246Y258055D01*
X220722Y259960D02*
X227580Y259960D01*
X227580Y258055D02*
X227580Y261865D01*
X223770Y265370D02*
X223770Y267656D01*
X223772Y267733D01*
X223778Y267810D01*
X223788Y267887D01*
X223801Y267963D01*
X223819Y268038D01*
X223840Y268112D01*
X223865Y268185D01*
X223894Y268257D01*
X223926Y268327D01*
X223961Y268396D01*
X224001Y268462D01*
X224043Y268527D01*
X224089Y268589D01*
X224138Y268649D01*
X224189Y268706D01*
X224244Y268761D01*
X224301Y268812D01*
X224361Y268861D01*
X224423Y268907D01*
X224488Y268949D01*
X224554Y268989D01*
X224623Y269024D01*
X224693Y269056D01*
X224765Y269085D01*
X224838Y269110D01*
X224912Y269131D01*
X224987Y269149D01*
X225063Y269162D01*
X225140Y269172D01*
X225217Y269178D01*
X225294Y269180D01*
X225675Y269180D01*
X225760Y269178D01*
X225846Y269172D01*
X225931Y269163D01*
X226015Y269149D01*
X226099Y269132D01*
X226182Y269111D01*
X226264Y269087D01*
X226344Y269059D01*
X226424Y269027D01*
X226502Y268991D01*
X226578Y268953D01*
X226652Y268910D01*
X226724Y268865D01*
X226795Y268816D01*
X226863Y268764D01*
X226928Y268710D01*
X226991Y268652D01*
X227052Y268591D01*
X227110Y268528D01*
X227164Y268463D01*
X227216Y268395D01*
X227265Y268324D01*
X227310Y268252D01*
X227353Y268178D01*
X227391Y268102D01*
X227427Y268024D01*
X227459Y267944D01*
X227487Y267864D01*
X227511Y267782D01*
X227532Y267699D01*
X227549Y267615D01*
X227563Y267531D01*
X227572Y267446D01*
X227578Y267360D01*
X227580Y267275D01*
X227578Y267190D01*
X227572Y267104D01*
X227563Y267019D01*
X227549Y266935D01*
X227532Y266851D01*
X227511Y266768D01*
X227487Y266686D01*
X227459Y266606D01*
X227427Y266526D01*
X227391Y266448D01*
X227353Y266372D01*
X227310Y266298D01*
X227265Y266226D01*
X227216Y266155D01*
X227164Y266087D01*
X227110Y266022D01*
X227052Y265959D01*
X226991Y265898D01*
X226928Y265840D01*
X226863Y265786D01*
X226795Y265734D01*
X226724Y265685D01*
X226652Y265640D01*
X226578Y265597D01*
X226502Y265559D01*
X226424Y265523D01*
X226344Y265491D01*
X226264Y265463D01*
X226182Y265439D01*
X226099Y265418D01*
X226015Y265401D01*
X225931Y265387D01*
X225846Y265378D01*
X225760Y265372D01*
X225675Y265370D01*
X223770Y265370D01*
X223661Y265372D01*
X223553Y265378D01*
X223444Y265387D01*
X223336Y265401D01*
X223229Y265418D01*
X223122Y265440D01*
X223016Y265465D01*
X222911Y265493D01*
X222807Y265526D01*
X222705Y265562D01*
X222604Y265602D01*
X222504Y265645D01*
X222406Y265692D01*
X222309Y265743D01*
X222215Y265797D01*
X222122Y265854D01*
X222032Y265914D01*
X221943Y265978D01*
X221857Y266045D01*
X221774Y266114D01*
X221693Y266187D01*
X221615Y266263D01*
X221539Y266341D01*
X221466Y266422D01*
X221397Y266505D01*
X221330Y266591D01*
X221266Y266680D01*
X221206Y266770D01*
X221149Y266863D01*
X221095Y266957D01*
X221044Y267054D01*
X220997Y267152D01*
X220954Y267252D01*
X220914Y267353D01*
X220878Y267455D01*
X220845Y267559D01*
X220817Y267664D01*
X220792Y267770D01*
X220770Y267877D01*
X220753Y267984D01*
X220739Y268092D01*
X220730Y268201D01*
X220724Y268309D01*
X220722Y268418D01*
X220722Y234560D02*
X222246Y232655D01*
X220722Y234560D02*
X227580Y234560D01*
X227580Y232655D02*
X227580Y236465D01*
X227580Y239970D02*
X227580Y242256D01*
X227578Y242333D01*
X227572Y242410D01*
X227562Y242487D01*
X227549Y242563D01*
X227531Y242638D01*
X227510Y242712D01*
X227485Y242785D01*
X227456Y242857D01*
X227424Y242927D01*
X227389Y242996D01*
X227349Y243062D01*
X227307Y243127D01*
X227261Y243189D01*
X227212Y243249D01*
X227161Y243306D01*
X227106Y243361D01*
X227049Y243412D01*
X226989Y243461D01*
X226927Y243507D01*
X226862Y243549D01*
X226796Y243589D01*
X226727Y243624D01*
X226657Y243656D01*
X226585Y243685D01*
X226512Y243710D01*
X226438Y243731D01*
X226363Y243749D01*
X226287Y243762D01*
X226210Y243772D01*
X226133Y243778D01*
X226056Y243780D01*
X225294Y243780D01*
X225217Y243778D01*
X225140Y243772D01*
X225063Y243762D01*
X224987Y243749D01*
X224912Y243731D01*
X224838Y243710D01*
X224765Y243685D01*
X224693Y243656D01*
X224623Y243624D01*
X224554Y243589D01*
X224488Y243549D01*
X224423Y243507D01*
X224361Y243461D01*
X224301Y243412D01*
X224244Y243361D01*
X224189Y243306D01*
X224138Y243249D01*
X224089Y243189D01*
X224043Y243127D01*
X224001Y243062D01*
X223961Y242996D01*
X223926Y242927D01*
X223894Y242857D01*
X223865Y242785D01*
X223840Y242712D01*
X223819Y242638D01*
X223801Y242563D01*
X223788Y242487D01*
X223778Y242410D01*
X223772Y242333D01*
X223770Y242256D01*
X223770Y239970D01*
X220722Y239970D01*
X220722Y243780D01*
X220722Y209160D02*
X222246Y207255D01*
X220722Y209160D02*
X227580Y209160D01*
X227580Y207255D02*
X227580Y211065D01*
X226056Y214570D02*
X220722Y216094D01*
X226056Y214570D02*
X226056Y218380D01*
X224532Y217237D02*
X227580Y217237D01*
X220722Y183760D02*
X222246Y181855D01*
X220722Y183760D02*
X227580Y183760D01*
X227580Y181855D02*
X227580Y185665D01*
X227580Y189170D02*
X227580Y191075D01*
X227578Y191160D01*
X227572Y191246D01*
X227563Y191331D01*
X227549Y191415D01*
X227532Y191499D01*
X227511Y191582D01*
X227487Y191664D01*
X227459Y191744D01*
X227427Y191824D01*
X227391Y191902D01*
X227353Y191978D01*
X227310Y192052D01*
X227265Y192124D01*
X227216Y192195D01*
X227164Y192263D01*
X227110Y192328D01*
X227052Y192391D01*
X226991Y192452D01*
X226928Y192510D01*
X226863Y192564D01*
X226795Y192616D01*
X226724Y192665D01*
X226652Y192710D01*
X226578Y192753D01*
X226502Y192791D01*
X226424Y192827D01*
X226344Y192859D01*
X226264Y192887D01*
X226182Y192911D01*
X226099Y192932D01*
X226015Y192949D01*
X225931Y192963D01*
X225846Y192972D01*
X225760Y192978D01*
X225675Y192980D01*
X225590Y192978D01*
X225504Y192972D01*
X225419Y192963D01*
X225335Y192949D01*
X225251Y192932D01*
X225168Y192911D01*
X225086Y192887D01*
X225006Y192859D01*
X224926Y192827D01*
X224848Y192791D01*
X224772Y192753D01*
X224698Y192710D01*
X224626Y192665D01*
X224555Y192616D01*
X224487Y192564D01*
X224422Y192510D01*
X224359Y192452D01*
X224298Y192391D01*
X224240Y192328D01*
X224186Y192263D01*
X224134Y192195D01*
X224085Y192124D01*
X224040Y192052D01*
X223997Y191978D01*
X223959Y191902D01*
X223923Y191824D01*
X223891Y191744D01*
X223863Y191664D01*
X223839Y191582D01*
X223818Y191499D01*
X223801Y191415D01*
X223787Y191331D01*
X223778Y191246D01*
X223772Y191160D01*
X223770Y191075D01*
X220722Y191456D02*
X220722Y189170D01*
X220722Y191456D02*
X220724Y191533D01*
X220730Y191610D01*
X220740Y191687D01*
X220753Y191763D01*
X220771Y191838D01*
X220792Y191912D01*
X220817Y191985D01*
X220846Y192057D01*
X220878Y192127D01*
X220913Y192196D01*
X220953Y192262D01*
X220995Y192327D01*
X221041Y192389D01*
X221090Y192449D01*
X221141Y192506D01*
X221196Y192561D01*
X221253Y192612D01*
X221313Y192661D01*
X221375Y192707D01*
X221440Y192749D01*
X221506Y192789D01*
X221575Y192824D01*
X221645Y192856D01*
X221717Y192885D01*
X221790Y192910D01*
X221864Y192931D01*
X221939Y192949D01*
X222015Y192962D01*
X222092Y192972D01*
X222169Y192978D01*
X222246Y192980D01*
X222323Y192978D01*
X222400Y192972D01*
X222477Y192962D01*
X222553Y192949D01*
X222628Y192931D01*
X222702Y192910D01*
X222775Y192885D01*
X222847Y192856D01*
X222917Y192824D01*
X222986Y192789D01*
X223052Y192749D01*
X223117Y192707D01*
X223179Y192661D01*
X223239Y192612D01*
X223296Y192561D01*
X223351Y192506D01*
X223402Y192449D01*
X223451Y192389D01*
X223497Y192327D01*
X223539Y192262D01*
X223579Y192196D01*
X223614Y192127D01*
X223646Y192057D01*
X223675Y191985D01*
X223700Y191912D01*
X223721Y191838D01*
X223739Y191763D01*
X223752Y191687D01*
X223762Y191610D01*
X223768Y191533D01*
X223770Y191456D01*
X223770Y189932D01*
X220722Y158360D02*
X222246Y156455D01*
X220722Y158360D02*
X227580Y158360D01*
X227580Y156455D02*
X227580Y160265D01*
X220722Y165866D02*
X220724Y165948D01*
X220730Y166029D01*
X220739Y166110D01*
X220753Y166191D01*
X220770Y166270D01*
X220791Y166349D01*
X220816Y166427D01*
X220845Y166503D01*
X220877Y166578D01*
X220913Y166652D01*
X220952Y166724D01*
X220994Y166793D01*
X221040Y166861D01*
X221089Y166926D01*
X221141Y166989D01*
X221196Y167049D01*
X221254Y167107D01*
X221314Y167162D01*
X221377Y167214D01*
X221442Y167263D01*
X221510Y167309D01*
X221580Y167351D01*
X221651Y167390D01*
X221725Y167426D01*
X221800Y167458D01*
X221876Y167487D01*
X221954Y167512D01*
X222033Y167533D01*
X222112Y167550D01*
X222193Y167564D01*
X222274Y167573D01*
X222355Y167579D01*
X222437Y167581D01*
X220722Y165866D02*
X220724Y165774D01*
X220730Y165682D01*
X220739Y165590D01*
X220753Y165498D01*
X220770Y165408D01*
X220791Y165318D01*
X220816Y165229D01*
X220845Y165141D01*
X220877Y165054D01*
X220913Y164969D01*
X220952Y164886D01*
X220995Y164804D01*
X221041Y164724D01*
X221091Y164646D01*
X221143Y164570D01*
X221199Y164497D01*
X221258Y164426D01*
X221320Y164357D01*
X221385Y164291D01*
X221452Y164228D01*
X221522Y164168D01*
X221594Y164110D01*
X221669Y164056D01*
X221746Y164005D01*
X221825Y163957D01*
X221906Y163913D01*
X221989Y163872D01*
X222073Y163834D01*
X222159Y163800D01*
X222246Y163770D01*
X223771Y167009D02*
X223712Y167068D01*
X223651Y167124D01*
X223588Y167177D01*
X223522Y167228D01*
X223454Y167275D01*
X223384Y167319D01*
X223312Y167360D01*
X223238Y167398D01*
X223163Y167432D01*
X223086Y167463D01*
X223008Y167490D01*
X222928Y167514D01*
X222848Y167535D01*
X222767Y167551D01*
X222685Y167564D01*
X222603Y167574D01*
X222520Y167579D01*
X222437Y167581D01*
X223770Y167009D02*
X227580Y163770D01*
X227580Y167580D01*
X220722Y132960D02*
X222246Y131055D01*
X220722Y132960D02*
X227580Y132960D01*
X227580Y131055D02*
X227580Y134865D01*
X222246Y138370D02*
X220722Y140275D01*
X227580Y140275D01*
X227580Y138370D02*
X227580Y142180D01*
X228850Y103115D02*
X228850Y101210D01*
X228850Y103115D02*
X228848Y103200D01*
X228842Y103286D01*
X228833Y103371D01*
X228819Y103455D01*
X228802Y103539D01*
X228781Y103622D01*
X228757Y103704D01*
X228729Y103784D01*
X228697Y103864D01*
X228661Y103942D01*
X228623Y104018D01*
X228580Y104092D01*
X228535Y104164D01*
X228486Y104235D01*
X228434Y104303D01*
X228380Y104368D01*
X228322Y104431D01*
X228261Y104492D01*
X228198Y104550D01*
X228133Y104604D01*
X228065Y104656D01*
X227994Y104705D01*
X227922Y104750D01*
X227848Y104793D01*
X227772Y104831D01*
X227694Y104867D01*
X227614Y104899D01*
X227534Y104927D01*
X227452Y104951D01*
X227369Y104972D01*
X227285Y104989D01*
X227201Y105003D01*
X227116Y105012D01*
X227030Y105018D01*
X226945Y105020D01*
X226860Y105018D01*
X226774Y105012D01*
X226689Y105003D01*
X226605Y104989D01*
X226521Y104972D01*
X226438Y104951D01*
X226356Y104927D01*
X226276Y104899D01*
X226196Y104867D01*
X226118Y104831D01*
X226042Y104793D01*
X225968Y104750D01*
X225896Y104705D01*
X225825Y104656D01*
X225757Y104604D01*
X225692Y104550D01*
X225629Y104492D01*
X225568Y104431D01*
X225510Y104368D01*
X225456Y104303D01*
X225404Y104235D01*
X225355Y104164D01*
X225310Y104092D01*
X225267Y104018D01*
X225229Y103942D01*
X225193Y103864D01*
X225161Y103784D01*
X225133Y103704D01*
X225109Y103622D01*
X225088Y103539D01*
X225071Y103455D01*
X225057Y103371D01*
X225048Y103286D01*
X225042Y103200D01*
X225040Y103115D01*
X221992Y103496D02*
X221992Y101210D01*
X221992Y103496D02*
X221994Y103573D01*
X222000Y103650D01*
X222010Y103727D01*
X222023Y103803D01*
X222041Y103878D01*
X222062Y103952D01*
X222087Y104025D01*
X222116Y104097D01*
X222148Y104167D01*
X222183Y104236D01*
X222223Y104302D01*
X222265Y104367D01*
X222311Y104429D01*
X222360Y104489D01*
X222411Y104546D01*
X222466Y104601D01*
X222523Y104652D01*
X222583Y104701D01*
X222645Y104747D01*
X222710Y104789D01*
X222776Y104829D01*
X222845Y104864D01*
X222915Y104896D01*
X222987Y104925D01*
X223060Y104950D01*
X223134Y104971D01*
X223209Y104989D01*
X223285Y105002D01*
X223362Y105012D01*
X223439Y105018D01*
X223516Y105020D01*
X223593Y105018D01*
X223670Y105012D01*
X223747Y105002D01*
X223823Y104989D01*
X223898Y104971D01*
X223972Y104950D01*
X224045Y104925D01*
X224117Y104896D01*
X224187Y104864D01*
X224256Y104829D01*
X224322Y104789D01*
X224387Y104747D01*
X224449Y104701D01*
X224509Y104652D01*
X224566Y104601D01*
X224621Y104546D01*
X224672Y104489D01*
X224721Y104429D01*
X224767Y104367D01*
X224809Y104302D01*
X224849Y104236D01*
X224884Y104167D01*
X224916Y104097D01*
X224945Y104025D01*
X224970Y103952D01*
X224991Y103878D01*
X225009Y103803D01*
X225022Y103727D01*
X225032Y103650D01*
X225038Y103573D01*
X225040Y103496D01*
X225040Y101972D01*
X221992Y108144D02*
X228850Y110430D01*
X221992Y112716D01*
X228850Y115840D02*
X228850Y117745D01*
X228848Y117830D01*
X228842Y117916D01*
X228833Y118001D01*
X228819Y118085D01*
X228802Y118169D01*
X228781Y118252D01*
X228757Y118334D01*
X228729Y118414D01*
X228697Y118494D01*
X228661Y118572D01*
X228623Y118648D01*
X228580Y118722D01*
X228535Y118794D01*
X228486Y118865D01*
X228434Y118933D01*
X228380Y118998D01*
X228322Y119061D01*
X228261Y119122D01*
X228198Y119180D01*
X228133Y119234D01*
X228065Y119286D01*
X227994Y119335D01*
X227922Y119380D01*
X227848Y119423D01*
X227772Y119461D01*
X227694Y119497D01*
X227614Y119529D01*
X227534Y119557D01*
X227452Y119581D01*
X227369Y119602D01*
X227285Y119619D01*
X227201Y119633D01*
X227116Y119642D01*
X227030Y119648D01*
X226945Y119650D01*
X226860Y119648D01*
X226774Y119642D01*
X226689Y119633D01*
X226605Y119619D01*
X226521Y119602D01*
X226438Y119581D01*
X226356Y119557D01*
X226276Y119529D01*
X226196Y119497D01*
X226118Y119461D01*
X226042Y119423D01*
X225968Y119380D01*
X225896Y119335D01*
X225825Y119286D01*
X225757Y119234D01*
X225692Y119180D01*
X225629Y119122D01*
X225568Y119061D01*
X225510Y118998D01*
X225456Y118933D01*
X225404Y118865D01*
X225355Y118794D01*
X225310Y118722D01*
X225267Y118648D01*
X225229Y118572D01*
X225193Y118494D01*
X225161Y118414D01*
X225133Y118334D01*
X225109Y118252D01*
X225088Y118169D01*
X225071Y118085D01*
X225057Y118001D01*
X225048Y117916D01*
X225042Y117830D01*
X225040Y117745D01*
X221992Y118126D02*
X221992Y115840D01*
X221992Y118126D02*
X221994Y118203D01*
X222000Y118280D01*
X222010Y118357D01*
X222023Y118433D01*
X222041Y118508D01*
X222062Y118582D01*
X222087Y118655D01*
X222116Y118727D01*
X222148Y118797D01*
X222183Y118866D01*
X222223Y118932D01*
X222265Y118997D01*
X222311Y119059D01*
X222360Y119119D01*
X222411Y119176D01*
X222466Y119231D01*
X222523Y119282D01*
X222583Y119331D01*
X222645Y119377D01*
X222710Y119419D01*
X222776Y119459D01*
X222845Y119494D01*
X222915Y119526D01*
X222987Y119555D01*
X223060Y119580D01*
X223134Y119601D01*
X223209Y119619D01*
X223285Y119632D01*
X223362Y119642D01*
X223439Y119648D01*
X223516Y119650D01*
X223593Y119648D01*
X223670Y119642D01*
X223747Y119632D01*
X223823Y119619D01*
X223898Y119601D01*
X223972Y119580D01*
X224045Y119555D01*
X224117Y119526D01*
X224187Y119494D01*
X224256Y119459D01*
X224322Y119419D01*
X224387Y119377D01*
X224449Y119331D01*
X224509Y119282D01*
X224566Y119231D01*
X224621Y119176D01*
X224672Y119119D01*
X224721Y119059D01*
X224767Y118997D01*
X224809Y118932D01*
X224849Y118866D01*
X224884Y118797D01*
X224916Y118727D01*
X224945Y118655D01*
X224970Y118582D01*
X224991Y118508D01*
X225009Y118433D01*
X225022Y118357D01*
X225032Y118280D01*
X225038Y118203D01*
X225040Y118126D01*
X225040Y116602D01*
X225040Y78350D02*
X225040Y77207D01*
X225040Y78350D02*
X228850Y78350D01*
X228850Y76064D01*
X228848Y75987D01*
X228842Y75910D01*
X228832Y75833D01*
X228819Y75757D01*
X228801Y75682D01*
X228780Y75608D01*
X228755Y75535D01*
X228726Y75463D01*
X228694Y75393D01*
X228659Y75324D01*
X228619Y75258D01*
X228577Y75193D01*
X228531Y75131D01*
X228482Y75071D01*
X228431Y75014D01*
X228376Y74959D01*
X228319Y74908D01*
X228259Y74859D01*
X228197Y74813D01*
X228132Y74771D01*
X228066Y74731D01*
X227997Y74696D01*
X227927Y74664D01*
X227855Y74635D01*
X227782Y74610D01*
X227708Y74589D01*
X227633Y74571D01*
X227557Y74558D01*
X227480Y74548D01*
X227403Y74542D01*
X227326Y74540D01*
X223516Y74540D01*
X223439Y74542D01*
X223362Y74548D01*
X223285Y74558D01*
X223209Y74571D01*
X223134Y74589D01*
X223060Y74610D01*
X222987Y74635D01*
X222915Y74664D01*
X222845Y74696D01*
X222776Y74731D01*
X222710Y74771D01*
X222645Y74813D01*
X222583Y74859D01*
X222523Y74908D01*
X222466Y74959D01*
X222411Y75014D01*
X222360Y75071D01*
X222311Y75131D01*
X222265Y75193D01*
X222223Y75258D01*
X222183Y75324D01*
X222148Y75393D01*
X222116Y75463D01*
X222087Y75535D01*
X222062Y75608D01*
X222041Y75682D01*
X222023Y75757D01*
X222010Y75833D01*
X222000Y75910D01*
X221994Y75987D01*
X221992Y76064D01*
X221992Y78350D01*
X221992Y82343D02*
X228850Y82343D01*
X228850Y86153D02*
X221992Y82343D01*
X221992Y86153D02*
X228850Y86153D01*
X228850Y90146D02*
X221992Y90146D01*
X221992Y92051D01*
X221994Y92136D01*
X222000Y92222D01*
X222009Y92307D01*
X222023Y92391D01*
X222040Y92475D01*
X222061Y92558D01*
X222085Y92640D01*
X222113Y92720D01*
X222145Y92800D01*
X222181Y92878D01*
X222219Y92954D01*
X222262Y93028D01*
X222307Y93100D01*
X222356Y93171D01*
X222408Y93239D01*
X222462Y93304D01*
X222520Y93367D01*
X222581Y93428D01*
X222644Y93486D01*
X222709Y93540D01*
X222777Y93592D01*
X222848Y93641D01*
X222920Y93686D01*
X222994Y93729D01*
X223070Y93767D01*
X223148Y93803D01*
X223228Y93835D01*
X223308Y93863D01*
X223390Y93887D01*
X223473Y93908D01*
X223557Y93925D01*
X223641Y93939D01*
X223726Y93948D01*
X223812Y93954D01*
X223897Y93956D01*
X226945Y93956D01*
X227030Y93954D01*
X227116Y93948D01*
X227201Y93939D01*
X227285Y93925D01*
X227369Y93908D01*
X227452Y93887D01*
X227534Y93863D01*
X227614Y93835D01*
X227694Y93803D01*
X227772Y93767D01*
X227848Y93729D01*
X227922Y93686D01*
X227994Y93641D01*
X228065Y93592D01*
X228133Y93540D01*
X228198Y93486D01*
X228261Y93428D01*
X228322Y93367D01*
X228380Y93304D01*
X228434Y93239D01*
X228486Y93171D01*
X228535Y93100D01*
X228580Y93028D01*
X228623Y92954D01*
X228661Y92878D01*
X228697Y92800D01*
X228729Y92720D01*
X228757Y92640D01*
X228781Y92558D01*
X228802Y92475D01*
X228819Y92391D01*
X228833Y92307D01*
X228842Y92222D01*
X228848Y92136D01*
X228850Y92051D01*
X228850Y90146D01*
X227580Y57141D02*
X227580Y54855D01*
X227580Y57141D02*
X227578Y57218D01*
X227572Y57295D01*
X227562Y57372D01*
X227549Y57448D01*
X227531Y57523D01*
X227510Y57597D01*
X227485Y57670D01*
X227456Y57742D01*
X227424Y57812D01*
X227389Y57881D01*
X227349Y57947D01*
X227307Y58012D01*
X227261Y58074D01*
X227212Y58134D01*
X227161Y58191D01*
X227106Y58246D01*
X227049Y58297D01*
X226989Y58346D01*
X226927Y58392D01*
X226862Y58434D01*
X226796Y58474D01*
X226727Y58509D01*
X226657Y58541D01*
X226585Y58570D01*
X226512Y58595D01*
X226438Y58616D01*
X226363Y58634D01*
X226287Y58647D01*
X226210Y58657D01*
X226133Y58663D01*
X226056Y58665D01*
X225294Y58665D01*
X225217Y58663D01*
X225140Y58657D01*
X225063Y58647D01*
X224987Y58634D01*
X224912Y58616D01*
X224838Y58595D01*
X224765Y58570D01*
X224693Y58541D01*
X224623Y58509D01*
X224554Y58474D01*
X224488Y58434D01*
X224423Y58392D01*
X224361Y58346D01*
X224301Y58297D01*
X224244Y58246D01*
X224189Y58191D01*
X224138Y58134D01*
X224089Y58074D01*
X224043Y58012D01*
X224001Y57947D01*
X223961Y57881D01*
X223926Y57812D01*
X223894Y57742D01*
X223865Y57670D01*
X223840Y57597D01*
X223819Y57523D01*
X223801Y57448D01*
X223788Y57372D01*
X223778Y57295D01*
X223772Y57218D01*
X223770Y57141D01*
X223770Y54855D01*
X220722Y54855D01*
X220722Y58665D01*
X220722Y61789D02*
X227580Y64075D01*
X220722Y66361D01*
X223770Y29455D02*
X223770Y28312D01*
X223770Y29455D02*
X227580Y29455D01*
X227580Y27169D01*
X227578Y27092D01*
X227572Y27015D01*
X227562Y26938D01*
X227549Y26862D01*
X227531Y26787D01*
X227510Y26713D01*
X227485Y26640D01*
X227456Y26568D01*
X227424Y26498D01*
X227389Y26429D01*
X227349Y26363D01*
X227307Y26298D01*
X227261Y26236D01*
X227212Y26176D01*
X227161Y26119D01*
X227106Y26064D01*
X227049Y26013D01*
X226989Y25964D01*
X226927Y25918D01*
X226862Y25876D01*
X226796Y25836D01*
X226727Y25801D01*
X226657Y25769D01*
X226585Y25740D01*
X226512Y25715D01*
X226438Y25694D01*
X226363Y25676D01*
X226287Y25663D01*
X226210Y25653D01*
X226133Y25647D01*
X226056Y25645D01*
X222246Y25645D01*
X222169Y25647D01*
X222092Y25653D01*
X222015Y25663D01*
X221939Y25676D01*
X221864Y25694D01*
X221790Y25715D01*
X221717Y25740D01*
X221645Y25769D01*
X221575Y25801D01*
X221506Y25836D01*
X221440Y25876D01*
X221375Y25918D01*
X221313Y25964D01*
X221253Y26013D01*
X221196Y26064D01*
X221141Y26119D01*
X221090Y26176D01*
X221041Y26236D01*
X220995Y26298D01*
X220953Y26363D01*
X220913Y26429D01*
X220878Y26498D01*
X220846Y26568D01*
X220817Y26640D01*
X220792Y26713D01*
X220771Y26787D01*
X220753Y26862D01*
X220740Y26938D01*
X220730Y27015D01*
X220724Y27092D01*
X220722Y27169D01*
X220722Y29455D01*
X220722Y33448D02*
X227580Y33448D01*
X227580Y37258D02*
X220722Y33448D01*
X220722Y37258D02*
X227580Y37258D01*
X227580Y41251D02*
X220722Y41251D01*
X220722Y43156D01*
X220724Y43241D01*
X220730Y43327D01*
X220739Y43412D01*
X220753Y43496D01*
X220770Y43580D01*
X220791Y43663D01*
X220815Y43745D01*
X220843Y43825D01*
X220875Y43905D01*
X220911Y43983D01*
X220949Y44059D01*
X220992Y44133D01*
X221037Y44205D01*
X221086Y44276D01*
X221138Y44344D01*
X221192Y44409D01*
X221250Y44472D01*
X221311Y44533D01*
X221374Y44591D01*
X221439Y44645D01*
X221507Y44697D01*
X221578Y44746D01*
X221650Y44791D01*
X221724Y44834D01*
X221800Y44872D01*
X221878Y44908D01*
X221958Y44940D01*
X222038Y44968D01*
X222120Y44992D01*
X222203Y45013D01*
X222287Y45030D01*
X222371Y45044D01*
X222456Y45053D01*
X222542Y45059D01*
X222627Y45061D01*
X225675Y45061D01*
X225760Y45059D01*
X225846Y45053D01*
X225931Y45044D01*
X226015Y45030D01*
X226099Y45013D01*
X226182Y44992D01*
X226264Y44968D01*
X226344Y44940D01*
X226424Y44908D01*
X226502Y44872D01*
X226578Y44834D01*
X226652Y44791D01*
X226724Y44746D01*
X226795Y44697D01*
X226863Y44645D01*
X226928Y44591D01*
X226991Y44533D01*
X227052Y44472D01*
X227110Y44409D01*
X227164Y44344D01*
X227216Y44276D01*
X227265Y44205D01*
X227310Y44133D01*
X227353Y44059D01*
X227391Y43983D01*
X227427Y43905D01*
X227459Y43825D01*
X227487Y43745D01*
X227511Y43663D01*
X227532Y43580D01*
X227549Y43496D01*
X227563Y43412D01*
X227572Y43327D01*
X227578Y43241D01*
X227580Y43156D01*
X227580Y41251D01*
D11*
X100056Y137824D02*
X99365Y137824D01*
X99365Y138515D01*
X100056Y138515D01*
X100056Y137824D01*
D12*
X191385Y167250D02*
X191385Y174108D01*
X193290Y174108D01*
X193375Y174106D01*
X193461Y174100D01*
X193546Y174091D01*
X193630Y174077D01*
X193714Y174060D01*
X193797Y174039D01*
X193879Y174015D01*
X193959Y173987D01*
X194039Y173955D01*
X194117Y173919D01*
X194193Y173881D01*
X194267Y173838D01*
X194339Y173793D01*
X194410Y173744D01*
X194478Y173692D01*
X194543Y173638D01*
X194606Y173580D01*
X194667Y173519D01*
X194725Y173456D01*
X194779Y173391D01*
X194831Y173323D01*
X194880Y173252D01*
X194925Y173180D01*
X194968Y173106D01*
X195006Y173030D01*
X195042Y172952D01*
X195074Y172872D01*
X195102Y172792D01*
X195126Y172710D01*
X195147Y172627D01*
X195164Y172543D01*
X195178Y172459D01*
X195187Y172374D01*
X195193Y172288D01*
X195195Y172203D01*
X195193Y172118D01*
X195187Y172032D01*
X195178Y171947D01*
X195164Y171863D01*
X195147Y171779D01*
X195126Y171696D01*
X195102Y171614D01*
X195074Y171534D01*
X195042Y171454D01*
X195006Y171376D01*
X194968Y171300D01*
X194925Y171226D01*
X194880Y171154D01*
X194831Y171083D01*
X194779Y171015D01*
X194725Y170950D01*
X194667Y170887D01*
X194606Y170826D01*
X194543Y170768D01*
X194478Y170714D01*
X194410Y170662D01*
X194339Y170613D01*
X194267Y170568D01*
X194193Y170525D01*
X194117Y170487D01*
X194039Y170451D01*
X193959Y170419D01*
X193879Y170391D01*
X193797Y170367D01*
X193714Y170346D01*
X193630Y170329D01*
X193546Y170315D01*
X193461Y170306D01*
X193375Y170300D01*
X193290Y170298D01*
X191385Y170298D01*
X198129Y174108D02*
X199653Y167250D01*
X201177Y171822D01*
X202701Y167250D01*
X204225Y174108D01*
X207876Y174108D02*
X207876Y167250D01*
X207876Y174108D02*
X209781Y174108D01*
X209866Y174106D01*
X209952Y174100D01*
X210037Y174091D01*
X210121Y174077D01*
X210205Y174060D01*
X210288Y174039D01*
X210370Y174015D01*
X210450Y173987D01*
X210530Y173955D01*
X210608Y173919D01*
X210684Y173881D01*
X210758Y173838D01*
X210830Y173793D01*
X210901Y173744D01*
X210969Y173692D01*
X211034Y173638D01*
X211097Y173580D01*
X211158Y173519D01*
X211216Y173456D01*
X211270Y173391D01*
X211322Y173323D01*
X211371Y173252D01*
X211416Y173180D01*
X211459Y173106D01*
X211497Y173030D01*
X211533Y172952D01*
X211565Y172872D01*
X211593Y172792D01*
X211617Y172710D01*
X211638Y172627D01*
X211655Y172543D01*
X211669Y172459D01*
X211678Y172374D01*
X211684Y172288D01*
X211686Y172203D01*
X211684Y172118D01*
X211678Y172032D01*
X211669Y171947D01*
X211655Y171863D01*
X211638Y171779D01*
X211617Y171696D01*
X211593Y171614D01*
X211565Y171534D01*
X211533Y171454D01*
X211497Y171376D01*
X211459Y171300D01*
X211416Y171226D01*
X211371Y171154D01*
X211322Y171083D01*
X211270Y171015D01*
X211216Y170950D01*
X211158Y170887D01*
X211097Y170826D01*
X211034Y170768D01*
X210969Y170714D01*
X210901Y170662D01*
X210830Y170613D01*
X210758Y170568D01*
X210684Y170525D01*
X210608Y170487D01*
X210530Y170451D01*
X210450Y170419D01*
X210370Y170391D01*
X210288Y170367D01*
X210205Y170346D01*
X210121Y170329D01*
X210037Y170315D01*
X209952Y170306D01*
X209866Y170300D01*
X209781Y170298D01*
X207876Y170298D01*
X210162Y170298D02*
X211686Y167250D01*
D13*
X216085Y209496D02*
X216085Y218084D01*
X190685Y218084D02*
X190685Y209496D01*
X200701Y220878D02*
X206069Y220878D01*
D14*
X187383Y203630D03*
D13*
X163075Y212305D02*
X163075Y239065D01*
X135075Y239065D02*
X135075Y212305D01*
X147775Y204685D02*
X150375Y204685D01*
X150375Y246685D02*
X147775Y246685D01*
D12*
X141025Y225685D02*
X141027Y225883D01*
X141035Y226080D01*
X141047Y226277D01*
X141064Y226474D01*
X141086Y226670D01*
X141112Y226866D01*
X141144Y227061D01*
X141180Y227255D01*
X141221Y227449D01*
X141266Y227641D01*
X141317Y227832D01*
X141372Y228022D01*
X141431Y228210D01*
X141496Y228397D01*
X141564Y228582D01*
X141638Y228766D01*
X141716Y228947D01*
X141798Y229127D01*
X141885Y229304D01*
X141976Y229480D01*
X142071Y229653D01*
X142170Y229824D01*
X142274Y229992D01*
X142382Y230157D01*
X142493Y230320D01*
X142609Y230480D01*
X142729Y230638D01*
X142852Y230792D01*
X142979Y230943D01*
X143110Y231091D01*
X143245Y231236D01*
X143383Y231377D01*
X143524Y231515D01*
X143669Y231650D01*
X143817Y231781D01*
X143968Y231908D01*
X144122Y232031D01*
X144280Y232151D01*
X144440Y232267D01*
X144603Y232378D01*
X144768Y232486D01*
X144936Y232590D01*
X145107Y232689D01*
X145280Y232784D01*
X145456Y232875D01*
X145633Y232962D01*
X145813Y233044D01*
X145994Y233122D01*
X146178Y233196D01*
X146363Y233264D01*
X146550Y233329D01*
X146738Y233388D01*
X146928Y233443D01*
X147119Y233494D01*
X147311Y233539D01*
X147505Y233580D01*
X147699Y233616D01*
X147894Y233648D01*
X148090Y233674D01*
X148286Y233696D01*
X148483Y233713D01*
X148680Y233725D01*
X148877Y233733D01*
X149075Y233735D01*
X149273Y233733D01*
X149470Y233725D01*
X149667Y233713D01*
X149864Y233696D01*
X150060Y233674D01*
X150256Y233648D01*
X150451Y233616D01*
X150645Y233580D01*
X150839Y233539D01*
X151031Y233494D01*
X151222Y233443D01*
X151412Y233388D01*
X151600Y233329D01*
X151787Y233264D01*
X151972Y233196D01*
X152156Y233122D01*
X152337Y233044D01*
X152517Y232962D01*
X152694Y232875D01*
X152870Y232784D01*
X153043Y232689D01*
X153214Y232590D01*
X153382Y232486D01*
X153547Y232378D01*
X153710Y232267D01*
X153870Y232151D01*
X154028Y232031D01*
X154182Y231908D01*
X154333Y231781D01*
X154481Y231650D01*
X154626Y231515D01*
X154767Y231377D01*
X154905Y231236D01*
X155040Y231091D01*
X155171Y230943D01*
X155298Y230792D01*
X155421Y230638D01*
X155541Y230480D01*
X155657Y230320D01*
X155768Y230157D01*
X155876Y229992D01*
X155980Y229824D01*
X156079Y229653D01*
X156174Y229480D01*
X156265Y229304D01*
X156352Y229127D01*
X156434Y228947D01*
X156512Y228766D01*
X156586Y228582D01*
X156654Y228397D01*
X156719Y228210D01*
X156778Y228022D01*
X156833Y227832D01*
X156884Y227641D01*
X156929Y227449D01*
X156970Y227255D01*
X157006Y227061D01*
X157038Y226866D01*
X157064Y226670D01*
X157086Y226474D01*
X157103Y226277D01*
X157115Y226080D01*
X157123Y225883D01*
X157125Y225685D01*
X157123Y225487D01*
X157115Y225290D01*
X157103Y225093D01*
X157086Y224896D01*
X157064Y224700D01*
X157038Y224504D01*
X157006Y224309D01*
X156970Y224115D01*
X156929Y223921D01*
X156884Y223729D01*
X156833Y223538D01*
X156778Y223348D01*
X156719Y223160D01*
X156654Y222973D01*
X156586Y222788D01*
X156512Y222604D01*
X156434Y222423D01*
X156352Y222243D01*
X156265Y222066D01*
X156174Y221890D01*
X156079Y221717D01*
X155980Y221546D01*
X155876Y221378D01*
X155768Y221213D01*
X155657Y221050D01*
X155541Y220890D01*
X155421Y220732D01*
X155298Y220578D01*
X155171Y220427D01*
X155040Y220279D01*
X154905Y220134D01*
X154767Y219993D01*
X154626Y219855D01*
X154481Y219720D01*
X154333Y219589D01*
X154182Y219462D01*
X154028Y219339D01*
X153870Y219219D01*
X153710Y219103D01*
X153547Y218992D01*
X153382Y218884D01*
X153214Y218780D01*
X153043Y218681D01*
X152870Y218586D01*
X152694Y218495D01*
X152517Y218408D01*
X152337Y218326D01*
X152156Y218248D01*
X151972Y218174D01*
X151787Y218106D01*
X151600Y218041D01*
X151412Y217982D01*
X151222Y217927D01*
X151031Y217876D01*
X150839Y217831D01*
X150645Y217790D01*
X150451Y217754D01*
X150256Y217722D01*
X150060Y217696D01*
X149864Y217674D01*
X149667Y217657D01*
X149470Y217645D01*
X149273Y217637D01*
X149075Y217635D01*
X148877Y217637D01*
X148680Y217645D01*
X148483Y217657D01*
X148286Y217674D01*
X148090Y217696D01*
X147894Y217722D01*
X147699Y217754D01*
X147505Y217790D01*
X147311Y217831D01*
X147119Y217876D01*
X146928Y217927D01*
X146738Y217982D01*
X146550Y218041D01*
X146363Y218106D01*
X146178Y218174D01*
X145994Y218248D01*
X145813Y218326D01*
X145633Y218408D01*
X145456Y218495D01*
X145280Y218586D01*
X145107Y218681D01*
X144936Y218780D01*
X144768Y218884D01*
X144603Y218992D01*
X144440Y219103D01*
X144280Y219219D01*
X144122Y219339D01*
X143968Y219462D01*
X143817Y219589D01*
X143669Y219720D01*
X143524Y219855D01*
X143383Y219993D01*
X143245Y220134D01*
X143110Y220279D01*
X142979Y220427D01*
X142852Y220578D01*
X142729Y220732D01*
X142609Y220890D01*
X142493Y221050D01*
X142382Y221213D01*
X142274Y221378D01*
X142170Y221546D01*
X142071Y221717D01*
X141976Y221890D01*
X141885Y222066D01*
X141798Y222243D01*
X141716Y222423D01*
X141638Y222604D01*
X141564Y222788D01*
X141496Y222973D01*
X141431Y223160D01*
X141372Y223348D01*
X141317Y223538D01*
X141266Y223729D01*
X141221Y223921D01*
X141180Y224115D01*
X141144Y224309D01*
X141112Y224504D01*
X141086Y224700D01*
X141064Y224896D01*
X141047Y225093D01*
X141035Y225290D01*
X141027Y225487D01*
X141025Y225685D01*
D15*
X138954Y258536D02*
X137119Y258536D01*
X138954Y258535D02*
X139039Y258533D01*
X139123Y258527D01*
X139207Y258517D01*
X139291Y258504D01*
X139374Y258486D01*
X139456Y258465D01*
X139537Y258440D01*
X139617Y258411D01*
X139695Y258379D01*
X139771Y258343D01*
X139846Y258303D01*
X139919Y258260D01*
X139990Y258214D01*
X140059Y258165D01*
X140126Y258112D01*
X140190Y258056D01*
X140251Y257998D01*
X140309Y257937D01*
X140365Y257873D01*
X140418Y257806D01*
X140467Y257737D01*
X140513Y257666D01*
X140556Y257593D01*
X140596Y257518D01*
X140632Y257442D01*
X140664Y257364D01*
X140693Y257284D01*
X140718Y257203D01*
X140739Y257121D01*
X140757Y257038D01*
X140770Y256954D01*
X140780Y256870D01*
X140786Y256786D01*
X140788Y256701D01*
X140786Y256616D01*
X140780Y256532D01*
X140770Y256448D01*
X140757Y256364D01*
X140739Y256281D01*
X140718Y256199D01*
X140693Y256118D01*
X140664Y256038D01*
X140632Y255960D01*
X140596Y255884D01*
X140556Y255809D01*
X140513Y255736D01*
X140467Y255665D01*
X140418Y255596D01*
X140365Y255529D01*
X140309Y255465D01*
X140251Y255404D01*
X140190Y255346D01*
X140126Y255290D01*
X140059Y255237D01*
X139990Y255188D01*
X139919Y255142D01*
X139846Y255099D01*
X139771Y255059D01*
X139695Y255023D01*
X139617Y254991D01*
X139537Y254962D01*
X139456Y254937D01*
X139374Y254916D01*
X139291Y254898D01*
X139207Y254885D01*
X139123Y254875D01*
X139039Y254869D01*
X138954Y254867D01*
X137119Y254867D01*
X137119Y261471D01*
X138954Y261471D01*
X139030Y261469D01*
X139105Y261463D01*
X139180Y261454D01*
X139254Y261440D01*
X139328Y261423D01*
X139400Y261401D01*
X139472Y261377D01*
X139542Y261348D01*
X139610Y261316D01*
X139677Y261281D01*
X139742Y261242D01*
X139805Y261199D01*
X139865Y261154D01*
X139923Y261106D01*
X139979Y261054D01*
X140031Y261000D01*
X140081Y260943D01*
X140128Y260884D01*
X140172Y260823D01*
X140213Y260759D01*
X140250Y260693D01*
X140284Y260625D01*
X140314Y260556D01*
X140341Y260485D01*
X140364Y260413D01*
X140383Y260340D01*
X140398Y260266D01*
X140410Y260191D01*
X140418Y260116D01*
X140422Y260041D01*
X140422Y259965D01*
X140418Y259890D01*
X140410Y259815D01*
X140398Y259740D01*
X140383Y259666D01*
X140364Y259593D01*
X140341Y259521D01*
X140314Y259450D01*
X140284Y259381D01*
X140250Y259313D01*
X140213Y259247D01*
X140172Y259183D01*
X140128Y259122D01*
X140081Y259063D01*
X140031Y259006D01*
X139979Y258952D01*
X139923Y258900D01*
X139865Y258852D01*
X139805Y258807D01*
X139742Y258764D01*
X139677Y258725D01*
X139610Y258690D01*
X139542Y258658D01*
X139472Y258629D01*
X139400Y258605D01*
X139328Y258583D01*
X139254Y258566D01*
X139180Y258552D01*
X139105Y258543D01*
X139030Y258537D01*
X138954Y258535D01*
X145356Y261471D02*
X145356Y254867D01*
X143522Y261471D02*
X147191Y261471D01*
X150593Y261471D02*
X150593Y254867D01*
X154262Y254867D02*
X150593Y261471D01*
X154262Y261471D02*
X154262Y254867D01*
X158152Y260003D02*
X159986Y261471D01*
X159986Y254867D01*
X158152Y254867D02*
X161821Y254867D01*
D13*
X119700Y239065D02*
X119700Y212305D01*
X91700Y212305D02*
X91700Y239065D01*
X104400Y204685D02*
X107000Y204685D01*
X107000Y246685D02*
X104400Y246685D01*
D12*
X97650Y225685D02*
X97652Y225883D01*
X97660Y226080D01*
X97672Y226277D01*
X97689Y226474D01*
X97711Y226670D01*
X97737Y226866D01*
X97769Y227061D01*
X97805Y227255D01*
X97846Y227449D01*
X97891Y227641D01*
X97942Y227832D01*
X97997Y228022D01*
X98056Y228210D01*
X98121Y228397D01*
X98189Y228582D01*
X98263Y228766D01*
X98341Y228947D01*
X98423Y229127D01*
X98510Y229304D01*
X98601Y229480D01*
X98696Y229653D01*
X98795Y229824D01*
X98899Y229992D01*
X99007Y230157D01*
X99118Y230320D01*
X99234Y230480D01*
X99354Y230638D01*
X99477Y230792D01*
X99604Y230943D01*
X99735Y231091D01*
X99870Y231236D01*
X100008Y231377D01*
X100149Y231515D01*
X100294Y231650D01*
X100442Y231781D01*
X100593Y231908D01*
X100747Y232031D01*
X100905Y232151D01*
X101065Y232267D01*
X101228Y232378D01*
X101393Y232486D01*
X101561Y232590D01*
X101732Y232689D01*
X101905Y232784D01*
X102081Y232875D01*
X102258Y232962D01*
X102438Y233044D01*
X102619Y233122D01*
X102803Y233196D01*
X102988Y233264D01*
X103175Y233329D01*
X103363Y233388D01*
X103553Y233443D01*
X103744Y233494D01*
X103936Y233539D01*
X104130Y233580D01*
X104324Y233616D01*
X104519Y233648D01*
X104715Y233674D01*
X104911Y233696D01*
X105108Y233713D01*
X105305Y233725D01*
X105502Y233733D01*
X105700Y233735D01*
X105898Y233733D01*
X106095Y233725D01*
X106292Y233713D01*
X106489Y233696D01*
X106685Y233674D01*
X106881Y233648D01*
X107076Y233616D01*
X107270Y233580D01*
X107464Y233539D01*
X107656Y233494D01*
X107847Y233443D01*
X108037Y233388D01*
X108225Y233329D01*
X108412Y233264D01*
X108597Y233196D01*
X108781Y233122D01*
X108962Y233044D01*
X109142Y232962D01*
X109319Y232875D01*
X109495Y232784D01*
X109668Y232689D01*
X109839Y232590D01*
X110007Y232486D01*
X110172Y232378D01*
X110335Y232267D01*
X110495Y232151D01*
X110653Y232031D01*
X110807Y231908D01*
X110958Y231781D01*
X111106Y231650D01*
X111251Y231515D01*
X111392Y231377D01*
X111530Y231236D01*
X111665Y231091D01*
X111796Y230943D01*
X111923Y230792D01*
X112046Y230638D01*
X112166Y230480D01*
X112282Y230320D01*
X112393Y230157D01*
X112501Y229992D01*
X112605Y229824D01*
X112704Y229653D01*
X112799Y229480D01*
X112890Y229304D01*
X112977Y229127D01*
X113059Y228947D01*
X113137Y228766D01*
X113211Y228582D01*
X113279Y228397D01*
X113344Y228210D01*
X113403Y228022D01*
X113458Y227832D01*
X113509Y227641D01*
X113554Y227449D01*
X113595Y227255D01*
X113631Y227061D01*
X113663Y226866D01*
X113689Y226670D01*
X113711Y226474D01*
X113728Y226277D01*
X113740Y226080D01*
X113748Y225883D01*
X113750Y225685D01*
X113748Y225487D01*
X113740Y225290D01*
X113728Y225093D01*
X113711Y224896D01*
X113689Y224700D01*
X113663Y224504D01*
X113631Y224309D01*
X113595Y224115D01*
X113554Y223921D01*
X113509Y223729D01*
X113458Y223538D01*
X113403Y223348D01*
X113344Y223160D01*
X113279Y222973D01*
X113211Y222788D01*
X113137Y222604D01*
X113059Y222423D01*
X112977Y222243D01*
X112890Y222066D01*
X112799Y221890D01*
X112704Y221717D01*
X112605Y221546D01*
X112501Y221378D01*
X112393Y221213D01*
X112282Y221050D01*
X112166Y220890D01*
X112046Y220732D01*
X111923Y220578D01*
X111796Y220427D01*
X111665Y220279D01*
X111530Y220134D01*
X111392Y219993D01*
X111251Y219855D01*
X111106Y219720D01*
X110958Y219589D01*
X110807Y219462D01*
X110653Y219339D01*
X110495Y219219D01*
X110335Y219103D01*
X110172Y218992D01*
X110007Y218884D01*
X109839Y218780D01*
X109668Y218681D01*
X109495Y218586D01*
X109319Y218495D01*
X109142Y218408D01*
X108962Y218326D01*
X108781Y218248D01*
X108597Y218174D01*
X108412Y218106D01*
X108225Y218041D01*
X108037Y217982D01*
X107847Y217927D01*
X107656Y217876D01*
X107464Y217831D01*
X107270Y217790D01*
X107076Y217754D01*
X106881Y217722D01*
X106685Y217696D01*
X106489Y217674D01*
X106292Y217657D01*
X106095Y217645D01*
X105898Y217637D01*
X105700Y217635D01*
X105502Y217637D01*
X105305Y217645D01*
X105108Y217657D01*
X104911Y217674D01*
X104715Y217696D01*
X104519Y217722D01*
X104324Y217754D01*
X104130Y217790D01*
X103936Y217831D01*
X103744Y217876D01*
X103553Y217927D01*
X103363Y217982D01*
X103175Y218041D01*
X102988Y218106D01*
X102803Y218174D01*
X102619Y218248D01*
X102438Y218326D01*
X102258Y218408D01*
X102081Y218495D01*
X101905Y218586D01*
X101732Y218681D01*
X101561Y218780D01*
X101393Y218884D01*
X101228Y218992D01*
X101065Y219103D01*
X100905Y219219D01*
X100747Y219339D01*
X100593Y219462D01*
X100442Y219589D01*
X100294Y219720D01*
X100149Y219855D01*
X100008Y219993D01*
X99870Y220134D01*
X99735Y220279D01*
X99604Y220427D01*
X99477Y220578D01*
X99354Y220732D01*
X99234Y220890D01*
X99118Y221050D01*
X99007Y221213D01*
X98899Y221378D01*
X98795Y221546D01*
X98696Y221717D01*
X98601Y221890D01*
X98510Y222066D01*
X98423Y222243D01*
X98341Y222423D01*
X98263Y222604D01*
X98189Y222788D01*
X98121Y222973D01*
X98056Y223160D01*
X97997Y223348D01*
X97942Y223538D01*
X97891Y223729D01*
X97846Y223921D01*
X97805Y224115D01*
X97769Y224309D01*
X97737Y224504D01*
X97711Y224700D01*
X97689Y224896D01*
X97672Y225093D01*
X97660Y225290D01*
X97652Y225487D01*
X97650Y225685D01*
D15*
X94944Y258933D02*
X93109Y258933D01*
X94944Y258932D02*
X95029Y258930D01*
X95113Y258924D01*
X95197Y258914D01*
X95281Y258901D01*
X95364Y258883D01*
X95446Y258862D01*
X95527Y258837D01*
X95607Y258808D01*
X95685Y258776D01*
X95761Y258740D01*
X95836Y258700D01*
X95909Y258657D01*
X95980Y258611D01*
X96049Y258562D01*
X96116Y258509D01*
X96180Y258453D01*
X96241Y258395D01*
X96299Y258334D01*
X96355Y258270D01*
X96408Y258203D01*
X96457Y258134D01*
X96503Y258063D01*
X96546Y257990D01*
X96586Y257915D01*
X96622Y257839D01*
X96654Y257761D01*
X96683Y257681D01*
X96708Y257600D01*
X96729Y257518D01*
X96747Y257435D01*
X96760Y257351D01*
X96770Y257267D01*
X96776Y257183D01*
X96778Y257098D01*
X96776Y257013D01*
X96770Y256929D01*
X96760Y256845D01*
X96747Y256761D01*
X96729Y256678D01*
X96708Y256596D01*
X96683Y256515D01*
X96654Y256435D01*
X96622Y256357D01*
X96586Y256281D01*
X96546Y256206D01*
X96503Y256133D01*
X96457Y256062D01*
X96408Y255993D01*
X96355Y255926D01*
X96299Y255862D01*
X96241Y255801D01*
X96180Y255743D01*
X96116Y255687D01*
X96049Y255634D01*
X95980Y255585D01*
X95909Y255539D01*
X95836Y255496D01*
X95761Y255456D01*
X95685Y255420D01*
X95607Y255388D01*
X95527Y255359D01*
X95446Y255334D01*
X95364Y255313D01*
X95281Y255295D01*
X95197Y255282D01*
X95113Y255272D01*
X95029Y255266D01*
X94944Y255264D01*
X93109Y255264D01*
X93109Y261868D01*
X94944Y261868D01*
X95020Y261866D01*
X95095Y261860D01*
X95170Y261851D01*
X95244Y261837D01*
X95318Y261820D01*
X95390Y261798D01*
X95462Y261774D01*
X95532Y261745D01*
X95600Y261713D01*
X95667Y261678D01*
X95732Y261639D01*
X95795Y261596D01*
X95855Y261551D01*
X95913Y261503D01*
X95969Y261451D01*
X96021Y261397D01*
X96071Y261340D01*
X96118Y261281D01*
X96162Y261220D01*
X96203Y261156D01*
X96240Y261090D01*
X96274Y261022D01*
X96304Y260953D01*
X96331Y260882D01*
X96354Y260810D01*
X96373Y260737D01*
X96388Y260663D01*
X96400Y260588D01*
X96408Y260513D01*
X96412Y260438D01*
X96412Y260362D01*
X96408Y260287D01*
X96400Y260212D01*
X96388Y260137D01*
X96373Y260063D01*
X96354Y259990D01*
X96331Y259918D01*
X96304Y259847D01*
X96274Y259778D01*
X96240Y259710D01*
X96203Y259644D01*
X96162Y259580D01*
X96118Y259519D01*
X96071Y259460D01*
X96021Y259403D01*
X95969Y259349D01*
X95913Y259297D01*
X95855Y259249D01*
X95795Y259204D01*
X95732Y259161D01*
X95667Y259122D01*
X95600Y259087D01*
X95532Y259055D01*
X95462Y259026D01*
X95390Y259002D01*
X95318Y258980D01*
X95244Y258963D01*
X95170Y258949D01*
X95095Y258940D01*
X95020Y258934D01*
X94944Y258932D01*
X101346Y261868D02*
X101346Y255264D01*
X99512Y261868D02*
X103180Y261868D01*
X106583Y261868D02*
X106583Y255264D01*
X110252Y255264D02*
X106583Y261868D01*
X110252Y261868D02*
X110252Y255264D01*
X116160Y261868D02*
X116239Y261866D01*
X116317Y261861D01*
X116395Y261851D01*
X116472Y261838D01*
X116549Y261821D01*
X116625Y261801D01*
X116700Y261777D01*
X116774Y261750D01*
X116846Y261719D01*
X116917Y261684D01*
X116986Y261647D01*
X117053Y261606D01*
X117118Y261562D01*
X117181Y261515D01*
X117241Y261465D01*
X117299Y261412D01*
X117355Y261356D01*
X117408Y261298D01*
X117458Y261238D01*
X117505Y261175D01*
X117549Y261110D01*
X117590Y261043D01*
X117627Y260974D01*
X117662Y260903D01*
X117693Y260831D01*
X117720Y260757D01*
X117744Y260682D01*
X117764Y260606D01*
X117781Y260529D01*
X117794Y260452D01*
X117804Y260374D01*
X117809Y260296D01*
X117811Y260217D01*
X116160Y261868D02*
X116071Y261866D01*
X115982Y261861D01*
X115894Y261851D01*
X115806Y261838D01*
X115719Y261822D01*
X115632Y261801D01*
X115547Y261777D01*
X115462Y261750D01*
X115379Y261719D01*
X115297Y261684D01*
X115216Y261646D01*
X115137Y261605D01*
X115061Y261561D01*
X114985Y261513D01*
X114912Y261462D01*
X114842Y261409D01*
X114773Y261352D01*
X114707Y261292D01*
X114644Y261230D01*
X114583Y261165D01*
X114525Y261098D01*
X114470Y261028D01*
X114417Y260956D01*
X114368Y260882D01*
X114322Y260806D01*
X114280Y260728D01*
X114240Y260648D01*
X114204Y260567D01*
X114171Y260484D01*
X114142Y260400D01*
X117261Y258933D02*
X117317Y258989D01*
X117371Y259048D01*
X117422Y259109D01*
X117471Y259173D01*
X117516Y259238D01*
X117559Y259306D01*
X117598Y259375D01*
X117635Y259446D01*
X117668Y259519D01*
X117697Y259593D01*
X117724Y259668D01*
X117747Y259744D01*
X117766Y259822D01*
X117782Y259900D01*
X117795Y259978D01*
X117804Y260058D01*
X117809Y260137D01*
X117811Y260217D01*
X117261Y258933D02*
X114142Y255264D01*
X117811Y255264D01*
D12*
X72155Y50468D02*
X72155Y40943D01*
X216325Y41798D02*
X216325Y51323D01*
D10*
X176154Y183263D02*
X174573Y183263D01*
X174495Y183265D01*
X174418Y183271D01*
X174341Y183280D01*
X174265Y183293D01*
X174189Y183310D01*
X174114Y183331D01*
X174041Y183355D01*
X173968Y183383D01*
X173897Y183415D01*
X173828Y183450D01*
X173761Y183488D01*
X173695Y183529D01*
X173632Y183574D01*
X173571Y183622D01*
X173512Y183672D01*
X173456Y183726D01*
X173402Y183782D01*
X173352Y183841D01*
X173304Y183902D01*
X173259Y183965D01*
X173218Y184031D01*
X173180Y184098D01*
X173145Y184167D01*
X173113Y184238D01*
X173085Y184311D01*
X173061Y184384D01*
X173040Y184459D01*
X173023Y184535D01*
X173010Y184611D01*
X173001Y184688D01*
X172995Y184765D01*
X172993Y184843D01*
X172993Y188795D01*
X172995Y188873D01*
X173001Y188950D01*
X173010Y189027D01*
X173023Y189103D01*
X173040Y189179D01*
X173061Y189254D01*
X173085Y189327D01*
X173113Y189400D01*
X173145Y189471D01*
X173180Y189540D01*
X173218Y189607D01*
X173259Y189673D01*
X173304Y189736D01*
X173352Y189797D01*
X173402Y189856D01*
X173456Y189912D01*
X173512Y189966D01*
X173571Y190016D01*
X173632Y190064D01*
X173695Y190109D01*
X173761Y190150D01*
X173828Y190188D01*
X173897Y190223D01*
X173968Y190255D01*
X174041Y190283D01*
X174114Y190307D01*
X174189Y190328D01*
X174265Y190345D01*
X174341Y190358D01*
X174418Y190367D01*
X174495Y190373D01*
X174573Y190375D01*
X176154Y190375D01*
X179116Y188795D02*
X181092Y190375D01*
X181092Y183263D01*
X183067Y183263D02*
X179116Y183263D01*
X178449Y238683D02*
X176868Y238683D01*
X176790Y238685D01*
X176713Y238691D01*
X176636Y238700D01*
X176560Y238713D01*
X176484Y238730D01*
X176409Y238751D01*
X176336Y238775D01*
X176263Y238803D01*
X176192Y238835D01*
X176123Y238870D01*
X176056Y238908D01*
X175990Y238949D01*
X175927Y238994D01*
X175866Y239042D01*
X175807Y239092D01*
X175751Y239146D01*
X175697Y239202D01*
X175647Y239261D01*
X175599Y239322D01*
X175554Y239385D01*
X175513Y239451D01*
X175475Y239518D01*
X175440Y239587D01*
X175408Y239658D01*
X175380Y239731D01*
X175356Y239804D01*
X175335Y239879D01*
X175318Y239955D01*
X175305Y240031D01*
X175296Y240108D01*
X175290Y240185D01*
X175288Y240263D01*
X175288Y244215D01*
X175290Y244293D01*
X175296Y244370D01*
X175305Y244447D01*
X175318Y244523D01*
X175335Y244599D01*
X175356Y244674D01*
X175380Y244747D01*
X175408Y244820D01*
X175440Y244891D01*
X175475Y244960D01*
X175513Y245027D01*
X175554Y245093D01*
X175599Y245156D01*
X175647Y245217D01*
X175697Y245276D01*
X175751Y245332D01*
X175807Y245386D01*
X175866Y245436D01*
X175927Y245484D01*
X175990Y245529D01*
X176056Y245570D01*
X176123Y245608D01*
X176192Y245643D01*
X176263Y245675D01*
X176336Y245703D01*
X176409Y245727D01*
X176484Y245748D01*
X176560Y245765D01*
X176636Y245778D01*
X176713Y245787D01*
X176790Y245793D01*
X176868Y245795D01*
X178449Y245795D01*
X183584Y245795D02*
X183666Y245793D01*
X183748Y245787D01*
X183830Y245778D01*
X183911Y245765D01*
X183991Y245748D01*
X184071Y245727D01*
X184149Y245703D01*
X184226Y245675D01*
X184302Y245644D01*
X184377Y245609D01*
X184449Y245570D01*
X184520Y245529D01*
X184589Y245484D01*
X184655Y245436D01*
X184720Y245385D01*
X184782Y245331D01*
X184841Y245274D01*
X184898Y245215D01*
X184952Y245153D01*
X185003Y245088D01*
X185051Y245022D01*
X185096Y244953D01*
X185137Y244882D01*
X185176Y244810D01*
X185211Y244735D01*
X185242Y244659D01*
X185270Y244582D01*
X185294Y244504D01*
X185315Y244424D01*
X185332Y244344D01*
X185345Y244263D01*
X185354Y244181D01*
X185360Y244099D01*
X185362Y244017D01*
X183584Y245795D02*
X183491Y245793D01*
X183399Y245787D01*
X183307Y245778D01*
X183215Y245765D01*
X183124Y245748D01*
X183034Y245728D01*
X182944Y245704D01*
X182856Y245676D01*
X182768Y245644D01*
X182683Y245610D01*
X182598Y245571D01*
X182516Y245530D01*
X182435Y245485D01*
X182355Y245436D01*
X182278Y245385D01*
X182203Y245331D01*
X182131Y245273D01*
X182061Y245213D01*
X181993Y245149D01*
X181928Y245084D01*
X181865Y245015D01*
X181806Y244944D01*
X181749Y244871D01*
X181695Y244795D01*
X181645Y244718D01*
X181597Y244638D01*
X181553Y244557D01*
X181513Y244473D01*
X181475Y244389D01*
X181441Y244302D01*
X181411Y244215D01*
X184769Y242634D02*
X184830Y242695D01*
X184888Y242758D01*
X184943Y242824D01*
X184996Y242892D01*
X185045Y242963D01*
X185090Y243035D01*
X185133Y243110D01*
X185172Y243186D01*
X185208Y243265D01*
X185240Y243344D01*
X185268Y243425D01*
X185293Y243508D01*
X185314Y243591D01*
X185331Y243675D01*
X185345Y243760D01*
X185354Y243845D01*
X185360Y243931D01*
X185362Y244017D01*
X184770Y242634D02*
X181411Y238683D01*
X185362Y238683D01*
D13*
X73785Y239065D02*
X73785Y212305D01*
X45785Y212305D02*
X45785Y239065D01*
X58485Y204685D02*
X61085Y204685D01*
X61085Y246685D02*
X58485Y246685D01*
D12*
X51735Y225685D02*
X51737Y225883D01*
X51745Y226080D01*
X51757Y226277D01*
X51774Y226474D01*
X51796Y226670D01*
X51822Y226866D01*
X51854Y227061D01*
X51890Y227255D01*
X51931Y227449D01*
X51976Y227641D01*
X52027Y227832D01*
X52082Y228022D01*
X52141Y228210D01*
X52206Y228397D01*
X52274Y228582D01*
X52348Y228766D01*
X52426Y228947D01*
X52508Y229127D01*
X52595Y229304D01*
X52686Y229480D01*
X52781Y229653D01*
X52880Y229824D01*
X52984Y229992D01*
X53092Y230157D01*
X53203Y230320D01*
X53319Y230480D01*
X53439Y230638D01*
X53562Y230792D01*
X53689Y230943D01*
X53820Y231091D01*
X53955Y231236D01*
X54093Y231377D01*
X54234Y231515D01*
X54379Y231650D01*
X54527Y231781D01*
X54678Y231908D01*
X54832Y232031D01*
X54990Y232151D01*
X55150Y232267D01*
X55313Y232378D01*
X55478Y232486D01*
X55646Y232590D01*
X55817Y232689D01*
X55990Y232784D01*
X56166Y232875D01*
X56343Y232962D01*
X56523Y233044D01*
X56704Y233122D01*
X56888Y233196D01*
X57073Y233264D01*
X57260Y233329D01*
X57448Y233388D01*
X57638Y233443D01*
X57829Y233494D01*
X58021Y233539D01*
X58215Y233580D01*
X58409Y233616D01*
X58604Y233648D01*
X58800Y233674D01*
X58996Y233696D01*
X59193Y233713D01*
X59390Y233725D01*
X59587Y233733D01*
X59785Y233735D01*
X59983Y233733D01*
X60180Y233725D01*
X60377Y233713D01*
X60574Y233696D01*
X60770Y233674D01*
X60966Y233648D01*
X61161Y233616D01*
X61355Y233580D01*
X61549Y233539D01*
X61741Y233494D01*
X61932Y233443D01*
X62122Y233388D01*
X62310Y233329D01*
X62497Y233264D01*
X62682Y233196D01*
X62866Y233122D01*
X63047Y233044D01*
X63227Y232962D01*
X63404Y232875D01*
X63580Y232784D01*
X63753Y232689D01*
X63924Y232590D01*
X64092Y232486D01*
X64257Y232378D01*
X64420Y232267D01*
X64580Y232151D01*
X64738Y232031D01*
X64892Y231908D01*
X65043Y231781D01*
X65191Y231650D01*
X65336Y231515D01*
X65477Y231377D01*
X65615Y231236D01*
X65750Y231091D01*
X65881Y230943D01*
X66008Y230792D01*
X66131Y230638D01*
X66251Y230480D01*
X66367Y230320D01*
X66478Y230157D01*
X66586Y229992D01*
X66690Y229824D01*
X66789Y229653D01*
X66884Y229480D01*
X66975Y229304D01*
X67062Y229127D01*
X67144Y228947D01*
X67222Y228766D01*
X67296Y228582D01*
X67364Y228397D01*
X67429Y228210D01*
X67488Y228022D01*
X67543Y227832D01*
X67594Y227641D01*
X67639Y227449D01*
X67680Y227255D01*
X67716Y227061D01*
X67748Y226866D01*
X67774Y226670D01*
X67796Y226474D01*
X67813Y226277D01*
X67825Y226080D01*
X67833Y225883D01*
X67835Y225685D01*
X67833Y225487D01*
X67825Y225290D01*
X67813Y225093D01*
X67796Y224896D01*
X67774Y224700D01*
X67748Y224504D01*
X67716Y224309D01*
X67680Y224115D01*
X67639Y223921D01*
X67594Y223729D01*
X67543Y223538D01*
X67488Y223348D01*
X67429Y223160D01*
X67364Y222973D01*
X67296Y222788D01*
X67222Y222604D01*
X67144Y222423D01*
X67062Y222243D01*
X66975Y222066D01*
X66884Y221890D01*
X66789Y221717D01*
X66690Y221546D01*
X66586Y221378D01*
X66478Y221213D01*
X66367Y221050D01*
X66251Y220890D01*
X66131Y220732D01*
X66008Y220578D01*
X65881Y220427D01*
X65750Y220279D01*
X65615Y220134D01*
X65477Y219993D01*
X65336Y219855D01*
X65191Y219720D01*
X65043Y219589D01*
X64892Y219462D01*
X64738Y219339D01*
X64580Y219219D01*
X64420Y219103D01*
X64257Y218992D01*
X64092Y218884D01*
X63924Y218780D01*
X63753Y218681D01*
X63580Y218586D01*
X63404Y218495D01*
X63227Y218408D01*
X63047Y218326D01*
X62866Y218248D01*
X62682Y218174D01*
X62497Y218106D01*
X62310Y218041D01*
X62122Y217982D01*
X61932Y217927D01*
X61741Y217876D01*
X61549Y217831D01*
X61355Y217790D01*
X61161Y217754D01*
X60966Y217722D01*
X60770Y217696D01*
X60574Y217674D01*
X60377Y217657D01*
X60180Y217645D01*
X59983Y217637D01*
X59785Y217635D01*
X59587Y217637D01*
X59390Y217645D01*
X59193Y217657D01*
X58996Y217674D01*
X58800Y217696D01*
X58604Y217722D01*
X58409Y217754D01*
X58215Y217790D01*
X58021Y217831D01*
X57829Y217876D01*
X57638Y217927D01*
X57448Y217982D01*
X57260Y218041D01*
X57073Y218106D01*
X56888Y218174D01*
X56704Y218248D01*
X56523Y218326D01*
X56343Y218408D01*
X56166Y218495D01*
X55990Y218586D01*
X55817Y218681D01*
X55646Y218780D01*
X55478Y218884D01*
X55313Y218992D01*
X55150Y219103D01*
X54990Y219219D01*
X54832Y219339D01*
X54678Y219462D01*
X54527Y219589D01*
X54379Y219720D01*
X54234Y219855D01*
X54093Y219993D01*
X53955Y220134D01*
X53820Y220279D01*
X53689Y220427D01*
X53562Y220578D01*
X53439Y220732D01*
X53319Y220890D01*
X53203Y221050D01*
X53092Y221213D01*
X52984Y221378D01*
X52880Y221546D01*
X52781Y221717D01*
X52686Y221890D01*
X52595Y222066D01*
X52508Y222243D01*
X52426Y222423D01*
X52348Y222604D01*
X52274Y222788D01*
X52206Y222973D01*
X52141Y223160D01*
X52082Y223348D01*
X52027Y223538D01*
X51976Y223729D01*
X51931Y223921D01*
X51890Y224115D01*
X51854Y224309D01*
X51822Y224504D01*
X51796Y224700D01*
X51774Y224896D01*
X51757Y225093D01*
X51745Y225290D01*
X51737Y225487D01*
X51735Y225685D01*
D15*
X51557Y255177D02*
X51557Y261781D01*
X53392Y261781D01*
X53477Y261779D01*
X53561Y261773D01*
X53645Y261763D01*
X53729Y261750D01*
X53812Y261732D01*
X53894Y261711D01*
X53975Y261686D01*
X54055Y261657D01*
X54133Y261625D01*
X54209Y261589D01*
X54284Y261549D01*
X54357Y261506D01*
X54428Y261460D01*
X54497Y261411D01*
X54564Y261358D01*
X54628Y261302D01*
X54689Y261244D01*
X54747Y261183D01*
X54803Y261119D01*
X54856Y261052D01*
X54905Y260983D01*
X54951Y260912D01*
X54994Y260839D01*
X55034Y260764D01*
X55070Y260688D01*
X55102Y260610D01*
X55131Y260530D01*
X55156Y260449D01*
X55177Y260367D01*
X55195Y260284D01*
X55208Y260200D01*
X55218Y260116D01*
X55224Y260032D01*
X55226Y259947D01*
X55224Y259862D01*
X55218Y259778D01*
X55208Y259694D01*
X55195Y259610D01*
X55177Y259527D01*
X55156Y259445D01*
X55131Y259364D01*
X55102Y259284D01*
X55070Y259206D01*
X55034Y259130D01*
X54994Y259055D01*
X54951Y258982D01*
X54905Y258911D01*
X54856Y258842D01*
X54803Y258775D01*
X54747Y258711D01*
X54689Y258650D01*
X54628Y258592D01*
X54564Y258536D01*
X54497Y258483D01*
X54428Y258434D01*
X54357Y258388D01*
X54284Y258345D01*
X54209Y258305D01*
X54133Y258269D01*
X54055Y258237D01*
X53975Y258208D01*
X53894Y258183D01*
X53812Y258162D01*
X53729Y258144D01*
X53645Y258131D01*
X53561Y258121D01*
X53477Y258115D01*
X53392Y258113D01*
X53392Y258112D02*
X51557Y258112D01*
X53759Y258112D02*
X55226Y255177D01*
X60751Y255177D02*
X60825Y255179D01*
X60899Y255185D01*
X60973Y255194D01*
X61046Y255207D01*
X61119Y255224D01*
X61190Y255244D01*
X61261Y255268D01*
X61330Y255296D01*
X61397Y255327D01*
X61463Y255361D01*
X61528Y255399D01*
X61590Y255440D01*
X61650Y255484D01*
X61707Y255531D01*
X61762Y255581D01*
X61815Y255634D01*
X61865Y255689D01*
X61912Y255746D01*
X61956Y255806D01*
X61997Y255868D01*
X62035Y255933D01*
X62069Y255998D01*
X62100Y256066D01*
X62128Y256135D01*
X62152Y256206D01*
X62172Y256277D01*
X62189Y256349D01*
X62202Y256423D01*
X62211Y256496D01*
X62217Y256571D01*
X62219Y256645D01*
X60751Y255177D02*
X60640Y255179D01*
X60529Y255185D01*
X60418Y255195D01*
X60307Y255209D01*
X60198Y255227D01*
X60089Y255249D01*
X59980Y255274D01*
X59873Y255304D01*
X59767Y255337D01*
X59662Y255375D01*
X59559Y255415D01*
X59457Y255460D01*
X59357Y255508D01*
X59258Y255560D01*
X59162Y255615D01*
X59067Y255674D01*
X58975Y255736D01*
X58885Y255802D01*
X58797Y255870D01*
X58712Y255942D01*
X58630Y256017D01*
X58550Y256094D01*
X58733Y260313D02*
X58735Y260387D01*
X58741Y260462D01*
X58750Y260535D01*
X58763Y260609D01*
X58780Y260681D01*
X58800Y260752D01*
X58824Y260823D01*
X58852Y260892D01*
X58883Y260959D01*
X58917Y261025D01*
X58955Y261090D01*
X58996Y261152D01*
X59040Y261212D01*
X59087Y261269D01*
X59137Y261324D01*
X59190Y261377D01*
X59245Y261427D01*
X59302Y261474D01*
X59362Y261518D01*
X59424Y261559D01*
X59489Y261597D01*
X59555Y261631D01*
X59622Y261662D01*
X59691Y261690D01*
X59762Y261714D01*
X59833Y261734D01*
X59905Y261751D01*
X59979Y261764D01*
X60052Y261773D01*
X60127Y261779D01*
X60201Y261781D01*
X60305Y261779D01*
X60409Y261773D01*
X60513Y261763D01*
X60616Y261750D01*
X60719Y261732D01*
X60821Y261710D01*
X60922Y261685D01*
X61022Y261656D01*
X61121Y261623D01*
X61218Y261586D01*
X61314Y261546D01*
X61409Y261502D01*
X61501Y261454D01*
X61592Y261404D01*
X61681Y261349D01*
X61768Y261292D01*
X61852Y261231D01*
X59467Y259028D02*
X59404Y259067D01*
X59344Y259109D01*
X59286Y259154D01*
X59229Y259202D01*
X59176Y259253D01*
X59125Y259306D01*
X59076Y259361D01*
X59031Y259419D01*
X58988Y259479D01*
X58948Y259541D01*
X58912Y259605D01*
X58878Y259671D01*
X58848Y259739D01*
X58821Y259807D01*
X58798Y259877D01*
X58778Y259948D01*
X58762Y260020D01*
X58749Y260093D01*
X58740Y260166D01*
X58735Y260239D01*
X58733Y260313D01*
X61485Y257930D02*
X61548Y257891D01*
X61608Y257849D01*
X61667Y257804D01*
X61723Y257756D01*
X61776Y257705D01*
X61827Y257652D01*
X61876Y257597D01*
X61921Y257539D01*
X61964Y257479D01*
X62004Y257417D01*
X62040Y257353D01*
X62074Y257287D01*
X62104Y257219D01*
X62131Y257151D01*
X62154Y257081D01*
X62174Y257010D01*
X62190Y256938D01*
X62203Y256865D01*
X62212Y256792D01*
X62217Y256719D01*
X62219Y256645D01*
X61485Y257929D02*
X59467Y259029D01*
X66968Y261781D02*
X66968Y255177D01*
X65134Y261781D02*
X68803Y261781D01*
D16*
X173921Y231797D02*
X173921Y224431D01*
X173921Y231797D02*
X175967Y231797D01*
X176056Y231795D01*
X176145Y231789D01*
X176234Y231779D01*
X176322Y231766D01*
X176410Y231749D01*
X176497Y231727D01*
X176582Y231702D01*
X176667Y231674D01*
X176750Y231641D01*
X176832Y231605D01*
X176912Y231566D01*
X176990Y231523D01*
X177066Y231477D01*
X177141Y231427D01*
X177213Y231374D01*
X177282Y231318D01*
X177349Y231259D01*
X177414Y231198D01*
X177475Y231133D01*
X177534Y231066D01*
X177590Y230997D01*
X177643Y230925D01*
X177693Y230850D01*
X177739Y230774D01*
X177782Y230696D01*
X177821Y230616D01*
X177857Y230534D01*
X177890Y230451D01*
X177918Y230366D01*
X177943Y230281D01*
X177965Y230194D01*
X177982Y230106D01*
X177995Y230018D01*
X178005Y229929D01*
X178011Y229840D01*
X178013Y229751D01*
X178011Y229662D01*
X178005Y229573D01*
X177995Y229484D01*
X177982Y229396D01*
X177965Y229308D01*
X177943Y229221D01*
X177918Y229136D01*
X177890Y229051D01*
X177857Y228968D01*
X177821Y228886D01*
X177782Y228806D01*
X177739Y228728D01*
X177693Y228652D01*
X177643Y228577D01*
X177590Y228505D01*
X177534Y228436D01*
X177475Y228369D01*
X177414Y228304D01*
X177349Y228243D01*
X177282Y228184D01*
X177213Y228128D01*
X177141Y228075D01*
X177066Y228025D01*
X176990Y227979D01*
X176912Y227936D01*
X176832Y227897D01*
X176750Y227861D01*
X176667Y227828D01*
X176582Y227800D01*
X176497Y227775D01*
X176410Y227753D01*
X176322Y227736D01*
X176234Y227723D01*
X176145Y227713D01*
X176056Y227707D01*
X175967Y227705D01*
X173921Y227705D01*
X176376Y227705D02*
X178013Y224431D01*
X185278Y229956D02*
X185276Y230041D01*
X185270Y230126D01*
X185260Y230210D01*
X185247Y230294D01*
X185229Y230378D01*
X185208Y230460D01*
X185183Y230541D01*
X185154Y230621D01*
X185121Y230700D01*
X185085Y230777D01*
X185045Y230852D01*
X185002Y230926D01*
X184956Y230997D01*
X184906Y231066D01*
X184853Y231133D01*
X184797Y231197D01*
X184738Y231258D01*
X184677Y231317D01*
X184613Y231373D01*
X184546Y231426D01*
X184477Y231476D01*
X184406Y231522D01*
X184332Y231565D01*
X184257Y231605D01*
X184180Y231641D01*
X184101Y231674D01*
X184021Y231703D01*
X183940Y231728D01*
X183858Y231749D01*
X183774Y231767D01*
X183690Y231780D01*
X183606Y231790D01*
X183521Y231796D01*
X183436Y231798D01*
X183436Y231797D02*
X183340Y231795D01*
X183244Y231789D01*
X183149Y231779D01*
X183054Y231766D01*
X182959Y231748D01*
X182866Y231727D01*
X182773Y231702D01*
X182682Y231673D01*
X182591Y231641D01*
X182502Y231605D01*
X182415Y231565D01*
X182329Y231522D01*
X182245Y231476D01*
X182163Y231426D01*
X182083Y231372D01*
X182006Y231316D01*
X181931Y231256D01*
X181858Y231194D01*
X181788Y231128D01*
X181720Y231060D01*
X181655Y230989D01*
X181594Y230916D01*
X181535Y230840D01*
X181479Y230761D01*
X181427Y230681D01*
X181378Y230598D01*
X181332Y230514D01*
X181290Y230428D01*
X181252Y230340D01*
X181217Y230251D01*
X181185Y230160D01*
X184663Y228524D02*
X184723Y228583D01*
X184780Y228645D01*
X184835Y228709D01*
X184886Y228776D01*
X184935Y228845D01*
X184981Y228915D01*
X185024Y228988D01*
X185064Y229062D01*
X185100Y229138D01*
X185133Y229216D01*
X185163Y229295D01*
X185190Y229375D01*
X185213Y229456D01*
X185232Y229538D01*
X185248Y229620D01*
X185261Y229704D01*
X185270Y229788D01*
X185275Y229872D01*
X185277Y229956D01*
X184663Y228523D02*
X181185Y224431D01*
X185277Y224431D01*
X74096Y111697D02*
X74096Y104331D01*
X74096Y111697D02*
X76142Y111697D01*
X76231Y111695D01*
X76320Y111689D01*
X76409Y111679D01*
X76497Y111666D01*
X76585Y111649D01*
X76672Y111627D01*
X76757Y111602D01*
X76842Y111574D01*
X76925Y111541D01*
X77007Y111505D01*
X77087Y111466D01*
X77165Y111423D01*
X77241Y111377D01*
X77316Y111327D01*
X77388Y111274D01*
X77457Y111218D01*
X77524Y111159D01*
X77589Y111098D01*
X77650Y111033D01*
X77709Y110966D01*
X77765Y110897D01*
X77818Y110825D01*
X77868Y110750D01*
X77914Y110674D01*
X77957Y110596D01*
X77996Y110516D01*
X78032Y110434D01*
X78065Y110351D01*
X78093Y110266D01*
X78118Y110181D01*
X78140Y110094D01*
X78157Y110006D01*
X78170Y109918D01*
X78180Y109829D01*
X78186Y109740D01*
X78188Y109651D01*
X78186Y109562D01*
X78180Y109473D01*
X78170Y109384D01*
X78157Y109296D01*
X78140Y109208D01*
X78118Y109121D01*
X78093Y109036D01*
X78065Y108951D01*
X78032Y108868D01*
X77996Y108786D01*
X77957Y108706D01*
X77914Y108628D01*
X77868Y108552D01*
X77818Y108477D01*
X77765Y108405D01*
X77709Y108336D01*
X77650Y108269D01*
X77589Y108204D01*
X77524Y108143D01*
X77457Y108084D01*
X77388Y108028D01*
X77316Y107975D01*
X77241Y107925D01*
X77165Y107879D01*
X77087Y107836D01*
X77007Y107797D01*
X76925Y107761D01*
X76842Y107728D01*
X76757Y107700D01*
X76672Y107675D01*
X76585Y107653D01*
X76497Y107636D01*
X76409Y107623D01*
X76320Y107613D01*
X76231Y107607D01*
X76142Y107605D01*
X74096Y107605D01*
X76551Y107605D02*
X78188Y104331D01*
X81360Y105968D02*
X82997Y111697D01*
X81360Y105968D02*
X85452Y105968D01*
X84225Y107605D02*
X84225Y104331D01*
X76138Y122918D02*
X76138Y130284D01*
X78184Y130284D01*
X78273Y130282D01*
X78362Y130276D01*
X78451Y130266D01*
X78539Y130253D01*
X78627Y130236D01*
X78714Y130214D01*
X78799Y130189D01*
X78884Y130161D01*
X78967Y130128D01*
X79049Y130092D01*
X79129Y130053D01*
X79207Y130010D01*
X79283Y129964D01*
X79358Y129914D01*
X79430Y129861D01*
X79499Y129805D01*
X79566Y129746D01*
X79631Y129685D01*
X79692Y129620D01*
X79751Y129553D01*
X79807Y129484D01*
X79860Y129412D01*
X79910Y129337D01*
X79956Y129261D01*
X79999Y129183D01*
X80038Y129103D01*
X80074Y129021D01*
X80107Y128938D01*
X80135Y128853D01*
X80160Y128768D01*
X80182Y128681D01*
X80199Y128593D01*
X80212Y128505D01*
X80222Y128416D01*
X80228Y128327D01*
X80230Y128238D01*
X80228Y128149D01*
X80222Y128060D01*
X80212Y127971D01*
X80199Y127883D01*
X80182Y127795D01*
X80160Y127708D01*
X80135Y127623D01*
X80107Y127538D01*
X80074Y127455D01*
X80038Y127373D01*
X79999Y127293D01*
X79956Y127215D01*
X79910Y127139D01*
X79860Y127064D01*
X79807Y126992D01*
X79751Y126923D01*
X79692Y126856D01*
X79631Y126791D01*
X79566Y126730D01*
X79499Y126671D01*
X79430Y126615D01*
X79358Y126562D01*
X79283Y126512D01*
X79207Y126466D01*
X79129Y126423D01*
X79049Y126384D01*
X78967Y126348D01*
X78884Y126315D01*
X78799Y126287D01*
X78714Y126262D01*
X78627Y126240D01*
X78539Y126223D01*
X78451Y126210D01*
X78362Y126200D01*
X78273Y126194D01*
X78184Y126192D01*
X76138Y126192D01*
X78593Y126192D02*
X80230Y122918D01*
X83402Y127010D02*
X85857Y127010D01*
X85935Y127008D01*
X86013Y127003D01*
X86090Y126993D01*
X86167Y126980D01*
X86243Y126964D01*
X86318Y126944D01*
X86392Y126920D01*
X86465Y126893D01*
X86537Y126862D01*
X86607Y126828D01*
X86676Y126791D01*
X86742Y126750D01*
X86807Y126706D01*
X86869Y126660D01*
X86929Y126610D01*
X86987Y126558D01*
X87042Y126503D01*
X87094Y126445D01*
X87144Y126385D01*
X87190Y126323D01*
X87234Y126258D01*
X87275Y126192D01*
X87312Y126123D01*
X87346Y126053D01*
X87377Y125981D01*
X87404Y125908D01*
X87428Y125834D01*
X87448Y125759D01*
X87464Y125683D01*
X87477Y125606D01*
X87487Y125529D01*
X87492Y125451D01*
X87494Y125373D01*
X87494Y124964D01*
X87492Y124875D01*
X87486Y124786D01*
X87476Y124697D01*
X87463Y124609D01*
X87446Y124521D01*
X87424Y124434D01*
X87399Y124349D01*
X87371Y124264D01*
X87338Y124181D01*
X87302Y124099D01*
X87263Y124019D01*
X87220Y123941D01*
X87174Y123865D01*
X87124Y123790D01*
X87071Y123718D01*
X87015Y123649D01*
X86956Y123582D01*
X86895Y123517D01*
X86830Y123456D01*
X86763Y123397D01*
X86694Y123341D01*
X86622Y123288D01*
X86547Y123238D01*
X86471Y123192D01*
X86393Y123149D01*
X86313Y123110D01*
X86231Y123074D01*
X86148Y123041D01*
X86063Y123013D01*
X85978Y122988D01*
X85891Y122966D01*
X85803Y122949D01*
X85715Y122936D01*
X85626Y122926D01*
X85537Y122920D01*
X85448Y122918D01*
X85359Y122920D01*
X85270Y122926D01*
X85181Y122936D01*
X85093Y122949D01*
X85005Y122966D01*
X84918Y122988D01*
X84833Y123013D01*
X84748Y123041D01*
X84665Y123074D01*
X84583Y123110D01*
X84503Y123149D01*
X84425Y123192D01*
X84349Y123238D01*
X84274Y123288D01*
X84202Y123341D01*
X84133Y123397D01*
X84066Y123456D01*
X84001Y123517D01*
X83940Y123582D01*
X83881Y123649D01*
X83825Y123718D01*
X83772Y123790D01*
X83722Y123865D01*
X83676Y123941D01*
X83633Y124019D01*
X83594Y124099D01*
X83558Y124181D01*
X83525Y124264D01*
X83497Y124349D01*
X83472Y124434D01*
X83450Y124521D01*
X83433Y124609D01*
X83420Y124697D01*
X83410Y124786D01*
X83404Y124875D01*
X83402Y124964D01*
X83402Y127010D01*
X83404Y127124D01*
X83410Y127238D01*
X83420Y127352D01*
X83434Y127466D01*
X83452Y127579D01*
X83474Y127691D01*
X83499Y127802D01*
X83529Y127912D01*
X83562Y128022D01*
X83599Y128130D01*
X83640Y128236D01*
X83685Y128342D01*
X83733Y128445D01*
X83785Y128547D01*
X83841Y128647D01*
X83899Y128745D01*
X83962Y128841D01*
X84027Y128934D01*
X84096Y129026D01*
X84168Y129114D01*
X84243Y129201D01*
X84321Y129284D01*
X84402Y129365D01*
X84485Y129443D01*
X84572Y129518D01*
X84660Y129590D01*
X84752Y129659D01*
X84845Y129724D01*
X84941Y129786D01*
X85039Y129845D01*
X85139Y129901D01*
X85241Y129953D01*
X85344Y130001D01*
X85450Y130046D01*
X85556Y130087D01*
X85664Y130124D01*
X85774Y130157D01*
X85884Y130187D01*
X85995Y130212D01*
X86107Y130234D01*
X86220Y130252D01*
X86334Y130266D01*
X86448Y130276D01*
X86562Y130282D01*
X86676Y130284D01*
X164166Y132697D02*
X164166Y125331D01*
X164166Y132697D02*
X166212Y132697D01*
X166301Y132695D01*
X166390Y132689D01*
X166479Y132679D01*
X166567Y132666D01*
X166655Y132649D01*
X166742Y132627D01*
X166827Y132602D01*
X166912Y132574D01*
X166995Y132541D01*
X167077Y132505D01*
X167157Y132466D01*
X167235Y132423D01*
X167311Y132377D01*
X167386Y132327D01*
X167458Y132274D01*
X167527Y132218D01*
X167594Y132159D01*
X167659Y132098D01*
X167720Y132033D01*
X167779Y131966D01*
X167835Y131897D01*
X167888Y131825D01*
X167938Y131750D01*
X167984Y131674D01*
X168027Y131596D01*
X168066Y131516D01*
X168102Y131434D01*
X168135Y131351D01*
X168163Y131266D01*
X168188Y131181D01*
X168210Y131094D01*
X168227Y131006D01*
X168240Y130918D01*
X168250Y130829D01*
X168256Y130740D01*
X168258Y130651D01*
X168256Y130562D01*
X168250Y130473D01*
X168240Y130384D01*
X168227Y130296D01*
X168210Y130208D01*
X168188Y130121D01*
X168163Y130036D01*
X168135Y129951D01*
X168102Y129868D01*
X168066Y129786D01*
X168027Y129706D01*
X167984Y129628D01*
X167938Y129552D01*
X167888Y129477D01*
X167835Y129405D01*
X167779Y129336D01*
X167720Y129269D01*
X167659Y129204D01*
X167594Y129143D01*
X167527Y129084D01*
X167458Y129028D01*
X167386Y128975D01*
X167311Y128925D01*
X167235Y128879D01*
X167157Y128836D01*
X167077Y128797D01*
X166995Y128761D01*
X166912Y128728D01*
X166827Y128700D01*
X166742Y128675D01*
X166655Y128653D01*
X166567Y128636D01*
X166479Y128623D01*
X166390Y128613D01*
X166301Y128607D01*
X166212Y128605D01*
X164166Y128605D01*
X166621Y128605D02*
X168258Y125331D01*
X171430Y131879D02*
X171430Y132697D01*
X175522Y132697D01*
X173476Y125331D01*
D10*
X171589Y169310D02*
X170008Y169310D01*
X169930Y169312D01*
X169853Y169318D01*
X169776Y169327D01*
X169700Y169340D01*
X169624Y169357D01*
X169549Y169378D01*
X169476Y169402D01*
X169403Y169430D01*
X169332Y169462D01*
X169263Y169497D01*
X169196Y169535D01*
X169130Y169576D01*
X169067Y169621D01*
X169006Y169669D01*
X168947Y169719D01*
X168891Y169773D01*
X168837Y169829D01*
X168787Y169888D01*
X168739Y169949D01*
X168694Y170012D01*
X168653Y170078D01*
X168615Y170145D01*
X168580Y170214D01*
X168548Y170285D01*
X168520Y170358D01*
X168496Y170431D01*
X168475Y170506D01*
X168458Y170582D01*
X168445Y170658D01*
X168436Y170735D01*
X168430Y170812D01*
X168428Y170890D01*
X168428Y174842D01*
X168430Y174920D01*
X168436Y174997D01*
X168445Y175074D01*
X168458Y175150D01*
X168475Y175226D01*
X168496Y175301D01*
X168520Y175374D01*
X168548Y175447D01*
X168580Y175518D01*
X168615Y175587D01*
X168653Y175654D01*
X168694Y175720D01*
X168739Y175783D01*
X168787Y175844D01*
X168837Y175903D01*
X168891Y175959D01*
X168947Y176013D01*
X169006Y176063D01*
X169067Y176111D01*
X169130Y176156D01*
X169196Y176197D01*
X169263Y176235D01*
X169332Y176270D01*
X169403Y176302D01*
X169476Y176330D01*
X169549Y176354D01*
X169624Y176375D01*
X169700Y176392D01*
X169776Y176405D01*
X169853Y176414D01*
X169930Y176420D01*
X170008Y176422D01*
X171589Y176422D01*
X176132Y176422D02*
X174551Y170890D01*
X178502Y170890D01*
X177317Y172471D02*
X177317Y169310D01*
D16*
X152161Y169236D02*
X152161Y176602D01*
X154207Y176602D01*
X154296Y176600D01*
X154385Y176594D01*
X154474Y176584D01*
X154562Y176571D01*
X154650Y176554D01*
X154737Y176532D01*
X154822Y176507D01*
X154907Y176479D01*
X154990Y176446D01*
X155072Y176410D01*
X155152Y176371D01*
X155230Y176328D01*
X155306Y176282D01*
X155381Y176232D01*
X155453Y176179D01*
X155522Y176123D01*
X155589Y176064D01*
X155654Y176003D01*
X155715Y175938D01*
X155774Y175871D01*
X155830Y175802D01*
X155883Y175730D01*
X155933Y175655D01*
X155979Y175579D01*
X156022Y175501D01*
X156061Y175421D01*
X156097Y175339D01*
X156130Y175256D01*
X156158Y175171D01*
X156183Y175086D01*
X156205Y174999D01*
X156222Y174911D01*
X156235Y174823D01*
X156245Y174734D01*
X156251Y174645D01*
X156253Y174556D01*
X156251Y174467D01*
X156245Y174378D01*
X156235Y174289D01*
X156222Y174201D01*
X156205Y174113D01*
X156183Y174026D01*
X156158Y173941D01*
X156130Y173856D01*
X156097Y173773D01*
X156061Y173691D01*
X156022Y173611D01*
X155979Y173533D01*
X155933Y173457D01*
X155883Y173382D01*
X155830Y173310D01*
X155774Y173241D01*
X155715Y173174D01*
X155654Y173109D01*
X155589Y173048D01*
X155522Y172989D01*
X155453Y172933D01*
X155381Y172880D01*
X155306Y172830D01*
X155230Y172784D01*
X155152Y172741D01*
X155072Y172702D01*
X154990Y172666D01*
X154907Y172633D01*
X154822Y172605D01*
X154737Y172580D01*
X154650Y172558D01*
X154562Y172541D01*
X154474Y172528D01*
X154385Y172518D01*
X154296Y172512D01*
X154207Y172510D01*
X152161Y172510D01*
X154616Y172510D02*
X156253Y169236D01*
X159425Y171282D02*
X159427Y171371D01*
X159433Y171460D01*
X159443Y171549D01*
X159456Y171637D01*
X159473Y171725D01*
X159495Y171812D01*
X159520Y171897D01*
X159548Y171982D01*
X159581Y172065D01*
X159617Y172147D01*
X159656Y172227D01*
X159699Y172305D01*
X159745Y172381D01*
X159795Y172456D01*
X159848Y172528D01*
X159904Y172597D01*
X159963Y172664D01*
X160024Y172729D01*
X160089Y172790D01*
X160156Y172849D01*
X160225Y172905D01*
X160297Y172958D01*
X160372Y173008D01*
X160448Y173054D01*
X160526Y173097D01*
X160606Y173136D01*
X160688Y173172D01*
X160771Y173205D01*
X160856Y173233D01*
X160941Y173258D01*
X161028Y173280D01*
X161116Y173297D01*
X161204Y173310D01*
X161293Y173320D01*
X161382Y173326D01*
X161471Y173328D01*
X161560Y173326D01*
X161649Y173320D01*
X161738Y173310D01*
X161826Y173297D01*
X161914Y173280D01*
X162001Y173258D01*
X162086Y173233D01*
X162171Y173205D01*
X162254Y173172D01*
X162336Y173136D01*
X162416Y173097D01*
X162494Y173054D01*
X162570Y173008D01*
X162645Y172958D01*
X162717Y172905D01*
X162786Y172849D01*
X162853Y172790D01*
X162918Y172729D01*
X162979Y172664D01*
X163038Y172597D01*
X163094Y172528D01*
X163147Y172456D01*
X163197Y172381D01*
X163243Y172305D01*
X163286Y172227D01*
X163325Y172147D01*
X163361Y172065D01*
X163394Y171982D01*
X163422Y171897D01*
X163447Y171812D01*
X163469Y171725D01*
X163486Y171637D01*
X163499Y171549D01*
X163509Y171460D01*
X163515Y171371D01*
X163517Y171282D01*
X163515Y171193D01*
X163509Y171104D01*
X163499Y171015D01*
X163486Y170927D01*
X163469Y170839D01*
X163447Y170752D01*
X163422Y170667D01*
X163394Y170582D01*
X163361Y170499D01*
X163325Y170417D01*
X163286Y170337D01*
X163243Y170259D01*
X163197Y170183D01*
X163147Y170108D01*
X163094Y170036D01*
X163038Y169967D01*
X162979Y169900D01*
X162918Y169835D01*
X162853Y169774D01*
X162786Y169715D01*
X162717Y169659D01*
X162645Y169606D01*
X162570Y169556D01*
X162494Y169510D01*
X162416Y169467D01*
X162336Y169428D01*
X162254Y169392D01*
X162171Y169359D01*
X162086Y169331D01*
X162001Y169306D01*
X161914Y169284D01*
X161826Y169267D01*
X161738Y169254D01*
X161649Y169244D01*
X161560Y169238D01*
X161471Y169236D01*
X161382Y169238D01*
X161293Y169244D01*
X161204Y169254D01*
X161116Y169267D01*
X161028Y169284D01*
X160941Y169306D01*
X160856Y169331D01*
X160771Y169359D01*
X160688Y169392D01*
X160606Y169428D01*
X160526Y169467D01*
X160448Y169510D01*
X160372Y169556D01*
X160297Y169606D01*
X160225Y169659D01*
X160156Y169715D01*
X160089Y169774D01*
X160024Y169835D01*
X159963Y169900D01*
X159904Y169967D01*
X159848Y170036D01*
X159795Y170108D01*
X159745Y170183D01*
X159699Y170259D01*
X159656Y170337D01*
X159617Y170417D01*
X159581Y170499D01*
X159548Y170582D01*
X159520Y170667D01*
X159495Y170752D01*
X159473Y170839D01*
X159456Y170927D01*
X159443Y171015D01*
X159433Y171104D01*
X159427Y171193D01*
X159425Y171282D01*
X159834Y174965D02*
X159836Y175044D01*
X159842Y175123D01*
X159851Y175202D01*
X159864Y175280D01*
X159882Y175357D01*
X159902Y175433D01*
X159927Y175508D01*
X159955Y175582D01*
X159986Y175655D01*
X160022Y175726D01*
X160060Y175795D01*
X160102Y175862D01*
X160147Y175927D01*
X160195Y175990D01*
X160246Y176051D01*
X160300Y176108D01*
X160356Y176164D01*
X160415Y176216D01*
X160477Y176266D01*
X160541Y176312D01*
X160607Y176356D01*
X160675Y176396D01*
X160745Y176432D01*
X160817Y176466D01*
X160891Y176496D01*
X160965Y176522D01*
X161041Y176545D01*
X161118Y176563D01*
X161195Y176579D01*
X161274Y176590D01*
X161352Y176598D01*
X161431Y176602D01*
X161511Y176602D01*
X161590Y176598D01*
X161668Y176590D01*
X161747Y176579D01*
X161824Y176563D01*
X161901Y176545D01*
X161977Y176522D01*
X162051Y176496D01*
X162125Y176466D01*
X162197Y176432D01*
X162267Y176396D01*
X162335Y176356D01*
X162401Y176312D01*
X162465Y176266D01*
X162527Y176216D01*
X162586Y176164D01*
X162642Y176108D01*
X162696Y176051D01*
X162747Y175990D01*
X162795Y175927D01*
X162840Y175862D01*
X162882Y175795D01*
X162920Y175726D01*
X162956Y175655D01*
X162987Y175582D01*
X163015Y175508D01*
X163040Y175433D01*
X163060Y175357D01*
X163078Y175280D01*
X163091Y175202D01*
X163100Y175123D01*
X163106Y175044D01*
X163108Y174965D01*
X163106Y174886D01*
X163100Y174807D01*
X163091Y174728D01*
X163078Y174650D01*
X163060Y174573D01*
X163040Y174497D01*
X163015Y174422D01*
X162987Y174348D01*
X162956Y174275D01*
X162920Y174204D01*
X162882Y174135D01*
X162840Y174068D01*
X162795Y174003D01*
X162747Y173940D01*
X162696Y173879D01*
X162642Y173822D01*
X162586Y173766D01*
X162527Y173714D01*
X162465Y173664D01*
X162401Y173618D01*
X162335Y173574D01*
X162267Y173534D01*
X162197Y173498D01*
X162125Y173464D01*
X162051Y173434D01*
X161977Y173408D01*
X161901Y173385D01*
X161824Y173367D01*
X161747Y173351D01*
X161668Y173340D01*
X161590Y173332D01*
X161511Y173328D01*
X161431Y173328D01*
X161352Y173332D01*
X161274Y173340D01*
X161195Y173351D01*
X161118Y173367D01*
X161041Y173385D01*
X160965Y173408D01*
X160891Y173434D01*
X160817Y173464D01*
X160745Y173498D01*
X160675Y173534D01*
X160607Y173574D01*
X160541Y173618D01*
X160477Y173664D01*
X160415Y173714D01*
X160356Y173766D01*
X160300Y173822D01*
X160246Y173879D01*
X160195Y173940D01*
X160147Y174003D01*
X160102Y174068D01*
X160060Y174135D01*
X160022Y174204D01*
X159986Y174275D01*
X159955Y174348D01*
X159927Y174422D01*
X159902Y174497D01*
X159882Y174573D01*
X159864Y174650D01*
X159851Y174728D01*
X159842Y174807D01*
X159836Y174886D01*
X159834Y174965D01*
D12*
X63340Y173765D02*
X49740Y173765D01*
X49740Y150365D02*
X63340Y150365D01*
D17*
X49780Y174145D02*
X49782Y174208D01*
X49788Y174270D01*
X49798Y174332D01*
X49811Y174394D01*
X49829Y174454D01*
X49850Y174513D01*
X49875Y174571D01*
X49904Y174627D01*
X49936Y174681D01*
X49971Y174733D01*
X50009Y174782D01*
X50051Y174830D01*
X50095Y174874D01*
X50143Y174916D01*
X50192Y174954D01*
X50244Y174989D01*
X50298Y175021D01*
X50354Y175050D01*
X50412Y175075D01*
X50471Y175096D01*
X50531Y175114D01*
X50593Y175127D01*
X50655Y175137D01*
X50717Y175143D01*
X50780Y175145D01*
X50843Y175143D01*
X50905Y175137D01*
X50967Y175127D01*
X51029Y175114D01*
X51089Y175096D01*
X51148Y175075D01*
X51206Y175050D01*
X51262Y175021D01*
X51316Y174989D01*
X51368Y174954D01*
X51417Y174916D01*
X51465Y174874D01*
X51509Y174830D01*
X51551Y174782D01*
X51589Y174733D01*
X51624Y174681D01*
X51656Y174627D01*
X51685Y174571D01*
X51710Y174513D01*
X51731Y174454D01*
X51749Y174394D01*
X51762Y174332D01*
X51772Y174270D01*
X51778Y174208D01*
X51780Y174145D01*
X51778Y174082D01*
X51772Y174020D01*
X51762Y173958D01*
X51749Y173896D01*
X51731Y173836D01*
X51710Y173777D01*
X51685Y173719D01*
X51656Y173663D01*
X51624Y173609D01*
X51589Y173557D01*
X51551Y173508D01*
X51509Y173460D01*
X51465Y173416D01*
X51417Y173374D01*
X51368Y173336D01*
X51316Y173301D01*
X51262Y173269D01*
X51206Y173240D01*
X51148Y173215D01*
X51089Y173194D01*
X51029Y173176D01*
X50967Y173163D01*
X50905Y173153D01*
X50843Y173147D01*
X50780Y173145D01*
X50717Y173147D01*
X50655Y173153D01*
X50593Y173163D01*
X50531Y173176D01*
X50471Y173194D01*
X50412Y173215D01*
X50354Y173240D01*
X50298Y173269D01*
X50244Y173301D01*
X50192Y173336D01*
X50143Y173374D01*
X50095Y173416D01*
X50051Y173460D01*
X50009Y173508D01*
X49971Y173557D01*
X49936Y173609D01*
X49904Y173663D01*
X49875Y173719D01*
X49850Y173777D01*
X49829Y173836D01*
X49811Y173896D01*
X49798Y173958D01*
X49788Y174020D01*
X49782Y174082D01*
X49780Y174145D01*
D16*
X165296Y111252D02*
X165296Y103886D01*
X165296Y111252D02*
X167342Y111252D01*
X167431Y111250D01*
X167520Y111244D01*
X167609Y111234D01*
X167697Y111221D01*
X167785Y111204D01*
X167872Y111182D01*
X167957Y111157D01*
X168042Y111129D01*
X168125Y111096D01*
X168207Y111060D01*
X168287Y111021D01*
X168365Y110978D01*
X168441Y110932D01*
X168516Y110882D01*
X168588Y110829D01*
X168657Y110773D01*
X168724Y110714D01*
X168789Y110653D01*
X168850Y110588D01*
X168909Y110521D01*
X168965Y110452D01*
X169018Y110380D01*
X169068Y110305D01*
X169114Y110229D01*
X169157Y110151D01*
X169196Y110071D01*
X169232Y109989D01*
X169265Y109906D01*
X169293Y109821D01*
X169318Y109736D01*
X169340Y109649D01*
X169357Y109561D01*
X169370Y109473D01*
X169380Y109384D01*
X169386Y109295D01*
X169388Y109206D01*
X169386Y109117D01*
X169380Y109028D01*
X169370Y108939D01*
X169357Y108851D01*
X169340Y108763D01*
X169318Y108676D01*
X169293Y108591D01*
X169265Y108506D01*
X169232Y108423D01*
X169196Y108341D01*
X169157Y108261D01*
X169114Y108183D01*
X169068Y108107D01*
X169018Y108032D01*
X168965Y107960D01*
X168909Y107891D01*
X168850Y107824D01*
X168789Y107759D01*
X168724Y107698D01*
X168657Y107639D01*
X168588Y107583D01*
X168516Y107530D01*
X168441Y107480D01*
X168365Y107434D01*
X168287Y107391D01*
X168207Y107352D01*
X168125Y107316D01*
X168042Y107283D01*
X167957Y107255D01*
X167872Y107230D01*
X167785Y107208D01*
X167697Y107191D01*
X167609Y107178D01*
X167520Y107168D01*
X167431Y107162D01*
X167342Y107160D01*
X165296Y107160D01*
X167751Y107160D02*
X169388Y103886D01*
X172560Y109615D02*
X174606Y111252D01*
X174606Y103886D01*
X172560Y103886D02*
X176652Y103886D01*
X179876Y107569D02*
X179878Y107722D01*
X179884Y107875D01*
X179893Y108027D01*
X179907Y108180D01*
X179924Y108332D01*
X179945Y108483D01*
X179970Y108634D01*
X179999Y108784D01*
X180031Y108934D01*
X180068Y109082D01*
X180108Y109230D01*
X180151Y109377D01*
X180199Y109522D01*
X180250Y109666D01*
X180304Y109809D01*
X180363Y109951D01*
X180424Y110090D01*
X180490Y110229D01*
X180489Y110229D02*
X180515Y110299D01*
X180545Y110369D01*
X180578Y110436D01*
X180614Y110502D01*
X180653Y110566D01*
X180696Y110628D01*
X180742Y110687D01*
X180790Y110745D01*
X180841Y110799D01*
X180895Y110852D01*
X180952Y110901D01*
X181011Y110948D01*
X181072Y110991D01*
X181135Y111032D01*
X181200Y111069D01*
X181267Y111104D01*
X181336Y111134D01*
X181406Y111162D01*
X181477Y111185D01*
X181549Y111206D01*
X181622Y111222D01*
X181696Y111235D01*
X181771Y111245D01*
X181846Y111250D01*
X181921Y111252D01*
X181996Y111250D01*
X182071Y111245D01*
X182146Y111235D01*
X182220Y111222D01*
X182293Y111206D01*
X182365Y111185D01*
X182436Y111162D01*
X182506Y111134D01*
X182575Y111104D01*
X182642Y111069D01*
X182707Y111032D01*
X182770Y110991D01*
X182831Y110948D01*
X182890Y110901D01*
X182947Y110852D01*
X183001Y110799D01*
X183052Y110745D01*
X183101Y110687D01*
X183146Y110628D01*
X183189Y110566D01*
X183228Y110502D01*
X183265Y110436D01*
X183297Y110368D01*
X183327Y110299D01*
X183353Y110229D01*
X183418Y110091D01*
X183480Y109951D01*
X183538Y109809D01*
X183593Y109666D01*
X183644Y109522D01*
X183692Y109377D01*
X183735Y109230D01*
X183775Y109083D01*
X183812Y108934D01*
X183844Y108784D01*
X183873Y108634D01*
X183898Y108483D01*
X183919Y108332D01*
X183936Y108180D01*
X183950Y108027D01*
X183959Y107875D01*
X183965Y107722D01*
X183967Y107569D01*
X179875Y107569D02*
X179877Y107416D01*
X179883Y107263D01*
X179892Y107110D01*
X179906Y106958D01*
X179923Y106806D01*
X179944Y106655D01*
X179969Y106504D01*
X179998Y106353D01*
X180030Y106204D01*
X180067Y106055D01*
X180107Y105908D01*
X180150Y105761D01*
X180198Y105616D01*
X180249Y105471D01*
X180304Y105329D01*
X180362Y105187D01*
X180424Y105047D01*
X180489Y104909D01*
X180515Y104838D01*
X180545Y104769D01*
X180578Y104702D01*
X180614Y104636D01*
X180653Y104572D01*
X180696Y104510D01*
X180742Y104451D01*
X180790Y104393D01*
X180841Y104339D01*
X180895Y104286D01*
X180952Y104237D01*
X181011Y104190D01*
X181072Y104147D01*
X181135Y104106D01*
X181200Y104069D01*
X181267Y104034D01*
X181336Y104004D01*
X181406Y103976D01*
X181477Y103953D01*
X181549Y103932D01*
X181622Y103916D01*
X181696Y103903D01*
X181771Y103893D01*
X181846Y103888D01*
X181921Y103886D01*
X183353Y104909D02*
X183418Y105047D01*
X183480Y105187D01*
X183538Y105329D01*
X183593Y105472D01*
X183644Y105616D01*
X183692Y105761D01*
X183735Y105908D01*
X183775Y106056D01*
X183812Y106204D01*
X183844Y106354D01*
X183873Y106504D01*
X183898Y106655D01*
X183919Y106806D01*
X183936Y106958D01*
X183950Y107111D01*
X183959Y107263D01*
X183965Y107416D01*
X183967Y107569D01*
X183353Y104909D02*
X183327Y104839D01*
X183297Y104769D01*
X183265Y104702D01*
X183228Y104636D01*
X183189Y104572D01*
X183146Y104510D01*
X183100Y104451D01*
X183052Y104393D01*
X183001Y104339D01*
X182947Y104286D01*
X182890Y104237D01*
X182831Y104190D01*
X182770Y104147D01*
X182707Y104106D01*
X182642Y104069D01*
X182575Y104034D01*
X182506Y104004D01*
X182436Y103976D01*
X182365Y103953D01*
X182293Y103932D01*
X182220Y103916D01*
X182146Y103903D01*
X182071Y103893D01*
X181996Y103888D01*
X181921Y103886D01*
X180284Y105523D02*
X183558Y109615D01*
D12*
X132230Y125605D02*
X119230Y125605D01*
X119230Y94105D02*
X132230Y94105D01*
D17*
X102730Y117855D02*
X102732Y117918D01*
X102738Y117980D01*
X102748Y118042D01*
X102761Y118104D01*
X102779Y118164D01*
X102800Y118223D01*
X102825Y118281D01*
X102854Y118337D01*
X102886Y118391D01*
X102921Y118443D01*
X102959Y118492D01*
X103001Y118540D01*
X103045Y118584D01*
X103093Y118626D01*
X103142Y118664D01*
X103194Y118699D01*
X103248Y118731D01*
X103304Y118760D01*
X103362Y118785D01*
X103421Y118806D01*
X103481Y118824D01*
X103543Y118837D01*
X103605Y118847D01*
X103667Y118853D01*
X103730Y118855D01*
X103793Y118853D01*
X103855Y118847D01*
X103917Y118837D01*
X103979Y118824D01*
X104039Y118806D01*
X104098Y118785D01*
X104156Y118760D01*
X104212Y118731D01*
X104266Y118699D01*
X104318Y118664D01*
X104367Y118626D01*
X104415Y118584D01*
X104459Y118540D01*
X104501Y118492D01*
X104539Y118443D01*
X104574Y118391D01*
X104606Y118337D01*
X104635Y118281D01*
X104660Y118223D01*
X104681Y118164D01*
X104699Y118104D01*
X104712Y118042D01*
X104722Y117980D01*
X104728Y117918D01*
X104730Y117855D01*
X104728Y117792D01*
X104722Y117730D01*
X104712Y117668D01*
X104699Y117606D01*
X104681Y117546D01*
X104660Y117487D01*
X104635Y117429D01*
X104606Y117373D01*
X104574Y117319D01*
X104539Y117267D01*
X104501Y117218D01*
X104459Y117170D01*
X104415Y117126D01*
X104367Y117084D01*
X104318Y117046D01*
X104266Y117011D01*
X104212Y116979D01*
X104156Y116950D01*
X104098Y116925D01*
X104039Y116904D01*
X103979Y116886D01*
X103917Y116873D01*
X103855Y116863D01*
X103793Y116857D01*
X103730Y116855D01*
X103667Y116857D01*
X103605Y116863D01*
X103543Y116873D01*
X103481Y116886D01*
X103421Y116904D01*
X103362Y116925D01*
X103304Y116950D01*
X103248Y116979D01*
X103194Y117011D01*
X103142Y117046D01*
X103093Y117084D01*
X103045Y117126D01*
X103001Y117170D01*
X102959Y117218D01*
X102921Y117267D01*
X102886Y117319D01*
X102854Y117373D01*
X102825Y117429D01*
X102800Y117487D01*
X102779Y117546D01*
X102761Y117606D01*
X102748Y117668D01*
X102738Y117730D01*
X102732Y117792D01*
X102730Y117855D01*
D12*
X197803Y132715D02*
X207328Y132715D01*
D16*
X191339Y115291D02*
X183973Y115291D01*
X183973Y117337D01*
X183975Y117426D01*
X183981Y117515D01*
X183991Y117604D01*
X184004Y117692D01*
X184021Y117780D01*
X184043Y117867D01*
X184068Y117952D01*
X184096Y118037D01*
X184129Y118120D01*
X184165Y118202D01*
X184204Y118282D01*
X184247Y118360D01*
X184293Y118436D01*
X184343Y118511D01*
X184396Y118583D01*
X184452Y118652D01*
X184511Y118719D01*
X184572Y118784D01*
X184637Y118845D01*
X184704Y118904D01*
X184773Y118960D01*
X184845Y119013D01*
X184920Y119063D01*
X184996Y119109D01*
X185074Y119152D01*
X185154Y119191D01*
X185236Y119227D01*
X185319Y119260D01*
X185404Y119288D01*
X185489Y119313D01*
X185576Y119335D01*
X185664Y119352D01*
X185752Y119365D01*
X185841Y119375D01*
X185930Y119381D01*
X186019Y119383D01*
X186108Y119381D01*
X186197Y119375D01*
X186286Y119365D01*
X186374Y119352D01*
X186462Y119335D01*
X186549Y119313D01*
X186634Y119288D01*
X186719Y119260D01*
X186802Y119227D01*
X186884Y119191D01*
X186964Y119152D01*
X187042Y119109D01*
X187118Y119063D01*
X187193Y119013D01*
X187265Y118960D01*
X187334Y118904D01*
X187401Y118845D01*
X187466Y118784D01*
X187527Y118719D01*
X187586Y118652D01*
X187642Y118583D01*
X187695Y118511D01*
X187745Y118436D01*
X187791Y118360D01*
X187834Y118282D01*
X187873Y118202D01*
X187909Y118120D01*
X187942Y118037D01*
X187970Y117952D01*
X187995Y117867D01*
X188017Y117780D01*
X188034Y117692D01*
X188047Y117604D01*
X188057Y117515D01*
X188063Y117426D01*
X188065Y117337D01*
X188065Y115291D01*
X188065Y117746D02*
X191339Y119383D01*
X185610Y122555D02*
X183973Y124601D01*
X191339Y124601D01*
X191339Y122555D02*
X191339Y126647D01*
X185610Y129870D02*
X183973Y131916D01*
X191339Y131916D01*
X191339Y129870D02*
X191339Y133962D01*
D12*
X84840Y56040D02*
X84840Y41640D01*
X174240Y41640D02*
X174240Y56040D01*
X174240Y14240D02*
X174240Y1940D01*
X84840Y1940D01*
X84840Y14240D01*
D17*
X94540Y91940D02*
X94542Y92003D01*
X94548Y92065D01*
X94558Y92127D01*
X94571Y92189D01*
X94589Y92249D01*
X94610Y92308D01*
X94635Y92366D01*
X94664Y92422D01*
X94696Y92476D01*
X94731Y92528D01*
X94769Y92577D01*
X94811Y92625D01*
X94855Y92669D01*
X94903Y92711D01*
X94952Y92749D01*
X95004Y92784D01*
X95058Y92816D01*
X95114Y92845D01*
X95172Y92870D01*
X95231Y92891D01*
X95291Y92909D01*
X95353Y92922D01*
X95415Y92932D01*
X95477Y92938D01*
X95540Y92940D01*
X95603Y92938D01*
X95665Y92932D01*
X95727Y92922D01*
X95789Y92909D01*
X95849Y92891D01*
X95908Y92870D01*
X95966Y92845D01*
X96022Y92816D01*
X96076Y92784D01*
X96128Y92749D01*
X96177Y92711D01*
X96225Y92669D01*
X96269Y92625D01*
X96311Y92577D01*
X96349Y92528D01*
X96384Y92476D01*
X96416Y92422D01*
X96445Y92366D01*
X96470Y92308D01*
X96491Y92249D01*
X96509Y92189D01*
X96522Y92127D01*
X96532Y92065D01*
X96538Y92003D01*
X96540Y91940D01*
X96538Y91877D01*
X96532Y91815D01*
X96522Y91753D01*
X96509Y91691D01*
X96491Y91631D01*
X96470Y91572D01*
X96445Y91514D01*
X96416Y91458D01*
X96384Y91404D01*
X96349Y91352D01*
X96311Y91303D01*
X96269Y91255D01*
X96225Y91211D01*
X96177Y91169D01*
X96128Y91131D01*
X96076Y91096D01*
X96022Y91064D01*
X95966Y91035D01*
X95908Y91010D01*
X95849Y90989D01*
X95789Y90971D01*
X95727Y90958D01*
X95665Y90948D01*
X95603Y90942D01*
X95540Y90940D01*
X95477Y90942D01*
X95415Y90948D01*
X95353Y90958D01*
X95291Y90971D01*
X95231Y90989D01*
X95172Y91010D01*
X95114Y91035D01*
X95058Y91064D01*
X95004Y91096D01*
X94952Y91131D01*
X94903Y91169D01*
X94855Y91211D01*
X94811Y91255D01*
X94769Y91303D01*
X94731Y91352D01*
X94696Y91404D01*
X94664Y91458D01*
X94635Y91514D01*
X94610Y91572D01*
X94589Y91631D01*
X94571Y91691D01*
X94558Y91753D01*
X94548Y91815D01*
X94542Y91877D01*
X94540Y91940D01*
D12*
X49530Y283845D02*
X205030Y283845D01*
X49530Y283845D02*
X49530Y508845D01*
D18*
X59660Y476670D03*
D19*
X78600Y503340D03*
D20*
X77247Y476570D03*
D21*
X82745Y503340D03*
D22*
X95772Y487700D03*
D21*
X108472Y472406D03*
D22*
X121172Y487700D03*
D21*
X133872Y503067D03*
D22*
X146572Y487727D03*
D21*
X159372Y472287D03*
D22*
X172272Y487554D03*
D21*
X185072Y502894D03*
D23*
X198226Y481658D03*
D12*
X205030Y508905D02*
X49530Y508905D01*
X205530Y508845D02*
X205530Y283845D01*
M02*
