G04 EAGLE Gerber RS-274X export*
G75*
%MOMM*%
%FSLAX34Y34*%
%LPD*%
%INSolderpaste Top*%
%IPPOS*%
%AMOC8*
5,1,8,0,0,1.08239X$1,22.5*%
G01*
%ADD10R,0.260000X0.560000*%
%ADD11R,0.560000X0.260000*%
%ADD12R,0.400000X0.400000*%
%ADD13R,0.550000X1.200000*%
%ADD14R,1.000000X0.900000*%
%ADD15C,0.300000*%
%ADD16R,0.540000X0.600000*%
%ADD17R,1.100000X1.000000*%
%ADD18R,0.600000X0.540000*%
%ADD19R,1.000000X1.100000*%
%ADD20C,0.200000*%
%ADD21C,0.247500*%
%ADD22C,0.147500*%
%ADD23R,0.600000X1.450000*%
%ADD24R,0.300000X1.450000*%
%ADD25R,0.700000X1.500000*%
%ADD26R,1.500000X0.700000*%


D10*
X105940Y141800D03*
X110940Y141800D03*
X115940Y141800D03*
X120940Y141800D03*
X125940Y141800D03*
X130940Y141800D03*
X135940Y141800D03*
D11*
X143940Y149800D03*
X143940Y154800D03*
X143940Y159800D03*
X143940Y164800D03*
X143940Y169800D03*
X143940Y174800D03*
X143940Y179800D03*
D10*
X135940Y187800D03*
X130940Y187800D03*
X125940Y187800D03*
X120940Y187800D03*
X115940Y187800D03*
X110940Y187800D03*
X105940Y187800D03*
D11*
X97940Y179800D03*
X97940Y174800D03*
X97940Y169800D03*
X97940Y164800D03*
X97940Y159800D03*
X97940Y154800D03*
X97940Y149800D03*
D10*
X108440Y154800D03*
X108440Y164800D03*
X108440Y174800D03*
X113440Y154800D03*
X113440Y164800D03*
X113440Y174800D03*
X118440Y154800D03*
X118440Y164800D03*
X118440Y174800D03*
X123440Y154800D03*
X123440Y164800D03*
X123440Y174800D03*
X128440Y154800D03*
X128440Y164800D03*
X128440Y174800D03*
X133440Y154800D03*
X133440Y164800D03*
X133440Y174800D03*
D12*
X99940Y143800D03*
D13*
X193885Y200789D03*
X203385Y200789D03*
X212885Y200789D03*
X212885Y226791D03*
X193885Y226791D03*
D14*
X141075Y246185D03*
X157075Y246185D03*
X157075Y205185D03*
X141075Y205185D03*
X97700Y246185D03*
X113700Y246185D03*
X113700Y205185D03*
X97700Y205185D03*
D15*
X61550Y49205D02*
X61550Y42205D01*
X61550Y49205D02*
X68550Y49205D01*
X68550Y42205D01*
X61550Y42205D01*
X61550Y45055D02*
X68550Y45055D01*
X68550Y47905D02*
X61550Y47905D01*
X44010Y49205D02*
X44010Y42205D01*
X44010Y49205D02*
X51010Y49205D01*
X51010Y42205D01*
X44010Y42205D01*
X44010Y45055D02*
X51010Y45055D01*
X51010Y47905D02*
X44010Y47905D01*
X205720Y50060D02*
X205720Y43060D01*
X205720Y50060D02*
X212720Y50060D01*
X212720Y43060D01*
X205720Y43060D01*
X205720Y45910D02*
X212720Y45910D01*
X212720Y48760D02*
X205720Y48760D01*
X188180Y50060D02*
X188180Y43060D01*
X188180Y50060D02*
X195180Y50060D01*
X195180Y43060D01*
X188180Y43060D01*
X188180Y45910D02*
X195180Y45910D01*
X195180Y48760D02*
X188180Y48760D01*
D16*
X200495Y31925D03*
X209135Y31925D03*
X56945Y31955D03*
X65585Y31955D03*
D17*
X193515Y185675D03*
X210515Y185675D03*
X194540Y241730D03*
X211540Y241730D03*
D14*
X51785Y246185D03*
X67785Y246185D03*
X67785Y205185D03*
X51785Y205185D03*
D18*
X180145Y217250D03*
X180145Y208610D03*
X94020Y111420D03*
X94020Y102780D03*
X94080Y123655D03*
X94080Y132295D03*
X157515Y122385D03*
X157515Y131025D03*
D19*
X173085Y142160D03*
X173085Y159160D03*
D18*
X159115Y161405D03*
X159115Y152765D03*
D20*
X51790Y167565D02*
X42890Y167565D01*
X42890Y169565D01*
X51790Y169565D01*
X51790Y167565D01*
X51790Y169465D02*
X42890Y169465D01*
X42890Y161065D02*
X51790Y161065D01*
X42890Y161065D02*
X42890Y163065D01*
X51790Y163065D01*
X51790Y161065D01*
X51790Y162965D02*
X42890Y162965D01*
X42890Y154565D02*
X51790Y154565D01*
X42890Y154565D02*
X42890Y156565D01*
X51790Y156565D01*
X51790Y154565D01*
X51790Y156465D02*
X42890Y156465D01*
X61290Y156565D02*
X70190Y156565D01*
X70190Y154565D01*
X61290Y154565D01*
X61290Y156565D01*
X61290Y156465D02*
X70190Y156465D01*
X70190Y163065D02*
X61290Y163065D01*
X70190Y163065D02*
X70190Y161065D01*
X61290Y161065D01*
X61290Y163065D01*
X61290Y162965D02*
X70190Y162965D01*
X70190Y169565D02*
X61290Y169565D01*
X70190Y169565D02*
X70190Y167565D01*
X61290Y167565D01*
X61290Y169565D01*
X61290Y169465D02*
X70190Y169465D01*
D18*
X157840Y110150D03*
X157840Y101510D03*
D21*
X120143Y113742D02*
X110217Y113742D01*
X110217Y121168D01*
X120143Y121168D01*
X120143Y113742D01*
X120143Y116093D02*
X110217Y116093D01*
X110217Y118444D02*
X120143Y118444D01*
X120143Y120795D02*
X110217Y120795D01*
D22*
X109717Y98042D02*
X120643Y98042D01*
X109717Y98042D02*
X109717Y102468D01*
X120643Y102468D01*
X120643Y98042D01*
X120643Y99443D02*
X109717Y99443D01*
X109717Y100844D02*
X120643Y100844D01*
X120643Y102245D02*
X109717Y102245D01*
X130817Y98042D02*
X141743Y98042D01*
X130817Y98042D02*
X130817Y102468D01*
X141743Y102468D01*
X141743Y98042D01*
X141743Y99443D02*
X130817Y99443D01*
X130817Y100844D02*
X141743Y100844D01*
X141743Y102245D02*
X130817Y102245D01*
X130817Y117242D02*
X141743Y117242D01*
X130817Y117242D02*
X130817Y121668D01*
X141743Y121668D01*
X141743Y117242D01*
X141743Y118643D02*
X130817Y118643D01*
X130817Y120044D02*
X141743Y120044D01*
X141743Y121445D02*
X130817Y121445D01*
D15*
X199065Y143320D02*
X206065Y143320D01*
X206065Y136320D01*
X199065Y136320D01*
X199065Y143320D01*
X199065Y139170D02*
X206065Y139170D01*
X206065Y142020D02*
X199065Y142020D01*
X199065Y160860D02*
X206065Y160860D01*
X206065Y153860D01*
X199065Y153860D01*
X199065Y160860D01*
X199065Y156710D02*
X206065Y156710D01*
X206065Y159560D02*
X199065Y159560D01*
D18*
X187325Y148465D03*
X187325Y139825D03*
D23*
X97040Y78890D03*
X105040Y78890D03*
D24*
X127040Y78890D03*
X122040Y78890D03*
X117040Y78890D03*
X112040Y78890D03*
X132040Y78890D03*
X137040Y78890D03*
X142040Y78890D03*
X147040Y78890D03*
D23*
X154040Y78890D03*
X162040Y78890D03*
D25*
X82820Y284220D03*
X95520Y284220D03*
X108220Y284220D03*
X120920Y284220D03*
X133620Y284220D03*
X146320Y284220D03*
X159020Y284220D03*
X171720Y284220D03*
D26*
X49920Y307010D03*
X49920Y319710D03*
X49920Y332410D03*
X49920Y345110D03*
X49920Y357810D03*
X49920Y370510D03*
X49920Y383210D03*
X49920Y395910D03*
X49920Y408610D03*
X49920Y421310D03*
X49920Y434010D03*
X205630Y307310D03*
X205630Y320010D03*
X205630Y332710D03*
X205630Y345410D03*
X205630Y358110D03*
X205630Y370810D03*
X205630Y383510D03*
X205630Y396210D03*
X205630Y408910D03*
X205630Y421610D03*
X205630Y434310D03*
M02*
