M48
;GenerationSoftware,Autodesk,EAGLE,9.6.2*%
;CreationDate,2023-07-12T17:07:48Z*%
FMAT,2
ICI,OFF
METRIC,TZ,000.000
T4C0.300
T3C0.650
T2C0.700
T1C1.016
%
G90
M71
T1
X24257Y26293
X1429Y10974
X24257Y38993
X24257Y41533
X1429Y3354
X1429Y5894
X1429Y8434
X1429Y13514
X1429Y16054
X1429Y18594
X1429Y21134
X1429Y23674
X1429Y26214
X1429Y28754
X1429Y31294
X1429Y33834
X1429Y36374
X1429Y38914
X1429Y41454
X24257Y3433
X24257Y5973
X24257Y8513
X24257Y11053
X24257Y13593
X24257Y16133
X24257Y18673
X24257Y21213
X24257Y23753
X24257Y28833
X24257Y31373
X24257Y33913
X24257Y36453
T2
X10064Y6444
X15844Y6444
T3
X8634Y6974
X17274Y6974
X8634Y2794
X17274Y2794
T4
X13335Y29718
X8509Y16701
X8509Y15748
X3810Y24066
X4255Y23241
X12573Y26225
X7620Y31305
X9779Y22542
X17145Y29718
X14097Y25971
X9208Y14160
X17907Y41974
X17907Y39434
X17907Y36513
X17907Y32448
X6286Y32004
X15367Y32448
X15367Y30035
X9779Y31940
X12827Y31940
X8255Y26225
X8255Y23431
X8255Y20003
X5842Y18860
X5842Y13652
X5842Y8573
X21971Y15938
X21971Y12890
X22098Y10605
X8509Y38037
X7366Y42228
X4191Y26733
X4445Y29654
X21273Y21209
X17018Y20892
X14160Y11049
X16828Y10097
X10922Y30861
X14541Y13970
X16701Y18542
X12700Y5524
X14224Y5524
X10414Y10668
X8446Y36576
X19431Y25527
X17336Y13081
X19431Y21527
X12128Y30353
M30